<svg width="1241" height="98" viewBox="0 0 1241 98" fill="none" xmlns="http://www.w3.org/2000/svg">
<path d="M19.2873 9.5C19.0138 8.66312 18.6534 7.91323 18.206 7.25036C17.7668 6.57919 17.2406 6.00746 16.6275 5.53516C16.0226 5.06285 15.3349 4.70241 14.5643 4.45383C13.7937 4.20525 12.9485 4.08097 12.0288 4.08097C10.5207 4.08097 9.14937 4.47041 7.91476 5.24929C6.68015 6.02817 5.69826 7.17578 4.96909 8.69212C4.23993 10.2085 3.87534 12.0687 3.87534 14.2727C3.87534 16.4768 4.24407 18.337 4.98152 19.8533C5.71898 21.3697 6.71744 22.5173 7.97691 23.2962C9.23638 24.075 10.6533 24.4645 12.2276 24.4645C13.686 24.4645 14.9703 24.1538 16.0806 23.5323C17.1992 22.9026 18.0692 22.016 18.6907 20.8725C19.3204 19.7208 19.6353 18.366 19.6353 16.8082L20.5799 17.0071H12.9236V14.2727H22.6182V17.0071C22.6182 19.1035 22.1708 20.9264 21.2759 22.4759C20.3893 24.0253 19.163 25.2268 17.5969 26.0803C16.0392 26.9254 14.2494 27.348 12.2276 27.348C9.97383 27.348 7.99348 26.8177 6.28657 25.7571C4.58794 24.6965 3.26218 23.1884 2.30929 21.233C1.36469 19.2775 0.89239 16.9574 0.89239 14.2727C0.89239 12.2592 1.16168 10.4487 1.70027 8.84126C2.24715 7.2255 3.01774 5.85002 4.01206 4.71484C5.00638 3.57966 6.18299 2.70964 7.54189 2.10476C8.90079 1.49988 10.3964 1.19744 12.0288 1.19744C13.3711 1.19744 14.6223 1.40045 15.7823 1.80646C16.9506 2.20419 17.9905 2.77178 18.902 3.50923C19.8217 4.2384 20.5882 5.11257 21.2013 6.13175C21.8145 7.14264 22.2371 8.26539 22.4691 9.5H19.2873ZM33.8057 34.5568C32.3888 34.5568 31.1707 34.3745 30.1516 34.0099C29.1324 33.6536 28.2831 33.1813 27.6036 32.593C26.9325 32.013 26.398 31.3916 26.0003 30.7287L28.3369 29.0881C28.6021 29.4361 28.9377 29.8338 29.3437 30.2812C29.7497 30.737 30.3049 31.1306 31.0092 31.462C31.7218 31.8017 32.6539 31.9716 33.8057 31.9716C35.3469 31.9716 36.6188 31.5987 37.6214 30.853C38.624 30.1072 39.1253 28.9389 39.1253 27.348V23.4702H38.8767C38.6613 23.8182 38.3547 24.2491 37.957 24.7628C37.5675 25.2682 37.0041 25.7198 36.2666 26.1175C35.5375 26.507 34.5514 26.7017 33.3085 26.7017C31.7673 26.7017 30.3836 26.3371 29.1572 25.608C27.9392 24.8788 26.9739 23.8182 26.2613 22.4261C25.557 21.0341 25.2048 19.3437 25.2048 17.3551C25.2048 15.3996 25.5487 13.6969 26.2364 12.2468C26.9242 10.7885 27.8812 9.66158 29.1075 8.86612C30.3339 8.06238 31.7508 7.66051 33.3582 7.66051C34.6011 7.66051 35.5872 7.86766 36.3163 8.28196C37.0538 8.68797 37.6172 9.15199 38.0067 9.674C38.4044 10.1877 38.711 10.6103 38.9264 10.9418H39.2247V7.90909H42.0585V27.5469C42.0585 29.1875 41.6857 30.5215 40.9399 31.549C40.2025 32.5848 39.2081 33.3429 37.957 33.8235C36.7141 34.3124 35.3303 34.5568 33.8057 34.5568ZM33.7063 24.0668C34.8829 24.0668 35.8772 23.7975 36.6892 23.2589C37.5012 22.7203 38.1185 21.9455 38.5411 20.9347C38.9637 19.9238 39.175 18.714 39.175 17.3054C39.175 15.9299 38.9679 14.716 38.5536 13.6637C38.1393 12.6114 37.5261 11.7869 36.7141 11.1903C35.902 10.5937 34.8994 10.2955 33.7063 10.2955C32.4634 10.2955 31.4276 10.6103 30.599 11.2401C29.7787 11.8698 29.1614 12.715 28.7471 13.7756C28.3411 14.8362 28.1381 16.0128 28.1381 17.3054C28.1381 18.6312 28.3452 19.8036 28.7595 20.8228C29.1821 21.8337 29.8036 22.6291 30.6239 23.2092C31.4525 23.7809 32.4799 24.0668 33.7063 24.0668ZM48.1656 27.1989C47.5525 27.1989 47.0263 26.9793 46.5871 26.5401C46.148 26.101 45.9284 25.5748 45.9284 24.9616C45.9284 24.3485 46.148 23.8223 46.5871 23.3832C47.0263 22.944 47.5525 22.7244 48.1656 22.7244C48.7788 22.7244 49.305 22.944 49.7441 23.3832C50.1833 23.8223 50.4028 24.3485 50.4028 24.9616C50.4028 25.3677 50.2993 25.7405 50.0921 26.0803C49.8933 26.42 49.624 26.6934 49.2842 26.9006C48.9528 27.0994 48.5799 27.1989 48.1656 27.1989ZM77.0284 7.90909C76.8793 6.64962 76.2744 5.67188 75.2138 4.97585C74.1532 4.27983 72.8523 3.93182 71.3111 3.93182C70.1842 3.93182 69.1982 4.11411 68.353 4.47869C67.5161 4.84328 66.8615 5.34458 66.3892 5.9826C65.9252 6.62062 65.6932 7.34564 65.6932 8.15767C65.6932 8.83712 65.8548 9.42128 66.1779 9.91016C66.5094 10.3907 66.932 10.7926 67.4457 11.1158C67.9594 11.4306 68.498 11.6916 69.0615 11.8988C69.6249 12.0977 70.1428 12.2592 70.6151 12.3835L73.2003 13.0795C73.8632 13.2536 74.6007 13.4938 75.4127 13.8004C76.233 14.107 77.016 14.5254 77.7618 15.0558C78.5158 15.5778 79.1372 16.2489 79.6261 17.0692C80.115 17.8896 80.3594 18.8963 80.3594 20.0895C80.3594 21.465 79.999 22.7079 79.2781 23.8182C78.5655 24.9285 77.5215 25.811 76.146 26.4656C74.7788 27.1201 73.1175 27.4474 71.162 27.4474C69.3391 27.4474 67.7606 27.1533 66.4265 26.565C65.1008 25.9767 64.0567 25.1564 63.2944 24.104C62.5404 23.0517 62.1137 21.8295 62.0142 20.4375H65.1961C65.2789 21.3987 65.6021 22.1941 66.1655 22.8239C66.7373 23.4453 67.4581 23.9093 68.3282 24.2159C69.2065 24.5142 70.1511 24.6634 71.162 24.6634C72.3386 24.6634 73.395 24.4728 74.3314 24.0916C75.2677 23.7022 76.0093 23.1636 76.5561 22.4759C77.103 21.7798 77.3765 20.9678 77.3765 20.0398C77.3765 19.1946 77.1403 18.5069 76.668 17.9766C76.1957 17.4463 75.5743 17.0154 74.8037 16.6839C74.0331 16.3525 73.2003 16.0625 72.3054 15.8139L69.1733 14.919C67.1847 14.3473 65.6104 13.5311 64.4503 12.4705C63.2903 11.4099 62.7103 10.022 62.7103 8.30682C62.7103 6.88163 63.0956 5.63873 63.8662 4.57812C64.645 3.50923 65.6891 2.68063 66.9983 2.09233C68.3157 1.49574 69.7865 1.19744 71.4105 1.19744C73.0512 1.19744 74.5095 1.49159 75.7855 2.0799C77.0616 2.65992 78.0725 3.45537 78.8182 4.46626C79.5722 5.47715 79.97 6.62476 80.0114 7.90909H77.0284ZM91.3853 27.3977C89.6618 27.3977 88.1496 26.9876 86.8487 26.1673C85.5561 25.3469 84.5452 24.1993 83.816 22.7244C83.0952 21.2495 82.7347 19.526 82.7347 17.554C82.7347 15.5653 83.0952 13.8294 83.816 12.3462C84.5452 10.863 85.5561 9.71129 86.8487 8.89098C88.1496 8.07067 89.6618 7.66051 91.3853 7.66051C93.1088 7.66051 94.6168 8.07067 95.9094 8.89098C97.2103 9.71129 98.2212 10.863 98.9421 12.3462C99.6713 13.8294 100.036 15.5653 100.036 17.554C100.036 19.526 99.6713 21.2495 98.9421 22.7244C98.2212 24.1993 97.2103 25.3469 95.9094 26.1673C94.6168 26.9876 93.1088 27.3977 91.3853 27.3977ZM91.3853 24.7628C92.6945 24.7628 93.7717 24.4272 94.6168 23.756C95.462 23.0849 96.0876 22.2024 96.4936 21.1087C96.8996 20.0149 97.1026 18.83 97.1026 17.554C97.1026 16.2779 96.8996 15.0889 96.4936 13.9869C96.0876 12.8848 95.462 11.9941 94.6168 11.3146C93.7717 10.6352 92.6945 10.2955 91.3853 10.2955C90.0761 10.2955 88.9989 10.6352 88.1538 11.3146C87.3086 11.9941 86.683 12.8848 86.277 13.9869C85.871 15.0889 85.668 16.2779 85.668 17.554C85.668 18.83 85.871 20.0149 86.277 21.1087C86.683 22.2024 87.3086 23.0849 88.1538 23.756C88.9989 24.4272 90.0761 24.7628 91.3853 24.7628ZM105.848 20.0398L105.798 16.4105H106.395L114.747 7.90909H118.376L109.477 16.9077H109.228L105.848 20.0398ZM103.113 27V1.54545H106.047V27H103.113ZM115.244 27L107.787 17.554L109.875 15.5156L118.973 27H115.244ZM126.369 27.4474C125.16 27.4474 124.062 27.2196 123.076 26.7638C122.09 26.2998 121.307 25.6328 120.727 24.7628C120.147 23.8845 119.857 22.8239 119.857 21.581C119.857 20.4872 120.072 19.6006 120.503 18.9212C120.934 18.2334 121.51 17.6948 122.231 17.3054C122.951 16.916 123.747 16.6259 124.617 16.4354C125.495 16.2365 126.378 16.0791 127.264 15.9631C128.424 15.8139 129.365 15.7021 130.086 15.6275C130.815 15.5446 131.345 15.4079 131.677 15.2173C132.016 15.0268 132.186 14.6953 132.186 14.223V14.1236C132.186 12.8973 131.851 11.9444 131.179 11.2649C130.517 10.5855 129.51 10.2457 128.159 10.2457C126.759 10.2457 125.661 10.5523 124.865 11.1655C124.07 11.7786 123.511 12.4332 123.188 13.1293L120.403 12.1349C120.901 10.9749 121.564 10.0717 122.392 9.42543C123.229 8.77083 124.14 8.3151 125.126 8.05824C126.121 7.79309 127.099 7.66051 128.06 7.66051C128.673 7.66051 129.377 7.73508 130.173 7.88423C130.976 8.02509 131.751 8.31925 132.497 8.76669C133.251 9.21413 133.876 9.88944 134.374 10.7926C134.871 11.6958 135.119 12.9055 135.119 14.4219V27H132.186V24.4148H132.037C131.838 24.8291 131.507 25.2724 131.043 25.7447C130.579 26.217 129.961 26.6188 129.191 26.9503C128.42 27.2817 127.48 27.4474 126.369 27.4474ZM126.817 24.8125C127.977 24.8125 128.955 24.5846 129.75 24.1289C130.554 23.6732 131.159 23.0849 131.565 22.364C131.979 21.6431 132.186 20.8849 132.186 20.0895V17.4048C132.062 17.554 131.788 17.6907 131.366 17.815C130.952 17.931 130.471 18.0346 129.924 18.1257C129.385 18.2086 128.859 18.2831 128.346 18.3494C127.84 18.4074 127.43 18.4571 127.115 18.4986C126.353 18.598 125.64 18.7596 124.977 18.9833C124.323 19.1987 123.792 19.526 123.386 19.9652C122.989 20.3961 122.79 20.9844 122.79 21.7301C122.79 22.7493 123.167 23.5199 123.921 24.0419C124.683 24.5556 125.648 24.8125 126.817 24.8125ZM143.448 23.5199L143.249 24.8622C143.108 25.8068 142.893 26.8177 142.603 27.8949C142.321 28.9721 142.027 29.9871 141.721 30.94C141.414 31.8929 141.161 32.651 140.962 33.2145H138.725C138.833 32.6842 138.974 31.984 139.148 31.114C139.322 30.244 139.496 29.2704 139.67 28.1932C139.852 27.1243 140.001 26.0305 140.117 24.9119L140.266 23.5199H143.448ZM156.324 27V1.54545H165.223C166.997 1.54545 168.459 1.85204 169.611 2.4652C170.763 3.07007 171.62 3.88624 172.184 4.91371C172.747 5.93288 173.029 7.06392 173.029 8.30682C173.029 9.40057 172.834 10.3037 172.445 11.0163C172.063 11.7289 171.558 12.2924 170.928 12.7067C170.307 13.121 169.631 13.4276 168.902 13.6264V13.875C169.681 13.9247 170.464 14.1982 171.251 14.6953C172.039 15.1925 172.697 15.9051 173.228 16.8331C173.758 17.7611 174.023 18.8963 174.023 20.2386C174.023 21.5147 173.733 22.6623 173.153 23.6815C172.573 24.7006 171.657 25.5085 170.406 26.1051C169.155 26.7017 167.527 27 165.522 27H156.324ZM159.407 24.2656H165.522C167.535 24.2656 168.964 23.8762 169.81 23.0973C170.663 22.3101 171.09 21.3572 171.09 20.2386C171.09 19.3769 170.87 18.5814 170.431 17.8523C169.992 17.1148 169.366 16.5265 168.554 16.0874C167.742 15.6399 166.781 15.4162 165.671 15.4162H159.407V24.2656ZM159.407 12.7315H165.124C166.052 12.7315 166.889 12.5492 167.635 12.1847C168.389 11.8201 168.985 11.3063 169.424 10.6435C169.872 9.98059 170.096 9.2017 170.096 8.30682C170.096 7.18821 169.706 6.23946 168.927 5.46058C168.148 4.67341 166.914 4.27983 165.223 4.27983H159.407V12.7315ZM185.046 27.3977C183.322 27.3977 181.81 26.9876 180.509 26.1673C179.217 25.3469 178.206 24.1993 177.477 22.7244C176.756 21.2495 176.395 19.526 176.395 17.554C176.395 15.5653 176.756 13.8294 177.477 12.3462C178.206 10.863 179.217 9.71129 180.509 8.89098C181.81 8.07067 183.322 7.66051 185.046 7.66051C186.769 7.66051 188.277 8.07067 189.57 8.89098C190.871 9.71129 191.882 10.863 192.603 12.3462C193.332 13.8294 193.696 15.5653 193.696 17.554C193.696 19.526 193.332 21.2495 192.603 22.7244C191.882 24.1993 190.871 25.3469 189.57 26.1673C188.277 26.9876 186.769 27.3977 185.046 27.3977ZM185.046 24.7628C186.355 24.7628 187.432 24.4272 188.277 23.756C189.123 23.0849 189.748 22.2024 190.154 21.1087C190.56 20.0149 190.763 18.83 190.763 17.554C190.763 16.2779 190.56 15.0889 190.154 13.9869C189.748 12.8848 189.123 11.9941 188.277 11.3146C187.432 10.6352 186.355 10.2955 185.046 10.2955C183.737 10.2955 182.659 10.6352 181.814 11.3146C180.969 11.9941 180.344 12.8848 179.938 13.9869C179.532 15.0889 179.329 16.2779 179.329 17.554C179.329 18.83 179.532 20.0149 179.938 21.1087C180.344 22.2024 180.969 23.0849 181.814 23.756C182.659 24.4272 183.737 24.7628 185.046 24.7628ZM203.983 27.3977C202.392 27.3977 200.987 26.9959 199.769 26.1921C198.551 25.3801 197.598 24.2366 196.911 22.7617C196.223 21.2785 195.879 19.526 195.879 17.5043C195.879 15.4991 196.223 13.759 196.911 12.2841C197.598 10.8092 198.555 9.66986 199.782 8.86612C201.008 8.06238 202.425 7.66051 204.032 7.66051C205.275 7.66051 206.257 7.86766 206.978 8.28196C207.707 8.68797 208.262 9.15199 208.644 9.674C209.033 10.1877 209.336 10.6103 209.551 10.9418H209.8V1.54545H212.733V27H209.899V24.0668H209.551C209.336 24.4148 209.029 24.8539 208.631 25.3842C208.233 25.9062 207.666 26.3744 206.928 26.7887C206.191 27.1947 205.209 27.3977 203.983 27.3977ZM204.38 24.7628C205.557 24.7628 206.551 24.4562 207.363 23.843C208.175 23.2216 208.793 22.364 209.215 21.2702C209.638 20.1682 209.849 18.8963 209.849 17.4545C209.849 16.0294 209.642 14.7823 209.228 13.7134C208.813 12.6362 208.2 11.7994 207.388 11.2028C206.576 10.5979 205.574 10.2955 204.38 10.2955C203.138 10.2955 202.102 10.6145 201.273 11.2525C200.453 11.8822 199.836 12.7398 199.421 13.8253C199.015 14.9025 198.812 16.1122 198.812 17.4545C198.812 18.8134 199.019 20.0481 199.434 21.1584C199.856 22.2604 200.478 23.1387 201.298 23.7933C202.127 24.4396 203.154 24.7628 204.38 24.7628ZM224.868 27.3977C223.144 27.3977 221.632 26.9876 220.331 26.1673C219.039 25.3469 218.028 24.1993 217.299 22.7244C216.578 21.2495 216.217 19.526 216.217 17.554C216.217 15.5653 216.578 13.8294 217.299 12.3462C218.028 10.863 219.039 9.71129 220.331 8.89098C221.632 8.07067 223.144 7.66051 224.868 7.66051C226.591 7.66051 228.099 8.07067 229.392 8.89098C230.693 9.71129 231.704 10.863 232.425 12.3462C233.154 13.8294 233.518 15.5653 233.518 17.554C233.518 19.526 233.154 21.2495 232.425 22.7244C231.704 24.1993 230.693 25.3469 229.392 26.1673C228.099 26.9876 226.591 27.3977 224.868 27.3977ZM224.868 24.7628C226.177 24.7628 227.254 24.4272 228.099 23.756C228.945 23.0849 229.57 22.2024 229.976 21.1087C230.382 20.0149 230.585 18.83 230.585 17.554C230.585 16.2779 230.382 15.0889 229.976 13.9869C229.57 12.8848 228.945 11.9941 228.099 11.3146C227.254 10.6352 226.177 10.2955 224.868 10.2955C223.559 10.2955 222.482 10.6352 221.636 11.3146C220.791 11.9941 220.166 12.8848 219.76 13.9869C219.354 15.0889 219.151 16.2779 219.151 17.554C219.151 18.83 219.354 20.0149 219.76 21.1087C220.166 22.2024 220.791 23.0849 221.636 23.756C222.482 24.4272 223.559 24.7628 224.868 24.7628ZM239.529 15.5156V27H236.596V7.90909H239.43V10.892H239.678C240.126 9.92259 240.805 9.1437 241.717 8.5554C242.628 7.95881 243.805 7.66051 245.247 7.66051C246.539 7.66051 247.67 7.92566 248.64 8.45597C249.609 8.97798 250.363 9.77344 250.902 10.8423C251.44 11.9029 251.71 13.2453 251.71 14.8693V27H248.776V15.0682C248.776 13.5684 248.387 12.4001 247.608 11.5632C246.829 10.718 245.76 10.2955 244.401 10.2955C243.465 10.2955 242.628 10.4985 241.891 10.9045C241.162 11.3105 240.586 11.9029 240.163 12.6818C239.741 13.4607 239.529 14.4053 239.529 15.5156ZM260.045 23.5199L259.846 24.8622C259.705 25.8068 259.489 26.8177 259.199 27.8949C258.918 28.9721 258.624 29.9871 258.317 30.94C258.01 31.8929 257.758 32.651 257.559 33.2145H255.322C255.429 32.6842 255.57 31.984 255.744 31.114C255.918 30.244 256.092 29.2704 256.266 28.1932C256.449 27.1243 256.598 26.0305 256.714 24.9119L256.863 23.5199H260.045ZM282.665 1.54545H285.747V19.7415C285.747 21.3655 285.449 22.7451 284.853 23.8803C284.256 25.0155 283.415 25.8772 282.329 26.4656C281.244 27.0539 279.964 27.348 278.489 27.348C277.097 27.348 275.858 27.0953 274.773 26.5898C273.687 26.0761 272.834 25.3469 272.212 24.4023C271.591 23.4577 271.28 22.335 271.28 21.0341H274.313C274.313 21.755 274.491 22.3847 274.847 22.9233C275.212 23.4536 275.709 23.8679 276.339 24.1662C276.968 24.4645 277.685 24.6136 278.489 24.6136C279.375 24.6136 280.13 24.4272 280.751 24.0543C281.372 23.6815 281.845 23.1346 282.168 22.4137C282.499 21.6845 282.665 20.7938 282.665 19.7415V1.54545ZM295.745 27.4474C294.535 27.4474 293.437 27.2196 292.451 26.7638C291.465 26.2998 290.682 25.6328 290.102 24.7628C289.522 23.8845 289.232 22.8239 289.232 21.581C289.232 20.4872 289.447 19.6006 289.878 18.9212C290.309 18.2334 290.885 17.6948 291.606 17.3054C292.327 16.916 293.122 16.6259 293.992 16.4354C294.871 16.2365 295.753 16.0791 296.64 15.9631C297.8 15.8139 298.74 15.7021 299.461 15.6275C300.19 15.5446 300.72 15.4079 301.052 15.2173C301.392 15.0268 301.562 14.6953 301.562 14.223V14.1236C301.562 12.8973 301.226 11.9444 300.555 11.2649C299.892 10.5855 298.885 10.2457 297.535 10.2457C296.134 10.2457 295.036 10.5523 294.241 11.1655C293.445 11.7786 292.886 12.4332 292.563 13.1293L289.779 12.1349C290.276 10.9749 290.939 10.0717 291.767 9.42543C292.604 8.77083 293.516 8.3151 294.502 8.05824C295.496 7.79309 296.474 7.66051 297.435 7.66051C298.048 7.66051 298.753 7.73508 299.548 7.88423C300.352 8.02509 301.127 8.31925 301.872 8.76669C302.626 9.21413 303.252 9.88944 303.749 10.7926C304.246 11.6958 304.495 12.9055 304.495 14.4219V27H301.562V24.4148H301.412C301.214 24.8291 300.882 25.2724 300.418 25.7447C299.954 26.217 299.337 26.6188 298.566 26.9503C297.796 27.2817 296.855 27.4474 295.745 27.4474ZM296.192 24.8125C297.352 24.8125 298.33 24.5846 299.125 24.1289C299.929 23.6732 300.534 23.0849 300.94 22.364C301.354 21.6431 301.562 20.8849 301.562 20.0895V17.4048C301.437 17.554 301.164 17.6907 300.741 17.815C300.327 17.931 299.846 18.0346 299.299 18.1257C298.761 18.2086 298.235 18.2831 297.721 18.3494C297.216 18.4074 296.805 18.4571 296.49 18.4986C295.728 18.598 295.016 18.7596 294.353 18.9833C293.698 19.1987 293.168 19.526 292.762 19.9652C292.364 20.3961 292.165 20.9844 292.165 21.7301C292.165 22.7493 292.542 23.5199 293.296 24.0419C294.059 24.5556 295.024 24.8125 296.192 24.8125ZM316.155 34.5568C314.738 34.5568 313.52 34.3745 312.5 34.0099C311.481 33.6536 310.632 33.1813 309.952 32.593C309.281 32.013 308.747 31.3916 308.349 30.7287L310.686 29.0881C310.951 29.4361 311.286 29.8338 311.693 30.2812C312.099 30.737 312.654 31.1306 313.358 31.462C314.071 31.8017 315.003 31.9716 316.155 31.9716C317.696 31.9716 318.968 31.5987 319.97 30.853C320.973 30.1072 321.474 28.9389 321.474 27.348V23.4702H321.226C321.01 23.8182 320.704 24.2491 320.306 24.7628C319.916 25.2682 319.353 25.7198 318.615 26.1175C317.886 26.507 316.9 26.7017 315.657 26.7017C314.116 26.7017 312.732 26.3371 311.506 25.608C310.288 24.8788 309.323 23.8182 308.61 22.4261C307.906 21.0341 307.554 19.3437 307.554 17.3551C307.554 15.3996 307.898 13.6969 308.585 12.2468C309.273 10.7885 310.23 9.66158 311.456 8.86612C312.683 8.06238 314.1 7.66051 315.707 7.66051C316.95 7.66051 317.936 7.86766 318.665 8.28196C319.403 8.68797 319.966 9.15199 320.356 9.674C320.753 10.1877 321.06 10.6103 321.275 10.9418H321.574V7.90909H324.407V27.5469C324.407 29.1875 324.034 30.5215 323.289 31.549C322.551 32.5848 321.557 33.3429 320.306 33.8235C319.063 34.3124 317.679 34.5568 316.155 34.5568ZM316.055 24.0668C317.232 24.0668 318.226 23.7975 319.038 23.2589C319.85 22.7203 320.467 21.9455 320.89 20.9347C321.313 19.9238 321.524 18.714 321.524 17.3054C321.524 15.9299 321.317 14.716 320.902 13.6637C320.488 12.6114 319.875 11.7869 319.063 11.1903C318.251 10.5937 317.248 10.2955 316.055 10.2955C314.812 10.2955 313.776 10.6103 312.948 11.2401C312.128 11.8698 311.51 12.715 311.096 13.7756C310.69 14.8362 310.487 16.0128 310.487 17.3054C310.487 18.6312 310.694 19.8036 311.108 20.8228C311.531 21.8337 312.152 22.6291 312.973 23.2092C313.801 23.7809 314.829 24.0668 316.055 24.0668ZM333.995 27.4474C332.785 27.4474 331.687 27.2196 330.701 26.7638C329.715 26.2998 328.932 25.6328 328.352 24.7628C327.772 23.8845 327.482 22.8239 327.482 21.581C327.482 20.4872 327.697 19.6006 328.128 18.9212C328.559 18.2334 329.135 17.6948 329.856 17.3054C330.577 16.916 331.372 16.6259 332.242 16.4354C333.12 16.2365 334.003 16.0791 334.889 15.9631C336.049 15.8139 336.99 15.7021 337.711 15.6275C338.44 15.5446 338.97 15.4079 339.302 15.2173C339.641 15.0268 339.811 14.6953 339.811 14.223V14.1236C339.811 12.8973 339.476 11.9444 338.805 11.2649C338.142 10.5855 337.135 10.2457 335.784 10.2457C334.384 10.2457 333.286 10.5523 332.491 11.1655C331.695 11.7786 331.136 12.4332 330.813 13.1293L328.029 12.1349C328.526 10.9749 329.189 10.0717 330.017 9.42543C330.854 8.77083 331.766 8.3151 332.752 8.05824C333.746 7.79309 334.724 7.66051 335.685 7.66051C336.298 7.66051 337.002 7.73508 337.798 7.88423C338.602 8.02509 339.376 8.31925 340.122 8.76669C340.876 9.21413 341.502 9.88944 341.999 10.7926C342.496 11.6958 342.745 12.9055 342.745 14.4219V27H339.811V24.4148H339.662C339.463 24.8291 339.132 25.2724 338.668 25.7447C338.204 26.217 337.587 26.6188 336.816 26.9503C336.045 27.2817 335.105 27.4474 333.995 27.4474ZM334.442 24.8125C335.602 24.8125 336.58 24.5846 337.375 24.1289C338.179 23.6732 338.784 23.0849 339.19 22.364C339.604 21.6431 339.811 20.8849 339.811 20.0895V17.4048C339.687 17.554 339.414 17.6907 338.991 17.815C338.577 17.931 338.096 18.0346 337.549 18.1257C337.011 18.2086 336.485 18.2831 335.971 18.3494C335.465 18.4074 335.055 18.4571 334.74 18.4986C333.978 18.598 333.265 18.7596 332.603 18.9833C331.948 19.1987 331.418 19.526 331.012 19.9652C330.614 20.3961 330.415 20.9844 330.415 21.7301C330.415 22.7493 330.792 23.5199 331.546 24.0419C332.308 24.5556 333.274 24.8125 334.442 24.8125ZM349.632 1.54545V27H346.698V1.54545H349.632ZM359.222 27.4474C358.012 27.4474 356.914 27.2196 355.928 26.7638C354.942 26.2998 354.159 25.6328 353.579 24.7628C352.999 23.8845 352.709 22.8239 352.709 21.581C352.709 20.4872 352.925 19.6006 353.355 18.9212C353.786 18.2334 354.362 17.6948 355.083 17.3054C355.804 16.916 356.599 16.6259 357.469 16.4354C358.348 16.2365 359.23 16.0791 360.117 15.9631C361.277 15.8139 362.217 15.7021 362.938 15.6275C363.667 15.5446 364.198 15.4079 364.529 15.2173C364.869 15.0268 365.039 14.6953 365.039 14.223V14.1236C365.039 12.8973 364.703 11.9444 364.032 11.2649C363.369 10.5855 362.362 10.2457 361.012 10.2457C359.611 10.2457 358.513 10.5523 357.718 11.1655C356.923 11.7786 356.363 12.4332 356.04 13.1293L353.256 12.1349C353.753 10.9749 354.416 10.0717 355.245 9.42543C356.082 8.77083 356.993 8.3151 357.979 8.05824C358.973 7.79309 359.951 7.66051 360.912 7.66051C361.525 7.66051 362.23 7.73508 363.025 7.88423C363.829 8.02509 364.604 8.31925 365.349 8.76669C366.103 9.21413 366.729 9.88944 367.226 10.7926C367.723 11.6958 367.972 12.9055 367.972 14.4219V27H365.039V24.4148H364.89C364.691 24.8291 364.359 25.2724 363.895 25.7447C363.431 26.217 362.814 26.6188 362.043 26.9503C361.273 27.2817 360.332 27.4474 359.222 27.4474ZM359.669 24.8125C360.829 24.8125 361.807 24.5846 362.603 24.1289C363.406 23.6732 364.011 23.0849 364.417 22.364C364.832 21.6431 365.039 20.8849 365.039 20.0895V17.4048C364.914 17.554 364.641 17.6907 364.218 17.815C363.804 17.931 363.323 18.0346 362.777 18.1257C362.238 18.2086 361.712 18.2831 361.198 18.3494C360.693 18.4074 360.283 18.4571 359.968 18.4986C359.205 18.598 358.493 18.7596 357.83 18.9833C357.175 19.1987 356.645 19.526 356.239 19.9652C355.841 20.3961 355.642 20.9844 355.642 21.7301C355.642 22.7493 356.019 23.5199 356.773 24.0419C357.536 24.5556 358.501 24.8125 359.669 24.8125ZM374.859 15.5156V27H371.926V7.90909H374.759V10.892H375.008C375.456 9.92259 376.135 9.1437 377.046 8.5554C377.958 7.95881 379.134 7.66051 380.576 7.66051C381.869 7.66051 383 7.92566 383.969 8.45597C384.939 8.97798 385.693 9.77344 386.231 10.8423C386.77 11.9029 387.039 13.2453 387.039 14.8693V27H384.106V15.0682C384.106 13.5684 383.717 12.4001 382.938 11.5632C382.159 10.718 381.09 10.2955 379.731 10.2955C378.795 10.2955 377.958 10.4985 377.22 10.9045C376.491 11.3105 375.915 11.9029 375.493 12.6818C375.07 13.4607 374.859 14.4053 374.859 15.5156ZM395.374 23.5199L395.175 24.8622C395.035 25.8068 394.819 26.8177 394.529 27.8949C394.247 28.9721 393.953 29.9871 393.647 30.94C393.34 31.8929 393.087 32.651 392.889 33.2145H390.651C390.759 32.6842 390.9 31.984 391.074 31.114C391.248 30.244 391.422 29.2704 391.596 28.1932C391.778 27.1243 391.927 26.0305 392.043 24.9119L392.193 23.5199H395.374ZM408.25 27V1.54545H411.333V14.1733H411.631L423.066 1.54545H427.093L416.404 13.0298L427.093 27H423.364L414.515 15.1676L411.333 18.7472V27H408.25ZM435.888 27.3977C434.048 27.3977 432.461 26.9917 431.127 26.1797C429.802 25.3594 428.778 24.2159 428.057 22.7493C427.345 21.2744 426.988 19.5592 426.988 17.6037C426.988 15.6482 427.345 13.9247 428.057 12.4332C428.778 10.9335 429.781 9.76515 431.065 8.92827C432.358 8.0831 433.866 7.66051 435.589 7.66051C436.584 7.66051 437.566 7.82623 438.535 8.15767C439.504 8.48911 440.387 9.0277 441.182 9.77344C441.978 10.5109 442.612 11.4886 443.084 12.7067C443.556 13.9247 443.792 15.4245 443.792 17.206V18.4489H429.077V15.9134H440.809C440.809 14.8362 440.594 13.875 440.163 13.0298C439.741 12.1847 439.136 11.5176 438.349 11.0288C437.57 10.5399 436.65 10.2955 435.589 10.2955C434.421 10.2955 433.41 10.5855 432.557 11.1655C431.711 11.7372 431.061 12.483 430.605 13.4027C430.15 14.3224 429.922 15.3085 429.922 16.3608V18.0511C429.922 19.4929 430.17 20.7151 430.667 21.7177C431.173 22.712 431.873 23.4702 432.768 23.9922C433.663 24.5059 434.703 24.7628 435.888 24.7628C436.658 24.7628 437.354 24.6551 437.976 24.4396C438.605 24.2159 439.148 23.8845 439.604 23.4453C440.06 22.9979 440.412 22.4427 440.66 21.7798L443.494 22.5753C443.196 23.5365 442.695 24.3816 441.99 25.1108C441.286 25.8317 440.416 26.3951 439.38 26.8011C438.344 27.1989 437.18 27.3977 435.888 27.3977ZM454.61 27.3977C452.82 27.3977 451.279 26.9751 449.987 26.13C448.694 25.2848 447.7 24.1206 447.004 22.6374C446.308 21.1542 445.96 19.4598 445.96 17.554C445.96 15.6151 446.316 13.904 447.028 12.4208C447.749 10.9293 448.752 9.76515 450.036 8.92827C451.329 8.0831 452.837 7.66051 454.56 7.66051C455.903 7.66051 457.112 7.90909 458.19 8.40625C459.267 8.90341 460.149 9.59943 460.837 10.4943C461.525 11.3892 461.951 12.4332 462.117 13.6264H459.184C458.96 12.7564 458.463 11.9858 457.692 11.3146C456.93 10.6352 455.903 10.2955 454.61 10.2955C453.467 10.2955 452.464 10.5937 451.602 11.1903C450.749 11.7786 450.082 12.6114 449.601 13.6886C449.129 14.7575 448.893 16.0128 448.893 17.4545C448.893 18.9295 449.125 20.2138 449.589 21.3075C450.061 22.4013 450.724 23.2506 451.577 23.8555C452.439 24.4603 453.45 24.7628 454.61 24.7628C455.372 24.7628 456.064 24.6302 456.686 24.3651C457.307 24.0999 457.833 23.7188 458.264 23.2216C458.695 22.7244 459.002 22.1278 459.184 21.4318H462.117C461.951 22.5587 461.541 23.5737 460.887 24.4769C460.24 25.3718 459.383 26.0844 458.314 26.6147C457.253 27.1367 456.019 27.3977 454.61 27.3977ZM467.143 27.1989C466.53 27.1989 466.004 26.9793 465.565 26.5401C465.125 26.101 464.906 25.5748 464.906 24.9616C464.906 24.3485 465.125 23.8223 465.565 23.3832C466.004 22.944 466.53 22.7244 467.143 22.7244C467.756 22.7244 468.282 22.944 468.721 23.3832C469.161 23.8223 469.38 24.3485 469.38 24.9616C469.38 25.3677 469.277 25.7405 469.069 26.0803C468.871 26.42 468.601 26.6934 468.262 26.9006C467.93 27.0994 467.557 27.1989 467.143 27.1989ZM482.085 27V1.54545H490.984C492.758 1.54545 494.22 1.85204 495.372 2.4652C496.524 3.07007 497.381 3.88624 497.945 4.91371C498.508 5.93288 498.79 7.06392 498.79 8.30682C498.79 9.40057 498.595 10.3037 498.206 11.0163C497.825 11.7289 497.319 12.2924 496.689 12.7067C496.068 13.121 495.393 13.4276 494.663 13.6264V13.875C495.442 13.9247 496.225 14.1982 497.013 14.6953C497.8 15.1925 498.458 15.9051 498.989 16.8331C499.519 17.7611 499.784 18.8963 499.784 20.2386C499.784 21.5147 499.494 22.6623 498.914 23.6815C498.334 24.7006 497.419 25.5085 496.167 26.1051C494.916 26.7017 493.288 27 491.283 27H482.085ZM485.168 24.2656H491.283C493.296 24.2656 494.726 23.8762 495.571 23.0973C496.424 22.3101 496.851 21.3572 496.851 20.2386C496.851 19.3769 496.631 18.5814 496.192 17.8523C495.753 17.1148 495.127 16.5265 494.315 16.0874C493.503 15.6399 492.542 15.4162 491.432 15.4162H485.168V24.2656ZM485.168 12.7315H490.885C491.813 12.7315 492.65 12.5492 493.396 12.1847C494.15 11.8201 494.746 11.3063 495.185 10.6435C495.633 9.98059 495.857 9.2017 495.857 8.30682C495.857 7.18821 495.467 6.23946 494.688 5.46058C493.909 4.67341 492.675 4.27983 490.984 4.27983H485.168V12.7315ZM508.669 27.4474C507.459 27.4474 506.362 27.2196 505.376 26.7638C504.389 26.2998 503.606 25.6328 503.026 24.7628C502.446 23.8845 502.156 22.8239 502.156 21.581C502.156 20.4872 502.372 19.6006 502.803 18.9212C503.234 18.2334 503.809 17.6948 504.53 17.3054C505.251 16.916 506.047 16.6259 506.917 16.4354C507.795 16.2365 508.677 16.0791 509.564 15.9631C510.724 15.8139 511.665 15.7021 512.385 15.6275C513.115 15.5446 513.645 15.4079 513.976 15.2173C514.316 15.0268 514.486 14.6953 514.486 14.223V14.1236C514.486 12.8973 514.15 11.9444 513.479 11.2649C512.816 10.5855 511.81 10.2457 510.459 10.2457C509.059 10.2457 507.961 10.5523 507.165 11.1655C506.37 11.7786 505.811 12.4332 505.487 13.1293L502.703 12.1349C503.2 10.9749 503.863 10.0717 504.692 9.42543C505.529 8.77083 506.44 8.3151 507.426 8.05824C508.421 7.79309 509.398 7.66051 510.36 7.66051C510.973 7.66051 511.677 7.73508 512.472 7.88423C513.276 8.02509 514.051 8.31925 514.797 8.76669C515.551 9.21413 516.176 9.88944 516.673 10.7926C517.171 11.6958 517.419 12.9055 517.419 14.4219V27H514.486V24.4148H514.337C514.138 24.8291 513.807 25.2724 513.342 25.7447C512.878 26.217 512.261 26.6188 511.491 26.9503C510.72 27.2817 509.78 27.4474 508.669 27.4474ZM509.117 24.8125C510.277 24.8125 511.254 24.5846 512.05 24.1289C512.854 23.6732 513.458 23.0849 513.865 22.364C514.279 21.6431 514.486 20.8849 514.486 20.0895V17.4048C514.362 17.554 514.088 17.6907 513.666 17.815C513.251 17.931 512.771 18.0346 512.224 18.1257C511.685 18.2086 511.159 18.2831 510.645 18.3494C510.14 18.4074 509.73 18.4571 509.415 18.4986C508.653 18.598 507.94 18.7596 507.277 18.9833C506.623 19.1987 506.092 19.526 505.686 19.9652C505.289 20.3961 505.09 20.9844 505.09 21.7301C505.09 22.7493 505.467 23.5199 506.221 24.0419C506.983 24.5556 507.948 24.8125 509.117 24.8125ZM524.306 15.5156V27H521.373V7.90909H524.207V10.892H524.455C524.903 9.92259 525.582 9.1437 526.494 8.5554C527.405 7.95881 528.582 7.66051 530.024 7.66051C531.316 7.66051 532.447 7.92566 533.417 8.45597C534.386 8.97798 535.14 9.77344 535.679 10.8423C536.217 11.9029 536.487 13.2453 536.487 14.8693V27H533.553V15.0682C533.553 13.5684 533.164 12.4001 532.385 11.5632C531.606 10.718 530.537 10.2955 529.178 10.2955C528.242 10.2955 527.405 10.4985 526.668 10.9045C525.939 11.3105 525.363 11.9029 524.94 12.6818C524.517 13.4607 524.306 14.4053 524.306 15.5156ZM548.153 34.5568C546.736 34.5568 545.518 34.3745 544.498 34.0099C543.479 33.6536 542.63 33.1813 541.951 32.593C541.279 32.013 540.745 31.3916 540.347 30.7287L542.684 29.0881C542.949 29.4361 543.285 29.8338 543.691 30.2812C544.097 30.737 544.652 31.1306 545.356 31.462C546.069 31.8017 547.001 31.9716 548.153 31.9716C549.694 31.9716 550.966 31.5987 551.968 30.853C552.971 30.1072 553.472 28.9389 553.472 27.348V23.4702H553.224C553.008 23.8182 552.702 24.2491 552.304 24.7628C551.914 25.2682 551.351 25.7198 550.614 26.1175C549.884 26.507 548.898 26.7017 547.655 26.7017C546.114 26.7017 544.73 26.3371 543.504 25.608C542.286 24.8788 541.321 23.8182 540.608 22.4261C539.904 21.0341 539.552 19.3437 539.552 17.3551C539.552 15.3996 539.896 13.6969 540.583 12.2468C541.271 10.7885 542.228 9.66158 543.454 8.86612C544.681 8.06238 546.098 7.66051 547.705 7.66051C548.948 7.66051 549.934 7.86766 550.663 8.28196C551.401 8.68797 551.964 9.15199 552.354 9.674C552.751 10.1877 553.058 10.6103 553.273 10.9418H553.572V7.90909H556.405V27.5469C556.405 29.1875 556.033 30.5215 555.287 31.549C554.549 32.5848 553.555 33.3429 552.304 33.8235C551.061 34.3124 549.677 34.5568 548.153 34.5568ZM548.053 24.0668C549.23 24.0668 550.224 23.7975 551.036 23.2589C551.848 22.7203 552.465 21.9455 552.888 20.9347C553.311 19.9238 553.522 18.714 553.522 17.3054C553.522 15.9299 553.315 14.716 552.9 13.6637C552.486 12.6114 551.873 11.7869 551.061 11.1903C550.249 10.5937 549.246 10.2955 548.053 10.2955C546.81 10.2955 545.775 10.6103 544.946 11.2401C544.126 11.8698 543.508 12.715 543.094 13.7756C542.688 14.8362 542.485 16.0128 542.485 17.3054C542.485 18.6312 542.692 19.8036 543.106 20.8228C543.529 21.8337 544.15 22.6291 544.971 23.2092C545.799 23.7809 546.827 24.0668 548.053 24.0668ZM572.406 19.1946V7.90909H575.339V27H572.406V23.7685H572.207C571.76 24.7379 571.064 25.5624 570.119 26.2418C569.174 26.913 567.981 27.2486 566.539 27.2486C565.346 27.2486 564.286 26.9876 563.358 26.4656C562.43 25.9353 561.7 25.1398 561.17 24.0792C560.64 23.0103 560.375 21.6638 560.375 20.0398V7.90909H563.308V19.8409C563.308 21.233 563.697 22.3433 564.476 23.1719C565.263 24.0005 566.266 24.4148 567.484 24.4148C568.213 24.4148 568.955 24.2283 569.709 23.8555C570.471 23.4826 571.109 22.9109 571.623 22.1403C572.145 21.3697 572.406 20.3878 572.406 19.1946ZM582.245 15.5156V27H579.312V7.90909H582.145V10.892H582.394C582.841 9.92259 583.521 9.1437 584.432 8.5554C585.344 7.95881 586.52 7.66051 587.962 7.66051C589.255 7.66051 590.386 7.92566 591.355 8.45597C592.325 8.97798 593.079 9.77344 593.617 10.8423C594.156 11.9029 594.425 13.2453 594.425 14.8693V27H591.492V15.0682C591.492 13.5684 591.103 12.4001 590.324 11.5632C589.545 10.718 588.476 10.2955 587.117 10.2955C586.181 10.2955 585.344 10.4985 584.606 10.9045C583.877 11.3105 583.301 11.9029 582.879 12.6818C582.456 13.4607 582.245 14.4053 582.245 15.5156ZM606.688 7.90909V10.3949H596.794V7.90909H606.688ZM599.678 3.33523H602.611V21.5312C602.611 22.3598 602.731 22.9813 602.972 23.3956C603.22 23.8016 603.535 24.075 603.916 24.2159C604.306 24.3485 604.716 24.4148 605.147 24.4148C605.47 24.4148 605.735 24.3982 605.942 24.3651C606.149 24.3236 606.315 24.2905 606.439 24.2656L607.036 26.9006C606.837 26.9751 606.559 27.0497 606.203 27.1243C605.847 27.2071 605.395 27.2486 604.848 27.2486C604.02 27.2486 603.208 27.0704 602.412 26.7141C601.625 26.3578 600.971 25.8151 600.448 25.0859C599.935 24.3568 599.678 23.437 599.678 22.3267V3.33523ZM615.318 27.4474C614.108 27.4474 613.01 27.2196 612.024 26.7638C611.038 26.2998 610.255 25.6328 609.675 24.7628C609.095 23.8845 608.805 22.8239 608.805 21.581C608.805 20.4872 609.021 19.6006 609.452 18.9212C609.882 18.2334 610.458 17.6948 611.179 17.3054C611.9 16.916 612.695 16.6259 613.566 16.4354C614.444 16.2365 615.326 16.0791 616.213 15.9631C617.373 15.8139 618.313 15.7021 619.034 15.6275C619.763 15.5446 620.294 15.4079 620.625 15.2173C620.965 15.0268 621.135 14.6953 621.135 14.223V14.1236C621.135 12.8973 620.799 11.9444 620.128 11.2649C619.465 10.5855 618.458 10.2457 617.108 10.2457C615.707 10.2457 614.61 10.5523 613.814 11.1655C613.019 11.7786 612.459 12.4332 612.136 13.1293L609.352 12.1349C609.849 10.9749 610.512 10.0717 611.341 9.42543C612.178 8.77083 613.089 8.3151 614.075 8.05824C615.069 7.79309 616.047 7.66051 617.008 7.66051C617.622 7.66051 618.326 7.73508 619.121 7.88423C619.925 8.02509 620.7 8.31925 621.445 8.76669C622.2 9.21413 622.825 9.88944 623.322 10.7926C623.819 11.6958 624.068 12.9055 624.068 14.4219V27H621.135V24.4148H620.986C620.787 24.8291 620.455 25.2724 619.991 25.7447C619.527 26.217 618.91 26.6188 618.139 26.9503C617.369 27.2817 616.428 27.4474 615.318 27.4474ZM615.765 24.8125C616.925 24.8125 617.903 24.5846 618.699 24.1289C619.502 23.6732 620.107 23.0849 620.513 22.364C620.928 21.6431 621.135 20.8849 621.135 20.0895V17.4048C621.01 17.554 620.737 17.6907 620.314 17.815C619.9 17.931 619.42 18.0346 618.873 18.1257C618.334 18.2086 617.808 18.2831 617.294 18.3494C616.789 18.4074 616.379 18.4571 616.064 18.4986C615.301 18.598 614.589 18.7596 613.926 18.9833C613.271 19.1987 612.741 19.526 612.335 19.9652C611.937 20.3961 611.738 20.9844 611.738 21.7301C611.738 22.7493 612.115 23.5199 612.869 24.0419C613.632 24.5556 614.597 24.8125 615.765 24.8125ZM628.022 34.1591V7.90909H630.856V10.9418H631.204C631.419 10.6103 631.717 10.1877 632.099 9.674C632.488 9.15199 633.043 8.68797 633.764 8.28196C634.493 7.86766 635.479 7.66051 636.722 7.66051C638.33 7.66051 639.746 8.06238 640.973 8.86612C642.199 9.66986 643.156 10.8092 643.844 12.2841C644.532 13.759 644.876 15.4991 644.876 17.5043C644.876 19.526 644.532 21.2785 643.844 22.7617C643.156 24.2366 642.203 25.3801 640.985 26.1921C639.767 26.9959 638.363 27.3977 636.772 27.3977C635.545 27.3977 634.564 27.1947 633.826 26.7887C633.089 26.3744 632.521 25.9062 632.123 25.3842C631.726 24.8539 631.419 24.4148 631.204 24.0668H630.955V34.1591H628.022ZM630.905 17.4545C630.905 18.8963 631.117 20.1682 631.539 21.2702C631.962 22.364 632.579 23.2216 633.391 23.843C634.203 24.4562 635.197 24.7628 636.374 24.7628C637.6 24.7628 638.624 24.4396 639.444 23.7933C640.273 23.1387 640.894 22.2604 641.308 21.1584C641.731 20.0481 641.942 18.8134 641.942 17.4545C641.942 16.1122 641.735 14.9025 641.321 13.8253C640.915 12.7398 640.298 11.8822 639.469 11.2525C638.649 10.6145 637.617 10.2955 636.374 10.2955C635.181 10.2955 634.178 10.5979 633.366 11.2028C632.554 11.7994 631.941 12.6362 631.527 13.7134C631.112 14.7823 630.905 16.0294 630.905 17.4545ZM653.568 27.4474C652.358 27.4474 651.26 27.2196 650.274 26.7638C649.288 26.2998 648.505 25.6328 647.925 24.7628C647.345 23.8845 647.055 22.8239 647.055 21.581C647.055 20.4872 647.27 19.6006 647.701 18.9212C648.132 18.2334 648.708 17.6948 649.429 17.3054C650.15 16.916 650.945 16.6259 651.815 16.4354C652.694 16.2365 653.576 16.0791 654.463 15.9631C655.623 15.8139 656.563 15.7021 657.284 15.6275C658.013 15.5446 658.544 15.4079 658.875 15.2173C659.215 15.0268 659.385 14.6953 659.385 14.223V14.1236C659.385 12.8973 659.049 11.9444 658.378 11.2649C657.715 10.5855 656.708 10.2457 655.358 10.2457C653.957 10.2457 652.859 10.5523 652.064 11.1655C651.268 11.7786 650.709 12.4332 650.386 13.1293L647.602 12.1349C648.099 10.9749 648.762 10.0717 649.591 9.42543C650.427 8.77083 651.339 8.3151 652.325 8.05824C653.319 7.79309 654.297 7.66051 655.258 7.66051C655.871 7.66051 656.576 7.73508 657.371 7.88423C658.175 8.02509 658.95 8.31925 659.695 8.76669C660.449 9.21413 661.075 9.88944 661.572 10.7926C662.069 11.6958 662.318 12.9055 662.318 14.4219V27H659.385V24.4148H659.235C659.037 24.8291 658.705 25.2724 658.241 25.7447C657.777 26.217 657.16 26.6188 656.389 26.9503C655.619 27.2817 654.678 27.4474 653.568 27.4474ZM654.015 24.8125C655.175 24.8125 656.153 24.5846 656.948 24.1289C657.752 23.6732 658.357 23.0849 658.763 22.364C659.177 21.6431 659.385 20.8849 659.385 20.0895V17.4048C659.26 17.554 658.987 17.6907 658.564 17.815C658.15 17.931 657.669 18.0346 657.123 18.1257C656.584 18.2086 656.058 18.2831 655.544 18.3494C655.039 18.4074 654.628 18.4571 654.314 18.4986C653.551 18.598 652.839 18.7596 652.176 18.9833C651.521 19.1987 650.991 19.526 650.585 19.9652C650.187 20.3961 649.988 20.9844 649.988 21.7301C649.988 22.7493 650.365 23.5199 651.119 24.0419C651.882 24.5556 652.847 24.8125 654.015 24.8125ZM669.205 15.5156V27H666.272V7.90909H669.105V10.892H669.354C669.801 9.92259 670.481 9.1437 671.392 8.5554C672.304 7.95881 673.48 7.66051 674.922 7.66051C676.215 7.66051 677.346 7.92566 678.315 8.45597C679.285 8.97798 680.039 9.77344 680.577 10.8423C681.116 11.9029 681.385 13.2453 681.385 14.8693V27H678.452V15.0682C678.452 13.5684 678.063 12.4001 677.284 11.5632C676.505 10.718 675.436 10.2955 674.077 10.2955C673.141 10.2955 672.304 10.4985 671.566 10.9045C670.837 11.3105 670.261 11.9029 669.839 12.6818C669.416 13.4607 669.205 14.4053 669.205 15.5156ZM689.72 23.5199L689.521 24.8622C689.381 25.8068 689.165 26.8177 688.875 27.8949C688.593 28.9721 688.299 29.9871 687.993 30.94C687.686 31.8929 687.433 32.651 687.234 33.2145H684.997C685.105 32.6842 685.246 31.984 685.42 31.114C685.594 30.244 685.768 29.2704 685.942 28.1932C686.124 27.1243 686.273 26.0305 686.389 24.9119L686.538 23.5199H689.72ZM702.596 27V1.54545H705.679V14.1733H705.977L717.412 1.54545H721.439L710.75 13.0298L721.439 27H717.71L708.861 15.1676L705.679 18.7472V27H702.596ZM729.248 27.4474C728.039 27.4474 726.941 27.2196 725.955 26.7638C724.969 26.2998 724.186 25.6328 723.606 24.7628C723.026 23.8845 722.736 22.8239 722.736 21.581C722.736 20.4872 722.951 19.6006 723.382 18.9212C723.813 18.2334 724.389 17.6948 725.11 17.3054C725.831 16.916 726.626 16.6259 727.496 16.4354C728.374 16.2365 729.257 16.0791 730.143 15.9631C731.303 15.8139 732.244 15.7021 732.965 15.6275C733.694 15.5446 734.224 15.4079 734.556 15.2173C734.895 15.0268 735.065 14.6953 735.065 14.223V14.1236C735.065 12.8973 734.73 11.9444 734.058 11.2649C733.396 10.5855 732.389 10.2457 731.038 10.2457C729.638 10.2457 728.54 10.5523 727.745 11.1655C726.949 11.7786 726.39 12.4332 726.067 13.1293L723.283 12.1349C723.78 10.9749 724.443 10.0717 725.271 9.42543C726.108 8.77083 727.02 8.3151 728.006 8.05824C729 7.79309 729.978 7.66051 730.939 7.66051C731.552 7.66051 732.256 7.73508 733.052 7.88423C733.855 8.02509 734.63 8.31925 735.376 8.76669C736.13 9.21413 736.756 9.88944 737.253 10.7926C737.75 11.6958 737.998 12.9055 737.998 14.4219V27H735.065V24.4148H734.916C734.717 24.8291 734.386 25.2724 733.922 25.7447C733.458 26.217 732.84 26.6188 732.07 26.9503C731.299 27.2817 730.359 27.4474 729.248 27.4474ZM729.696 24.8125C730.856 24.8125 731.834 24.5846 732.629 24.1289C733.433 23.6732 734.038 23.0849 734.444 22.364C734.858 21.6431 735.065 20.8849 735.065 20.0895V17.4048C734.941 17.554 734.668 17.6907 734.245 17.815C733.831 17.931 733.35 18.0346 732.803 18.1257C732.265 18.2086 731.738 18.2831 731.225 18.3494C730.719 18.4074 730.309 18.4571 729.994 18.4986C729.232 18.598 728.519 18.7596 727.856 18.9833C727.202 19.1987 726.672 19.526 726.266 19.9652C725.868 20.3961 725.669 20.9844 725.669 21.7301C725.669 22.7493 726.046 23.5199 726.8 24.0419C727.562 24.5556 728.528 24.8125 729.696 24.8125ZM742.35 27V1.54545H745.283V10.9418H745.532C745.747 10.6103 746.046 10.1877 746.427 9.674C746.816 9.15199 747.371 8.68797 748.092 8.28196C748.821 7.86766 749.807 7.66051 751.05 7.66051C752.658 7.66051 754.075 8.06238 755.301 8.86612C756.527 9.66986 757.484 10.8092 758.172 12.2841C758.86 13.759 759.204 15.4991 759.204 17.5043C759.204 19.526 758.86 21.2785 758.172 22.7617C757.484 24.2366 756.531 25.3801 755.313 26.1921C754.095 26.9959 752.691 27.3977 751.1 27.3977C749.874 27.3977 748.892 27.1947 748.154 26.7887C747.417 26.3744 746.849 25.9062 746.452 25.3842C746.054 24.8539 745.747 24.4148 745.532 24.0668H745.184V27H742.35ZM745.233 17.4545C745.233 18.8963 745.445 20.1682 745.867 21.2702C746.29 22.364 746.907 23.2216 747.719 23.843C748.531 24.4562 749.526 24.7628 750.702 24.7628C751.929 24.7628 752.952 24.4396 753.772 23.7933C754.601 23.1387 755.222 22.2604 755.637 21.1584C756.059 20.0481 756.27 18.8134 756.27 17.4545C756.27 16.1122 756.063 14.9025 755.649 13.8253C755.243 12.7398 754.626 11.8822 753.797 11.2525C752.977 10.6145 751.945 10.2955 750.702 10.2955C749.509 10.2955 748.506 10.5979 747.694 11.2028C746.882 11.7994 746.269 12.6362 745.855 13.7134C745.441 14.7823 745.233 16.0294 745.233 17.4545ZM774.322 19.1946V7.90909H777.255V27H774.322V23.7685H774.123C773.675 24.7379 772.979 25.5624 772.035 26.2418C771.09 26.913 769.897 27.2486 768.455 27.2486C767.262 27.2486 766.202 26.9876 765.274 26.4656C764.345 25.9353 763.616 25.1398 763.086 24.0792C762.556 23.0103 762.291 21.6638 762.291 20.0398V7.90909H765.224V19.8409C765.224 21.233 765.613 22.3433 766.392 23.1719C767.179 24.0005 768.182 24.4148 769.4 24.4148C770.129 24.4148 770.871 24.2283 771.625 23.8555C772.387 23.4826 773.025 22.9109 773.539 22.1403C774.061 21.3697 774.322 20.3878 774.322 19.1946ZM781.227 34.1591V7.90909H784.061V10.9418H784.409C784.625 10.6103 784.923 10.1877 785.304 9.674C785.694 9.15199 786.249 8.68797 786.97 8.28196C787.699 7.86766 788.685 7.66051 789.928 7.66051C791.535 7.66051 792.952 8.06238 794.178 8.86612C795.405 9.66986 796.362 10.8092 797.05 12.2841C797.737 13.759 798.081 15.4991 798.081 17.5043C798.081 19.526 797.737 21.2785 797.05 22.7617C796.362 24.2366 795.409 25.3801 794.191 26.1921C792.973 26.9959 791.568 27.3977 789.977 27.3977C788.751 27.3977 787.769 27.1947 787.032 26.7887C786.294 26.3744 785.727 25.9062 785.329 25.3842C784.931 24.8539 784.625 24.4148 784.409 24.0668H784.161V34.1591H781.227ZM784.111 17.4545C784.111 18.8963 784.322 20.1682 784.745 21.2702C785.167 22.364 785.785 23.2216 786.597 23.843C787.409 24.4562 788.403 24.7628 789.58 24.7628C790.806 24.7628 791.829 24.4396 792.65 23.7933C793.478 23.1387 794.1 22.2604 794.514 21.1584C794.937 20.0481 795.148 18.8134 795.148 17.4545C795.148 16.1122 794.941 14.9025 794.526 13.8253C794.12 12.7398 793.503 11.8822 792.675 11.2525C791.854 10.6145 790.823 10.2955 789.58 10.2955C788.387 10.2955 787.384 10.5979 786.572 11.2028C785.76 11.7994 785.147 12.6362 784.732 13.7134C784.318 14.7823 784.111 16.0294 784.111 17.4545ZM806.774 27.4474C805.564 27.4474 804.466 27.2196 803.48 26.7638C802.494 26.2998 801.711 25.6328 801.131 24.7628C800.551 23.8845 800.261 22.8239 800.261 21.581C800.261 20.4872 800.476 19.6006 800.907 18.9212C801.338 18.2334 801.914 17.6948 802.635 17.3054C803.356 16.916 804.151 16.6259 805.021 16.4354C805.899 16.2365 806.782 16.0791 807.668 15.9631C808.828 15.8139 809.769 15.7021 810.49 15.6275C811.219 15.5446 811.749 15.4079 812.081 15.2173C812.42 15.0268 812.59 14.6953 812.59 14.223V14.1236C812.59 12.8973 812.255 11.9444 811.584 11.2649C810.921 10.5855 809.914 10.2457 808.563 10.2457C807.163 10.2457 806.065 10.5523 805.27 11.1655C804.474 11.7786 803.915 12.4332 803.592 13.1293L800.808 12.1349C801.305 10.9749 801.968 10.0717 802.796 9.42543C803.633 8.77083 804.545 8.3151 805.531 8.05824C806.525 7.79309 807.503 7.66051 808.464 7.66051C809.077 7.66051 809.781 7.73508 810.577 7.88423C811.381 8.02509 812.155 8.31925 812.901 8.76669C813.655 9.21413 814.281 9.88944 814.778 10.7926C815.275 11.6958 815.524 12.9055 815.524 14.4219V27H812.59V24.4148H812.441C812.242 24.8291 811.911 25.2724 811.447 25.7447C810.983 26.217 810.365 26.6188 809.595 26.9503C808.824 27.2817 807.884 27.4474 806.774 27.4474ZM807.221 24.8125C808.381 24.8125 809.359 24.5846 810.154 24.1289C810.958 23.6732 811.563 23.0849 811.969 22.364C812.383 21.6431 812.59 20.8849 812.59 20.0895V17.4048C812.466 17.554 812.193 17.6907 811.77 17.815C811.356 17.931 810.875 18.0346 810.328 18.1257C809.79 18.2086 809.263 18.2831 808.75 18.3494C808.244 18.4074 807.834 18.4571 807.519 18.4986C806.757 18.598 806.044 18.7596 805.381 18.9833C804.727 19.1987 804.197 19.526 803.791 19.9652C803.393 20.3961 803.194 20.9844 803.194 21.7301C803.194 22.7493 803.571 23.5199 804.325 24.0419C805.087 24.5556 806.053 24.8125 807.221 24.8125ZM827.78 7.90909V10.3949H817.886V7.90909H827.78ZM820.77 3.33523H823.703V21.5312C823.703 22.3598 823.823 22.9813 824.064 23.3956C824.312 23.8016 824.627 24.075 825.008 24.2159C825.398 24.3485 825.808 24.4148 826.239 24.4148C826.562 24.4148 826.827 24.3982 827.034 24.3651C827.241 24.3236 827.407 24.2905 827.531 24.2656L828.128 26.9006C827.929 26.9751 827.651 27.0497 827.295 27.1243C826.939 27.2071 826.487 27.2486 825.94 27.2486C825.112 27.2486 824.3 27.0704 823.504 26.7141C822.717 26.3578 822.062 25.8151 821.54 25.0859C821.027 24.3568 820.77 23.437 820.77 22.3267V3.33523ZM838.591 27.3977C836.752 27.3977 835.165 26.9917 833.831 26.1797C832.505 25.3594 831.482 24.2159 830.761 22.7493C830.048 21.2744 829.692 19.5592 829.692 17.6037C829.692 15.6482 830.048 13.9247 830.761 12.4332C831.482 10.9335 832.484 9.76515 833.769 8.92827C835.061 8.0831 836.569 7.66051 838.293 7.66051C839.287 7.66051 840.269 7.82623 841.239 8.15767C842.208 8.48911 843.091 9.0277 843.886 9.77344C844.681 10.5109 845.315 11.4886 845.788 12.7067C846.26 13.9247 846.496 15.4245 846.496 17.206V18.4489H831.78V15.9134H843.513C843.513 14.8362 843.298 13.875 842.867 13.0298C842.444 12.1847 841.839 11.5176 841.052 11.0288C840.273 10.5399 839.354 10.2955 838.293 10.2955C837.125 10.2955 836.114 10.5855 835.26 11.1655C834.415 11.7372 833.765 12.483 833.309 13.4027C832.853 14.3224 832.625 15.3085 832.625 16.3608V18.0511C832.625 19.4929 832.874 20.7151 833.371 21.7177C833.877 22.712 834.577 23.4702 835.472 23.9922C836.366 24.5059 837.406 24.7628 838.591 24.7628C839.362 24.7628 840.058 24.6551 840.679 24.4396C841.309 24.2159 841.852 23.8845 842.308 23.4453C842.763 22.9979 843.115 22.4427 843.364 21.7798L846.198 22.5753C845.9 23.5365 845.398 24.3816 844.694 25.1108C843.99 25.8317 843.12 26.3951 842.084 26.8011C841.048 27.1989 839.884 27.3977 838.591 27.3977ZM852.491 15.5156V27H849.558V7.90909H852.392V10.892H852.641C853.088 9.92259 853.767 9.1437 854.679 8.5554C855.59 7.95881 856.767 7.66051 858.209 7.66051C859.501 7.66051 860.632 7.92566 861.602 8.45597C862.571 8.97798 863.325 9.77344 863.864 10.8423C864.402 11.9029 864.672 13.2453 864.672 14.8693V27H861.739V15.0682C861.739 13.5684 861.349 12.4001 860.57 11.5632C859.791 10.718 858.722 10.2955 857.364 10.2955C856.427 10.2955 855.59 10.4985 854.853 10.9045C854.124 11.3105 853.548 11.9029 853.125 12.6818C852.703 13.4607 852.491 14.4053 852.491 15.5156ZM877.473 27V1.54545H886.372C888.146 1.54545 889.608 1.85204 890.76 2.4652C891.912 3.07007 892.769 3.88624 893.333 4.91371C893.896 5.93288 894.178 7.06392 894.178 8.30682C894.178 9.40057 893.983 10.3037 893.594 11.0163C893.212 11.7289 892.707 12.2924 892.077 12.7067C891.456 13.121 890.781 13.4276 890.051 13.6264V13.875C890.83 13.9247 891.613 14.1982 892.4 14.6953C893.188 15.1925 893.846 15.9051 894.377 16.8331C894.907 17.7611 895.172 18.8963 895.172 20.2386C895.172 21.5147 894.882 22.6623 894.302 23.6815C893.722 24.7006 892.806 25.5085 891.555 26.1051C890.304 26.7017 888.676 27 886.671 27H877.473ZM880.556 24.2656H886.671C888.684 24.2656 890.114 23.8762 890.959 23.0973C891.812 22.3101 892.239 21.3572 892.239 20.2386C892.239 19.3769 892.019 18.5814 891.58 17.8523C891.141 17.1148 890.515 16.5265 889.703 16.0874C888.891 15.6399 887.93 15.4162 886.82 15.4162H880.556V24.2656ZM880.556 12.7315H886.273C887.201 12.7315 888.038 12.5492 888.784 12.1847C889.538 11.8201 890.134 11.3063 890.573 10.6435C891.021 9.98059 891.245 9.2017 891.245 8.30682C891.245 7.18821 890.855 6.23946 890.076 5.46058C889.297 4.67341 888.063 4.27983 886.372 4.27983H880.556V12.7315ZM904.057 27.4474C902.847 27.4474 901.749 27.2196 900.763 26.7638C899.777 26.2998 898.994 25.6328 898.414 24.7628C897.834 23.8845 897.544 22.8239 897.544 21.581C897.544 20.4872 897.76 19.6006 898.191 18.9212C898.621 18.2334 899.197 17.6948 899.918 17.3054C900.639 16.916 901.435 16.6259 902.305 16.4354C903.183 16.2365 904.065 16.0791 904.952 15.9631C906.112 15.8139 907.052 15.7021 907.773 15.6275C908.503 15.5446 909.033 15.4079 909.364 15.2173C909.704 15.0268 909.874 14.6953 909.874 14.223V14.1236C909.874 12.8973 909.538 11.9444 908.867 11.2649C908.204 10.5855 907.197 10.2457 905.847 10.2457C904.447 10.2457 903.349 10.5523 902.553 11.1655C901.758 11.7786 901.198 12.4332 900.875 13.1293L898.091 12.1349C898.588 10.9749 899.251 10.0717 900.08 9.42543C900.917 8.77083 901.828 8.3151 902.814 8.05824C903.808 7.79309 904.786 7.66051 905.747 7.66051C906.361 7.66051 907.065 7.73508 907.86 7.88423C908.664 8.02509 909.439 8.31925 910.185 8.76669C910.939 9.21413 911.564 9.88944 912.061 10.7926C912.558 11.6958 912.807 12.9055 912.807 14.4219V27H909.874V24.4148H909.725C909.526 24.8291 909.194 25.2724 908.73 25.7447C908.266 26.217 907.649 26.6188 906.878 26.9503C906.108 27.2817 905.167 27.4474 904.057 27.4474ZM904.505 24.8125C905.665 24.8125 906.642 24.5846 907.438 24.1289C908.241 23.6732 908.846 23.0849 909.252 22.364C909.667 21.6431 909.874 20.8849 909.874 20.0895V17.4048C909.75 17.554 909.476 17.6907 909.054 17.815C908.639 17.931 908.159 18.0346 907.612 18.1257C907.073 18.2086 906.547 18.2831 906.033 18.3494C905.528 18.4074 905.118 18.4571 904.803 18.4986C904.041 18.598 903.328 18.7596 902.665 18.9833C902.01 19.1987 901.48 19.526 901.074 19.9652C900.676 20.3961 900.478 20.9844 900.478 21.7301C900.478 22.7493 900.855 23.5199 901.609 24.0419C902.371 24.5556 903.336 24.8125 904.505 24.8125ZM919.694 15.5156V27H916.761V7.90909H919.595V10.892H919.843C920.291 9.92259 920.97 9.1437 921.882 8.5554C922.793 7.95881 923.97 7.66051 925.411 7.66051C926.704 7.66051 927.835 7.92566 928.805 8.45597C929.774 8.97798 930.528 9.77344 931.067 10.8423C931.605 11.9029 931.874 13.2453 931.874 14.8693V27H928.941V15.0682C928.941 13.5684 928.552 12.4001 927.773 11.5632C926.994 10.718 925.925 10.2955 924.566 10.2955C923.63 10.2955 922.793 10.4985 922.056 10.9045C921.326 11.3105 920.751 11.9029 920.328 12.6818C919.905 13.4607 919.694 14.4053 919.694 15.5156ZM944.137 7.90909V10.3949H934.244V7.90909H944.137ZM937.127 3.33523H940.06V21.5312C940.06 22.3598 940.181 22.9813 940.421 23.3956C940.669 23.8016 940.984 24.075 941.365 24.2159C941.755 24.3485 942.165 24.4148 942.596 24.4148C942.919 24.4148 943.184 24.3982 943.391 24.3651C943.599 24.3236 943.764 24.2905 943.889 24.2656L944.485 26.9006C944.286 26.9751 944.009 27.0497 943.652 27.1243C943.296 27.2071 942.845 27.2486 942.298 27.2486C941.469 27.2486 940.657 27.0704 939.862 26.7141C939.074 26.3578 938.42 25.8151 937.898 25.0859C937.384 24.3568 937.127 23.437 937.127 22.3267V3.33523ZM959.181 19.1946V7.90909H962.114V27H959.181V23.7685H958.982C958.534 24.7379 957.838 25.5624 956.894 26.2418C955.949 26.913 954.756 27.2486 953.314 27.2486C952.121 27.2486 951.06 26.9876 950.132 26.4656C949.204 25.9353 948.475 25.1398 947.945 24.0792C947.414 23.0103 947.149 21.6638 947.149 20.0398V7.90909H950.082V19.8409C950.082 21.233 950.472 22.3433 951.251 23.1719C952.038 24.0005 953.041 24.4148 954.259 24.4148C954.988 24.4148 955.729 24.2283 956.483 23.8555C957.246 23.4826 957.884 22.9109 958.397 22.1403C958.92 21.3697 959.181 20.3878 959.181 19.1946ZM969.02 1.54545V27H966.086V1.54545H969.02ZM977.367 23.5199L977.168 24.8622C977.027 25.8068 976.812 26.8177 976.522 27.8949C976.24 28.9721 975.946 29.9871 975.639 30.94C975.333 31.8929 975.08 32.651 974.881 33.2145H972.644C972.752 32.6842 972.892 31.984 973.066 31.114C973.24 30.244 973.414 29.2704 973.589 28.1932C973.771 27.1243 973.92 26.0305 974.036 24.9119L974.185 23.5199H977.367ZM998.098 27H990.243V1.54545H998.446C1000.92 1.54545 1003.03 2.05504 1004.78 3.07422C1006.54 4.08511 1007.89 5.5393 1008.82 7.43679C1009.76 9.32599 1010.23 11.5881 1010.23 14.223C1010.23 16.8745 1009.76 19.1573 1008.81 21.0714C1007.87 22.9772 1006.49 24.4438 1004.69 25.4712C1002.88 26.4904 1000.68 27 998.098 27ZM993.325 24.2656H997.899C1000 24.2656 1001.75 23.8596 1003.13 23.0476C1004.52 22.2356 1005.55 21.0797 1006.23 19.5799C1006.91 18.0801 1007.25 16.2945 1007.25 14.223C1007.25 12.1681 1006.91 10.399 1006.24 8.91584C1005.57 7.42436 1004.57 6.28089 1003.23 5.48544C1001.9 4.6817 1000.24 4.27983 998.247 4.27983H993.325V24.2656ZM1019.22 27.4474C1018.01 27.4474 1016.91 27.2196 1015.93 26.7638C1014.94 26.2998 1014.16 25.6328 1013.58 24.7628C1013 23.8845 1012.71 22.8239 1012.71 21.581C1012.71 20.4872 1012.92 19.6006 1013.35 18.9212C1013.78 18.2334 1014.36 17.6948 1015.08 17.3054C1015.8 16.916 1016.6 16.6259 1017.47 16.4354C1018.35 16.2365 1019.23 16.0791 1020.11 15.9631C1021.27 15.8139 1022.21 15.7021 1022.94 15.6275C1023.66 15.5446 1024.2 15.4079 1024.53 15.2173C1024.87 15.0268 1025.04 14.6953 1025.04 14.223V14.1236C1025.04 12.8973 1024.7 11.9444 1024.03 11.2649C1023.37 10.5855 1022.36 10.2457 1021.01 10.2457C1019.61 10.2457 1018.51 10.5523 1017.72 11.1655C1016.92 11.7786 1016.36 12.4332 1016.04 13.1293L1013.25 12.1349C1013.75 10.9749 1014.41 10.0717 1015.24 9.42543C1016.08 8.77083 1016.99 8.3151 1017.98 8.05824C1018.97 7.79309 1019.95 7.66051 1020.91 7.66051C1021.52 7.66051 1022.23 7.73508 1023.02 7.88423C1023.83 8.02509 1024.6 8.31925 1025.35 8.76669C1026.1 9.21413 1026.73 9.88944 1027.22 10.7926C1027.72 11.6958 1027.97 12.9055 1027.97 14.4219V27H1025.04V24.4148H1024.89C1024.69 24.8291 1024.36 25.2724 1023.89 25.7447C1023.43 26.217 1022.81 26.6188 1022.04 26.9503C1021.27 27.2817 1020.33 27.4474 1019.22 27.4474ZM1019.67 24.8125C1020.83 24.8125 1021.8 24.5846 1022.6 24.1289C1023.4 23.6732 1024.01 23.0849 1024.41 22.364C1024.83 21.6431 1025.04 20.8849 1025.04 20.0895V17.4048C1024.91 17.554 1024.64 17.6907 1024.22 17.815C1023.8 17.931 1023.32 18.0346 1022.77 18.1257C1022.24 18.2086 1021.71 18.2831 1021.2 18.3494C1020.69 18.4074 1020.28 18.4571 1019.97 18.4986C1019.2 18.598 1018.49 18.7596 1017.83 18.9833C1017.17 19.1987 1016.64 19.526 1016.24 19.9652C1015.84 20.3961 1015.64 20.9844 1015.64 21.7301C1015.64 22.7493 1016.02 23.5199 1016.77 24.0419C1017.53 24.5556 1018.5 24.8125 1019.67 24.8125ZM1039.93 27.3977C1038.09 27.3977 1036.5 26.9917 1035.17 26.1797C1033.84 25.3594 1032.82 24.2159 1032.1 22.7493C1031.38 21.2744 1031.03 19.5592 1031.03 17.6037C1031.03 15.6482 1031.38 13.9247 1032.1 12.4332C1032.82 10.9335 1033.82 9.76515 1035.11 8.92827C1036.4 8.0831 1037.91 7.66051 1039.63 7.66051C1040.62 7.66051 1041.61 7.82623 1042.57 8.15767C1043.54 8.48911 1044.43 9.0277 1045.22 9.77344C1046.02 10.5109 1046.65 11.4886 1047.12 12.7067C1047.6 13.9247 1047.83 15.4245 1047.83 17.206V18.4489H1033.12V15.9134H1044.85C1044.85 14.8362 1044.63 13.875 1044.2 13.0298C1043.78 12.1847 1043.18 11.5176 1042.39 11.0288C1041.61 10.5399 1040.69 10.2955 1039.63 10.2955C1038.46 10.2955 1037.45 10.5855 1036.6 11.1655C1035.75 11.7372 1035.1 12.483 1034.65 13.4027C1034.19 14.3224 1033.96 15.3085 1033.96 16.3608V18.0511C1033.96 19.4929 1034.21 20.7151 1034.71 21.7177C1035.21 22.712 1035.91 23.4702 1036.81 23.9922C1037.7 24.5059 1038.74 24.7628 1039.93 24.7628C1040.7 24.7628 1041.39 24.6551 1042.02 24.4396C1042.65 24.2159 1043.19 23.8845 1043.64 23.4453C1044.1 22.9979 1044.45 22.4427 1044.7 21.7798L1047.53 22.5753C1047.24 23.5365 1046.73 24.3816 1046.03 25.1108C1045.33 25.8317 1044.46 26.3951 1043.42 26.8011C1042.38 27.1989 1041.22 27.3977 1039.93 27.3977ZM1050.89 27V7.90909H1053.73V10.7926H1053.93C1054.27 9.84801 1054.9 9.08156 1055.82 8.49325C1056.73 7.90495 1057.76 7.61079 1058.9 7.61079C1059.11 7.61079 1059.38 7.61494 1059.71 7.62322C1060.03 7.63151 1060.27 7.64394 1060.44 7.66051V10.6435C1060.34 10.6186 1060.11 10.5813 1059.76 10.5316C1059.41 10.4736 1059.04 10.4446 1058.65 10.4446C1057.72 10.4446 1056.89 10.6393 1056.16 11.0288C1055.44 11.4099 1054.87 11.9402 1054.45 12.6197C1054.03 13.2908 1053.83 14.0573 1053.83 14.919V27H1050.89ZM1068.13 27.4474C1066.92 27.4474 1065.83 27.2196 1064.84 26.7638C1063.85 26.2998 1063.07 25.6328 1062.49 24.7628C1061.91 23.8845 1061.62 22.8239 1061.62 21.581C1061.62 20.4872 1061.84 19.6006 1062.27 18.9212C1062.7 18.2334 1063.27 17.6948 1064 17.3054C1064.72 16.916 1065.51 16.6259 1066.38 16.4354C1067.26 16.2365 1068.14 16.0791 1069.03 15.9631C1070.19 15.8139 1071.13 15.7021 1071.85 15.6275C1072.58 15.5446 1073.11 15.4079 1073.44 15.2173C1073.78 15.0268 1073.95 14.6953 1073.95 14.223V14.1236C1073.95 12.8973 1073.62 11.9444 1072.94 11.2649C1072.28 10.5855 1071.27 10.2457 1069.92 10.2457C1068.52 10.2457 1067.43 10.5523 1066.63 11.1655C1065.84 11.7786 1065.28 12.4332 1064.95 13.1293L1062.17 12.1349C1062.67 10.9749 1063.33 10.0717 1064.16 9.42543C1064.99 8.77083 1065.91 8.3151 1066.89 8.05824C1067.89 7.79309 1068.86 7.66051 1069.82 7.66051C1070.44 7.66051 1071.14 7.73508 1071.94 7.88423C1072.74 8.02509 1073.52 8.31925 1074.26 8.76669C1075.02 9.21413 1075.64 9.88944 1076.14 10.7926C1076.64 11.6958 1076.88 12.9055 1076.88 14.4219V27H1073.95V24.4148H1073.8C1073.6 24.8291 1073.27 25.2724 1072.81 25.7447C1072.34 26.217 1071.73 26.6188 1070.96 26.9503C1070.19 27.2817 1069.24 27.4474 1068.13 27.4474ZM1068.58 24.8125C1069.74 24.8125 1070.72 24.5846 1071.52 24.1289C1072.32 23.6732 1072.92 23.0849 1073.33 22.364C1073.74 21.6431 1073.95 20.8849 1073.95 20.0895V17.4048C1073.83 17.554 1073.55 17.6907 1073.13 17.815C1072.72 17.931 1072.24 18.0346 1071.69 18.1257C1071.15 18.2086 1070.62 18.2831 1070.11 18.3494C1069.61 18.4074 1069.2 18.4571 1068.88 18.4986C1068.12 18.598 1067.41 18.7596 1066.74 18.9833C1066.09 19.1987 1065.56 19.526 1065.15 19.9652C1064.75 20.3961 1064.56 20.9844 1064.56 21.7301C1064.56 22.7493 1064.93 23.5199 1065.69 24.0419C1066.45 24.5556 1067.41 24.8125 1068.58 24.8125ZM1083.77 15.5156V27H1080.84V1.54545H1083.77V10.892H1084.02C1084.47 9.90601 1085.14 9.12299 1086.03 8.54297C1086.94 7.95466 1088.14 7.66051 1089.64 7.66051C1090.94 7.66051 1092.08 7.92152 1093.06 8.44354C1094.03 8.95727 1094.79 9.74858 1095.33 10.8175C1095.88 11.8781 1096.15 13.2287 1096.15 14.8693V27H1093.22V15.0682C1093.22 13.5518 1092.82 12.3794 1092.04 11.5508C1091.26 10.7139 1090.18 10.2955 1088.79 10.2955C1087.83 10.2955 1086.97 10.4985 1086.21 10.9045C1085.45 11.3105 1084.86 11.9029 1084.42 12.6818C1083.99 13.4607 1083.77 14.4053 1083.77 15.5156ZM1112.04 1.54545V27H1108.96V1.54545H1112.04ZM1129.95 12.1847L1127.31 12.9304C1127.15 12.4912 1126.9 12.0645 1126.58 11.6502C1126.26 11.2276 1125.83 10.8796 1125.29 10.6062C1124.74 10.3327 1124.04 10.196 1123.18 10.196C1122.02 10.196 1121.04 10.4653 1120.26 11.0039C1119.49 11.5342 1119.11 12.2095 1119.11 13.0298C1119.11 13.759 1119.37 14.3349 1119.9 14.7575C1120.43 15.18 1121.26 15.5322 1122.39 15.8139L1125.22 16.5099C1126.93 16.9242 1128.2 17.5581 1129.04 18.4116C1129.88 19.2567 1130.29 20.3464 1130.29 21.6804C1130.29 22.7741 1129.98 23.7519 1129.35 24.6136C1128.73 25.4754 1127.86 26.1548 1126.74 26.652C1125.62 27.1491 1124.32 27.3977 1122.84 27.3977C1120.89 27.3977 1119.28 26.9751 1118 26.13C1116.73 25.2848 1115.92 24.0502 1115.58 22.4261L1118.36 21.7301C1118.63 22.7576 1119.13 23.5282 1119.87 24.0419C1120.61 24.5556 1121.59 24.8125 1122.79 24.8125C1124.15 24.8125 1125.24 24.5225 1126.04 23.9425C1126.86 23.3542 1127.26 22.6499 1127.26 21.8295C1127.26 21.1667 1127.03 20.6115 1126.57 20.1641C1126.1 19.7083 1125.39 19.3686 1124.43 19.1449L1121.25 18.3991C1119.5 17.9848 1118.21 17.3427 1117.39 16.4727C1116.58 15.5943 1116.17 14.4964 1116.17 13.179C1116.17 12.1018 1116.48 11.1489 1117.08 10.3203C1117.7 9.49171 1118.53 8.84126 1119.58 8.36896C1120.64 7.89666 1121.84 7.66051 1123.18 7.66051C1125.07 7.66051 1126.56 8.07481 1127.63 8.90341C1128.72 9.73201 1129.49 10.8258 1129.95 12.1847ZM1141.61 7.90909V10.3949H1131.72V7.90909H1141.61ZM1134.6 3.33523H1137.54V21.5312C1137.54 22.3598 1137.66 22.9813 1137.9 23.3956C1138.14 23.8016 1138.46 24.075 1138.84 24.2159C1139.23 24.3485 1139.64 24.4148 1140.07 24.4148C1140.39 24.4148 1140.66 24.3982 1140.87 24.3651C1141.07 24.3236 1141.24 24.2905 1141.36 24.2656L1141.96 26.9006C1141.76 26.9751 1141.48 27.0497 1141.13 27.1243C1140.77 27.2071 1140.32 27.2486 1139.77 27.2486C1138.94 27.2486 1138.13 27.0704 1137.34 26.7141C1136.55 26.3578 1135.89 25.8151 1135.37 25.0859C1134.86 24.3568 1134.6 23.437 1134.6 22.3267V3.33523ZM1144.62 27V7.90909H1147.56V27H1144.62ZM1146.12 4.72727C1145.54 4.72727 1145.05 4.53255 1144.64 4.14311C1144.23 3.75367 1144.03 3.28551 1144.03 2.73864C1144.03 2.19176 1144.23 1.7236 1144.64 1.33416C1145.05 0.94472 1145.54 0.75 1146.12 0.75C1146.69 0.75 1147.18 0.94472 1147.58 1.33416C1148 1.7236 1148.2 2.19176 1148.2 2.73864C1148.2 3.28551 1148 3.75367 1147.58 4.14311C1147.18 4.53255 1146.69 4.72727 1146.12 4.72727ZM1151.53 27V7.90909H1154.36V10.892H1154.61C1155.01 9.87287 1155.65 9.08156 1156.54 8.51811C1157.43 7.94638 1158.49 7.66051 1159.73 7.66051C1160.99 7.66051 1162.04 7.94638 1162.88 8.51811C1163.72 9.08156 1164.38 9.87287 1164.85 10.892H1165.05C1165.54 9.90601 1166.28 9.12299 1167.25 8.54297C1168.23 7.95466 1169.4 7.66051 1170.77 7.66051C1172.48 7.66051 1173.87 8.19496 1174.96 9.26385C1176.04 10.3245 1176.59 11.9775 1176.59 14.223V27H1173.65V14.223C1173.65 12.8144 1173.27 11.8076 1172.5 11.2028C1171.73 10.5979 1170.82 10.2955 1169.78 10.2955C1168.43 10.2955 1167.39 10.7015 1166.66 11.5135C1165.92 12.3172 1165.55 13.3364 1165.55 14.571V27H1162.57V13.9247C1162.57 12.8393 1162.22 11.9651 1161.51 11.3022C1160.81 10.631 1159.9 10.2955 1158.79 10.2955C1158.03 10.2955 1157.31 10.4985 1156.65 10.9045C1156 11.3105 1155.47 11.8739 1155.06 12.5948C1154.66 13.3074 1154.46 14.1319 1154.46 15.0682V27H1151.53ZM1188.55 27.3977C1186.71 27.3977 1185.13 26.9917 1183.79 26.1797C1182.47 25.3594 1181.45 24.2159 1180.72 22.7493C1180.01 21.2744 1179.66 19.5592 1179.66 17.6037C1179.66 15.6482 1180.01 13.9247 1180.72 12.4332C1181.45 10.9335 1182.45 9.76515 1183.73 8.92827C1185.02 8.0831 1186.53 7.66051 1188.26 7.66051C1189.25 7.66051 1190.23 7.82623 1191.2 8.15767C1192.17 8.48911 1193.05 9.0277 1193.85 9.77344C1194.64 10.5109 1195.28 11.4886 1195.75 12.7067C1196.22 13.9247 1196.46 15.4245 1196.46 17.206V18.4489H1181.74V15.9134H1193.48C1193.48 14.8362 1193.26 13.875 1192.83 13.0298C1192.41 12.1847 1191.8 11.5176 1191.02 11.0288C1190.24 10.5399 1189.32 10.2955 1188.26 10.2955C1187.09 10.2955 1186.08 10.5855 1185.22 11.1655C1184.38 11.7372 1183.73 12.483 1183.27 13.4027C1182.82 14.3224 1182.59 15.3085 1182.59 16.3608V18.0511C1182.59 19.4929 1182.84 20.7151 1183.33 21.7177C1183.84 22.712 1184.54 23.4702 1185.43 23.9922C1186.33 24.5059 1187.37 24.7628 1188.55 24.7628C1189.32 24.7628 1190.02 24.6551 1190.64 24.4396C1191.27 24.2159 1191.81 23.8845 1192.27 23.4453C1192.73 22.9979 1193.08 22.4427 1193.33 21.7798L1196.16 22.5753C1195.86 23.5365 1195.36 24.3816 1194.66 25.1108C1193.95 25.8317 1193.08 26.3951 1192.05 26.8011C1191.01 27.1989 1189.85 27.3977 1188.55 27.3977ZM1203.85 27L1198.03 7.90909H1201.11L1205.24 22.5256H1205.44L1209.51 7.90909H1212.65L1216.67 22.4759H1216.87L1221 7.90909H1224.08L1218.26 27H1215.38L1211.2 12.3338H1210.91L1206.73 27H1203.85ZM1232.18 27.4474C1230.97 27.4474 1229.87 27.2196 1228.88 26.7638C1227.9 26.2998 1227.11 25.6328 1226.53 24.7628C1225.95 23.8845 1225.66 22.8239 1225.66 21.581C1225.66 20.4872 1225.88 19.6006 1226.31 18.9212C1226.74 18.2334 1227.32 17.6948 1228.04 17.3054C1228.76 16.916 1229.55 16.6259 1230.42 16.4354C1231.3 16.2365 1232.18 16.0791 1233.07 15.9631C1234.23 15.8139 1235.17 15.7021 1235.89 15.6275C1236.62 15.5446 1237.15 15.4079 1237.48 15.2173C1237.82 15.0268 1237.99 14.6953 1237.99 14.223V14.1236C1237.99 12.8973 1237.66 11.9444 1236.99 11.2649C1236.32 10.5855 1235.32 10.2457 1233.97 10.2457C1232.57 10.2457 1231.47 10.5523 1230.67 11.1655C1229.88 11.7786 1229.32 12.4332 1228.99 13.1293L1226.21 12.1349C1226.71 10.9749 1227.37 10.0717 1228.2 9.42543C1229.04 8.77083 1229.95 8.3151 1230.93 8.05824C1231.93 7.79309 1232.91 7.66051 1233.87 7.66051C1234.48 7.66051 1235.18 7.73508 1235.98 7.88423C1236.78 8.02509 1237.56 8.31925 1238.3 8.76669C1239.06 9.21413 1239.68 9.88944 1240.18 10.7926C1240.68 11.6958 1240.93 12.9055 1240.93 14.4219V27H1237.99V24.4148H1237.84C1237.65 24.8291 1237.31 25.2724 1236.85 25.7447C1236.39 26.217 1235.77 26.6188 1235 26.9503C1234.23 27.2817 1233.29 27.4474 1232.18 27.4474ZM1232.62 24.8125C1233.78 24.8125 1234.76 24.5846 1235.56 24.1289C1236.36 23.6732 1236.97 23.0849 1237.37 22.364C1237.79 21.6431 1237.99 20.8849 1237.99 20.0895V17.4048C1237.87 17.554 1237.6 17.6907 1237.17 17.815C1236.76 17.931 1236.28 18.0346 1235.73 18.1257C1235.19 18.2086 1234.67 18.2831 1234.15 18.3494C1233.65 18.4074 1233.24 18.4571 1232.92 18.4986C1232.16 18.598 1231.45 18.7596 1230.78 18.9833C1230.13 19.1987 1229.6 19.526 1229.19 19.9652C1228.8 20.3961 1228.6 20.9844 1228.6 21.7301C1228.6 22.7493 1228.97 23.5199 1229.73 24.0419C1230.49 24.5556 1231.46 24.8125 1232.62 24.8125ZM482.615 64.5455H486.145L493.205 76.4276H493.503L500.563 64.5455H504.092L494.895 79.5099V90H491.813V79.5099L482.615 64.5455ZM511.337 90.3977C509.613 90.3977 508.101 89.9876 506.8 89.1673C505.508 88.3469 504.497 87.1993 503.767 85.7244C503.047 84.2495 502.686 82.526 502.686 80.554C502.686 78.5653 503.047 76.8294 503.767 75.3462C504.497 73.863 505.508 72.7113 506.8 71.891C508.101 71.0707 509.613 70.6605 511.337 70.6605C513.06 70.6605 514.568 71.0707 515.861 71.891C517.162 72.7113 518.173 73.863 518.894 75.3462C519.623 76.8294 519.987 78.5653 519.987 80.554C519.987 82.526 519.623 84.2495 518.894 85.7244C518.173 87.1993 517.162 88.3469 515.861 89.1673C514.568 89.9876 513.06 90.3977 511.337 90.3977ZM511.337 87.7628C512.646 87.7628 513.723 87.4272 514.568 86.756C515.413 86.0849 516.039 85.2024 516.445 84.1087C516.851 83.0149 517.054 81.83 517.054 80.554C517.054 79.2779 516.851 78.0889 516.445 76.9869C516.039 75.8848 515.413 74.9941 514.568 74.3146C513.723 73.6352 512.646 73.2955 511.337 73.2955C510.028 73.2955 508.95 73.6352 508.105 74.3146C507.26 74.9941 506.634 75.8848 506.228 76.9869C505.822 78.0889 505.619 79.2779 505.619 80.554C505.619 81.83 505.822 83.0149 506.228 84.1087C506.634 85.2024 507.26 86.0849 508.105 86.756C508.95 87.4272 510.028 87.7628 511.337 87.7628ZM530.771 97.5568C529.354 97.5568 528.136 97.3745 527.117 97.0099C526.098 96.6536 525.248 96.1813 524.569 95.593C523.898 95.013 523.363 94.3916 522.965 93.7287L525.302 92.0881C525.567 92.4361 525.903 92.8338 526.309 93.2812C526.715 93.737 527.27 94.1306 527.974 94.462C528.687 94.8017 529.619 94.9716 530.771 94.9716C532.312 94.9716 533.584 94.5987 534.587 93.853C535.589 93.1072 536.09 91.9389 536.09 90.348V86.4702H535.842C535.626 86.8182 535.32 87.2491 534.922 87.7628C534.533 88.2682 533.969 88.7198 533.232 89.1175C532.503 89.507 531.517 89.7017 530.274 89.7017C528.732 89.7017 527.349 89.3371 526.122 88.608C524.904 87.8788 523.939 86.8182 523.226 85.4261C522.522 84.0341 522.17 82.3437 522.17 80.3551C522.17 78.3996 522.514 76.6969 523.202 75.2468C523.889 73.7885 524.846 72.6616 526.073 71.8661C527.299 71.0624 528.716 70.6605 530.323 70.6605C531.566 70.6605 532.552 70.8677 533.281 71.282C534.019 71.688 534.582 72.152 534.972 72.674C535.37 73.1877 535.676 73.6103 535.892 73.9418H536.19V70.9091H539.024V90.5469C539.024 92.1875 538.651 93.5215 537.905 94.549C537.168 95.5848 536.173 96.3429 534.922 96.8235C533.679 97.3124 532.295 97.5568 530.771 97.5568ZM530.671 87.0668C531.848 87.0668 532.842 86.7975 533.654 86.2589C534.466 85.7203 535.084 84.9455 535.506 83.9347C535.929 82.9238 536.14 81.714 536.14 80.3054C536.14 78.9299 535.933 77.716 535.519 76.6637C535.104 75.6114 534.491 74.7869 533.679 74.1903C532.867 73.5937 531.865 73.2955 530.671 73.2955C529.428 73.2955 528.393 73.6103 527.564 74.2401C526.744 74.8698 526.127 75.715 525.712 76.7756C525.306 77.8362 525.103 79.0128 525.103 80.3054C525.103 81.6312 525.31 82.8036 525.725 83.8228C526.147 84.8337 526.769 85.6291 527.589 86.2092C528.418 86.7809 529.445 87.0668 530.671 87.0668ZM544.882 97.1591C544.385 97.1591 543.942 97.1177 543.552 97.0348C543.163 96.9602 542.894 96.8857 542.744 96.8111L543.49 94.2259C544.203 94.4081 544.832 94.4744 545.379 94.4247C545.926 94.375 546.411 94.1306 546.834 93.6914C547.264 93.2605 547.658 92.5604 548.014 91.5909L548.561 90.0994L541.501 70.9091H544.683L549.953 86.1222H550.152L555.422 70.9091H558.604L550.5 92.7841C550.135 93.7701 549.684 94.5863 549.145 95.2326C548.607 95.8872 547.981 96.3719 547.269 96.6868C546.564 97.0017 545.769 97.1591 544.882 97.1591ZM566.112 90.4474C564.902 90.4474 563.805 90.2196 562.819 89.7638C561.833 89.2998 561.05 88.6328 560.469 87.7628C559.889 86.8845 559.599 85.8239 559.599 84.581C559.599 83.4872 559.815 82.6006 560.246 81.9212C560.677 81.2334 561.253 80.6948 561.973 80.3054C562.694 79.916 563.49 79.6259 564.36 79.4354C565.238 79.2365 566.121 79.0791 567.007 78.9631C568.167 78.8139 569.108 78.7021 569.829 78.6275C570.558 78.5446 571.088 78.4079 571.419 78.2173C571.759 78.0268 571.929 77.6953 571.929 77.223V77.1236C571.929 75.8973 571.593 74.9444 570.922 74.2649C570.259 73.5855 569.253 73.2457 567.902 73.2457C566.502 73.2457 565.404 73.5523 564.608 74.1655C563.813 74.7786 563.254 75.4332 562.93 76.1293L560.146 75.1349C560.643 73.9749 561.306 73.0717 562.135 72.4254C562.972 71.7708 563.883 71.3151 564.869 71.0582C565.864 70.7931 566.841 70.6605 567.803 70.6605C568.416 70.6605 569.12 70.7351 569.916 70.8842C570.719 71.0251 571.494 71.3192 572.24 71.7667C572.994 72.2141 573.619 72.8894 574.117 73.7926C574.614 74.6958 574.862 75.9055 574.862 77.4219V90H571.929V87.4148H571.78C571.581 87.8291 571.25 88.2724 570.786 88.7447C570.322 89.217 569.704 89.6188 568.934 89.9503C568.163 90.2817 567.223 90.4474 566.112 90.4474ZM566.56 87.8125C567.72 87.8125 568.697 87.5846 569.493 87.1289C570.297 86.6732 570.902 86.0849 571.308 85.364C571.722 84.6431 571.929 83.8849 571.929 83.0895V80.4048C571.805 80.554 571.531 80.6907 571.109 80.815C570.694 80.931 570.214 81.0346 569.667 81.1257C569.128 81.2086 568.602 81.2831 568.088 81.3494C567.583 81.4074 567.173 81.4571 566.858 81.4986C566.096 81.598 565.383 81.7596 564.72 81.9833C564.066 82.1987 563.535 82.526 563.129 82.9652C562.732 83.3961 562.533 83.9844 562.533 84.7301C562.533 85.7493 562.91 86.5199 563.664 87.0419C564.426 87.5556 565.391 87.8125 566.56 87.8125ZM581.55 83.0398L581.501 79.4105H582.097L590.45 70.9091H594.079L585.18 79.9077H584.931L581.55 83.0398ZM578.816 90V64.5455H581.749V90H578.816ZM590.947 90L583.489 80.554L585.577 78.5156L594.675 90H590.947ZM602.072 90.4474C600.862 90.4474 599.764 90.2196 598.778 89.7638C597.792 89.2998 597.009 88.6328 596.429 87.7628C595.849 86.8845 595.559 85.8239 595.559 84.581C595.559 83.4872 595.775 82.6006 596.205 81.9212C596.636 81.2334 597.212 80.6948 597.933 80.3054C598.654 79.916 599.449 79.6259 600.319 79.4354C601.198 79.2365 602.08 79.0791 602.967 78.9631C604.127 78.8139 605.067 78.7021 605.788 78.6275C606.517 78.5446 607.048 78.4079 607.379 78.2173C607.719 78.0268 607.889 77.6953 607.889 77.223V77.1236C607.889 75.8973 607.553 74.9444 606.882 74.2649C606.219 73.5855 605.212 73.2457 603.862 73.2457C602.461 73.2457 601.364 73.5523 600.568 74.1655C599.773 74.7786 599.213 75.4332 598.89 76.1293L596.106 75.1349C596.603 73.9749 597.266 73.0717 598.095 72.4254C598.932 71.7708 599.843 71.3151 600.829 71.0582C601.823 70.7931 602.801 70.6605 603.762 70.6605C604.375 70.6605 605.08 70.7351 605.875 70.8842C606.679 71.0251 607.454 71.3192 608.199 71.7667C608.953 72.2141 609.579 72.8894 610.076 73.7926C610.573 74.6958 610.822 75.9055 610.822 77.4219V90H607.889V87.4148H607.74C607.541 87.8291 607.209 88.2724 606.745 88.7447C606.281 89.217 605.664 89.6188 604.893 89.9503C604.123 90.2817 603.182 90.4474 602.072 90.4474ZM602.519 87.8125C603.679 87.8125 604.657 87.5846 605.453 87.1289C606.256 86.6732 606.861 86.0849 607.267 85.364C607.682 84.6431 607.889 83.8849 607.889 83.0895V80.4048C607.764 80.554 607.491 80.6907 607.068 80.815C606.654 80.931 606.174 81.0346 605.627 81.1257C605.088 81.2086 604.562 81.2831 604.048 81.3494C603.543 81.4074 603.133 81.4571 602.818 81.4986C602.055 81.598 601.343 81.7596 600.68 81.9833C600.025 82.1987 599.495 82.526 599.089 82.9652C598.691 83.3961 598.492 83.9844 598.492 84.7301C598.492 85.7493 598.869 86.5199 599.623 87.0419C600.386 87.5556 601.351 87.8125 602.519 87.8125ZM614.776 90V70.9091H617.61V73.7926H617.808C618.156 72.848 618.786 72.0816 619.698 71.4933C620.609 70.9049 621.637 70.6108 622.78 70.6108C622.995 70.6108 623.265 70.6149 623.588 70.6232C623.911 70.6315 624.156 70.6439 624.321 70.6605V73.6435C624.222 73.6186 623.994 73.5813 623.638 73.5316C623.29 73.4736 622.921 73.4446 622.531 73.4446C621.603 73.4446 620.775 73.6393 620.046 74.0288C619.325 74.4099 618.753 74.9402 618.33 75.6197C617.916 76.2908 617.709 77.0573 617.709 77.919V90H614.776ZM635.897 70.9091V73.3949H626.004V70.9091H635.897ZM628.887 66.3352H631.82V84.5312C631.82 85.3598 631.941 85.9813 632.181 86.3956C632.429 86.8016 632.744 87.075 633.125 87.2159C633.515 87.3485 633.925 87.4148 634.356 87.4148C634.679 87.4148 634.944 87.3982 635.151 87.3651C635.358 87.3236 635.524 87.2905 635.648 87.2656L636.245 89.9006C636.046 89.9751 635.769 90.0497 635.412 90.1243C635.056 90.2071 634.604 90.2486 634.058 90.2486C633.229 90.2486 632.417 90.0704 631.621 89.7141C630.834 89.3578 630.18 88.8151 629.658 88.0859C629.144 87.3568 628.887 86.437 628.887 85.3267V66.3352ZM644.527 90.4474C643.318 90.4474 642.22 90.2196 641.234 89.7638C640.248 89.2998 639.465 88.6328 638.885 87.7628C638.305 86.8845 638.015 85.8239 638.015 84.581C638.015 83.4872 638.23 82.6006 638.661 81.9212C639.092 81.2334 639.668 80.6948 640.388 80.3054C641.109 79.916 641.905 79.6259 642.775 79.4354C643.653 79.2365 644.536 79.0791 645.422 78.9631C646.582 78.8139 647.523 78.7021 648.244 78.6275C648.973 78.5446 649.503 78.4079 649.834 78.2173C650.174 78.0268 650.344 77.6953 650.344 77.223V77.1236C650.344 75.8973 650.008 74.9444 649.337 74.2649C648.674 73.5855 647.668 73.2457 646.317 73.2457C644.917 73.2457 643.819 73.5523 643.023 74.1655C642.228 74.7786 641.669 75.4332 641.345 76.1293L638.561 75.1349C639.059 73.9749 639.721 73.0717 640.55 72.4254C641.387 71.7708 642.298 71.3151 643.284 71.0582C644.279 70.7931 645.256 70.6605 646.218 70.6605C646.831 70.6605 647.535 70.7351 648.331 70.8842C649.134 71.0251 649.909 71.3192 650.655 71.7667C651.409 72.2141 652.034 72.8894 652.532 73.7926C653.029 74.6958 653.277 75.9055 653.277 77.4219V90H650.344V87.4148H650.195C649.996 87.8291 649.665 88.2724 649.201 88.7447C648.737 89.217 648.119 89.6188 647.349 89.9503C646.578 90.2817 645.638 90.4474 644.527 90.4474ZM644.975 87.8125C646.135 87.8125 647.113 87.5846 647.908 87.1289C648.712 86.6732 649.317 86.0849 649.723 85.364C650.137 84.6431 650.344 83.8849 650.344 83.0895V80.4048C650.22 80.554 649.946 80.6907 649.524 80.815C649.109 80.931 648.629 81.0346 648.082 81.1257C647.543 81.2086 647.017 81.2831 646.503 81.3494C645.998 81.4074 645.588 81.4571 645.273 81.4986C644.511 81.598 643.798 81.7596 643.135 81.9833C642.481 82.1987 641.95 82.526 641.544 82.9652C641.147 83.3961 640.948 83.9844 640.948 84.7301C640.948 85.7493 641.325 86.5199 642.079 87.0419C642.841 87.5556 643.806 87.8125 644.975 87.8125ZM673.58 90.348C672.121 90.348 670.808 90.058 669.64 89.478C668.471 88.898 667.535 88.1025 666.831 87.0916C666.126 86.0807 665.741 84.929 665.675 83.6364H668.658C668.774 84.7881 669.296 85.741 670.224 86.495C671.16 87.2408 672.279 87.6136 673.58 87.6136C674.624 87.6136 675.552 87.3692 676.364 86.8803C677.184 86.3915 677.826 85.7203 678.29 84.8668C678.762 84.0051 678.999 83.0315 678.999 81.946C678.999 80.8357 678.754 79.8455 678.265 78.9755C677.785 78.0972 677.122 77.4053 676.277 76.8999C675.432 76.3944 674.466 76.1375 673.381 76.1293C672.602 76.121 671.802 76.2411 670.982 76.4897C670.162 76.73 669.486 77.0407 668.956 77.4219L666.072 77.0739L667.614 64.5455H680.838V67.2798H670.199L669.304 74.7869H669.453C669.975 74.3726 670.63 74.0288 671.417 73.7553C672.204 73.4819 673.024 73.3452 673.878 73.3452C675.436 73.3452 676.824 73.718 678.042 74.4638C679.268 75.2012 680.229 76.2121 680.925 77.4964C681.629 78.7808 681.982 80.2474 681.982 81.8963C681.982 83.5204 681.617 84.9704 680.888 86.2464C680.167 87.5142 679.173 88.5168 677.905 89.2543C676.637 89.9834 675.195 90.348 673.58 90.348ZM693.474 90.348C692.015 90.348 690.702 90.058 689.534 89.478C688.365 88.898 687.429 88.1025 686.725 87.0916C686.02 86.0807 685.635 84.929 685.569 83.6364H688.552C688.668 84.7881 689.19 85.741 690.118 86.495C691.054 87.2408 692.173 87.6136 693.474 87.6136C694.518 87.6136 695.446 87.3692 696.258 86.8803C697.078 86.3915 697.72 85.7203 698.184 84.8668C698.656 84.0051 698.893 83.0315 698.893 81.946C698.893 80.8357 698.648 79.8455 698.159 78.9755C697.679 78.0972 697.016 77.4053 696.171 76.8999C695.326 76.3944 694.36 76.1375 693.275 76.1293C692.496 76.121 691.696 76.2411 690.876 76.4897C690.056 76.73 689.38 77.0407 688.85 77.4219L685.966 77.0739L687.508 64.5455H700.732V67.2798H690.093L689.198 74.7869H689.347C689.869 74.3726 690.524 74.0288 691.311 73.7553C692.098 73.4819 692.918 73.3452 693.772 73.3452C695.33 73.3452 696.718 73.718 697.936 74.4638C699.162 75.2012 700.123 76.2121 700.819 77.4964C701.523 78.7808 701.876 80.2474 701.876 81.8963C701.876 83.5204 701.511 84.9704 700.782 86.2464C700.061 87.5142 699.067 88.5168 697.799 89.2543C696.531 89.9834 695.089 90.348 693.474 90.348ZM714.362 64.5455V90H711.279V67.777H711.13L704.916 71.9034V68.7713L711.279 64.5455H714.362ZM728.386 64.1974C729.43 64.2057 730.474 64.4046 731.518 64.794C732.562 65.1835 733.515 65.8298 734.377 66.733C735.239 67.6278 735.931 68.85 736.453 70.3995C736.975 71.949 737.236 73.892 737.236 76.2287C737.236 78.4908 737.02 80.5001 736.589 82.2567C736.167 84.0051 735.554 85.48 734.75 86.6815C733.954 87.8829 732.985 88.7944 731.841 89.4158C730.706 90.0373 729.422 90.348 727.988 90.348C726.563 90.348 725.291 90.0663 724.173 89.5028C723.062 88.9311 722.151 88.1398 721.438 87.1289C720.734 86.1097 720.283 84.929 720.084 83.5866H723.116C723.39 84.755 723.933 85.7203 724.745 86.4826C725.565 87.2366 726.646 87.6136 727.988 87.6136C729.952 87.6136 731.502 86.756 732.637 85.0408C733.78 83.3256 734.352 80.902 734.352 77.7699H734.153C733.689 78.4659 733.138 79.0666 732.5 79.5721C731.862 80.0775 731.154 80.467 730.375 80.7404C729.596 81.0138 728.767 81.1506 727.889 81.1506C726.431 81.1506 725.093 80.7901 723.875 80.0692C722.665 79.3401 721.695 78.3416 720.966 77.0739C720.245 75.7978 719.885 74.3395 719.885 72.6989C719.885 71.1411 720.233 69.7159 720.929 68.4233C721.633 67.1224 722.619 66.0866 723.887 65.3161C725.163 64.5455 726.663 64.1726 728.386 64.1974ZM728.386 66.9318C727.342 66.9318 726.402 67.1928 725.565 67.7148C724.736 68.2286 724.078 68.9246 723.589 69.8029C723.108 70.6729 722.868 71.6383 722.868 72.6989C722.868 73.7595 723.1 74.7248 723.564 75.5948C724.036 76.4566 724.678 77.1443 725.49 77.658C726.311 78.1635 727.243 78.4162 728.287 78.4162C729.074 78.4162 729.807 78.2629 730.487 77.9563C731.166 77.6415 731.759 77.2147 732.264 76.6761C732.778 76.1293 733.18 75.512 733.47 74.8242C733.76 74.1282 733.905 73.4032 733.905 72.6491C733.905 71.6548 733.664 70.7227 733.184 69.8526C732.712 68.9826 732.057 68.2783 731.22 67.7397C730.391 67.2011 729.447 66.9318 728.386 66.9318ZM740.723 90V87.7628L749.125 78.5653C750.111 77.4882 750.923 76.5518 751.561 75.7564C752.199 74.9527 752.672 74.1986 752.978 73.4943C753.293 72.7817 753.451 72.036 753.451 71.2571C753.451 70.3622 753.235 69.5875 752.804 68.9329C752.382 68.2783 751.802 67.7728 751.064 67.4165C750.327 67.0603 749.498 66.8821 748.578 66.8821C747.601 66.8821 746.747 67.0851 746.018 67.4911C745.297 67.8888 744.738 68.4482 744.34 69.169C743.951 69.8899 743.756 70.7351 743.756 71.7045H740.823C740.823 70.2131 741.167 68.9039 741.854 67.777C742.542 66.6501 743.478 65.7718 744.663 65.142C745.856 64.5123 747.195 64.1974 748.678 64.1974C750.169 64.1974 751.491 64.5123 752.643 65.142C753.794 65.7718 754.698 66.6211 755.352 67.69C756.007 68.7589 756.334 69.9479 756.334 71.2571C756.334 72.1934 756.164 73.109 755.825 74.0039C755.493 74.8905 754.913 75.8807 754.084 76.9744C753.264 78.0599 752.125 79.3857 750.667 80.9517L744.949 87.0668V87.2656H756.782V90H740.723Z" fill="black"/>
</svg>
