<svg width="671" height="44" viewBox="0 0 671 44" fill="none" xmlns="http://www.w3.org/2000/svg">
<path d="M25.132 12.9496C24.9672 11.2881 24.2601 9.99739 23.0106 9.07741C21.761 8.15743 20.0653 7.69744 17.9232 7.69744C16.4677 7.69744 15.2388 7.90341 14.2364 8.31534C13.2341 8.71354 12.4651 9.26965 11.9296 9.98366C11.4078 10.6977 11.1469 11.5078 11.1469 12.4141C11.1195 13.1693 11.2774 13.8284 11.6207 14.3913C11.9777 14.9543 12.4651 15.4418 13.083 15.8537C13.7009 16.2519 14.4149 16.602 15.2251 16.9041C16.0352 17.1925 16.9002 17.4396 17.8202 17.6456L21.61 18.5518C23.45 18.9638 25.1389 19.513 26.6768 20.1996C28.2146 20.8861 29.5466 21.7306 30.6725 22.733C31.7984 23.7353 32.6704 24.9162 33.2883 26.2756C33.9199 27.6349 34.2426 29.1934 34.2563 30.951C34.2426 33.5324 33.5835 35.7706 32.279 37.6655C30.9883 39.5466 29.1209 41.009 26.6768 42.0526C24.2464 43.0824 21.3148 43.5973 17.882 43.5973C14.4767 43.5973 11.5108 43.0755 8.98429 42.032C6.4715 40.9884 4.50796 39.4437 3.09366 37.3977C1.69309 35.3381 0.958481 32.791 0.889826 29.7564H9.5198C9.61592 31.1707 10.021 32.3516 10.735 33.299C11.4627 34.2327 12.4308 34.9399 13.6391 35.4205C14.8612 35.8873 16.2412 36.1207 17.779 36.1207C19.2894 36.1207 20.6008 35.901 21.713 35.4616C22.8389 35.0223 23.7108 34.4112 24.3287 33.6286C24.9466 32.8459 25.2556 31.9465 25.2556 30.9304C25.2556 29.983 24.9741 29.1866 24.4111 28.5412C23.8619 27.8958 23.0518 27.3466 21.9807 26.8935C20.9234 26.4403 19.6259 26.0284 18.088 25.6577L13.4949 24.5043C9.9386 23.6392 7.13059 22.2867 5.07093 20.4467C3.01127 18.6068 1.98831 16.1283 2.00204 13.0114C1.98831 10.4574 2.668 8.22609 4.0411 6.31747C5.42794 4.40885 7.32969 2.91903 9.74636 1.84801C12.163 0.776987 14.9092 0.241476 17.985 0.241476C21.1157 0.241476 23.8482 0.776987 26.1824 1.84801C28.5305 2.91903 30.3567 4.40885 31.6611 6.31747C32.9656 8.22609 33.6384 10.4368 33.6796 12.9496H25.132ZM47.7734 0.818181V43H38.8551V0.818181H47.7734ZM88.9929 0.818181V43H81.2898L62.9382 16.451H62.6292V43H53.7109V0.818181H61.5376L79.745 27.3466H80.1157V0.818181H88.9929ZM122.931 14.4531C122.643 13.4508 122.238 12.5651 121.716 11.7962C121.195 11.0135 120.556 10.3544 119.801 9.81889C119.059 9.26965 118.208 8.85085 117.247 8.5625C116.299 8.27415 115.249 8.12997 114.096 8.12997C111.94 8.12997 110.045 8.66548 108.411 9.7365C106.791 10.8075 105.527 12.366 104.621 14.4119C103.715 16.4441 103.262 18.9294 103.262 21.8679C103.262 24.8063 103.708 27.3054 104.601 29.3651C105.493 31.4247 106.756 32.9969 108.39 34.0817C110.024 35.1527 111.954 35.6882 114.178 35.6882C116.196 35.6882 117.92 35.3312 119.348 34.6172C120.789 33.8894 121.888 32.8665 122.643 31.5483C123.412 30.2301 123.797 28.6716 123.797 26.8729L125.609 27.1406H114.734V20.4261H132.385V25.7401C132.385 29.4474 131.603 32.633 130.037 35.2969C128.472 37.947 126.316 39.9929 123.57 41.4347C120.824 42.8627 117.679 43.5767 114.137 43.5767C110.182 43.5767 106.708 42.7048 103.715 40.9609C100.721 39.2034 98.3872 36.7112 96.712 33.4844C95.0506 30.2438 94.2198 26.3991 94.2198 21.9503C94.2198 18.5312 94.7142 15.483 95.7028 12.8054C96.7052 10.1141 98.1057 7.83475 99.9045 5.96733C101.703 4.0999 103.797 2.67874 106.186 1.70383C108.576 0.728928 111.164 0.241476 113.951 0.241476C116.341 0.241476 118.565 0.591618 120.625 1.2919C122.684 1.97846 124.511 2.95336 126.103 4.21662C127.71 5.47988 129.021 6.98343 130.037 8.72727C131.053 10.4574 131.706 12.366 131.994 14.4531H122.931ZM137.684 43V0.818181H146.603V35.647H164.686V43H137.684ZM169.193 43V0.818181H197.616V8.17116H178.111V18.2223H196.153V25.5753H178.111V35.647H197.698V43H169.193ZM254.093 21.9091C254.093 26.509 253.221 30.4223 251.477 33.6491C249.747 36.8759 247.385 39.3407 244.392 41.0433C241.412 42.7322 238.062 43.5767 234.341 43.5767C230.592 43.5767 227.228 42.7254 224.248 41.0227C221.269 39.3201 218.914 36.8554 217.184 33.6286C215.454 30.4018 214.589 26.4953 214.589 21.9091C214.589 17.3092 215.454 13.3958 217.184 10.169C218.914 6.94223 221.269 4.48437 224.248 2.79545C227.228 1.0928 230.592 0.241476 234.341 0.241476C238.062 0.241476 241.412 1.0928 244.392 2.79545C247.385 4.48437 249.747 6.94223 251.477 10.169C253.221 13.3958 254.093 17.3092 254.093 21.9091ZM245.051 21.9091C245.051 18.9295 244.605 16.4167 243.712 14.3707C242.833 12.3248 241.591 10.7732 239.984 9.71591C238.378 8.65862 236.496 8.12997 234.341 8.12997C232.185 8.12997 230.304 8.65862 228.697 9.71591C227.091 10.7732 225.841 12.3248 224.949 14.3707C224.07 16.4167 223.63 18.9295 223.63 21.9091C223.63 24.8887 224.07 27.4015 224.949 29.4474C225.841 31.4934 227.091 33.045 228.697 34.1023C230.304 35.1596 232.185 35.6882 234.341 35.6882C236.496 35.6882 238.378 35.1596 239.984 34.1023C241.591 33.045 242.833 31.4934 243.712 29.4474C244.605 27.4015 245.051 24.8887 245.051 21.9091ZM259.299 43V0.818181H275.941C279.127 0.818181 281.846 1.38802 284.097 2.5277C286.363 3.65364 288.086 5.25331 289.267 7.3267C290.462 9.38636 291.059 11.8099 291.059 14.5973C291.059 17.3984 290.455 19.8082 289.247 21.8267C288.038 23.8314 286.288 25.3693 283.995 26.4403C281.715 27.5114 278.955 28.0469 275.715 28.0469H264.572V20.8793H274.273C275.976 20.8793 277.39 20.6458 278.516 20.179C279.642 19.7121 280.479 19.0118 281.029 18.0781C281.592 17.1444 281.873 15.9841 281.873 14.5973C281.873 13.1967 281.592 12.0159 281.029 11.0547C280.479 10.0935 279.635 9.36577 278.495 8.87145C277.369 8.3634 275.948 8.10938 274.232 8.10938H268.218V43H259.299ZM282.079 23.804L292.563 43H282.718L272.46 23.804H282.079ZM304.88 0.818181V43H295.962V0.818181H304.88ZM338.788 14.4531C338.499 13.4508 338.094 12.5651 337.573 11.7962C337.051 11.0135 336.412 10.3544 335.657 9.81889C334.916 9.26965 334.064 8.85085 333.103 8.5625C332.156 8.27415 331.105 8.12997 329.952 8.12997C327.796 8.12997 325.901 8.66548 324.267 9.7365C322.647 10.8075 321.384 12.366 320.477 14.4119C319.571 16.4441 319.118 18.9294 319.118 21.8679C319.118 24.8063 319.564 27.3054 320.457 29.3651C321.349 31.4247 322.613 32.9969 324.247 34.0817C325.881 35.1527 327.81 35.6882 330.034 35.6882C332.053 35.6882 333.776 35.3312 335.204 34.6172C336.646 33.8894 337.744 32.8665 338.499 31.5483C339.268 30.2301 339.653 28.6716 339.653 26.8729L341.465 27.1406H330.59V20.4261H348.242V25.7401C348.242 29.4474 347.459 32.633 345.894 35.2969C344.328 37.947 342.172 39.9929 339.426 41.4347C336.68 42.8627 333.536 43.5767 329.993 43.5767C326.038 43.5767 322.564 42.7048 319.571 40.9609C316.578 39.2034 314.243 36.7112 312.568 33.4844C310.907 30.2438 310.076 26.3991 310.076 21.9503C310.076 18.5312 310.57 15.483 311.559 12.8054C312.561 10.1141 313.962 7.83475 315.761 5.96733C317.56 4.0999 319.653 2.67874 322.043 1.70383C324.432 0.728928 327.02 0.241476 329.808 0.241476C332.197 0.241476 334.421 0.591618 336.481 1.2919C338.541 1.97846 340.367 2.95336 341.96 4.21662C343.566 5.47988 344.877 6.98343 345.894 8.72727C346.91 10.4574 347.562 12.366 347.85 14.4531H338.788ZM362.459 0.818181V43H353.541V0.818181H362.459ZM403.678 0.818181V43H395.975L377.624 16.451H377.315V43H368.396V0.818181H376.223L394.431 27.3466H394.801V0.818181H403.678ZM428.941 43H419.384L433.946 0.818181H445.439L459.98 43H450.424L439.857 10.4574H439.528L428.941 43ZM428.344 26.4197H450.918V33.3814H428.344V26.4197ZM463.657 43V0.818181H480.299C483.485 0.818181 486.204 1.38802 488.456 2.5277C490.721 3.65364 492.445 5.25331 493.625 7.3267C494.82 9.38636 495.417 11.8099 495.417 14.5973C495.417 17.3984 494.813 19.8082 493.605 21.8267C492.397 23.8314 490.646 25.3693 488.353 26.4403C486.073 27.5114 483.313 28.0469 480.073 28.0469H468.93V20.8793H478.631C480.334 20.8793 481.748 20.6458 482.874 20.179C484 19.7121 484.838 19.0118 485.387 18.0781C485.95 17.1444 486.231 15.9841 486.231 14.5973C486.231 13.1967 485.95 12.0159 485.387 11.0547C484.838 10.0935 483.993 9.36577 482.853 8.87145C481.727 8.3634 480.306 8.10938 478.59 8.10938H472.576V43H463.657ZM486.437 23.804L496.921 43H487.076L476.819 23.804H486.437ZM507.59 43H498.034L512.595 0.818181H524.088L538.63 43H529.073L518.507 10.4574H518.177L507.59 43ZM506.993 26.4197H529.567V33.3814H506.993V26.4197ZM542.307 43V0.818181H559.196C562.299 0.818181 564.887 1.27817 566.961 2.19815C569.034 3.11813 570.593 4.39512 571.636 6.02912C572.68 7.64938 573.202 9.51681 573.202 11.6314C573.202 13.2791 572.872 14.7277 572.213 15.9773C571.554 17.2131 570.648 18.2292 569.494 19.0256C568.354 19.8082 567.05 20.3643 565.581 20.6939V21.1058C567.187 21.1745 568.691 21.6276 570.091 22.4652C571.506 23.3028 572.652 24.4768 573.531 25.9872C574.41 27.4839 574.849 29.2689 574.849 31.3423C574.849 33.5805 574.293 35.5784 573.181 37.3359C572.082 39.0798 570.455 40.4598 568.3 41.4759C566.144 42.492 563.487 43 560.329 43H542.307ZM551.225 35.7088H558.496C560.981 35.7088 562.793 35.2351 563.933 34.2876C565.073 33.3265 565.643 32.0495 565.643 30.4567C565.643 29.2895 565.361 28.2597 564.798 27.3672C564.235 26.4747 563.432 25.7744 562.388 25.2663C561.358 24.7583 560.13 24.5043 558.702 24.5043H551.225V35.7088ZM551.225 18.4695H557.836C559.059 18.4695 560.143 18.2566 561.091 17.831C562.052 17.3916 562.807 16.7737 563.356 15.9773C563.919 15.1809 564.201 14.2266 564.201 13.1143C564.201 11.5902 563.658 10.3613 562.574 9.42756C561.503 8.49384 559.979 8.02699 558.001 8.02699H551.225V18.4695ZM588.171 0.818181V43H579.252V0.818181H588.171ZM594.108 43V0.818181H603.027V19.4169H603.583L618.762 0.818181H629.452L613.799 19.7053L629.637 43H618.968L607.414 25.6577L603.027 31.0128V43H594.108ZM639.967 43H630.41L644.972 0.818181H656.465L671.006 43H661.449L650.883 10.4574H650.554L639.967 43ZM639.37 26.4197H661.944V33.3814H639.37V26.4197Z" fill="#206A5D"/>
</svg>
