<svg width="673" height="97" viewBox="0 0 673 97" fill="none" xmlns="http://www.w3.org/2000/svg">
<path d="M274.661 60.3672V41.691H278.898V60.3672H274.661ZM267.441 53.1477V48.9105H286.117V53.1477H267.441Z" fill="white"/>
<path d="M478.726 62V34.3636H489.305C491.303 34.3636 492.962 34.6785 494.285 35.3082C495.616 35.929 496.61 36.7791 497.267 37.8587C497.933 38.9382 498.266 40.1617 498.266 41.5291C498.266 42.6536 498.05 43.6162 497.618 44.4169C497.186 45.2086 496.606 45.8518 495.877 46.3466C495.148 46.8414 494.334 47.1967 493.435 47.4126V47.6825C494.415 47.7365 495.355 48.0379 496.255 48.5866C497.164 49.1264 497.906 49.8911 498.482 50.8807C499.057 51.8703 499.345 53.0668 499.345 54.4702C499.345 55.9006 498.999 57.187 498.306 58.3295C497.613 59.4631 496.57 60.3582 495.175 61.0149C493.781 61.6716 492.027 62 489.913 62H478.726ZM483.732 57.8168H489.116C490.934 57.8168 492.243 57.4704 493.043 56.7777C493.853 56.076 494.258 55.1764 494.258 54.0788C494.258 53.2602 494.055 52.5225 493.651 51.8658C493.246 51.2 492.67 50.6783 491.923 50.3004C491.177 49.9136 490.286 49.7202 489.251 49.7202H483.732V57.8168ZM483.732 46.1172H488.685C489.548 46.1172 490.326 45.9598 491.019 45.6449C491.712 45.321 492.256 44.8667 492.652 44.282C493.057 43.6882 493.259 42.9865 493.259 42.1768C493.259 41.1063 492.881 40.2247 492.126 39.532C491.379 38.8393 490.268 38.4929 488.793 38.4929H483.732V46.1172ZM511.261 62.4048C509.183 62.4048 507.388 61.973 505.876 61.1094C504.374 60.2367 503.218 59.0043 502.408 57.4119C501.599 55.8106 501.194 53.9259 501.194 51.7578C501.194 49.6257 501.599 47.7545 502.408 46.1442C503.227 44.5249 504.37 43.2654 505.836 42.3658C507.302 41.4571 509.025 41.0028 511.004 41.0028C512.282 41.0028 513.487 41.2098 514.621 41.6236C515.763 42.0284 516.771 42.6581 517.644 43.5128C518.525 44.3674 519.218 45.456 519.722 46.7784C520.225 48.0919 520.477 49.6572 520.477 51.4744V52.9723H503.488V49.6797H515.795C515.786 48.7441 515.583 47.9119 515.188 47.1832C514.792 46.4455 514.238 45.8653 513.528 45.4425C512.826 45.0196 512.007 44.8082 511.072 44.8082C510.073 44.8082 509.196 45.0511 508.44 45.5369C507.685 46.0137 507.095 46.6435 506.673 47.4261C506.259 48.1998 506.047 49.05 506.038 49.9766V52.8509C506.038 54.0563 506.259 55.0909 506.7 55.9545C507.14 56.8092 507.757 57.4659 508.548 57.9247C509.34 58.3745 510.267 58.5994 511.328 58.5994C512.039 58.5994 512.682 58.5005 513.258 58.3026C513.834 58.0956 514.333 57.7943 514.756 57.3984C515.179 57.0026 515.498 56.5123 515.714 55.9276L520.275 56.4403C519.987 57.6458 519.438 58.6984 518.629 59.598C517.828 60.4886 516.802 61.1813 515.552 61.6761C514.301 62.1619 512.871 62.4048 511.261 62.4048ZM528.095 34.3636V62H523.21V34.3636H528.095ZM531.718 62V41.2727H536.603V62H531.718ZM534.174 38.331C533.4 38.331 532.735 38.0746 532.177 37.5618C531.619 37.04 531.34 36.4148 531.34 35.6861C531.34 34.9484 531.619 34.3232 532.177 33.8104C532.735 33.2886 533.4 33.0277 534.174 33.0277C534.957 33.0277 535.623 33.2886 536.171 33.8104C536.729 34.3232 537.008 34.9484 537.008 35.6861C537.008 36.4148 536.729 37.04 536.171 37.5618C535.623 38.0746 534.957 38.331 534.174 38.331Z" fill="white"/>
<line x1="342.5" y1="2" x2="342.5" y2="97" stroke="white"/>
<path d="M274.661 60.3672V41.691H278.898V60.3672H274.661ZM267.441 53.1477V48.9105H286.117V53.1477H267.441Z" fill="white"/>
<rect width="673" height="95" fill="#206A5D"/>
<path d="M230.726 59V31.3636H241.305C243.303 31.3636 244.962 31.6785 246.285 32.3082C247.616 32.929 248.61 33.7791 249.267 34.8587C249.933 35.9382 250.266 37.1617 250.266 38.5291C250.266 39.6536 250.05 40.6162 249.618 41.4169C249.186 42.2086 248.606 42.8518 247.877 43.3466C247.148 43.8414 246.334 44.1967 245.435 44.4126V44.6825C246.415 44.7365 247.355 45.0379 248.255 45.5866C249.164 46.1264 249.906 46.8911 250.482 47.8807C251.057 48.8703 251.345 50.0668 251.345 51.4702C251.345 52.9006 250.999 54.187 250.306 55.3295C249.613 56.4631 248.57 57.3582 247.175 58.0149C245.781 58.6716 244.027 59 241.913 59H230.726ZM235.732 54.8168H241.116C242.934 54.8168 244.243 54.4704 245.043 53.7777C245.853 53.076 246.258 52.1764 246.258 51.0788C246.258 50.2602 246.055 49.5225 245.651 48.8658C245.246 48.2 244.67 47.6783 243.923 47.3004C243.177 46.9136 242.286 46.7202 241.251 46.7202H235.732V54.8168ZM235.732 43.1172H240.685C241.548 43.1172 242.326 42.9598 243.019 42.6449C243.712 42.321 244.256 41.8667 244.652 41.282C245.057 40.6882 245.259 39.9865 245.259 39.1768C245.259 38.1063 244.881 37.2247 244.126 36.532C243.379 35.8393 242.268 35.4929 240.793 35.4929H235.732V43.1172ZM263.261 59.4048C261.183 59.4048 259.388 58.973 257.876 58.1094C256.374 57.2367 255.218 56.0043 254.408 54.4119C253.599 52.8106 253.194 50.9259 253.194 48.7578C253.194 46.6257 253.599 44.7545 254.408 43.1442C255.227 41.5249 256.37 40.2654 257.836 39.3658C259.302 38.4571 261.025 38.0028 263.004 38.0028C264.282 38.0028 265.487 38.2098 266.621 38.6236C267.763 39.0284 268.771 39.6581 269.644 40.5128C270.525 41.3674 271.218 42.456 271.722 43.7784C272.225 45.0919 272.477 46.6572 272.477 48.4744V49.9723H255.488V46.6797H267.795C267.786 45.7441 267.583 44.9119 267.188 44.1832C266.792 43.4455 266.238 42.8653 265.528 42.4425C264.826 42.0196 264.007 41.8082 263.072 41.8082C262.073 41.8082 261.196 42.0511 260.44 42.5369C259.685 43.0137 259.095 43.6435 258.673 44.4261C258.259 45.1998 258.047 46.05 258.038 46.9766V49.8509C258.038 51.0563 258.259 52.0909 258.7 52.9545C259.14 53.8092 259.757 54.4659 260.548 54.9247C261.34 55.3745 262.267 55.5994 263.328 55.5994C264.039 55.5994 264.682 55.5005 265.258 55.3026C265.834 55.0956 266.333 54.7943 266.756 54.3984C267.179 54.0026 267.498 53.5123 267.714 52.9276L272.275 53.4403C271.987 54.6458 271.438 55.6984 270.629 56.598C269.828 57.4886 268.802 58.1813 267.552 58.6761C266.301 59.1619 264.871 59.4048 263.261 59.4048ZM280.095 31.3636V59H275.21V31.3636H280.095ZM283.718 59V38.2727H288.603V59H283.718ZM286.174 35.331C285.4 35.331 284.735 35.0746 284.177 34.5618C283.619 34.04 283.34 33.4148 283.34 32.6861C283.34 31.9484 283.619 31.3232 284.177 30.8104C284.735 30.2886 285.4 30.0277 286.174 30.0277C286.957 30.0277 287.623 30.2886 288.171 30.8104C288.729 31.3232 289.008 31.9484 289.008 32.6861C289.008 33.4148 288.729 34.04 288.171 34.5618C287.623 35.0746 286.957 35.331 286.174 35.331ZM315.487 38.9609C315.361 37.7824 314.83 36.8648 313.895 36.2081C312.968 35.5514 311.763 35.223 310.278 35.223C309.235 35.223 308.34 35.3804 307.593 35.6953C306.846 36.0102 306.275 36.4375 305.879 36.9773C305.483 37.517 305.281 38.1333 305.272 38.826C305.272 39.4018 305.402 39.901 305.663 40.3239C305.933 40.7467 306.298 41.1065 306.756 41.4034C307.215 41.6913 307.723 41.9342 308.281 42.1321C308.839 42.33 309.401 42.4964 309.968 42.6314L312.559 43.2791C313.603 43.522 314.606 43.8504 315.568 44.2642C316.54 44.678 317.408 45.1998 318.173 45.8295C318.946 46.4593 319.558 47.2195 320.008 48.1101C320.458 49.0007 320.683 50.0443 320.683 51.2408C320.683 52.8601 320.269 54.286 319.441 55.5185C318.613 56.742 317.417 57.7 315.852 58.3928C314.295 59.0765 312.411 59.4183 310.197 59.4183C308.047 59.4183 306.181 59.0855 304.597 58.4197C303.023 57.754 301.79 56.7824 300.9 55.505C300.018 54.2275 299.541 52.6712 299.469 50.8359H304.395C304.467 51.7985 304.764 52.5992 305.286 53.2379C305.807 53.8767 306.487 54.3535 307.323 54.6683C308.169 54.9832 309.113 55.1406 310.157 55.1406C311.246 55.1406 312.199 54.9787 313.018 54.6548C313.845 54.322 314.493 53.8632 314.961 53.2784C315.429 52.6847 315.667 51.992 315.676 51.2003C315.667 50.4806 315.456 49.8868 315.042 49.419C314.628 48.9422 314.048 48.5464 313.301 48.2315C312.563 47.9077 311.7 47.6198 310.71 47.3679L307.566 46.5582C305.29 45.9735 303.491 45.0874 302.168 43.8999C300.855 42.7034 300.198 41.1155 300.198 39.1364C300.198 37.508 300.639 36.0821 301.521 34.8587C302.411 33.6352 303.621 32.6861 305.151 32.0114C306.68 31.3277 308.412 30.9858 310.346 30.9858C312.307 30.9858 314.025 31.3277 315.501 32.0114C316.985 32.6861 318.15 33.6262 318.996 34.8317C319.841 36.0282 320.278 37.4046 320.305 38.9609H315.487ZM332.706 59.4048C330.628 59.4048 328.833 58.973 327.322 58.1094C325.819 57.2367 324.663 56.0043 323.854 54.4119C323.044 52.8106 322.639 50.9259 322.639 48.7578C322.639 46.6257 323.044 44.7545 323.854 43.1442C324.672 41.5249 325.815 40.2654 327.281 39.3658C328.748 38.4571 330.47 38.0028 332.45 38.0028C333.727 38.0028 334.933 38.2098 336.066 38.6236C337.209 39.0284 338.216 39.6581 339.089 40.5128C339.97 41.3674 340.663 42.456 341.167 43.7784C341.671 45.0919 341.923 46.6572 341.923 48.4744V49.9723H324.933V46.6797H337.24C337.231 45.7441 337.029 44.9119 336.633 44.1832C336.237 43.4455 335.684 42.8653 334.973 42.4425C334.271 42.0196 333.453 41.8082 332.517 41.8082C331.519 41.8082 330.641 42.0511 329.886 42.5369C329.13 43.0137 328.541 43.6435 328.118 44.4261C327.704 45.1998 327.493 46.05 327.484 46.9766V49.8509C327.484 51.0563 327.704 52.0909 328.145 52.9545C328.586 53.8092 329.202 54.4659 329.994 54.9247C330.785 55.3745 331.712 55.5994 332.773 55.5994C333.484 55.5994 334.127 55.5005 334.703 55.3026C335.279 55.0956 335.778 54.7943 336.201 54.3984C336.624 54.0026 336.943 53.5123 337.159 52.9276L341.72 53.4403C341.432 54.6458 340.884 55.6984 340.074 56.598C339.273 57.4886 338.248 58.1813 336.997 58.6761C335.747 59.1619 334.316 59.4048 332.706 59.4048ZM349.108 52.4957L349.095 46.5987H349.878L357.326 38.2727H363.035L353.872 48.4744H352.86L349.108 52.4957ZM344.655 59V31.3636H349.54V59H344.655ZM357.664 59L350.917 49.5675L354.209 46.1264L363.507 59H357.664ZM370.855 59.4183C369.541 59.4183 368.358 59.1844 367.306 58.7166C366.262 58.2398 365.434 57.5381 364.823 56.6115C364.22 55.6849 363.918 54.5424 363.918 53.1839C363.918 52.0144 364.134 51.0473 364.566 50.2827C364.998 49.518 365.587 48.9062 366.334 48.4474C367.081 47.9886 367.922 47.6423 368.857 47.4084C369.802 47.1655 370.778 46.9901 371.786 46.8821C373 46.7562 373.985 46.6437 374.741 46.5447C375.497 46.4368 376.045 46.2749 376.387 46.0589C376.738 45.834 376.913 45.4877 376.913 45.0199V44.9389C376.913 43.9223 376.612 43.1352 376.009 42.5774C375.407 42.0196 374.538 41.7408 373.405 41.7408C372.208 41.7408 371.259 42.0017 370.558 42.5234C369.865 43.0452 369.397 43.6615 369.154 44.3722L364.593 43.7244C364.953 42.465 365.547 41.4124 366.374 40.5668C367.202 39.7121 368.214 39.0734 369.411 38.6506C370.607 38.2188 371.93 38.0028 373.378 38.0028C374.377 38.0028 375.371 38.1198 376.36 38.3537C377.35 38.5876 378.254 38.9744 379.073 39.5142C379.891 40.045 380.548 40.7692 381.043 41.6868C381.547 42.6044 381.798 43.7514 381.798 45.1278V59H377.102V56.1527H376.94C376.644 56.7285 376.225 57.2682 375.685 57.772C375.155 58.2668 374.484 58.6671 373.675 58.973C372.874 59.2699 371.934 59.4183 370.855 59.4183ZM372.123 55.8288C373.104 55.8288 373.954 55.6354 374.673 55.2486C375.393 54.8527 375.946 54.331 376.333 53.6832C376.729 53.0355 376.927 52.3293 376.927 51.5646V49.1222C376.774 49.2481 376.513 49.3651 376.144 49.473C375.784 49.581 375.38 49.6754 374.93 49.7564C374.48 49.8374 374.035 49.9093 373.594 49.9723C373.153 50.0353 372.771 50.0893 372.447 50.1342C371.718 50.2332 371.066 50.3951 370.49 50.62C369.914 50.8449 369.46 51.1598 369.127 51.5646C368.794 51.9605 368.628 52.4732 368.628 53.103C368.628 54.0026 368.956 54.6818 369.613 55.1406C370.27 55.5994 371.106 55.8288 372.123 55.8288ZM385.31 59V38.2727H390.047V41.7273H390.263C390.641 40.5308 391.288 39.6087 392.206 38.9609C393.133 38.3042 394.19 37.9759 395.377 37.9759C395.647 37.9759 395.948 37.9893 396.281 38.0163C396.623 38.0343 396.906 38.0658 397.131 38.1108V42.6044C396.924 42.5324 396.596 42.4695 396.146 42.4155C395.705 42.3525 395.278 42.321 394.864 42.321C393.974 42.321 393.173 42.5144 392.462 42.9013C391.761 43.2791 391.207 43.8054 390.803 44.4801C390.398 45.1548 390.195 45.933 390.195 46.8146V59H385.31ZM404.57 59.4183C403.257 59.4183 402.074 59.1844 401.021 58.7166C399.978 58.2398 399.15 57.5381 398.538 56.6115C397.935 55.6849 397.634 54.5424 397.634 53.1839C397.634 52.0144 397.85 51.0473 398.282 50.2827C398.714 49.518 399.303 48.9062 400.05 48.4474C400.796 47.9886 401.637 47.6423 402.573 47.4084C403.518 47.1655 404.494 46.9901 405.501 46.8821C406.716 46.7562 407.701 46.6437 408.456 46.5447C409.212 46.4368 409.761 46.2749 410.103 46.0589C410.454 45.834 410.629 45.4877 410.629 45.0199V44.9389C410.629 43.9223 410.328 43.1352 409.725 42.5774C409.122 42.0196 408.254 41.7408 407.121 41.7408C405.924 41.7408 404.975 42.0017 404.273 42.5234C403.581 43.0452 403.113 43.6615 402.87 44.3722L398.309 43.7244C398.669 42.465 399.262 41.4124 400.09 40.5668C400.918 39.7121 401.93 39.0734 403.126 38.6506C404.323 38.2188 405.645 38.0028 407.094 38.0028C408.092 38.0028 409.086 38.1198 410.076 38.3537C411.065 38.5876 411.97 38.9744 412.788 39.5142C413.607 40.045 414.264 40.7692 414.758 41.6868C415.262 42.6044 415.514 43.7514 415.514 45.1278V59H410.818V56.1527H410.656C410.359 56.7285 409.941 57.2682 409.401 57.772C408.87 58.2668 408.2 58.6671 407.39 58.973C406.59 59.2699 405.65 59.4183 404.57 59.4183ZM405.839 55.8288C406.819 55.8288 407.669 55.6354 408.389 55.2486C409.109 54.8527 409.662 54.331 410.049 53.6832C410.445 53.0355 410.643 52.3293 410.643 51.5646V49.1222C410.49 49.2481 410.229 49.3651 409.86 49.473C409.5 49.581 409.095 49.6754 408.645 49.7564C408.196 49.8374 407.75 49.9093 407.309 49.9723C406.869 50.0353 406.486 50.0893 406.162 50.1342C405.434 50.2332 404.782 50.3951 404.206 50.62C403.63 50.8449 403.176 51.1598 402.843 51.5646C402.51 51.9605 402.344 52.4732 402.344 53.103C402.344 54.0026 402.672 54.6818 403.329 55.1406C403.985 55.5994 404.822 55.8288 405.839 55.8288ZM423.911 46.8551V59H419.026V38.2727H423.695V41.7947H423.938C424.415 40.6342 425.175 39.7121 426.218 39.0284C427.271 38.3447 428.571 38.0028 430.118 38.0028C431.549 38.0028 432.795 38.3087 433.856 38.9205C434.927 39.5322 435.754 40.4183 436.339 41.5788C436.933 42.7393 437.225 44.1473 437.216 45.8026V59H432.331V46.5582C432.331 45.1728 431.972 44.0888 431.252 43.3061C430.541 42.5234 429.556 42.1321 428.297 42.1321C427.442 42.1321 426.682 42.321 426.016 42.6989C425.359 43.0677 424.842 43.603 424.464 44.3047C424.095 45.0064 423.911 45.8565 423.911 46.8551ZM449.796 67.2045C448.042 67.2045 446.535 66.9661 445.276 66.4893C444.016 66.0215 443.004 65.3918 442.24 64.6001C441.475 63.8085 440.944 62.9313 440.647 61.9688L445.046 60.9027C445.244 61.3075 445.532 61.7079 445.91 62.1037C446.288 62.5085 446.796 62.8414 447.435 63.1023C448.083 63.3722 448.897 63.5071 449.877 63.5071C451.263 63.5071 452.41 63.1697 453.318 62.495C454.227 61.8293 454.681 60.7318 454.681 59.2024V55.2756H454.438C454.187 55.7794 453.818 56.2966 453.332 56.8274C452.855 57.3582 452.221 57.8035 451.429 58.1634C450.647 58.5232 449.661 58.7031 448.474 58.7031C446.882 58.7031 445.438 58.3298 444.142 57.5831C442.856 56.8274 441.83 55.7029 441.066 54.2095C440.31 52.7071 439.932 50.8269 439.932 48.5689C439.932 46.2929 440.31 44.3722 441.066 42.8068C441.83 41.2325 442.86 40.0405 444.156 39.2308C445.451 38.4122 446.895 38.0028 448.487 38.0028C449.702 38.0028 450.701 38.2098 451.483 38.6236C452.275 39.0284 452.905 39.5187 453.372 40.0945C453.84 40.6612 454.196 41.1965 454.438 41.7003H454.708V38.2727H459.526V59.3374C459.526 61.1096 459.103 62.576 458.257 63.7365C457.412 64.897 456.256 65.7652 454.789 66.3409C453.323 66.9167 451.659 67.2045 449.796 67.2045ZM449.837 54.8707C450.871 54.8707 451.753 54.6188 452.482 54.1151C453.21 53.6113 453.764 52.8871 454.142 51.9425C454.519 50.9979 454.708 49.8643 454.708 48.5419C454.708 47.2375 454.519 46.0949 454.142 45.1143C453.773 44.1338 453.224 43.3736 452.495 42.8338C451.776 42.285 450.889 42.0107 449.837 42.0107C448.748 42.0107 447.84 42.294 447.111 42.8608C446.382 43.4276 445.834 44.2057 445.465 45.1953C445.096 46.1759 444.911 47.2914 444.911 48.5419C444.911 49.8104 445.096 50.9214 445.465 51.875C445.843 52.8196 446.396 53.5573 447.125 54.0881C447.862 54.6098 448.766 54.8707 449.837 54.8707Z" fill="white"/>
</svg>
