<svg width="426" height="80" viewBox="0 0 426 80" fill="none" xmlns="http://www.w3.org/2000/svg">
<rect width="426" height="80" fill="#206A5D"/>
<path d="M24.5073 52V26.5455H29.889V37.7688H30.2246L39.3848 26.5455H45.8354L36.3894 37.9428L45.9473 52H39.5091L32.5364 41.5348L29.889 44.7663V52H24.5073ZM48.335 52V32.9091H53.6297V52H48.335ZM50.9948 30.4482C50.2076 30.4482 49.5323 30.1871 48.9689 29.6651C48.4137 29.1348 48.1361 28.5009 48.1361 27.7635C48.1361 27.0343 48.4137 26.4087 48.9689 25.8867C49.5323 25.3564 50.2076 25.0913 50.9948 25.0913C51.782 25.0913 52.4531 25.3564 53.0083 25.8867C53.5717 26.4087 53.8535 27.0343 53.8535 27.7635C53.8535 28.5009 53.5717 29.1348 53.0083 29.6651C52.4531 30.1871 51.782 30.4482 50.9948 30.4482ZM56.4711 52V32.9091H61.6043V36.2401H61.8032C62.1512 35.0552 62.7353 34.1603 63.5556 33.5554C64.376 32.9422 65.3206 32.6357 66.3895 32.6357C66.6546 32.6357 66.9405 32.6522 67.2471 32.6854C67.5536 32.7185 67.8229 32.7641 68.0549 32.8221V37.5202C67.8064 37.4457 67.4625 37.3794 67.0233 37.3214C66.5842 37.2634 66.1823 37.2344 65.8177 37.2344C65.0388 37.2344 64.3428 37.4042 63.7297 37.744C63.1248 38.0754 62.6442 38.5394 62.2879 39.136C61.9399 39.7326 61.7659 40.4203 61.7659 41.1992V52H56.4711ZM69.3924 52V32.9091H74.6872V52H69.3924ZM72.0522 30.4482C71.2651 30.4482 70.5897 30.1871 70.0263 29.6651C69.4711 29.1348 69.1936 28.5009 69.1936 27.7635C69.1936 27.0343 69.4711 26.4087 70.0263 25.8867C70.5897 25.3564 71.2651 25.0913 72.0522 25.0913C72.8394 25.0913 73.5106 25.3564 74.0657 25.8867C74.6292 26.4087 74.9109 27.0343 74.9109 27.7635C74.9109 28.5009 74.6292 29.1348 74.0657 29.6651C73.5106 30.1871 72.8394 30.4482 72.0522 30.4482ZM77.5286 52V32.9091H82.5747V36.2773H82.7984C83.1962 35.1587 83.859 34.2763 84.7871 33.63C85.7151 32.9837 86.8254 32.6605 88.118 32.6605C89.4272 32.6605 90.5417 32.9878 91.4614 33.6424C92.3812 34.2887 92.9943 35.167 93.3009 36.2773H93.4998C93.8892 35.1836 94.5935 34.3094 95.6127 33.6548C96.6402 32.992 97.8541 32.6605 99.2544 32.6605C101.036 32.6605 102.482 33.2281 103.592 34.3633C104.711 35.4902 105.27 37.0894 105.27 39.1609V52H99.9877V40.2049C99.9877 39.1443 99.706 38.3488 99.1425 37.8185C98.5791 37.2882 97.8748 37.0231 97.0296 37.0231C96.0684 37.0231 95.3186 37.3297 94.78 37.9428C94.2414 38.5477 93.9721 39.3473 93.9721 40.3416V52H88.8389V40.093C88.8389 39.1567 88.5696 38.411 88.031 37.8558C87.5007 37.3007 86.8006 37.0231 85.9305 37.0231C85.3422 37.0231 84.8119 37.1722 84.3396 37.4705C83.8756 37.7605 83.5069 38.1707 83.2335 38.701C82.96 39.223 82.8233 39.8362 82.8233 40.5405V52H77.5286ZM123.876 52H114.852V26.5455H123.95C126.511 26.5455 128.715 27.055 130.563 28.0742C132.41 29.0851 133.831 30.5393 134.826 32.4368C135.828 34.3343 136.33 36.6046 136.33 39.2479C136.33 41.8994 135.828 44.178 134.826 46.0838C133.831 47.9896 132.402 49.4521 130.538 50.4712C128.682 51.4904 126.461 52 123.876 52ZM120.234 47.3888H123.652C125.243 47.3888 126.581 47.1071 127.667 46.5437C128.76 45.9719 129.581 45.0895 130.128 43.8963C130.683 42.6948 130.96 41.1454 130.96 39.2479C130.96 37.367 130.683 35.8299 130.128 34.6367C129.581 33.4435 128.765 32.5652 127.679 32.0018C126.594 31.4383 125.255 31.1566 123.665 31.1566H120.234V47.3888ZM144.261 52.3604C143.043 52.3604 141.957 52.1491 141.004 51.7266C140.051 51.2957 139.297 50.6618 138.742 49.8249C138.195 48.9798 137.922 47.9274 137.922 46.668C137.922 45.6074 138.117 44.7166 138.506 43.9957C138.896 43.2749 139.426 42.6948 140.097 42.2557C140.768 41.8165 141.53 41.4851 142.384 41.2614C143.246 41.0376 144.149 40.8802 145.093 40.7891C146.204 40.6731 147.099 40.5653 147.778 40.4659C148.458 40.3582 148.951 40.2008 149.257 39.9936C149.564 39.7865 149.717 39.4799 149.717 39.0739V38.9993C149.717 38.2121 149.468 37.6031 148.971 37.1722C148.482 36.7414 147.786 36.5259 146.883 36.5259C145.93 36.5259 145.172 36.7372 144.609 37.1598C144.045 37.5741 143.672 38.0961 143.49 38.7259L138.593 38.3281C138.842 37.1681 139.331 36.1655 140.06 35.3203C140.789 34.4669 141.729 33.8123 142.881 33.3565C144.041 32.8925 145.383 32.6605 146.908 32.6605C147.969 32.6605 148.984 32.7848 149.953 33.0334C150.931 33.282 151.797 33.6673 152.551 34.1893C153.313 34.7113 153.914 35.3825 154.353 36.2028C154.792 37.0148 155.012 37.9884 155.012 39.1236V52H149.99V49.3526H149.841C149.535 49.9492 149.125 50.4754 148.611 50.9311C148.097 51.3786 147.48 51.7307 146.759 51.9876C146.038 52.2362 145.205 52.3604 144.261 52.3604ZM145.777 48.7063C146.556 48.7063 147.244 48.553 147.84 48.2464C148.437 47.9316 148.905 47.509 149.245 46.9787C149.584 46.4484 149.754 45.8477 149.754 45.1765V43.1506C149.589 43.2583 149.361 43.3577 149.071 43.4489C148.789 43.5317 148.47 43.6104 148.114 43.685C147.757 43.7513 147.401 43.8134 147.045 43.8714C146.689 43.9212 146.365 43.9667 146.075 44.0082C145.454 44.0993 144.911 44.2443 144.447 44.4432C143.983 44.642 143.623 44.9113 143.366 45.2511C143.109 45.5825 142.981 45.9968 142.981 46.494C142.981 47.2148 143.242 47.7659 143.764 48.147C144.294 48.5199 144.965 48.7063 145.777 48.7063ZM167.874 32.9091V36.8864H156.377V32.9091H167.874ZM158.987 28.3352H164.282V46.1335C164.282 46.6224 164.357 47.0036 164.506 47.277C164.655 47.5421 164.862 47.7286 165.127 47.8363C165.401 47.944 165.716 47.9979 166.072 47.9979C166.32 47.9979 166.569 47.9772 166.818 47.9357C167.066 47.886 167.257 47.8487 167.389 47.8239L168.222 51.7638C167.957 51.8467 167.584 51.942 167.103 52.0497C166.623 52.1657 166.039 52.2362 165.351 52.261C164.075 52.3107 162.956 52.1409 161.995 51.7514C161.042 51.362 160.301 50.7571 159.77 49.9368C159.24 49.1165 158.979 48.0807 158.987 46.8295V28.3352ZM175.367 52.3604C174.149 52.3604 173.063 52.1491 172.111 51.7266C171.158 51.2957 170.404 50.6618 169.849 49.8249C169.302 48.9798 169.028 47.9274 169.028 46.668C169.028 45.6074 169.223 44.7166 169.612 43.9957C170.002 43.2749 170.532 42.6948 171.203 42.2557C171.874 41.8165 172.637 41.4851 173.49 41.2614C174.352 41.0376 175.255 40.8802 176.2 40.7891C177.31 40.6731 178.205 40.5653 178.884 40.4659C179.564 40.3582 180.057 40.2008 180.363 39.9936C180.67 39.7865 180.823 39.4799 180.823 39.0739V38.9993C180.823 38.2121 180.575 37.6031 180.078 37.1722C179.589 36.7414 178.893 36.5259 177.989 36.5259C177.037 36.5259 176.278 36.7372 175.715 37.1598C175.152 37.5741 174.779 38.0961 174.596 38.7259L169.699 38.3281C169.948 37.1681 170.437 36.1655 171.166 35.3203C171.895 34.4669 172.836 33.8123 173.987 33.3565C175.147 32.8925 176.49 32.6605 178.014 32.6605C179.075 32.6605 180.09 32.7848 181.059 33.0334C182.037 33.282 182.903 33.6673 183.657 34.1893C184.419 34.7113 185.02 35.3825 185.459 36.2028C185.898 37.0148 186.118 37.9884 186.118 39.1236V52H181.097V49.3526H180.948C180.641 49.9492 180.231 50.4754 179.717 50.9311C179.203 51.3786 178.586 51.7307 177.865 51.9876C177.144 52.2362 176.312 52.3604 175.367 52.3604ZM176.883 48.7063C177.662 48.7063 178.35 48.553 178.947 48.2464C179.543 47.9316 180.011 47.509 180.351 46.9787C180.691 46.4484 180.861 45.8477 180.861 45.1765V43.1506C180.695 43.2583 180.467 43.3577 180.177 43.4489C179.895 43.5317 179.576 43.6104 179.22 43.685C178.864 43.7513 178.507 43.8134 178.151 43.8714C177.795 43.9212 177.472 43.9667 177.182 44.0082C176.56 44.0993 176.017 44.2443 175.553 44.4432C175.089 44.642 174.729 44.9113 174.472 45.2511C174.215 45.5825 174.087 45.9968 174.087 46.494C174.087 47.2148 174.348 47.7659 174.87 48.147C175.4 48.5199 176.071 48.7063 176.883 48.7063ZM200.324 46.5064L200.336 40.1552H201.107L207.222 32.9091H213.3L205.084 42.5043H203.829L200.324 46.5064ZM195.526 52V26.5455H200.821V52H195.526ZM207.458 52L201.84 43.685L205.37 39.9439L213.66 52H207.458ZM222.412 52.3729C220.448 52.3729 218.758 51.9751 217.341 51.1797C215.932 50.3759 214.847 49.2408 214.084 47.7741C213.322 46.2992 212.941 44.555 212.941 42.5415C212.941 40.5778 213.322 38.8543 214.084 37.3711C214.847 35.8879 215.92 34.732 217.303 33.9034C218.695 33.0748 220.328 32.6605 222.2 32.6605C223.46 32.6605 224.632 32.8635 225.718 33.2695C226.812 33.6673 227.764 34.268 228.576 35.0717C229.397 35.8755 230.035 36.8864 230.49 38.1044C230.946 39.3142 231.174 40.7311 231.174 42.3551V43.8093H215.054V40.5281H226.19C226.19 39.7657 226.024 39.0904 225.693 38.5021C225.361 37.9138 224.902 37.454 224.313 37.1225C223.733 36.7828 223.058 36.6129 222.287 36.6129C221.484 36.6129 220.771 36.7994 220.15 37.1722C219.536 37.5368 219.056 38.0298 218.708 38.6513C218.36 39.2644 218.182 39.948 218.173 40.7021V43.8217C218.173 44.7663 218.347 45.5825 218.695 46.2702C219.052 46.958 219.553 47.4883 220.199 47.8612C220.846 48.234 221.612 48.4205 222.499 48.4205C223.087 48.4205 223.626 48.3376 224.114 48.1719C224.603 48.0062 225.022 47.7576 225.37 47.4261C225.718 47.0947 225.983 46.6887 226.165 46.2081L231.062 46.5312C230.814 47.7079 230.304 48.7353 229.533 49.6136C228.771 50.4837 227.785 51.1631 226.575 51.652C225.374 52.1326 223.986 52.3729 222.412 52.3729ZM245.759 52L238.476 26.5455H244.355L248.568 44.2319H248.779L253.428 26.5455H258.462L263.098 44.2692H263.321L267.535 26.5455H273.414L266.13 52H260.885L256.038 35.3576H255.839L251.004 52H245.759ZM280.089 40.9631V52H274.795V26.5455H279.94V36.2773H280.164C280.595 35.1504 281.291 34.268 282.252 33.63C283.213 32.9837 284.419 32.6605 285.869 32.6605C287.195 32.6605 288.35 32.9505 289.336 33.5305C290.331 34.1023 291.101 34.9267 291.648 36.0039C292.203 37.0728 292.477 38.353 292.469 39.8445V52H287.174V40.7891C287.182 39.6125 286.884 38.6969 286.279 38.0423C285.682 37.3877 284.845 37.0604 283.768 37.0604C283.047 37.0604 282.409 37.2137 281.854 37.5202C281.307 37.8268 280.876 38.2743 280.562 38.8626C280.255 39.4426 280.098 40.1428 280.089 40.9631ZM300.679 52.3604C299.461 52.3604 298.376 52.1491 297.423 51.7266C296.47 51.2957 295.716 50.6618 295.161 49.8249C294.614 48.9798 294.341 47.9274 294.341 46.668C294.341 45.6074 294.535 44.7166 294.925 43.9957C295.314 43.2749 295.844 42.6948 296.516 42.2557C297.187 41.8165 297.949 41.4851 298.803 41.2614C299.664 41.0376 300.567 40.8802 301.512 40.7891C302.622 40.6731 303.517 40.5653 304.197 40.4659C304.876 40.3582 305.369 40.2008 305.676 39.9936C305.982 39.7865 306.136 39.4799 306.136 39.0739V38.9993C306.136 38.2121 305.887 37.6031 305.39 37.1722C304.901 36.7414 304.205 36.5259 303.302 36.5259C302.349 36.5259 301.591 36.7372 301.027 37.1598C300.464 37.5741 300.091 38.0961 299.909 38.7259L295.012 38.3281C295.26 37.1681 295.749 36.1655 296.478 35.3203C297.207 34.4669 298.148 33.8123 299.3 33.3565C300.46 32.8925 301.802 32.6605 303.327 32.6605C304.387 32.6605 305.402 32.7848 306.372 33.0334C307.35 33.282 308.215 33.6673 308.969 34.1893C309.732 34.7113 310.332 35.3825 310.772 36.2028C311.211 37.0148 311.43 37.9884 311.43 39.1236V52H306.409V49.3526H306.26C305.953 49.9492 305.543 50.4754 305.029 50.9311C304.516 51.3786 303.898 51.7307 303.178 51.9876C302.457 52.2362 301.624 52.3604 300.679 52.3604ZM302.196 48.7063C302.975 48.7063 303.662 48.553 304.259 48.2464C304.855 47.9316 305.324 47.509 305.663 46.9787C306.003 46.4484 306.173 45.8477 306.173 45.1765V43.1506C306.007 43.2583 305.779 43.3577 305.489 43.4489C305.208 43.5317 304.889 43.6104 304.532 43.685C304.176 43.7513 303.82 43.8134 303.463 43.8714C303.107 43.9212 302.784 43.9667 302.494 44.0082C301.872 44.0993 301.33 44.2443 300.866 44.4432C300.402 44.642 300.041 44.9113 299.784 45.2511C299.528 45.5825 299.399 45.9968 299.399 46.494C299.399 47.2148 299.66 47.7659 300.182 48.147C300.712 48.5199 301.384 48.7063 302.196 48.7063ZM324.293 32.9091V36.8864H312.796V32.9091H324.293ZM315.406 28.3352H320.701V46.1335C320.701 46.6224 320.775 47.0036 320.924 47.277C321.074 47.5421 321.281 47.7286 321.546 47.8363C321.819 47.944 322.134 47.9979 322.49 47.9979C322.739 47.9979 322.988 47.9772 323.236 47.9357C323.485 47.886 323.675 47.8487 323.808 47.8239L324.641 51.7638C324.375 51.8467 324.003 51.942 323.522 52.0497C323.041 52.1657 322.457 52.2362 321.77 52.261C320.493 52.3107 319.375 52.1409 318.414 51.7514C317.461 51.362 316.719 50.7571 316.189 49.9368C315.659 49.1165 315.398 48.0807 315.406 46.8295V28.3352ZM341.987 38.353L337.139 38.6513C337.056 38.237 336.878 37.8641 336.605 37.5327C336.331 37.1929 335.971 36.9237 335.524 36.7248C335.084 36.5176 334.558 36.4141 333.945 36.4141C333.125 36.4141 332.433 36.5881 331.869 36.9361C331.306 37.2758 331.024 37.7315 331.024 38.3033C331.024 38.759 331.207 39.1443 331.571 39.4592C331.936 39.774 332.561 40.0268 333.448 40.2173L336.903 40.9134C338.759 41.2945 340.143 41.9077 341.054 42.7528C341.966 43.598 342.422 44.7083 342.422 46.0838C342.422 47.335 342.053 48.4329 341.315 49.3775C340.586 50.3221 339.584 51.0595 338.308 51.5898C337.04 52.1119 335.577 52.3729 333.92 52.3729C331.393 52.3729 329.379 51.8467 327.88 50.7944C326.388 49.7338 325.514 48.292 325.257 46.4691L330.465 46.1957C330.622 46.9663 331.004 47.5546 331.608 47.9606C332.213 48.3583 332.988 48.5572 333.933 48.5572C334.861 48.5572 335.606 48.379 336.17 48.0227C336.742 47.6581 337.032 47.19 337.04 46.6183C337.032 46.1377 336.829 45.7441 336.431 45.4375C336.033 45.1226 335.42 44.8823 334.591 44.7166L331.285 44.0579C329.421 43.685 328.033 43.0387 327.122 42.119C326.218 41.1992 325.767 40.0268 325.767 38.6016C325.767 37.3752 326.098 36.3188 326.761 35.4322C327.432 34.5456 328.373 33.862 329.582 33.3814C330.801 32.9008 332.226 32.6605 333.858 32.6605C336.269 32.6605 338.167 33.1701 339.551 34.1893C340.943 35.2085 341.755 36.5964 341.987 38.353ZM349.8 52.3604C348.582 52.3604 347.496 52.1491 346.543 51.7266C345.59 51.2957 344.836 50.6618 344.281 49.8249C343.734 48.9798 343.461 47.9274 343.461 46.668C343.461 45.6074 343.656 44.7166 344.045 43.9957C344.434 43.2749 344.965 42.6948 345.636 42.2557C346.307 41.8165 347.069 41.4851 347.923 41.2614C348.785 41.0376 349.688 40.8802 350.632 40.7891C351.743 40.6731 352.638 40.5653 353.317 40.4659C353.996 40.3582 354.489 40.2008 354.796 39.9936C355.103 39.7865 355.256 39.4799 355.256 39.0739V38.9993C355.256 38.2121 355.007 37.6031 354.51 37.1722C354.021 36.7414 353.325 36.5259 352.422 36.5259C351.469 36.5259 350.711 36.7372 350.148 37.1598C349.584 37.5741 349.211 38.0961 349.029 38.7259L344.132 38.3281C344.381 37.1681 344.869 36.1655 345.599 35.3203C346.328 34.4669 347.268 33.8123 348.42 33.3565C349.58 32.8925 350.922 32.6605 352.447 32.6605C353.508 32.6605 354.523 32.7848 355.492 33.0334C356.47 33.282 357.336 33.6673 358.09 34.1893C358.852 34.7113 359.453 35.3825 359.892 36.2028C360.331 37.0148 360.551 37.9884 360.551 39.1236V52H355.529V49.3526H355.38C355.074 49.9492 354.663 50.4754 354.15 50.9311C353.636 51.3786 353.019 51.7307 352.298 51.9876C351.577 52.2362 350.744 52.3604 349.8 52.3604ZM351.316 48.7063C352.095 48.7063 352.783 48.553 353.379 48.2464C353.976 47.9316 354.444 47.509 354.784 46.9787C355.123 46.4484 355.293 45.8477 355.293 45.1765V43.1506C355.127 43.2583 354.9 43.3577 354.61 43.4489C354.328 43.5317 354.009 43.6104 353.653 43.685C353.296 43.7513 352.94 43.8134 352.584 43.8714C352.227 43.9212 351.904 43.9667 351.614 44.0082C350.993 44.0993 350.45 44.2443 349.986 44.4432C349.522 44.642 349.162 44.9113 348.905 45.2511C348.648 45.5825 348.519 45.9968 348.519 46.494C348.519 47.2148 348.78 47.7659 349.302 48.147C349.833 48.5199 350.504 48.7063 351.316 48.7063ZM363.258 59.1591V32.9091H368.479V36.1158H368.715C368.947 35.602 369.282 35.08 369.722 34.5497C370.169 34.0111 370.749 33.5637 371.462 33.2074C372.182 32.8428 373.077 32.6605 374.146 32.6605C375.538 32.6605 376.823 33.0251 377.999 33.7543C379.176 34.4751 380.116 35.5647 380.821 37.0231C381.525 38.4731 381.877 40.2919 381.877 42.4794C381.877 44.6089 381.533 46.407 380.845 47.8736C380.166 49.3319 379.238 50.4381 378.061 51.1921C376.893 51.9379 375.584 52.3107 374.134 52.3107C373.106 52.3107 372.232 52.1409 371.511 51.8011C370.799 51.4614 370.215 51.0347 369.759 50.521C369.303 49.9989 368.955 49.4728 368.715 48.9425H368.553V59.1591H363.258ZM368.441 42.4545C368.441 43.5897 368.599 44.5799 368.914 45.4251C369.228 46.2702 369.684 46.929 370.281 47.4013C370.877 47.8653 371.602 48.0973 372.456 48.0973C373.318 48.0973 374.047 47.8612 374.643 47.3888C375.24 46.9083 375.692 46.2454 375.998 45.4002C376.313 44.5468 376.47 43.5649 376.47 42.4545C376.47 41.3525 376.317 40.383 376.011 39.5462C375.704 38.7093 375.252 38.0547 374.656 37.5824C374.059 37.1101 373.326 36.8739 372.456 36.8739C371.594 36.8739 370.865 37.1018 370.268 37.5575C369.68 38.0133 369.228 38.6596 368.914 39.4964C368.599 40.3333 368.441 41.3194 368.441 42.4545ZM384.007 59.1591V32.9091H389.227V36.1158H389.463C389.695 35.602 390.031 35.08 390.47 34.5497C390.917 34.0111 391.497 33.5637 392.21 33.2074C392.931 32.8428 393.826 32.6605 394.895 32.6605C396.287 32.6605 397.571 33.0251 398.748 33.7543C399.924 34.4751 400.865 35.5647 401.569 37.0231C402.273 38.4731 402.625 40.2919 402.625 42.4794C402.625 44.6089 402.282 46.407 401.594 47.8736C400.914 49.3319 399.986 50.4381 398.81 51.1921C397.641 51.9379 396.332 52.3107 394.882 52.3107C393.855 52.3107 392.981 52.1409 392.26 51.8011C391.547 51.4614 390.963 51.0347 390.507 50.521C390.052 49.9989 389.703 49.4728 389.463 48.9425H389.302V59.1591H384.007ZM389.19 42.4545C389.19 43.5897 389.347 44.5799 389.662 45.4251C389.977 46.2702 390.433 46.929 391.029 47.4013C391.626 47.8653 392.351 48.0973 393.204 48.0973C394.066 48.0973 394.795 47.8612 395.392 47.3888C395.988 46.9083 396.44 46.2454 396.747 45.4002C397.061 44.5468 397.219 43.5649 397.219 42.4545C397.219 41.3525 397.066 40.383 396.759 39.5462C396.452 38.7093 396.001 38.0547 395.404 37.5824C394.808 37.1101 394.074 36.8739 393.204 36.8739C392.343 36.8739 391.613 37.1018 391.017 37.5575C390.429 38.0133 389.977 38.6596 389.662 39.4964C389.347 40.3333 389.19 41.3194 389.19 42.4545Z" fill="#F5F5F5"/>
</svg>
