<svg width="660" height="198" viewBox="0 0 660 198" fill="none" xmlns="http://www.w3.org/2000/svg">
<path d="M227.021 92.6406H217.689C217.519 91.4332 217.171 90.3608 216.645 89.4233C216.119 88.4716 215.445 87.6619 214.621 86.9943C213.797 86.3267 212.845 85.8153 211.766 85.4602C210.7 85.1051 209.543 84.9276 208.293 84.9276C206.034 84.9276 204.067 85.4886 202.391 86.6108C200.715 87.7187 199.415 89.3381 198.492 91.4688C197.568 93.5852 197.107 96.1562 197.107 99.1818C197.107 102.293 197.568 104.906 198.492 107.023C199.429 109.139 200.736 110.737 202.412 111.817C204.088 112.896 206.027 113.436 208.229 113.436C209.465 113.436 210.608 113.273 211.659 112.946C212.725 112.619 213.669 112.143 214.493 111.518C215.317 110.879 215.999 110.105 216.538 109.196C217.092 108.287 217.476 107.25 217.689 106.085L227.021 106.128C226.78 108.131 226.176 110.062 225.21 111.923C224.259 113.77 222.973 115.425 221.354 116.888C219.749 118.337 217.831 119.487 215.601 120.339C213.385 121.178 210.878 121.597 208.08 121.597C204.188 121.597 200.707 120.716 197.639 118.955C194.585 117.193 192.171 114.643 190.395 111.305C188.634 107.967 187.753 103.926 187.753 99.1818C187.753 94.4233 188.648 90.375 190.438 87.0369C192.227 83.6989 194.656 81.1562 197.725 79.4091C200.793 77.6477 204.244 76.767 208.08 76.767C210.608 76.767 212.952 77.1222 215.111 77.8324C217.284 78.5426 219.209 79.5795 220.885 80.9432C222.561 82.2926 223.925 83.9474 224.976 85.9077C226.041 87.8679 226.723 90.1122 227.021 92.6406ZM272.337 99.1818C272.337 103.94 271.435 107.989 269.631 111.327C267.841 114.665 265.398 117.214 262.301 118.976C259.219 120.723 255.753 121.597 251.903 121.597C248.025 121.597 244.545 120.716 241.463 118.955C238.381 117.193 235.945 114.643 234.155 111.305C232.365 107.967 231.47 103.926 231.47 99.1818C231.47 94.4233 232.365 90.375 234.155 87.0369C235.945 83.6989 238.381 81.1562 241.463 79.4091C244.545 77.6477 248.025 76.767 251.903 76.767C255.753 76.767 259.219 77.6477 262.301 79.4091C265.398 81.1562 267.841 83.6989 269.631 87.0369C271.435 90.375 272.337 94.4233 272.337 99.1818ZM262.983 99.1818C262.983 96.0994 262.521 93.5 261.598 91.3835C260.689 89.267 259.403 87.6619 257.741 86.5682C256.079 85.4744 254.133 84.9276 251.903 84.9276C249.673 84.9276 247.727 85.4744 246.065 86.5682C244.403 87.6619 243.111 89.267 242.187 91.3835C241.278 93.5 240.824 96.0994 240.824 99.1818C240.824 102.264 241.278 104.864 242.187 106.98C243.111 109.097 244.403 110.702 246.065 111.795C247.727 112.889 249.673 113.436 251.903 113.436C254.133 113.436 256.079 112.889 257.741 111.795C259.403 110.702 260.689 109.097 261.598 106.98C262.521 104.864 262.983 102.264 262.983 99.1818ZM314.269 77.3636V121H306.301L287.316 93.5355H286.997V121H277.771V77.3636H285.867L304.703 104.807H305.086V77.3636H314.269ZM318.83 84.9702V77.3636H354.668V84.9702H341.309V121H332.189V84.9702H318.83ZM361.359 121H351.473L366.537 77.3636H378.426L393.469 121H383.582L372.652 87.3352H372.311L361.359 121ZM360.741 103.848H384.094V111.05H360.741V103.848ZM433.771 92.6406H424.439C424.269 91.4332 423.921 90.3608 423.395 89.4233C422.869 88.4716 422.195 87.6619 421.371 86.9943C420.547 86.3267 419.595 85.8153 418.516 85.4602C417.45 85.1051 416.293 84.9276 415.043 84.9276C412.784 84.9276 410.817 85.4886 409.141 86.6108C407.465 87.7187 406.165 89.3381 405.242 91.4688C404.318 93.5852 403.857 96.1562 403.857 99.1818C403.857 102.293 404.318 104.906 405.242 107.023C406.179 109.139 407.486 110.737 409.162 111.817C410.838 112.896 412.777 113.436 414.979 113.436C416.215 113.436 417.358 113.273 418.409 112.946C419.475 112.619 420.419 112.143 421.243 111.518C422.067 110.879 422.749 110.105 423.288 109.196C423.842 108.287 424.226 107.25 424.439 106.085L433.771 106.128C433.53 108.131 432.926 110.062 431.96 111.923C431.009 113.77 429.723 115.425 428.104 116.888C426.499 118.337 424.581 119.487 422.351 120.339C420.135 121.178 417.628 121.597 414.83 121.597C410.938 121.597 407.457 120.716 404.389 118.955C401.335 117.193 398.921 114.643 397.145 111.305C395.384 107.967 394.503 103.926 394.503 99.1818C394.503 94.4233 395.398 90.375 397.188 87.0369C398.977 83.6989 401.406 81.1562 404.475 79.4091C407.543 77.6477 410.994 76.767 414.83 76.767C417.358 76.767 419.702 77.1222 421.861 77.8324C424.034 78.5426 425.959 79.5795 427.635 80.9432C429.311 82.2926 430.675 83.9474 431.726 85.9077C432.791 87.8679 433.473 90.1122 433.771 92.6406ZM437.325 84.9702V77.3636H473.163V84.9702H459.804V121H450.685V84.9702H437.325Z" fill="#206A5D"/>
</svg>
