<svg width="269" height="30" viewBox="0 0 269 30" fill="none" xmlns="http://www.w3.org/2000/svg">
<path d="M10.8409 30H0.528409V0.90909H10.9261C13.8523 0.90909 16.3712 1.49148 18.483 2.65625C20.5947 3.81155 22.2188 5.47348 23.3551 7.64205C24.5009 9.81061 25.0739 12.4053 25.0739 15.4261C25.0739 18.4564 24.5009 21.0606 23.3551 23.2386C22.2188 25.4167 20.5852 27.0881 18.4545 28.2528C16.3333 29.4176 13.7955 30 10.8409 30ZM6.67898 24.7301H10.5852C12.4034 24.7301 13.9328 24.4081 15.1733 23.7642C16.4233 23.1108 17.3608 22.1023 17.9858 20.7386C18.6203 19.3655 18.9375 17.5947 18.9375 15.4261C18.9375 13.2765 18.6203 11.5199 17.9858 10.1562C17.3608 8.79261 16.428 7.78883 15.1875 7.14489C13.947 6.50095 12.4176 6.17898 10.5994 6.17898H6.67898V24.7301ZM31.6036 30H25.0126L35.0553 0.90909H42.9814L53.0098 30H46.4189L39.132 7.55682H38.9047L31.6036 30ZM31.1916 18.5653H46.7598V23.3665H31.1916V18.5653ZM50.4486 5.98011V0.90909H74.3406V5.98011H65.4344V30H59.3548V5.98011H50.4486ZM78.3348 30H71.7439L81.7865 0.90909H89.7126L99.7411 30H93.1501L85.8632 7.55682H85.6359L78.3348 30ZM77.9229 18.5653H93.4911V23.3665H77.9229V18.5653ZM109.7 30V0.90909H121.178C123.384 0.90909 125.264 1.33049 126.817 2.1733C128.37 3.00663 129.554 4.16667 130.368 5.65341C131.192 7.13068 131.604 8.83523 131.604 10.767C131.604 12.6989 131.187 14.4034 130.354 15.8807C129.52 17.358 128.313 18.5085 126.732 19.3324C125.16 20.1562 123.256 20.5682 121.021 20.5682H113.706V15.6392H120.027C121.211 15.6392 122.186 15.4356 122.953 15.0284C123.73 14.6117 124.307 14.0388 124.686 13.3097C125.074 12.571 125.268 11.7235 125.268 10.767C125.268 9.80114 125.074 8.95833 124.686 8.23864C124.307 7.50947 123.73 6.94602 122.953 6.5483C122.177 6.1411 121.192 5.9375 119.999 5.9375H115.851V30H109.7ZM134.199 30V0.90909H153.801V5.98011H140.349V12.9119H152.792V17.983H140.349V24.929H153.858V30H134.199ZM157.291 0.90909H164.876L172.887 20.4545H173.228L181.24 0.90909H188.825V30H182.859V11.0653H182.618L175.089 29.858H171.027L163.498 10.9943H163.257V30H157.291V0.90909ZM192.492 30V0.90909H204.14C206.28 0.90909 208.065 1.22633 209.495 1.8608C210.925 2.49527 212 3.37595 212.72 4.50284C213.439 5.62027 213.799 6.90814 213.799 8.36648C213.799 9.50284 213.572 10.5019 213.117 11.3636C212.663 12.2159 212.038 12.9167 211.242 13.4659C210.456 14.0057 209.557 14.3892 208.544 14.6165V14.9006C209.652 14.9479 210.688 15.2604 211.654 15.8381C212.63 16.4157 213.421 17.2254 214.027 18.267C214.633 19.2992 214.936 20.5303 214.936 21.9602C214.936 23.5038 214.552 24.8816 213.785 26.0938C213.028 27.2964 211.905 28.2481 210.419 28.9489C208.932 29.6496 207.099 30 204.921 30H192.492ZM198.643 24.9716H203.657C205.371 24.9716 206.621 24.6449 207.407 23.9915C208.193 23.3286 208.586 22.4479 208.586 21.3494C208.586 20.5445 208.392 19.8343 208.004 19.2188C207.616 18.6032 207.062 18.1203 206.342 17.7699C205.632 17.4195 204.784 17.2443 203.799 17.2443H198.643V24.9716ZM198.643 13.0824H203.203C204.046 13.0824 204.794 12.9356 205.447 12.642C206.11 12.339 206.631 11.9129 207.01 11.3636C207.398 10.8144 207.592 10.1562 207.592 9.3892C207.592 8.33807 207.218 7.49053 206.47 6.84659C205.731 6.20265 204.68 5.88068 203.316 5.88068H198.643V13.0824ZM217.538 30V0.90909H237.14V5.98011H223.688V12.9119H236.132V17.983H223.688V24.929H237.197V30H217.538ZM240.63 30V0.90909H246.781V24.929H259.252V30H240.63ZM268.076 0.90909V30H261.925V0.90909H268.076Z" fill="#206A5D"/>
</svg>
