<svg width="660" height="198" viewBox="0 0 660 198" fill="none" xmlns="http://www.w3.org/2000/svg">
<path d="M229.769 95.581V102.783H209.868V95.581H229.769ZM256.494 95.581V102.783H236.593V95.581H256.494ZM275.486 121V77.3636H304.378V84.9702H284.711V95.3679H302.46V102.974H284.711V121H275.486ZM311.255 121H301.369L316.433 77.3636H328.322L343.365 121H333.478L322.548 87.3352H322.207L311.255 121ZM310.637 103.848H333.99V111.05H310.637V103.848ZM361.636 105.83H369.477L373.419 110.901L377.297 115.418L384.605 124.58H375.997L370.969 118.401L368.39 114.736L361.636 105.83ZM385.265 99.1818C385.265 103.94 384.364 107.989 382.56 111.327C380.77 114.665 378.327 117.214 375.23 118.976C372.148 120.723 368.682 121.597 364.832 121.597C360.954 121.597 357.474 120.716 354.392 118.955C351.31 117.193 348.873 114.643 347.084 111.305C345.294 107.967 344.399 103.926 344.399 99.1818C344.399 94.4233 345.294 90.375 347.084 87.0369C348.873 83.6989 351.31 81.1562 354.392 79.4091C357.474 77.6477 360.954 76.767 364.832 76.767C368.682 76.767 372.148 77.6477 375.23 79.4091C378.327 81.1562 380.77 83.6989 382.56 87.0369C384.364 90.375 385.265 94.4233 385.265 99.1818ZM375.912 99.1818C375.912 96.0994 375.45 93.5 374.527 91.3835C373.618 89.267 372.332 87.6619 370.67 86.5682C369.008 85.4744 367.062 84.9276 364.832 84.9276C362.602 84.9276 360.656 85.4744 358.994 86.5682C357.332 87.6619 356.04 89.267 355.116 91.3835C354.207 93.5 353.753 96.0994 353.753 99.1818C353.753 102.264 354.207 104.864 355.116 106.98C356.04 109.097 357.332 110.702 358.994 111.795C360.656 112.889 362.602 113.436 364.832 113.436C367.062 113.436 369.008 112.889 370.67 111.795C372.332 110.702 373.618 109.097 374.527 106.98C375.45 104.864 375.912 102.264 375.912 99.1818ZM423.407 95.581V102.783H403.506V95.581H423.407ZM450.132 95.581V102.783H430.231V95.581H450.132Z" fill="#206A5D"/>
</svg>
