<svg width="378" height="44" viewBox="0 0 378 44" fill="none" xmlns="http://www.w3.org/2000/svg">
<path d="M0.422251 43V0.818181H9.34058V18.2223H27.445V0.818181H36.3427V43H27.445V25.5753H9.34058V43H0.422251ZM81.0585 21.9091C81.0585 26.509 80.1865 30.4223 78.4427 33.6491C76.7126 36.8759 74.3508 39.3407 71.3575 41.0433C68.3778 42.7322 65.0275 43.5767 61.3063 43.5767C57.5578 43.5767 54.1936 42.7254 51.214 41.0227C48.2344 39.3201 45.8795 36.8554 44.1494 33.6286C42.4193 30.4018 41.5542 26.4953 41.5542 21.9091C41.5542 17.3092 42.4193 13.3958 44.1494 10.169C45.8795 6.94223 48.2344 4.48437 51.214 2.79545C54.1936 1.0928 57.5578 0.241476 61.3063 0.241476C65.0275 0.241476 68.3778 1.0928 71.3575 2.79545C74.3508 4.48437 76.7126 6.94223 78.4427 10.169C80.1865 13.3958 81.0585 17.3092 81.0585 21.9091ZM72.0166 21.9091C72.0166 18.9295 71.5703 16.4167 70.6778 14.3707C69.799 12.3248 68.5563 10.7732 66.9498 9.71591C65.3433 8.65862 63.4621 8.12997 61.3063 8.12997C59.1506 8.12997 57.2694 8.65862 55.6629 9.71591C54.0563 10.7732 52.8068 12.3248 51.9143 14.3707C51.0355 16.4167 50.5961 18.9295 50.5961 21.9091C50.5961 24.8887 51.0355 27.4015 51.9143 29.4474C52.8068 31.4934 54.0563 33.045 55.6629 34.1023C57.2694 35.1596 59.1506 35.6882 61.3063 35.6882C63.4621 35.6882 65.3433 35.1596 66.9498 34.1023C68.5563 33.045 69.799 31.4934 70.6778 29.4474C71.5703 27.4015 72.0166 24.8887 72.0166 21.9091ZM112.32 0.818181H121.238V28.2116C121.238 31.2874 120.503 33.9787 119.034 36.2855C117.579 38.5923 115.539 40.3911 112.917 41.6818C110.294 42.9588 107.239 43.5973 103.751 43.5973C100.25 43.5973 97.1879 42.9588 94.5653 41.6818C91.9426 40.3911 89.9036 38.5923 88.4481 36.2855C86.9926 33.9787 86.2648 31.2874 86.2648 28.2116V0.818181H95.1832V27.4496C95.1832 29.0561 95.5333 30.4841 96.2336 31.7337C96.9476 32.9832 97.95 33.965 99.2407 34.679C100.531 35.393 102.035 35.75 103.751 35.75C105.481 35.75 106.985 35.393 108.262 34.679C109.553 33.965 110.548 32.9832 111.248 31.7337C111.963 30.4841 112.32 29.0561 112.32 27.4496V0.818181ZM150.058 12.9496C149.893 11.2881 149.186 9.99739 147.937 9.07741C146.687 8.15743 144.991 7.69744 142.849 7.69744C141.394 7.69744 140.165 7.90341 139.163 8.31534C138.16 8.71354 137.391 9.26965 136.856 9.98366C136.334 10.6977 136.073 11.5078 136.073 12.4141C136.046 13.1693 136.204 13.8284 136.547 14.3913C136.904 14.9543 137.391 15.4418 138.009 15.8537C138.627 16.2519 139.341 16.602 140.151 16.9041C140.961 17.1925 141.826 17.4396 142.746 17.6456L146.536 18.5518C148.376 18.9638 150.065 19.513 151.603 20.1996C153.141 20.8861 154.473 21.7306 155.599 22.733C156.725 23.7353 157.597 24.9162 158.214 26.2756C158.846 27.6349 159.169 29.1934 159.182 30.951C159.169 33.5324 158.51 35.7706 157.205 37.6655C155.914 39.5466 154.047 41.009 151.603 42.0526C149.173 43.0824 146.241 43.5973 142.808 43.5973C139.403 43.5973 136.437 43.0755 133.91 42.032C131.398 40.9884 129.434 39.4437 128.02 37.3977C126.619 35.3381 125.885 32.791 125.816 29.7564H134.446C134.542 31.1707 134.947 32.3516 135.661 33.299C136.389 34.2327 137.357 34.9399 138.565 35.4205C139.787 35.8873 141.167 36.1207 142.705 36.1207C144.216 36.1207 145.527 35.901 146.639 35.4616C147.765 35.0223 148.637 34.4112 149.255 33.6286C149.873 32.8459 150.182 31.9465 150.182 30.9304C150.182 29.983 149.9 29.1866 149.337 28.5412C148.788 27.8958 147.978 27.3466 146.907 26.8935C145.85 26.4403 144.552 26.0284 143.014 25.6577L138.421 24.5043C134.865 23.6392 132.057 22.2867 129.997 20.4467C127.937 18.6068 126.914 16.1283 126.928 13.0114C126.914 10.4574 127.594 8.22609 128.967 6.31747C130.354 4.40885 132.256 2.91903 134.673 1.84801C137.089 0.776987 139.835 0.241476 142.911 0.241476C146.042 0.241476 148.774 0.776987 151.109 1.84801C153.457 2.91903 155.283 4.40885 156.587 6.31747C157.892 8.22609 158.565 10.4368 158.606 12.9496H150.058ZM163.781 43V0.818181H192.205V8.17116H172.7V18.2223H190.742V25.5753H172.7V35.647H192.287V43H163.781ZM197.895 43V0.818181H214.784C217.887 0.818181 220.476 1.27817 222.549 2.19815C224.622 3.11813 226.181 4.39512 227.224 6.02912C228.268 7.64938 228.79 9.51681 228.79 11.6314C228.79 13.2791 228.46 14.7277 227.801 15.9773C227.142 17.2131 226.236 18.2292 225.082 19.0256C223.943 19.8082 222.638 20.3643 221.169 20.6939V21.1058C222.776 21.1745 224.279 21.6276 225.68 22.4652C227.094 23.3028 228.241 24.4768 229.119 25.9872C229.998 27.4839 230.438 29.2689 230.438 31.3423C230.438 33.5805 229.881 35.5784 228.769 37.3359C227.671 39.0798 226.044 40.4598 223.888 41.4759C221.732 42.492 219.075 43 215.917 43H197.895ZM206.813 35.7088H214.084C216.569 35.7088 218.382 35.2351 219.521 34.2876C220.661 33.3265 221.231 32.0495 221.231 30.4567C221.231 29.2895 220.949 28.2597 220.386 27.3672C219.823 26.4747 219.02 25.7744 217.977 25.2663C216.947 24.7583 215.718 24.5043 214.29 24.5043H206.813V35.7088ZM206.813 18.4695H213.425C214.647 18.4695 215.732 18.2566 216.679 17.831C217.64 17.3916 218.395 16.7737 218.945 15.9773C219.508 15.1809 219.789 14.2266 219.789 13.1143C219.789 11.5902 219.247 10.3613 218.162 9.42756C217.091 8.49384 215.567 8.02699 213.589 8.02699H206.813V18.4695ZM234.841 43V0.818181H243.759V35.647H261.843V43H234.841ZM266.349 43V0.818181H294.772V8.17116H275.267V18.2223H293.31V25.5753H275.267V35.647H294.854V43H266.349ZM335.744 0.818181V43H328.041L309.69 16.451H309.381V43H300.462V0.818181H308.289L326.497 27.3466H326.867V0.818181H335.744ZM356.666 43H341.713V0.818181H356.79C361.032 0.818181 364.685 1.66264 367.747 3.35156C370.809 5.02675 373.164 7.43655 374.812 10.581C376.473 13.7254 377.304 17.4877 377.304 21.8679C377.304 26.2618 376.473 30.0379 374.812 33.196C373.164 36.3542 370.795 38.7777 367.706 40.4666C364.63 42.1555 360.95 43 356.666 43ZM350.631 35.3587H356.295C358.932 35.3587 361.149 34.8918 362.948 33.9581C364.76 33.0107 366.12 31.5483 367.026 29.571C367.946 27.58 368.406 25.0123 368.406 21.8679C368.406 18.7509 367.946 16.2038 367.026 14.2266C366.12 12.2493 364.767 10.7938 362.969 9.86008C361.17 8.92637 358.952 8.45952 356.316 8.45952H350.631V35.3587Z" fill="#206A5D"/>
</svg>
