<svg width="303" height="119" viewBox="0 0 303 119" fill="none" xmlns="http://www.w3.org/2000/svg">
<path d="M17.5686 100.447C16.3588 100.447 15.2609 100.22 14.2749 99.7638C13.2889 99.2998 12.5058 98.6328 11.9258 97.7628C11.3458 96.8845 11.0558 95.8239 11.0558 94.581C11.0558 93.4872 11.2712 92.6006 11.7021 91.9212C12.133 91.2334 12.7088 90.6948 13.4297 90.3054C14.1506 89.916 14.9461 89.6259 15.8161 89.4354C16.6944 89.2365 17.5769 89.0791 18.4635 88.9631C19.6235 88.8139 20.564 88.7021 21.2848 88.6275C22.014 88.5446 22.5443 88.4079 22.8758 88.2173C23.2155 88.0268 23.3853 87.6953 23.3853 87.223V87.1236C23.3853 85.8973 23.0498 84.9444 22.3786 84.2649C21.7157 83.5855 20.709 83.2457 19.3584 83.2457C17.958 83.2457 16.8601 83.5523 16.0647 84.1655C15.2692 84.7786 14.7099 85.4332 14.3868 86.1293L11.6027 85.1349C12.0998 83.9749 12.7627 83.0717 13.5913 82.4254C14.4282 81.7708 15.3396 81.3151 16.3257 81.0582C17.32 80.7931 18.2977 80.6605 19.2589 80.6605C19.8721 80.6605 20.5764 80.7351 21.3718 80.8842C22.1756 81.0251 22.9503 81.3192 23.6961 81.7667C24.4501 82.2141 25.0757 82.8894 25.5728 83.7926C26.07 84.6958 26.3186 85.9055 26.3186 87.4219V100H23.3853V97.4148H23.2362C23.0373 97.8291 22.7059 98.2724 22.2419 98.7447C21.7779 99.217 21.1606 99.6188 20.39 99.9503C19.6194 100.282 18.6789 100.447 17.5686 100.447ZM18.016 97.8125C19.1761 97.8125 20.1538 97.5846 20.9493 97.1289C21.753 96.6732 22.3579 96.0849 22.7639 95.364C23.1782 94.6431 23.3853 93.8849 23.3853 93.0895V90.4048C23.2611 90.554 22.9876 90.6907 22.565 90.815C22.1507 90.931 21.6701 91.0346 21.1233 91.1257C20.5847 91.2086 20.0585 91.2831 19.5448 91.3494C19.0393 91.4074 18.6292 91.4571 18.3143 91.4986C17.552 91.598 16.8394 91.7596 16.1765 91.9833C15.5219 92.1987 14.9916 92.526 14.5856 92.9652C14.1879 93.3961 13.989 93.9844 13.989 94.7301C13.989 95.7493 14.366 96.5199 15.1201 97.0419C15.8824 97.5556 16.8477 97.8125 18.016 97.8125ZM30.2724 100V80.9091H33.2056V100H30.2724ZM31.7638 77.7273C31.1921 77.7273 30.6991 77.5326 30.2848 77.1431C29.8788 76.7537 29.6758 76.2855 29.6758 75.7386C29.6758 75.1918 29.8788 74.7236 30.2848 74.3342C30.6991 73.9447 31.1921 73.75 31.7638 73.75C32.3356 73.75 32.8244 73.9447 33.2305 74.3342C33.6448 74.7236 33.8519 75.1918 33.8519 75.7386C33.8519 76.2855 33.6448 76.7537 33.2305 77.1431C32.8244 77.5326 32.3356 77.7273 31.7638 77.7273ZM40.1113 74.5455V100H37.178V74.5455H40.1113ZM52.0879 100.398C50.2485 100.398 48.6617 99.9917 47.3277 99.1797C46.0019 98.3594 44.9786 97.2159 44.2577 95.7493C43.5451 94.2744 43.1888 92.5592 43.1888 90.6037C43.1888 88.6482 43.5451 86.9247 44.2577 85.4332C44.9786 83.9335 45.9812 82.7652 47.2655 81.9283C48.5581 81.0831 50.0662 80.6605 51.7897 80.6605C52.784 80.6605 53.7659 80.8262 54.7353 81.1577C55.7048 81.4891 56.5872 82.0277 57.3827 82.7734C58.1781 83.5109 58.812 84.4886 59.2843 85.7067C59.7566 86.9247 59.9928 88.4245 59.9928 90.206V91.4489H45.2769V88.9134H57.0098C57.0098 87.8362 56.7944 86.875 56.3635 86.0298C55.9409 85.1847 55.3361 84.5176 54.5489 84.0288C53.77 83.5399 52.8503 83.2955 51.7897 83.2955C50.6213 83.2955 49.6104 83.5855 48.757 84.1655C47.9118 84.7372 47.2614 85.483 46.8056 86.4027C46.3499 87.3224 46.122 88.3085 46.122 89.3608V91.0511C46.122 92.4929 46.3706 93.7151 46.8678 94.7177C47.3732 95.712 48.0734 96.4702 48.9683 96.9922C49.8632 97.5059 50.9031 97.7628 52.0879 97.7628C52.8585 97.7628 53.5546 97.6551 54.176 97.4396C54.8058 97.2159 55.3485 96.8845 55.8042 96.4453C56.2599 95.9979 56.6121 95.4427 56.8607 94.7798L59.6945 95.5753C59.3962 96.5365 58.8949 97.3816 58.1906 98.1108C57.4863 98.8317 56.6162 99.3951 55.5805 99.8011C54.5447 100.199 53.3806 100.398 52.0879 100.398ZM65.988 88.5156V100H63.0548V80.9091H65.8886V83.892H66.1372C66.5846 82.9226 67.2641 82.1437 68.1755 81.5554C69.087 80.9588 70.2636 80.6605 71.7054 80.6605C72.998 80.6605 74.129 80.9257 75.0985 81.456C76.0679 81.978 76.8219 82.7734 77.3605 83.8423C77.8991 84.9029 78.1684 86.2453 78.1684 87.8693V100H75.2352V88.0682C75.2352 86.5684 74.8457 85.4001 74.0669 84.5632C73.288 83.718 72.2191 83.2955 70.8602 83.2955C69.9239 83.2955 69.087 83.4985 68.3495 83.9045C67.6204 84.3105 67.0445 84.9029 66.6219 85.6818C66.1993 86.4607 65.988 87.4053 65.988 88.5156ZM89.8841 100.398C88.0943 100.398 86.5531 99.9751 85.2605 99.13C83.9679 98.2848 82.9736 97.1206 82.2776 95.6374C81.5815 94.1542 81.2335 92.4598 81.2335 90.554C81.2335 88.6151 81.5898 86.904 82.3024 85.4208C83.0233 83.9293 84.0259 82.7652 85.3102 81.9283C86.6028 81.0831 88.1109 80.6605 89.8344 80.6605C91.1767 80.6605 92.3865 80.9091 93.4636 81.4062C94.5408 81.9034 95.4233 82.5994 96.111 83.4943C96.7988 84.3892 97.2255 85.4332 97.3912 86.6264H94.458C94.2342 85.7564 93.7371 84.9858 92.9665 84.3146C92.2042 83.6352 91.1767 83.2955 89.8841 83.2955C88.7406 83.2955 87.738 83.5937 86.8763 84.1903C86.0228 84.7786 85.3558 85.6114 84.8752 86.6886C84.4029 87.7575 84.1668 89.0128 84.1668 90.4545C84.1668 91.9295 84.3988 93.2138 84.8628 94.3075C85.3351 95.4013 85.998 96.2506 86.8514 96.8555C87.7132 97.4603 88.7241 97.7628 89.8841 97.7628C90.6464 97.7628 91.3383 97.6302 91.9597 97.3651C92.5812 97.0999 93.1073 96.7188 93.5382 96.2216C93.9691 95.7244 94.2757 95.1278 94.458 94.4318H97.3912C97.2255 95.5587 96.8153 96.5737 96.1607 97.4769C95.5144 98.3718 94.6568 99.0844 93.5879 99.6147C92.5273 100.137 91.2927 100.398 89.8841 100.398ZM108.035 100.398C106.311 100.398 104.799 99.9876 103.498 99.1673C102.206 98.3469 101.195 97.1993 100.466 95.7244C99.7447 94.2495 99.3843 92.526 99.3843 90.554C99.3843 88.5653 99.7447 86.8294 100.466 85.3462C101.195 83.863 102.206 82.7113 103.498 81.891C104.799 81.0707 106.311 80.6605 108.035 80.6605C109.758 80.6605 111.266 81.0707 112.559 81.891C113.86 82.7113 114.871 83.863 115.592 85.3462C116.321 86.8294 116.685 88.5653 116.685 90.554C116.685 92.526 116.321 94.2495 115.592 95.7244C114.871 97.1993 113.86 98.3469 112.559 99.1673C111.266 99.9876 109.758 100.398 108.035 100.398ZM108.035 97.7628C109.344 97.7628 110.421 97.4272 111.266 96.756C112.112 96.0849 112.737 95.2024 113.143 94.1087C113.549 93.0149 113.752 91.83 113.752 90.554C113.752 89.2779 113.549 88.0889 113.143 86.9869C112.737 85.8848 112.112 84.9941 111.266 84.3146C110.421 83.6352 109.344 83.2955 108.035 83.2955C106.726 83.2955 105.649 83.6352 104.803 84.3146C103.958 84.9941 103.333 85.8848 102.927 86.9869C102.521 88.0889 102.318 89.2779 102.318 90.554C102.318 91.83 102.521 93.0149 102.927 94.1087C103.333 95.2024 103.958 96.0849 104.803 96.756C105.649 97.4272 106.726 97.7628 108.035 97.7628ZM128.264 80.9091V83.3949H117.973V80.9091H128.264ZM121.056 100V78.2741C121.056 77.1804 121.312 76.2689 121.826 75.5398C122.34 74.8106 123.007 74.2637 123.827 73.8991C124.648 73.5346 125.513 73.3523 126.425 73.3523C127.146 73.3523 127.734 73.4103 128.19 73.5263C128.646 73.6423 128.985 73.75 129.209 73.8494L128.364 76.3849C128.215 76.3352 128.008 76.2731 127.742 76.1985C127.486 76.1239 127.146 76.0866 126.723 76.0866C125.754 76.0866 125.054 76.3311 124.623 76.82C124.2 77.3088 123.989 78.0256 123.989 78.9702V100H121.056ZM139.477 80.9091V83.3949H129.186V80.9091H139.477ZM132.268 100V78.2741C132.268 77.1804 132.525 76.2689 133.039 75.5398C133.552 74.8106 134.219 74.2637 135.04 73.8991C135.86 73.5346 136.726 73.3523 137.637 73.3523C138.358 73.3523 138.946 73.4103 139.402 73.5263C139.858 73.6423 140.198 73.75 140.421 73.8494L139.576 76.3849C139.427 76.3352 139.22 76.2731 138.955 76.1985C138.698 76.1239 138.358 76.0866 137.936 76.0866C136.966 76.0866 136.266 76.3311 135.835 76.82C135.412 77.3088 135.201 78.0256 135.201 78.9702V100H132.268ZM149.406 100.398C147.566 100.398 145.979 99.9917 144.645 99.1797C143.32 98.3594 142.296 97.2159 141.575 95.7493C140.863 94.2744 140.507 92.5592 140.507 90.6037C140.507 88.6482 140.863 86.9247 141.575 85.4332C142.296 83.9335 143.299 82.7652 144.583 81.9283C145.876 81.0831 147.384 80.6605 149.107 80.6605C150.102 80.6605 151.084 80.8262 152.053 81.1577C153.023 81.4891 153.905 82.0277 154.7 82.7734C155.496 83.5109 156.13 84.4886 156.602 85.7067C157.074 86.9247 157.311 88.4245 157.311 90.206V91.4489H142.595V88.9134H154.328C154.328 87.8362 154.112 86.875 153.681 86.0298C153.259 85.1847 152.654 84.5176 151.867 84.0288C151.088 83.5399 150.168 83.2955 149.107 83.2955C147.939 83.2955 146.928 83.5855 146.075 84.1655C145.23 84.7372 144.579 85.483 144.123 86.4027C143.668 87.3224 143.44 88.3085 143.44 89.3608V91.0511C143.44 92.4929 143.688 93.7151 144.186 94.7177C144.691 95.712 145.391 96.4702 146.286 96.9922C147.181 97.5059 148.221 97.7628 149.406 97.7628C150.176 97.7628 150.872 97.6551 151.494 97.4396C152.124 97.2159 152.666 96.8845 153.122 96.4453C153.578 95.9979 153.93 95.4427 154.178 94.7798L157.012 95.5753C156.714 96.5365 156.213 97.3816 155.508 98.1108C154.804 98.8317 153.934 99.3951 152.898 99.8011C151.863 100.199 150.698 100.398 149.406 100.398ZM168.377 100.398C166.537 100.398 164.951 99.9917 163.617 99.1797C162.291 98.3594 161.267 97.2159 160.547 95.7493C159.834 94.2744 159.478 92.5592 159.478 90.6037C159.478 88.6482 159.834 86.9247 160.547 85.4332C161.267 83.9335 162.27 82.7652 163.554 81.9283C164.847 81.0831 166.355 80.6605 168.079 80.6605C169.073 80.6605 170.055 80.8262 171.024 81.1577C171.994 81.4891 172.876 82.0277 173.672 82.7734C174.467 83.5109 175.101 84.4886 175.573 85.7067C176.045 86.9247 176.282 88.4245 176.282 90.206V91.4489H161.566V88.9134H173.299C173.299 87.8362 173.083 86.875 172.652 86.0298C172.23 85.1847 171.625 84.5176 170.838 84.0288C170.059 83.5399 169.139 83.2955 168.079 83.2955C166.91 83.2955 165.899 83.5855 165.046 84.1655C164.201 84.7372 163.55 85.483 163.095 86.4027C162.639 87.3224 162.411 88.3085 162.411 89.3608V91.0511C162.411 92.4929 162.659 93.7151 163.157 94.7177C163.662 95.712 164.362 96.4702 165.257 96.9922C166.152 97.5059 167.192 97.7628 168.377 97.7628C169.147 97.7628 169.843 97.6551 170.465 97.4396C171.095 97.2159 171.637 96.8845 172.093 96.4453C172.549 95.9979 172.901 95.4427 173.15 94.7798L175.983 95.5753C175.685 96.5365 175.184 97.3816 174.479 98.1108C173.775 98.8317 172.905 99.3951 171.869 99.8011C170.834 100.199 169.669 100.398 168.377 100.398ZM181.481 100.199C180.868 100.199 180.342 99.9793 179.903 99.5401C179.464 99.101 179.244 98.5748 179.244 97.9616C179.244 97.3485 179.464 96.8223 179.903 96.3832C180.342 95.944 180.868 95.7244 181.481 95.7244C182.095 95.7244 182.621 95.944 183.06 96.3832C183.499 96.8223 183.719 97.3485 183.719 97.9616C183.719 98.3677 183.615 98.7405 183.408 99.0803C183.209 99.42 182.94 99.6934 182.6 99.9006C182.269 100.099 181.896 100.199 181.481 100.199ZM187.582 100V80.9091H190.416V83.7926H190.615C190.963 82.848 191.593 82.0816 192.504 81.4933C193.416 80.9049 194.443 80.6108 195.587 80.6108C195.802 80.6108 196.071 80.6149 196.394 80.6232C196.718 80.6315 196.962 80.6439 197.128 80.6605V83.6435C197.028 83.6186 196.8 83.5813 196.444 83.5316C196.096 83.4736 195.727 83.4446 195.338 83.4446C194.41 83.4446 193.581 83.6393 192.852 84.0288C192.131 84.4099 191.56 84.9402 191.137 85.6197C190.723 86.2908 190.516 87.0573 190.516 87.919V100H187.582ZM206.379 100.398C204.656 100.398 203.144 99.9876 201.843 99.1673C200.55 98.3469 199.539 97.1993 198.81 95.7244C198.089 94.2495 197.729 92.526 197.729 90.554C197.729 88.5653 198.089 86.8294 198.81 85.3462C199.539 83.863 200.55 82.7113 201.843 81.891C203.144 81.0707 204.656 80.6605 206.379 80.6605C208.103 80.6605 209.611 81.0707 210.904 81.891C212.204 82.7113 213.215 83.863 213.936 85.3462C214.665 86.8294 215.03 88.5653 215.03 90.554C215.03 92.526 214.665 94.2495 213.936 95.7244C213.215 97.1993 212.204 98.3469 210.904 99.1673C209.611 99.9876 208.103 100.398 206.379 100.398ZM206.379 97.7628C207.689 97.7628 208.766 97.4272 209.611 96.756C210.456 96.0849 211.082 95.2024 211.488 94.1087C211.894 93.0149 212.097 91.83 212.097 90.554C212.097 89.2779 211.894 88.0889 211.488 86.9869C211.082 85.8848 210.456 84.9941 209.611 84.3146C208.766 83.6352 207.689 83.2955 206.379 83.2955C205.07 83.2955 203.993 83.6352 203.148 84.3146C202.303 84.9941 201.677 85.8848 201.271 86.9869C200.865 88.0889 200.662 89.2779 200.662 90.554C200.662 91.83 200.865 93.0149 201.271 94.1087C201.677 95.2024 202.303 96.0849 203.148 96.756C203.993 97.4272 205.07 97.7628 206.379 97.7628ZM223.725 100.447C222.516 100.447 221.418 100.22 220.432 99.7638C219.446 99.2998 218.663 98.6328 218.083 97.7628C217.503 96.8845 217.213 95.8239 217.213 94.581C217.213 93.4872 217.428 92.6006 217.859 91.9212C218.29 91.2334 218.866 90.6948 219.587 90.3054C220.307 89.916 221.103 89.6259 221.973 89.4354C222.851 89.2365 223.734 89.0791 224.62 88.9631C225.78 88.8139 226.721 88.7021 227.442 88.6275C228.171 88.5446 228.701 88.4079 229.033 88.2173C229.372 88.0268 229.542 87.6953 229.542 87.223V87.1236C229.542 85.8973 229.207 84.9444 228.535 84.2649C227.873 83.5855 226.866 83.2457 225.515 83.2457C224.115 83.2457 223.017 83.5523 222.222 84.1655C221.426 84.7786 220.867 85.4332 220.544 86.1293L217.759 85.1349C218.257 83.9749 218.92 83.0717 219.748 82.4254C220.585 81.7708 221.496 81.3151 222.483 81.0582C223.477 80.7931 224.455 80.6605 225.416 80.6605C226.029 80.6605 226.733 80.7351 227.529 80.8842C228.332 81.0251 229.107 81.3192 229.853 81.7667C230.607 82.2141 231.233 82.8894 231.73 83.7926C232.227 84.6958 232.475 85.9055 232.475 87.4219V100H229.542V97.4148H229.393C229.194 97.8291 228.863 98.2724 228.399 98.7447C227.935 99.217 227.317 99.6188 226.547 99.9503C225.776 100.282 224.836 100.447 223.725 100.447ZM224.173 97.8125C225.333 97.8125 226.311 97.5846 227.106 97.1289C227.91 96.6732 228.515 96.0849 228.921 95.364C229.335 94.6431 229.542 93.8849 229.542 93.0895V90.4048C229.418 90.554 229.144 90.6907 228.722 90.815C228.308 90.931 227.827 91.0346 227.28 91.1257C226.742 91.2086 226.215 91.2831 225.702 91.3494C225.196 91.4074 224.786 91.4571 224.471 91.4986C223.709 91.598 222.996 91.7596 222.333 91.9833C221.679 92.1987 221.148 92.526 220.742 92.9652C220.345 93.3961 220.146 93.9844 220.146 94.7301C220.146 95.7493 220.523 96.5199 221.277 97.0419C222.039 97.5556 223.005 97.8125 224.173 97.8125ZM249.952 85.1847L247.317 85.9304C247.151 85.4912 246.907 85.0645 246.584 84.6502C246.269 84.2276 245.838 83.8796 245.291 83.6062C244.744 83.3327 244.044 83.196 243.191 83.196C242.022 83.196 241.049 83.4653 240.27 84.0039C239.499 84.5342 239.114 85.2095 239.114 86.0298C239.114 86.759 239.379 87.3349 239.909 87.7575C240.44 88.18 241.268 88.5322 242.395 88.8139L245.229 89.5099C246.936 89.9242 248.208 90.5581 249.045 91.4116C249.881 92.2567 250.3 93.3464 250.3 94.6804C250.3 95.7741 249.985 96.7519 249.355 97.6136C248.734 98.4754 247.864 99.1548 246.745 99.652C245.627 100.149 244.326 100.398 242.843 100.398C240.895 100.398 239.284 99.9751 238.008 99.13C236.732 98.2848 235.924 97.0502 235.584 95.4261L238.368 94.7301C238.633 95.7576 239.135 96.5282 239.872 97.0419C240.618 97.5556 241.591 97.8125 242.793 97.8125C244.16 97.8125 245.245 97.5225 246.049 96.9425C246.861 96.3542 247.267 95.6499 247.267 94.8295C247.267 94.1667 247.035 93.6115 246.571 93.1641C246.107 92.7083 245.395 92.3686 244.433 92.1449L241.252 91.3991C239.503 90.9848 238.219 90.3427 237.399 89.4727C236.587 88.5943 236.181 87.4964 236.181 86.179C236.181 85.1018 236.483 84.1489 237.088 83.3203C237.701 82.4917 238.534 81.8413 239.586 81.369C240.647 80.8967 241.848 80.6605 243.191 80.6605C245.08 80.6605 246.563 81.0748 247.64 81.9034C248.726 82.732 249.496 83.8258 249.952 85.1847ZM261.618 80.9091V83.3949H251.724V80.9091H261.618ZM254.608 76.3352H257.541V94.5312C257.541 95.3598 257.661 95.9813 257.902 96.3956C258.15 96.8016 258.465 97.075 258.846 97.2159C259.236 97.3485 259.646 97.4148 260.077 97.4148C260.4 97.4148 260.665 97.3982 260.872 97.3651C261.079 97.3236 261.245 97.2905 261.369 97.2656L261.966 99.9006C261.767 99.9751 261.489 100.05 261.133 100.124C260.777 100.207 260.325 100.249 259.778 100.249C258.95 100.249 258.138 100.07 257.342 99.7141C256.555 99.3578 255.901 98.8151 255.379 98.0859C254.865 97.3568 254.608 96.437 254.608 95.3267V76.3352ZM272.429 100.398C270.59 100.398 269.003 99.9917 267.669 99.1797C266.343 98.3594 265.32 97.2159 264.599 95.7493C263.886 94.2744 263.53 92.5592 263.53 90.6037C263.53 88.6482 263.886 86.9247 264.599 85.4332C265.32 83.9335 266.323 82.7652 267.607 81.9283C268.9 81.0831 270.408 80.6605 272.131 80.6605C273.125 80.6605 274.107 80.8262 275.077 81.1577C276.046 81.4891 276.929 82.0277 277.724 82.7734C278.52 83.5109 279.153 84.4886 279.626 85.7067C280.098 86.9247 280.334 88.4245 280.334 90.206V91.4489H265.618V88.9134H277.351C277.351 87.8362 277.136 86.875 276.705 86.0298C276.282 85.1847 275.677 84.5176 274.89 84.0288C274.111 83.5399 273.192 83.2955 272.131 83.2955C270.963 83.2955 269.952 83.5855 269.098 84.1655C268.253 84.7372 267.603 85.483 267.147 86.4027C266.691 87.3224 266.463 88.3085 266.463 89.3608V91.0511C266.463 92.4929 266.712 93.7151 267.209 94.7177C267.715 95.712 268.415 96.4702 269.31 96.9922C270.205 97.5059 271.244 97.7628 272.429 97.7628C273.2 97.7628 273.896 97.6551 274.517 97.4396C275.147 97.2159 275.69 96.8845 276.146 96.4453C276.601 95.9979 276.953 95.4427 277.202 94.7798L280.036 95.5753C279.738 96.5365 279.236 97.3816 278.532 98.1108C277.828 98.8317 276.958 99.3951 275.922 99.8011C274.886 100.199 273.722 100.398 272.429 100.398ZM283.396 100V80.9091H286.23V83.7926H286.429C286.777 82.848 287.407 82.0816 288.318 81.4933C289.23 80.9049 290.257 80.6108 291.4 80.6108C291.616 80.6108 291.885 80.6149 292.208 80.6232C292.531 80.6315 292.776 80.6439 292.942 80.6605V83.6435C292.842 83.6186 292.614 83.5813 292.258 83.5316C291.91 83.4736 291.541 83.4446 291.152 83.4446C290.224 83.4446 289.395 83.6393 288.666 84.0288C287.945 84.4099 287.373 84.9402 286.951 85.6197C286.537 86.2908 286.329 87.0573 286.329 87.919V100H283.396Z" fill="black"/>
<path d="M127 25C127 38.8071 138.193 50 152 50C165.807 50 177 38.8071 177 25C177 11.1929 165.807 0 152 0C138.193 0 127 11.1929 127 25Z" fill="#F00073"/>
<path d="M152 14.375C155.437 14.375 155.906 14.375 157.312 14.375C158.562 14.375 159.187 14.6875 159.656 14.8438C160.281 15.1563 160.75 15.3125 161.219 15.7813C161.687 16.25 162 16.7188 162.156 17.3438C162.312 17.8125 162.469 18.4375 162.625 19.6875C162.625 21.0938 162.625 21.4062 162.625 25C162.625 28.5938 162.625 28.9062 162.625 30.3125C162.625 31.5625 162.312 32.1875 162.156 32.6562C161.844 33.2812 161.687 33.75 161.219 34.2187C160.75 34.6875 160.281 35 159.656 35.1562C159.187 35.3125 158.562 35.4687 157.312 35.625C155.906 35.625 155.594 35.625 152 35.625C148.406 35.625 148.094 35.625 146.688 35.625C145.438 35.625 144.813 35.3125 144.344 35.1562C143.719 34.8437 143.25 34.6875 142.781 34.2187C142.313 33.75 142 33.2812 141.844 32.6562C141.688 32.1875 141.531 31.5625 141.375 30.3125C141.375 28.9062 141.375 28.5938 141.375 25C141.375 21.4062 141.375 21.0938 141.375 19.6875C141.375 18.4375 141.688 17.8125 141.844 17.3438C142.156 16.7188 142.313 16.25 142.781 15.7813C143.25 15.3125 143.719 15 144.344 14.8438C144.813 14.6875 145.438 14.5312 146.688 14.375C148.094 14.375 148.562 14.375 152 14.375ZM152 12.0312C148.406 12.0312 148.094 12.0312 146.688 12.0312C145.281 12.0312 144.344 12.3438 143.563 12.6563C142.781 12.9688 142 13.4375 141.219 14.2188C140.438 15 140.125 15.625 139.656 16.5625C139.344 17.3438 139.187 18.2813 139.031 19.6875C139.031 21.0938 139.031 21.5625 139.031 25C139.031 28.5938 139.031 28.9062 139.031 30.3125C139.031 31.7187 139.344 32.6562 139.656 33.4375C139.969 34.2187 140.438 35 141.219 35.7812C142 36.5625 142.625 36.875 143.563 37.3438C144.344 37.6562 145.281 37.8125 146.688 37.9687C148.094 37.9687 148.562 37.9687 152 37.9687C155.437 37.9687 155.906 37.9687 157.312 37.9687C158.719 37.9687 159.656 37.6562 160.437 37.3438C161.219 37.0312 162 36.5625 162.781 35.7812C163.562 35 163.875 34.375 164.344 33.4375C164.656 32.6562 164.812 31.7187 164.969 30.3125C164.969 28.9062 164.969 28.4375 164.969 25C164.969 21.5625 164.969 21.0938 164.969 19.6875C164.969 18.2813 164.656 17.3438 164.344 16.5625C164.031 15.7813 163.562 15 162.781 14.2188C162 13.4375 161.375 13.125 160.437 12.6563C159.656 12.3438 158.719 12.1875 157.312 12.0312C155.906 12.0313 155.594 12.0312 152 12.0312Z" fill="white"/>
<path d="M152 18.2812C148.25 18.2812 145.281 21.25 145.281 25C145.281 28.75 148.25 31.7187 152 31.7187C155.75 31.7187 158.719 28.75 158.719 25C158.719 21.25 155.75 18.2812 152 18.2812ZM152 29.375C149.656 29.375 147.625 27.5 147.625 25C147.625 22.6562 149.5 20.625 152 20.625C154.344 20.625 156.375 22.5 156.375 25C156.375 27.3437 154.344 29.375 152 29.375Z" fill="white"/>
<path d="M158.875 19.6875C159.738 19.6875 160.437 18.9879 160.437 18.125C160.437 17.2621 159.738 16.5625 158.875 16.5625C158.012 16.5625 157.312 17.2621 157.312 18.125C157.312 18.9879 158.012 19.6875 158.875 19.6875Z" fill="white"/>
</svg>
