<svg width="1311" height="467" viewBox="0 0 1311 467" fill="none" xmlns="http://www.w3.org/2000/svg">
<path d="M230.958 57.9999V15.8181H239.876V34.4168H240.432L255.612 15.8181H266.302L250.648 34.7052L266.487 57.9999H255.818L244.263 40.6576L239.876 46.0127V57.9999H230.958ZM281.477 58.6178C278.223 58.6178 275.421 57.9587 273.073 56.6406C270.739 55.3087 268.94 53.4275 267.677 50.9971C266.414 48.553 265.782 45.6626 265.782 42.3259C265.782 39.0717 266.414 36.2156 267.677 33.7578C268.94 31.2999 270.719 29.3844 273.012 28.0113C275.318 26.6382 278.023 25.9516 281.127 25.9516C283.214 25.9516 285.157 26.2881 286.956 26.9609C288.768 27.62 290.347 28.6155 291.693 29.9474C293.052 31.2793 294.109 32.9545 294.865 34.9729C295.62 36.9777 295.997 39.3257 295.997 42.017V44.4268H269.284V38.9893H287.738C287.738 37.726 287.464 36.6069 286.914 35.632C286.365 34.6571 285.603 33.8951 284.628 33.3458C283.667 32.7828 282.548 32.5014 281.271 32.5014C279.939 32.5014 278.758 32.8103 277.728 33.4282C276.712 34.0324 275.916 34.8494 275.339 35.8792C274.762 36.8953 274.467 38.0281 274.453 39.2776V44.4474C274.453 46.0127 274.742 47.3652 275.318 48.5049C275.909 49.6446 276.74 50.5234 277.811 51.1413C278.882 51.7592 280.152 52.0681 281.621 52.0681C282.596 52.0681 283.488 51.9308 284.299 51.6562C285.109 51.3816 285.802 50.9696 286.379 50.4204C286.956 49.8712 287.395 49.1983 287.697 48.4019L295.812 48.9374C295.4 50.8872 294.556 52.5899 293.279 54.0454C292.015 55.4872 290.381 56.6131 288.377 57.4232C286.386 58.2196 284.086 58.6178 281.477 58.6178ZM309.097 39.7102V57.9999H300.323V26.3636H308.686V31.9453H309.056C309.757 30.1053 310.931 28.6498 312.578 27.5788C314.226 26.494 316.224 25.9516 318.572 25.9516C320.769 25.9516 322.684 26.4322 324.318 27.3934C325.952 28.3546 327.222 29.7277 328.129 31.5127C329.035 33.284 329.488 35.3986 329.488 37.8565V57.9999H320.714V39.4218C320.728 37.4857 320.233 35.9753 319.231 34.8906C318.229 33.7921 316.849 33.2428 315.091 33.2428C313.91 33.2428 312.867 33.4969 311.96 34.0049C311.068 34.513 310.368 35.2544 309.86 36.2293C309.365 37.1905 309.111 38.3508 309.097 39.7102ZM344.025 58.5972C342.006 58.5972 340.207 58.2471 338.628 57.5468C337.049 56.8328 335.8 55.7824 334.88 54.3955C333.974 52.995 333.52 51.2511 333.52 49.164C333.52 47.4064 333.843 45.9303 334.488 44.7357C335.134 43.5411 336.013 42.58 337.125 41.8522C338.237 41.1245 339.5 40.5752 340.915 40.2045C342.343 39.8337 343.839 39.5729 345.405 39.4218C347.245 39.2296 348.728 39.0511 349.854 38.8863C350.979 38.7078 351.796 38.4469 352.305 38.1036C352.813 37.7604 353.067 37.2523 353.067 36.5795V36.4559C353.067 35.1515 352.655 34.1422 351.831 33.4282C351.021 32.7142 349.867 32.3572 348.371 32.3572C346.792 32.3572 345.535 32.7073 344.601 33.4076C343.668 34.0942 343.05 34.9592 342.748 36.0028L334.633 35.3437C335.045 33.4213 335.855 31.7599 337.063 30.3593C338.271 28.945 339.83 27.8603 341.738 27.1051C343.661 26.3361 345.885 25.9516 348.412 25.9516C350.169 25.9516 351.851 26.1576 353.458 26.5695C355.078 26.9815 356.513 27.62 357.763 28.485C359.026 29.3501 360.021 30.4623 360.749 31.8217C361.477 33.1673 361.841 34.7807 361.841 36.6619V57.9999H353.52V53.6129H353.273C352.765 54.6015 352.085 55.4734 351.234 56.2286C350.382 56.9701 349.359 57.5537 348.165 57.9793C346.97 58.3913 345.59 58.5972 344.025 58.5972ZM346.537 52.5418C347.828 52.5418 348.968 52.2878 349.957 51.7798C350.945 51.258 351.721 50.5577 352.284 49.6789C352.847 48.8001 353.128 47.8046 353.128 46.6924V43.3352C352.854 43.5137 352.476 43.6784 351.996 43.8295C351.529 43.9668 351 44.0972 350.41 44.2208C349.819 44.3307 349.229 44.4337 348.638 44.5298C348.048 44.6122 347.512 44.6877 347.032 44.7563C346.002 44.9074 345.103 45.1477 344.334 45.4772C343.565 45.8068 342.967 46.253 342.542 46.816C342.116 47.3652 341.903 48.0518 341.903 48.8756C341.903 50.0703 342.336 50.9834 343.201 51.615C344.08 52.2329 345.192 52.5418 346.537 52.5418ZM367.248 69.8636V26.3636H375.898V31.6775H376.29C376.674 30.8262 377.23 29.9611 377.958 29.0823C378.7 28.1898 379.661 27.4483 380.842 26.8579C382.036 26.2537 383.519 25.9516 385.291 25.9516C387.597 25.9516 389.726 26.5558 391.675 27.7641C393.625 28.9587 395.184 30.7644 396.351 33.181C397.518 35.584 398.102 38.5979 398.102 42.2229C398.102 45.7518 397.532 48.7315 396.392 51.1619C395.266 53.5785 393.728 55.4116 391.778 56.6612C389.842 57.897 387.673 58.5149 385.27 58.5149C383.567 58.5149 382.119 58.2334 380.924 57.6704C379.743 57.1074 378.775 56.4003 378.02 55.5489C377.265 54.6839 376.688 53.812 376.29 52.9332H376.022V69.8636H367.248ZM375.837 42.1818C375.837 44.0629 376.098 45.7038 376.619 47.1043C377.141 48.5049 377.896 49.5965 378.885 50.3792C379.874 51.1481 381.075 51.5326 382.489 51.5326C383.917 51.5326 385.126 51.1413 386.114 50.3586C387.103 49.5622 387.851 48.4637 388.359 47.0631C388.881 45.6488 389.142 44.0217 389.142 42.1818C389.142 40.3555 388.888 38.749 388.38 37.3622C387.872 35.9753 387.124 34.8906 386.135 34.1079C385.146 33.3252 383.931 32.9339 382.489 32.9339C381.061 32.9339 379.853 33.3115 378.864 34.0667C377.889 34.8219 377.141 35.8929 376.619 37.2798C376.098 38.6666 375.837 40.3006 375.837 42.1818ZM411.572 58.5972C409.554 58.5972 407.755 58.2471 406.176 57.5468C404.597 56.8328 403.347 55.7824 402.427 54.3955C401.521 52.995 401.068 51.2511 401.068 49.164C401.068 47.4064 401.391 45.9303 402.036 44.7357C402.681 43.5411 403.56 42.58 404.672 41.8522C405.785 41.1245 407.048 40.5752 408.462 40.2045C409.89 39.8337 411.387 39.5729 412.952 39.4218C414.792 39.2296 416.275 39.0511 417.401 38.8863C418.527 38.7078 419.344 38.4469 419.852 38.1036C420.36 37.7604 420.614 37.2523 420.614 36.5795V36.4559C420.614 35.1515 420.202 34.1422 419.378 33.4282C418.568 32.7142 417.415 32.3572 415.918 32.3572C414.339 32.3572 413.083 32.7073 412.149 33.4076C411.215 34.0942 410.597 34.9592 410.295 36.0028L402.18 35.3437C402.592 33.4213 403.402 31.7599 404.611 30.3593C405.819 28.945 407.378 27.8603 409.286 27.1051C411.208 26.3361 413.433 25.9516 415.959 25.9516C417.717 25.9516 419.399 26.1576 421.006 26.5695C422.626 26.9815 424.061 27.62 425.31 28.485C426.574 29.3501 427.569 30.4623 428.297 31.8217C429.025 33.1673 429.388 34.7807 429.388 36.6619V57.9999H421.067V53.6129H420.82C420.312 54.6015 419.632 55.4734 418.781 56.2286C417.93 56.9701 416.907 57.5537 415.712 57.9793C414.518 58.3913 413.138 58.5972 411.572 58.5972ZM414.085 52.5418C415.376 52.5418 416.516 52.2878 417.504 51.7798C418.493 51.258 419.269 50.5577 419.832 49.6789C420.395 48.8001 420.676 47.8046 420.676 46.6924V43.3352C420.401 43.5137 420.024 43.6784 419.543 43.8295C419.076 43.9668 418.548 44.0972 417.957 44.2208C417.367 44.3307 416.776 44.4337 416.186 44.5298C415.596 44.6122 415.06 44.6877 414.579 44.7563C413.55 44.9074 412.65 45.1477 411.881 45.4772C411.112 45.8068 410.515 46.253 410.089 46.816C409.664 47.3652 409.451 48.0518 409.451 48.8756C409.451 50.0703 409.883 50.9834 410.748 51.615C411.627 52.2329 412.739 52.5418 414.085 52.5418ZM454.255 57.9999H444.698L459.26 15.8181H470.753L485.294 57.9999H475.737L465.171 25.4573H464.841L454.255 57.9999ZM453.657 41.4197H476.231V48.3813H453.657V41.4197ZM488.976 57.9999V26.3636H497.75V57.9999H488.976ZM493.384 22.2854C492.079 22.2854 490.96 21.8529 490.026 20.9879C489.106 20.1091 488.646 19.0586 488.646 17.8366C488.646 16.6283 489.106 15.5916 490.026 14.7265C490.96 13.8477 492.079 13.4083 493.384 13.4083C494.688 13.4083 495.8 13.8477 496.72 14.7265C497.654 15.5916 498.121 16.6283 498.121 17.8366C498.121 19.0586 497.654 20.1091 496.72 20.9879C495.8 21.8529 494.688 22.2854 493.384 22.2854ZM512.153 15.8181V57.9999H503.379V15.8181H512.153ZM532.199 58.6178C528.945 58.6178 526.144 57.9587 523.796 56.6406C521.461 55.3087 519.663 53.4275 518.399 50.9971C517.136 48.553 516.505 45.6626 516.505 42.3259C516.505 39.0717 517.136 36.2156 518.399 33.7578C519.663 31.2999 521.441 29.3844 523.734 28.0113C526.041 26.6382 528.746 25.9516 531.849 25.9516C533.936 25.9516 535.879 26.2881 537.678 26.9609C539.49 27.62 541.069 28.6155 542.415 29.9474C543.774 31.2793 544.832 32.9545 545.587 34.9729C546.342 36.9777 546.72 39.3257 546.72 42.017V44.4268H520.006V38.9893H538.46C538.46 37.726 538.186 36.6069 537.637 35.632C537.087 34.6571 536.325 33.8951 535.35 33.3458C534.389 32.7828 533.27 32.5014 531.993 32.5014C530.661 32.5014 529.48 32.8103 528.451 33.4282C527.434 34.0324 526.638 34.8494 526.061 35.8792C525.485 36.8953 525.189 38.0281 525.176 39.2776V44.4474C525.176 46.0127 525.464 47.3652 526.041 48.5049C526.631 49.6446 527.462 50.5234 528.533 51.1413C529.604 51.7592 530.874 52.0681 532.343 52.0681C533.318 52.0681 534.211 51.9308 535.021 51.6562C535.831 51.3816 536.524 50.9696 537.101 50.4204C537.678 49.8712 538.117 49.1983 538.419 48.4019L546.534 48.9374C546.122 50.8872 545.278 52.5899 544.001 54.0454C542.738 55.4872 541.104 56.6131 539.099 57.4232C537.108 58.2196 534.808 58.6178 532.199 58.6178ZM559.82 39.7102V57.9999H551.046V26.3636H559.408V31.9453H559.779C560.479 30.1053 561.653 28.6498 563.301 27.5788C564.948 26.494 566.946 25.9516 569.294 25.9516C571.491 25.9516 573.407 26.4322 575.041 27.3934C576.675 28.3546 577.945 29.7277 578.851 31.5127C579.757 33.284 580.21 35.3986 580.21 37.8565V57.9999H571.436V39.4218C571.45 37.4857 570.956 35.9753 569.953 34.8906C568.951 33.7921 567.571 33.2428 565.813 33.2428C564.632 33.2428 563.589 33.4969 562.683 34.0049C561.79 34.513 561.09 35.2544 560.582 36.2293C560.087 37.1905 559.833 38.3508 559.82 39.7102ZM635.132 30.5859H626.111C625.946 29.4187 625.61 28.382 625.102 27.4758C624.594 26.5558 623.941 25.7731 623.145 25.1278C622.349 24.4824 621.429 23.9881 620.385 23.6448C619.355 23.3015 618.236 23.1299 617.028 23.1299C614.845 23.1299 612.943 23.6723 611.323 24.757C609.702 25.8281 608.446 27.3934 607.553 29.4531C606.661 31.499 606.215 33.9843 606.215 36.909C606.215 39.9161 606.661 42.4426 607.553 44.4886C608.46 46.5345 609.723 48.0792 611.343 49.1228C612.963 50.1664 614.838 50.6881 616.966 50.6881C618.161 50.6881 619.266 50.5302 620.282 50.2144C621.312 49.8986 622.225 49.4386 623.021 48.8345C623.818 48.2166 624.477 47.4682 624.999 46.5894C625.534 45.7106 625.905 44.7083 626.111 43.5823L635.132 43.6235C634.899 45.5596 634.315 47.427 633.382 49.2258C632.462 51.0108 631.219 52.6105 629.654 54.0248C628.102 55.4254 626.248 56.5376 624.093 57.3614C621.95 58.1716 619.527 58.5766 616.822 58.5766C613.06 58.5766 609.695 57.7253 606.73 56.0227C603.777 54.32 601.443 51.8553 599.727 48.6285C598.024 45.4017 597.173 41.4952 597.173 36.909C597.173 32.3091 598.038 28.3958 599.768 25.169C601.498 21.9422 603.846 19.4843 606.812 17.7954C609.778 16.0927 613.115 15.2414 616.822 15.2414C619.266 15.2414 621.532 15.5847 623.619 16.2712C625.72 16.9578 627.58 17.9602 629.2 19.2783C630.821 20.5828 632.139 22.1825 633.155 24.0774C634.185 25.9722 634.844 28.1417 635.132 30.5859ZM654.257 58.6178C651.057 58.6178 648.291 57.9381 645.956 56.5788C643.636 55.2057 641.844 53.2971 640.581 50.8529C639.317 48.3951 638.686 45.5459 638.686 42.3053C638.686 39.0373 639.317 36.1813 640.581 33.7372C641.844 31.2793 643.636 29.3707 645.956 28.0113C648.291 26.6382 651.057 25.9516 654.257 25.9516C657.456 25.9516 660.216 26.6382 662.537 28.0113C664.871 29.3707 666.67 31.2793 667.933 33.7372C669.196 36.1813 669.828 39.0373 669.828 42.3053C669.828 45.5459 669.196 48.3951 667.933 50.8529C666.67 53.2971 664.871 55.2057 662.537 56.5788C660.216 57.9381 657.456 58.6178 654.257 58.6178ZM654.298 51.821C655.753 51.821 656.969 51.409 657.944 50.5852C658.918 49.7476 659.653 48.6079 660.147 47.1661C660.655 45.7244 660.909 44.0835 660.909 42.2435C660.909 40.4036 660.655 38.7627 660.147 37.321C659.653 35.8792 658.918 34.7395 657.944 33.9019C656.969 33.0643 655.753 32.6455 654.298 32.6455C652.829 32.6455 651.593 33.0643 650.591 33.9019C649.602 34.7395 648.854 35.8792 648.346 37.321C647.851 38.7627 647.604 40.4036 647.604 42.2435C647.604 44.0835 647.851 45.7244 648.346 47.1661C648.854 48.6079 649.602 49.7476 650.591 50.5852C651.593 51.409 652.829 51.821 654.298 51.821ZM691.146 26.3636V32.9545H671.62V26.3636H691.146ZM676.09 57.9999V24.0774C676.09 21.7843 676.536 19.8825 677.429 18.3721C678.335 16.8617 679.571 15.7289 681.136 14.9737C682.701 14.2184 684.479 13.8408 686.47 13.8408C687.816 13.8408 689.045 13.9438 690.157 14.1498C691.283 14.3558 692.121 14.5411 692.67 14.7059L691.105 21.2968C690.761 21.187 690.336 21.084 689.828 20.9879C689.333 20.8917 688.825 20.8437 688.304 20.8437C687.013 20.8437 686.113 21.1458 685.605 21.7499C685.097 22.3404 684.843 23.1711 684.843 24.2421V57.9999H676.09ZM712.119 26.3636V32.9545H692.593V26.3636H712.119ZM697.063 57.9999V24.0774C697.063 21.7843 697.509 19.8825 698.402 18.3721C699.308 16.8617 700.544 15.7289 702.109 14.9737C703.674 14.2184 705.453 13.8408 707.444 13.8408C708.789 13.8408 710.018 13.9438 711.13 14.1498C712.256 14.3558 713.094 14.5411 713.643 14.7059L712.078 21.2968C711.734 21.187 711.309 21.084 710.801 20.9879C710.306 20.8917 709.798 20.8437 709.277 20.8437C707.986 20.8437 707.087 21.1458 706.578 21.7499C706.07 22.3404 705.816 23.1711 705.816 24.2421V57.9999H697.063ZM729.364 58.6178C726.11 58.6178 723.309 57.9587 720.961 56.6406C718.626 55.3087 716.828 53.4275 715.564 50.9971C714.301 48.553 713.669 45.6626 713.669 42.3259C713.669 39.0717 714.301 36.2156 715.564 33.7578C716.828 31.2999 718.606 29.3844 720.899 28.0113C723.206 26.6382 725.911 25.9516 729.014 25.9516C731.101 25.9516 733.044 26.2881 734.843 26.9609C736.655 27.62 738.234 28.6155 739.58 29.9474C740.939 31.2793 741.997 32.9545 742.752 34.9729C743.507 36.9777 743.885 39.3257 743.885 42.017V44.4268H717.171V38.9893H735.625C735.625 37.726 735.351 36.6069 734.801 35.632C734.252 34.6571 733.49 33.8951 732.515 33.3458C731.554 32.7828 730.435 32.5014 729.158 32.5014C727.826 32.5014 726.645 32.8103 725.615 33.4282C724.599 34.0324 723.803 34.8494 723.226 35.8792C722.649 36.8953 722.354 38.0281 722.341 39.2776V44.4474C722.341 46.0127 722.629 47.3652 723.206 48.5049C723.796 49.6446 724.627 50.5234 725.698 51.1413C726.769 51.7592 728.039 52.0681 729.508 52.0681C730.483 52.0681 731.376 51.9308 732.186 51.6562C732.996 51.3816 733.689 50.9696 734.266 50.4204C734.843 49.8712 735.282 49.1983 735.584 48.4019L743.699 48.9374C743.287 50.8872 742.443 52.5899 741.166 54.0454C739.903 55.4872 738.269 56.6131 736.264 57.4232C734.273 58.2196 731.973 58.6178 729.364 58.6178ZM762.628 58.6178C759.374 58.6178 756.573 57.9587 754.225 56.6406C751.89 55.3087 750.092 53.4275 748.828 50.9971C747.565 48.553 746.933 45.6626 746.933 42.3259C746.933 39.0717 747.565 36.2156 748.828 33.7578C750.092 31.2999 751.87 29.3844 754.163 28.0113C756.47 26.6382 759.175 25.9516 762.278 25.9516C764.365 25.9516 766.308 26.2881 768.107 26.9609C769.919 27.62 771.498 28.6155 772.844 29.9474C774.203 31.2793 775.261 32.9545 776.016 34.9729C776.771 36.9777 777.149 39.3257 777.149 42.017V44.4268H750.435V38.9893H768.889C768.889 37.726 768.615 36.6069 768.066 35.632C767.516 34.6571 766.754 33.8951 765.779 33.3458C764.818 32.7828 763.699 32.5014 762.422 32.5014C761.09 32.5014 759.909 32.8103 758.879 33.4282C757.863 34.0324 757.067 34.8494 756.49 35.8792C755.914 36.8953 755.618 38.0281 755.605 39.2776V44.4474C755.605 46.0127 755.893 47.3652 756.47 48.5049C757.06 49.6446 757.891 50.5234 758.962 51.1413C760.033 51.7592 761.303 52.0681 762.772 52.0681C763.747 52.0681 764.64 51.9308 765.45 51.6562C766.26 51.3816 766.953 50.9696 767.53 50.4204C768.107 49.8712 768.546 49.1983 768.848 48.4019L776.963 48.9374C776.551 50.8872 775.707 52.5899 774.43 54.0454C773.167 55.4872 771.533 56.6131 769.528 57.4232C767.537 58.2196 765.237 58.6178 762.628 58.6178ZM806.433 58.6178C803.522 58.6178 801.009 58.0961 798.895 57.0525C796.78 56.0089 795.153 54.5946 794.013 52.8096C792.887 51.0108 792.324 49.0061 792.324 46.7954C792.324 45.1477 792.654 43.6853 793.313 42.4083C793.972 41.1313 794.892 39.9573 796.073 38.8863C797.254 37.8015 798.627 36.7237 800.192 35.6526L808.369 30.2769C809.426 29.6041 810.202 28.897 810.696 28.1555C811.191 27.4003 811.438 26.5833 811.438 25.7045C811.438 24.8669 811.102 24.0911 810.429 23.3771C809.756 22.6631 808.802 22.3129 807.566 22.3266C806.742 22.3266 806.028 22.512 805.424 22.8828C804.82 23.2398 804.346 23.7135 804.003 24.3039C803.673 24.8806 803.508 25.526 803.508 26.24C803.508 27.1188 803.755 28.0113 804.25 28.9176C804.744 29.8238 805.403 30.785 806.227 31.8011C807.051 32.8034 807.95 33.8882 808.925 35.0553L828.924 57.9999H819.78L803.096 39.4218C801.998 38.1723 800.899 36.8678 799.801 35.5085C798.716 34.1354 797.81 32.6799 797.082 31.142C796.354 29.5904 795.99 27.9083 795.99 26.0958C795.99 24.0499 796.464 22.2099 797.412 20.5759C798.373 18.9419 799.718 17.6512 801.449 16.7038C803.179 15.7426 805.197 15.262 807.504 15.262C809.756 15.262 811.699 15.722 813.333 16.642C814.981 17.5482 816.244 18.7566 817.123 20.267C818.015 21.7637 818.461 23.4114 818.461 25.2102C818.461 27.2012 817.967 29.0068 816.978 30.6271C816.004 32.2336 814.63 33.6754 812.859 34.9524L804.25 41.1519C803.083 42.0033 802.218 42.8752 801.655 43.7677C801.105 44.6465 800.831 45.4909 800.831 46.3011C800.831 47.3034 801.078 48.2028 801.572 48.9992C802.066 49.7956 802.767 50.4273 803.673 50.8941C804.579 51.3472 805.643 51.5738 806.865 51.5738C808.348 51.5738 809.811 51.2374 811.253 50.5646C812.708 49.878 814.026 48.91 815.207 47.6605C816.402 46.3972 817.356 44.9005 818.07 43.1704C818.784 41.4403 819.141 39.5248 819.141 37.4239H826.412C826.412 40.0054 826.13 42.3328 825.567 44.4062C825.004 46.4658 824.222 48.2646 823.219 49.8025C822.217 51.3266 821.07 52.5762 819.78 53.5511C819.368 53.812 818.969 54.0591 818.585 54.2926C818.2 54.526 817.802 54.7731 817.39 55.034C815.825 56.2973 814.074 57.2104 812.138 57.7734C810.216 58.3363 808.314 58.6178 806.433 58.6178ZM843.369 57.9999V15.8181H860.011C863.197 15.8181 865.915 16.388 868.167 17.5276C870.433 18.6536 872.156 20.2533 873.337 22.3266C874.532 24.3863 875.129 26.8098 875.129 29.5972C875.129 32.3984 874.525 34.8082 873.316 36.8266C872.108 38.8314 870.357 40.3693 868.064 41.4403C865.785 42.5113 863.025 43.0468 859.784 43.0468H848.642V35.8792H858.343C860.045 35.8792 861.46 35.6458 862.586 35.1789C863.712 34.7121 864.549 34.0118 865.098 33.0781C865.661 32.1444 865.943 30.9841 865.943 29.5972C865.943 28.1967 865.661 27.0158 865.098 26.0546C864.549 25.0935 863.705 24.3657 862.565 23.8714C861.439 23.3633 860.018 23.1093 858.301 23.1093H852.287V57.9999H843.369ZM866.149 38.8039L876.632 57.9999H866.787L856.53 38.8039H866.149ZM893.651 58.6178C890.452 58.6178 887.685 57.9381 885.35 56.5788C883.03 55.2057 881.238 53.2971 879.975 50.8529C878.712 48.3951 878.08 45.5459 878.08 42.3053C878.08 39.0373 878.712 36.1813 879.975 33.7372C881.238 31.2793 883.03 29.3707 885.35 28.0113C887.685 26.6382 890.452 25.9516 893.651 25.9516C896.85 25.9516 899.61 26.6382 901.931 28.0113C904.265 29.3707 906.064 31.2793 907.327 33.7372C908.59 36.1813 909.222 39.0373 909.222 42.3053C909.222 45.5459 908.59 48.3951 907.327 50.8529C906.064 53.2971 904.265 55.2057 901.931 56.5788C899.61 57.9381 896.85 58.6178 893.651 58.6178ZM893.692 51.821C895.148 51.821 896.363 51.409 897.338 50.5852C898.313 49.7476 899.047 48.6079 899.542 47.1661C900.05 45.7244 900.304 44.0835 900.304 42.2435C900.304 40.4036 900.05 38.7627 899.542 37.321C899.047 35.8792 898.313 34.7395 897.338 33.9019C896.363 33.0643 895.148 32.6455 893.692 32.6455C892.223 32.6455 890.987 33.0643 889.985 33.9019C888.996 34.7395 888.248 35.8792 887.74 37.321C887.245 38.7627 886.998 40.4036 886.998 42.2435C886.998 44.0835 887.245 45.7244 887.74 47.1661C888.248 48.6079 888.996 49.7476 889.985 50.5852C890.987 51.409 892.223 51.821 893.692 51.821ZM922.549 58.5972C920.53 58.5972 918.731 58.2471 917.152 57.5468C915.573 56.8328 914.324 55.7824 913.404 54.3955C912.497 52.995 912.044 51.2511 912.044 49.164C912.044 47.4064 912.367 45.9303 913.012 44.7357C913.658 43.5411 914.536 42.58 915.649 41.8522C916.761 41.1245 918.024 40.5752 919.438 40.2045C920.866 39.8337 922.363 39.5729 923.929 39.4218C925.768 39.2296 927.251 39.0511 928.377 38.8863C929.503 38.7078 930.32 38.4469 930.828 38.1036C931.336 37.7604 931.59 37.2523 931.59 36.5795V36.4559C931.59 35.1515 931.179 34.1422 930.355 33.4282C929.545 32.7142 928.391 32.3572 926.894 32.3572C925.315 32.3572 924.059 32.7073 923.125 33.4076C922.192 34.0942 921.574 34.9592 921.272 36.0028L913.156 35.3437C913.568 33.4213 914.379 31.7599 915.587 30.3593C916.795 28.945 918.354 27.8603 920.262 27.1051C922.185 26.3361 924.409 25.9516 926.936 25.9516C928.693 25.9516 930.375 26.1576 931.982 26.5695C933.602 26.9815 935.037 27.62 936.286 28.485C937.55 29.3501 938.545 30.4623 939.273 31.8217C940.001 33.1673 940.365 34.7807 940.365 36.6619V57.9999H932.044V53.6129H931.796C931.288 54.6015 930.609 55.4734 929.757 56.2286C928.906 56.9701 927.883 57.5537 926.688 57.9793C925.494 58.3913 924.114 58.5972 922.549 58.5972ZM925.061 52.5418C926.352 52.5418 927.492 52.2878 928.48 51.7798C929.469 51.258 930.245 50.5577 930.808 49.6789C931.371 48.8001 931.652 47.8046 931.652 46.6924V43.3352C931.378 43.5137 931 43.6784 930.519 43.8295C930.053 43.9668 929.524 44.0972 928.933 44.2208C928.343 44.3307 927.753 44.4337 927.162 44.5298C926.572 44.6122 926.036 44.6877 925.556 44.7563C924.526 44.9074 923.626 45.1477 922.857 45.4772C922.089 45.8068 921.491 46.253 921.066 46.816C920.64 47.3652 920.427 48.0518 920.427 48.8756C920.427 50.0703 920.86 50.9834 921.725 51.615C922.603 52.2329 923.716 52.5418 925.061 52.5418ZM972.094 35.3849L964.062 35.8792C963.924 35.1926 963.629 34.5747 963.176 34.0255C962.723 33.4625 962.125 33.0163 961.384 32.6867C960.656 32.3435 959.784 32.1718 958.768 32.1718C957.409 32.1718 956.262 32.4602 955.329 33.0369C954.395 33.5998 953.928 34.3551 953.928 35.3025C953.928 36.0577 954.23 36.6962 954.834 37.218C955.438 37.7398 956.475 38.1586 957.944 38.4744L963.67 39.6278C966.746 40.2594 969.039 41.2755 970.549 42.6761C972.06 44.0766 972.815 45.9166 972.815 48.196C972.815 50.2694 972.204 52.0887 970.982 53.6541C969.774 55.2194 968.112 56.4415 965.998 57.3203C963.897 58.1853 961.473 58.6178 958.727 58.6178C954.539 58.6178 951.202 57.7459 948.717 56.0021C946.245 54.2445 944.797 51.8553 944.371 48.8345L953.001 48.3813C953.262 49.6583 953.894 50.6332 954.896 51.306C955.898 51.9651 957.182 52.2947 958.748 52.2947C960.285 52.2947 961.521 51.9995 962.455 51.409C963.402 50.8049 963.883 50.0291 963.897 49.0816C963.883 48.2852 963.547 47.633 962.888 47.1249C962.228 46.6032 961.212 46.205 959.839 45.9303L954.361 44.8387C951.271 44.2208 948.971 43.1498 947.461 41.6256C945.964 40.1015 945.216 38.1586 945.216 35.7968C945.216 33.7646 945.765 32.0139 946.863 30.5447C947.976 29.0755 949.534 27.9426 951.539 27.1462C953.557 26.3498 955.919 25.9516 958.624 25.9516C962.62 25.9516 965.764 26.7961 968.057 28.485C970.364 30.1739 971.71 32.4739 972.094 35.3849ZM993.767 26.3636V32.9545H974.716V26.3636H993.767ZM979.041 18.784H987.815V48.2783C987.815 49.0885 987.939 49.7201 988.186 50.1732C988.433 50.6126 988.776 50.9216 989.216 51.1001C989.669 51.2786 990.191 51.3678 990.781 51.3678C991.193 51.3678 991.605 51.3335 992.017 51.2649C992.429 51.1825 992.745 51.1207 992.964 51.0795L994.344 57.6086C993.905 57.7459 993.287 57.9038 992.491 58.0823C991.694 58.2746 990.726 58.3913 989.586 58.4325C987.472 58.5149 985.618 58.2334 984.025 57.588C982.446 56.9426 981.217 55.9403 980.339 54.5809C979.46 53.2215 979.027 51.5051 979.041 49.4318V18.784ZM1012.16 58.6178C1008.91 58.6178 1006.11 57.9587 1003.76 56.6406C1001.42 55.3087 999.624 53.4275 998.361 50.9971C997.098 48.553 996.466 45.6626 996.466 42.3259C996.466 39.0717 997.098 36.2156 998.361 33.7578C999.624 31.2999 1001.4 29.3844 1003.7 28.0113C1006 26.6382 1008.71 25.9516 1011.81 25.9516C1013.9 25.9516 1015.84 26.2881 1017.64 26.9609C1019.45 27.62 1021.03 28.6155 1022.38 29.9474C1023.74 31.2793 1024.79 32.9545 1025.55 34.9729C1026.3 36.9777 1026.68 39.3257 1026.68 42.017V44.4268H999.968V38.9893H1018.42C1018.42 37.726 1018.15 36.6069 1017.6 35.632C1017.05 34.6571 1016.29 33.8951 1015.31 33.3458C1014.35 32.7828 1013.23 32.5014 1011.95 32.5014C1010.62 32.5014 1009.44 32.8103 1008.41 33.4282C1007.4 34.0324 1006.6 34.8494 1006.02 35.8792C1005.45 36.8953 1005.15 38.0281 1005.14 39.2776V44.4474C1005.14 46.0127 1005.43 47.3652 1006 48.5049C1006.59 49.6446 1007.42 50.5234 1008.49 51.1413C1009.57 51.7592 1010.84 52.0681 1012.31 52.0681C1013.28 52.0681 1014.17 51.9308 1014.98 51.6562C1015.79 51.3816 1016.49 50.9696 1017.06 50.4204C1017.64 49.8712 1018.08 49.1983 1018.38 48.4019L1026.5 48.9374C1026.08 50.8872 1025.24 52.5899 1023.96 54.0454C1022.7 55.4872 1021.07 56.6131 1019.06 57.4232C1017.07 58.2196 1014.77 58.6178 1012.16 58.6178ZM1031.01 57.9999V26.3636H1039.51V31.8835H1039.84C1040.42 29.9199 1041.39 28.437 1042.75 27.4346C1044.11 26.4185 1045.67 25.9104 1047.44 25.9104C1047.88 25.9104 1048.36 25.9379 1048.86 25.9928C1049.37 26.0478 1049.82 26.1233 1050.2 26.2194V34.0049C1049.79 33.8813 1049.22 33.7715 1048.49 33.6754C1047.77 33.5792 1047.1 33.5312 1046.5 33.5312C1045.21 33.5312 1044.05 33.8127 1043.04 34.3756C1042.03 34.9249 1041.24 35.6938 1040.65 36.6825C1040.07 37.6711 1039.78 38.8108 1039.78 40.1015V57.9999H1031.01ZM1059.72 69.8636C1058.61 69.8636 1057.56 69.7743 1056.59 69.5958C1055.63 69.431 1054.83 69.2182 1054.2 68.9573L1056.18 62.4076C1057.21 62.7234 1058.13 62.8951 1058.96 62.9225C1059.8 62.95 1060.52 62.7578 1061.12 62.3458C1061.74 61.9339 1062.24 61.2336 1062.62 60.245L1063.14 58.9062L1051.79 26.3636H1061.02L1067.57 49.5965H1067.9L1074.51 26.3636H1083.8L1071.5 61.419C1070.91 63.1216 1070.11 64.6046 1069.09 65.8678C1068.09 67.1448 1066.82 68.1266 1065.28 68.8131C1063.74 69.5134 1061.89 69.8636 1059.72 69.8636ZM1094.43 45.3536V44.6533C1094.44 42.2504 1094.65 40.3349 1095.06 38.9069C1095.49 37.4789 1096.11 36.3255 1096.92 35.4467C1097.73 34.5679 1098.7 33.7715 1099.84 33.0575C1100.69 32.5082 1101.46 31.9384 1102.13 31.3479C1102.8 30.7575 1103.34 30.1053 1103.73 29.3913C1104.13 28.6635 1104.33 27.8534 1104.33 26.9609C1104.33 26.0134 1104.11 25.1827 1103.65 24.4687C1103.2 23.7547 1102.59 23.2054 1101.82 22.821C1101.06 22.4365 1100.23 22.2443 1099.31 22.2443C1098.41 22.2443 1097.57 22.4434 1096.77 22.8416C1095.98 23.226 1095.32 23.8027 1094.82 24.5717C1094.31 25.3269 1094.03 26.2675 1093.99 27.3934H1085.59C1085.66 24.6472 1086.32 22.3816 1087.57 20.5965C1088.82 18.7978 1090.47 17.459 1092.53 16.5802C1094.59 15.6877 1096.86 15.2414 1099.35 15.2414C1102.08 15.2414 1104.5 15.6945 1106.6 16.6008C1108.7 17.4933 1110.35 18.7909 1111.54 20.4935C1112.74 22.1962 1113.33 24.249 1113.33 26.6519C1113.33 28.2585 1113.07 29.6865 1112.53 30.936C1112.01 32.1718 1111.27 33.2703 1110.33 34.2315C1109.38 35.1789 1108.26 36.0371 1106.97 36.806C1105.88 37.4514 1104.99 38.1242 1104.29 38.8245C1103.6 39.5248 1103.09 40.3349 1102.75 41.2549C1102.42 42.1749 1102.25 43.3077 1102.23 44.6533V45.3536H1094.43ZM1098.5 58.5355C1097.13 58.5355 1095.96 58.0549 1094.98 57.0937C1094.02 56.1188 1093.55 54.9516 1093.56 53.5923C1093.55 52.2466 1094.02 51.0932 1094.98 50.132C1095.96 49.1709 1097.13 48.6903 1098.5 48.6903C1099.81 48.6903 1100.95 49.1709 1101.94 50.132C1102.93 51.0932 1103.43 52.2466 1103.45 53.5923C1103.43 54.4985 1103.19 55.3292 1102.73 56.0845C1102.27 56.8259 1101.68 57.4232 1100.93 57.8764C1100.19 58.3158 1099.38 58.5355 1098.5 58.5355Z" fill="#206A5D"/>
<path d="M1257.69 314.4H1270.2C1278.81 314.4 1285.79 307.419 1285.79 298.807V259.282C1285.79 250.67 1278.81 243.689 1270.2 243.689H1261.59V187.836C1261.59 179.224 1254.61 172.243 1245.99 172.243H1102.69C1094.08 172.243 1087.09 179.224 1087.09 187.836V301.026C1087.09 308.413 1093.08 314.4 1100.47 314.4H1107.61" stroke="black" stroke-linecap="round" stroke-linejoin="round"/>
<path d="M1261.59 200.832H1087.11" stroke="black" stroke-linecap="round" stroke-linejoin="round"/>
<path d="M1261.59 243.686H1087.11" stroke="black" stroke-linecap="round" stroke-linejoin="round"/>
<path d="M1146.03 200.832V243.628" stroke="black" stroke-linecap="round" stroke-linejoin="round"/>
<path d="M1201.65 200.832V243.628" stroke="black" stroke-linecap="round" stroke-linejoin="round"/>
<path d="M1129.28 335.953C1141.3 335.953 1151.05 326.207 1151.05 314.185C1151.05 302.163 1141.3 292.417 1129.28 292.417C1117.26 292.417 1107.51 302.163 1107.51 314.185C1107.51 326.207 1117.26 335.953 1129.28 335.953Z" stroke="black" stroke-linecap="round" stroke-linejoin="round"/>
<path d="M1235.94 335.953C1247.96 335.953 1257.7 326.207 1257.7 314.185C1257.7 302.163 1247.96 292.417 1235.94 292.417C1223.91 292.417 1214.17 302.163 1214.17 314.185C1214.17 326.207 1223.91 335.953 1235.94 335.953Z" stroke="black" stroke-linecap="round" stroke-linejoin="round"/>
<path d="M1151.05 314.184H1182.53H1214.17" stroke="black" stroke-linecap="round" stroke-linejoin="round"/>
<path d="M584.841 203.005L614.17 218.789L640.35 214.256C649.187 212.726 658.244 215.256 665.009 221.144" stroke="black" stroke-linecap="round" stroke-linejoin="round"/>
<path d="M728.307 285.839L686.84 315.288C677.724 321.763 665.543 321.879 656.305 315.581L584.841 266.865" stroke="black" stroke-linecap="round" stroke-linejoin="round"/>
<path d="M756.643 266.553L727.302 286.602L681.777 249.843L665.032 262.031C658.223 266.986 648.711 265.651 643.529 259.012C638.359 252.389 639.357 242.862 645.786 237.453L663.222 222.782C671.579 215.751 682.443 212.433 693.302 213.595L720.477 216.502L756.643 196.954" stroke="black" stroke-linecap="round" stroke-linejoin="round"/>
<path d="M681.783 249.941C692.737 259.7 708.272 254.721 714.049 246.754" stroke="black" stroke-linecap="round" stroke-linejoin="round"/>
<path d="M103.967 174.383C119.439 179.27 130.859 192.01 136.787 208.724C142.716 225.439 143.137 246.1 136.618 266.738C130.1 287.376 117.887 304.046 103.433 314.324C88.9799 324.6 72.3141 328.469 56.8416 323.582C41.3692 318.695 29.9492 305.955 24.0211 289.241C18.093 272.526 17.6715 251.865 24.1901 231.227C30.7086 210.589 42.9215 193.919 57.3752 183.641C71.8287 173.365 88.4945 169.496 103.967 174.383Z" fill="white" stroke="black"/>
<path d="M112.754 178.244C84.8741 177.948 56.5238 202.088 45.2195 237.875C33.9152 273.662 43.2541 309.707 66.2445 325.48C63.0794 325.186 59.9342 324.562 56.8356 323.584C41.364 318.696 29.9449 305.957 24.0174 289.243C18.0899 272.529 17.6689 251.869 24.1875 231.232C30.7062 210.595 42.919 193.925 57.3724 183.649C71.8255 173.372 88.4909 169.504 103.963 174.391L104.113 173.915L103.963 174.391C107.061 175.37 109.994 176.666 112.754 178.244Z" fill="white" stroke="black"/>
<path d="M69.5831 250.186L69.5868 250.183L96.9836 185.248L97.3854 184.951C97.3851 184.95 97.3849 184.95 97.3847 184.95C95.6552 182.614 96.1465 179.318 98.4825 177.587C100.818 175.857 104.115 176.347 105.846 178.684C106.246 179.224 116.147 192.859 112.641 212.098L113.133 212.188L112.641 212.098C109.523 229.214 97.0391 244.993 75.3863 258.969L75.3863 258.969L75.377 258.975C74.6365 259.477 67.184 264.688 62.1293 274.264C57.0596 283.868 54.4249 297.825 63.295 315.724C64.5858 318.329 63.5208 321.487 60.9157 322.778L60.915 322.778C60.1652 323.151 59.3689 323.327 58.5841 323.327C56.6445 323.327 54.7811 322.252 53.8629 320.399C42.3773 297.222 47.2557 279.346 53.3471 268.433L52.9105 268.189L53.3471 268.433C59.9058 256.682 69.2154 250.43 69.5831 250.186Z" fill="white" stroke="black"/>
<path d="M88.2934 302.449C88.2934 306.948 84.6462 310.595 80.1472 310.595C75.6481 310.595 72.001 306.948 72.001 302.449C72.001 297.95 75.6481 294.303 80.1472 294.303C84.6462 294.303 88.2934 297.95 88.2934 302.449Z" fill="white" stroke="black"/>
<path d="M205.045 226.094C223.655 237.14 237.106 252.827 243.821 269.24C250.536 285.653 250.508 302.76 242.227 316.713C233.946 330.665 218.941 338.883 201.317 340.849C183.693 342.815 163.48 338.521 144.87 327.475C126.26 316.429 112.809 300.742 106.094 284.329C99.3788 267.916 99.4068 250.808 107.688 236.856C115.97 222.904 130.974 214.686 148.598 212.719C166.222 210.753 186.435 215.048 205.045 226.094Z" fill="white" stroke="black"/>
<path d="M113.443 229.164C106.808 256.244 123.859 289.345 156.133 308.5C188.407 327.656 225.631 326.768 246.224 307.973C245.217 310.988 243.894 313.908 242.235 316.702C233.954 330.655 218.949 338.874 201.325 340.841C183.7 342.808 163.486 338.514 144.876 327.468C126.265 316.422 112.813 300.735 106.097 284.321C99.3816 267.908 99.409 250.8 107.69 236.847C109.349 234.053 111.279 231.492 113.443 229.164Z" fill="white" stroke="black"/>
<path d="M238.458 318.872C232.738 320.213 227.476 320.795 222.657 320.795C206.248 320.795 194.889 314.055 187.739 307.543C177.79 298.482 173.821 287.993 173.667 287.579L173.665 287.574L238.573 319.359M238.458 318.872L238.573 319.359M238.458 318.872C238.458 318.872 238.458 318.872 238.458 318.872L238.573 319.359M238.458 318.872C241.289 318.208 243.045 315.374 242.381 312.544C241.717 309.714 238.887 307.957 236.053 308.622M238.573 319.359C241.672 318.631 243.595 315.529 242.867 312.43C242.141 309.331 239.042 307.407 235.939 308.135M236.053 308.622L235.939 308.135M236.053 308.622C216.606 313.184 203.616 307.441 195.418 300.318C187.244 293.216 183.866 284.773 183.546 283.937L183.542 283.927L183.542 283.927C174.862 259.661 162.339 243.913 146.383 236.98L146.582 236.523L146.383 236.98C128.45 229.187 112.921 235.721 112.298 235.989M236.053 308.622C236.053 308.622 236.053 308.622 236.053 308.622L235.939 308.135M235.939 308.135L112.298 235.989M112.298 235.989C112.298 235.989 112.298 235.989 112.299 235.989L112.1 235.53M112.298 235.989L184.013 283.758C175.308 259.424 162.715 243.531 146.582 236.521C128.455 228.644 112.761 235.246 112.1 235.53M112.298 235.989C112.298 235.99 112.298 235.99 112.298 235.99L112.1 235.53M112.298 235.989C109.628 237.144 108.387 240.249 109.539 242.917C110.692 245.587 113.777 246.82 116.443 245.668L116.449 245.665L116.449 245.665C116.98 245.444 128.715 240.684 142.391 246.725L142.392 246.725C155.584 252.554 166.075 266.333 173.645 287.518L142.189 247.183C128.701 241.224 117.128 245.924 116.641 246.127C113.72 247.389 110.342 246.037 109.08 243.115C107.817 240.192 109.178 236.793 112.1 235.53" fill="white" stroke="black"/>
<path d="M221.485 259.881C221.485 264.38 217.838 268.027 213.339 268.027C208.84 268.027 205.193 264.38 205.193 259.881C205.193 255.382 208.84 251.735 213.339 251.735C217.838 251.735 221.485 255.382 221.485 259.881Z" fill="white" stroke="black"/>
<path d="M236.755 285.596C236.755 290.095 233.108 293.743 228.609 293.743C224.11 293.743 220.463 290.095 220.463 285.596C220.463 281.097 224.11 277.45 228.609 277.45C233.108 277.45 236.755 281.097 236.755 285.596Z" fill="white" stroke="black"/>
<path d="M58.9651 449V419.909H78.2265V424.98H65.1157V431.912H76.9481V436.983H65.1157V449H58.9651ZM80.4984 449V427.182H86.3648V430.989H86.5921C86.9898 429.634 87.6575 428.612 88.595 427.92C89.5325 427.22 90.612 426.869 91.8336 426.869C92.1366 426.869 92.4633 426.888 92.8137 426.926C93.1641 426.964 93.4719 427.016 93.737 427.082V432.452C93.4529 432.366 93.0599 432.291 92.558 432.224C92.0561 432.158 91.5969 432.125 91.1802 432.125C90.29 432.125 89.4946 432.319 88.7938 432.707C88.1025 433.086 87.5533 433.616 87.1461 434.298C86.7484 434.98 86.5495 435.766 86.5495 436.656V449H80.4984ZM104.393 449.426C102.149 449.426 100.217 448.972 98.5977 448.062C96.9878 447.144 95.7473 445.847 94.8761 444.17C94.0049 442.485 93.5692 440.491 93.5692 438.19C93.5692 435.946 94.0049 433.976 94.8761 432.281C95.7473 430.586 96.9736 429.265 98.555 428.318C100.146 427.371 102.011 426.898 104.152 426.898C105.591 426.898 106.931 427.13 108.172 427.594C109.422 428.048 110.511 428.735 111.439 429.653C112.376 430.572 113.105 431.727 113.626 433.119C114.147 434.502 114.407 436.121 114.407 437.977V439.639H95.984V435.889H108.711C108.711 435.018 108.522 434.246 108.143 433.574C107.764 432.902 107.239 432.376 106.566 431.997C105.904 431.609 105.132 431.415 104.251 431.415C103.333 431.415 102.518 431.628 101.808 432.054C101.107 432.471 100.558 433.034 100.16 433.744C99.7624 434.445 99.5588 435.226 99.5494 436.088V439.653C99.5494 440.733 99.7482 441.666 100.146 442.452C100.553 443.238 101.126 443.844 101.865 444.27C102.603 444.696 103.479 444.909 104.493 444.909C105.165 444.909 105.78 444.814 106.339 444.625C106.898 444.436 107.376 444.152 107.774 443.773C108.172 443.394 108.475 442.93 108.683 442.381L114.279 442.75C113.995 444.095 113.413 445.269 112.532 446.273C111.661 447.267 110.534 448.044 109.152 448.602C107.779 449.152 106.192 449.426 104.393 449.426ZM135.11 433.403L129.57 433.744C129.475 433.271 129.272 432.845 128.959 432.466C128.647 432.078 128.235 431.77 127.723 431.543C127.221 431.306 126.62 431.188 125.919 431.188C124.982 431.188 124.191 431.386 123.547 431.784C122.903 432.172 122.581 432.693 122.581 433.347C122.581 433.867 122.79 434.308 123.206 434.668C123.623 435.027 124.338 435.316 125.351 435.534L129.3 436.33C131.421 436.765 133.003 437.466 134.044 438.432C135.086 439.398 135.607 440.667 135.607 442.239C135.607 443.669 135.185 444.923 134.343 446.003C133.509 447.082 132.363 447.925 130.905 448.531C129.456 449.128 127.785 449.426 125.891 449.426C123.003 449.426 120.701 448.825 118.987 447.622C117.283 446.41 116.284 444.762 115.99 442.679L121.942 442.366C122.122 443.247 122.558 443.92 123.249 444.384C123.94 444.838 124.825 445.065 125.905 445.065C126.966 445.065 127.818 444.862 128.462 444.455C129.115 444.038 129.447 443.503 129.456 442.849C129.447 442.3 129.215 441.85 128.76 441.5C128.306 441.14 127.605 440.866 126.658 440.676L122.879 439.923C120.749 439.497 119.163 438.759 118.121 437.707C117.089 436.656 116.573 435.316 116.573 433.688C116.573 432.286 116.951 431.079 117.709 430.065C118.476 429.052 119.551 428.271 120.933 427.722C122.325 427.172 123.954 426.898 125.82 426.898C128.575 426.898 130.744 427.48 132.325 428.645C133.916 429.81 134.844 431.396 135.11 433.403ZM144.068 436.386V449H138.017V419.909H143.898V431.031H144.153C144.646 429.743 145.441 428.735 146.54 428.006C147.638 427.267 149.016 426.898 150.673 426.898C152.189 426.898 153.51 427.229 154.636 427.892C155.773 428.545 156.653 429.488 157.278 430.719C157.913 431.94 158.225 433.403 158.216 435.108V449H152.165V436.188C152.174 434.843 151.833 433.796 151.142 433.048C150.46 432.3 149.504 431.926 148.273 431.926C147.449 431.926 146.72 432.101 146.085 432.452C145.46 432.802 144.968 433.313 144.608 433.986C144.258 434.649 144.078 435.449 144.068 436.386Z" fill="#206A5D"/>
<path d="M1062.74 449V419.909H1082V424.98H1068.89V431.912H1080.72V436.983H1068.89V449H1062.74ZM1090.57 449.412C1089.18 449.412 1087.94 449.17 1086.85 448.688C1085.76 448.195 1084.9 447.471 1084.26 446.514C1083.64 445.548 1083.33 444.346 1083.33 442.906C1083.33 441.694 1083.55 440.676 1083.99 439.852C1084.44 439.028 1085.04 438.366 1085.81 437.864C1086.58 437.362 1087.45 436.983 1088.43 436.727C1089.41 436.472 1090.44 436.292 1091.52 436.188C1092.79 436.055 1093.81 435.932 1094.59 435.818C1095.37 435.695 1095.93 435.515 1096.28 435.278C1096.63 435.042 1096.81 434.691 1096.81 434.227V434.142C1096.81 433.242 1096.52 432.546 1095.95 432.054C1095.39 431.562 1094.6 431.315 1093.57 431.315C1092.48 431.315 1091.61 431.557 1090.97 432.04C1090.32 432.513 1089.9 433.11 1089.69 433.83L1084.09 433.375C1084.38 432.049 1084.94 430.903 1085.77 429.938C1086.6 428.962 1087.68 428.214 1088.99 427.693C1090.32 427.163 1091.85 426.898 1093.6 426.898C1094.81 426.898 1095.97 427.04 1097.08 427.324C1098.19 427.608 1099.18 428.048 1100.04 428.645C1100.92 429.241 1101.6 430.009 1102.1 430.946C1102.61 431.874 1102.86 432.987 1102.86 434.284V449H1097.12V445.974H1096.95C1096.6 446.656 1096.13 447.258 1095.54 447.778C1094.95 448.29 1094.25 448.692 1093.43 448.986C1092.6 449.27 1091.65 449.412 1090.57 449.412ZM1092.3 445.236C1093.19 445.236 1093.98 445.061 1094.66 444.71C1095.34 444.35 1095.88 443.867 1096.27 443.261C1096.65 442.655 1096.85 441.969 1096.85 441.202V438.886C1096.66 439.009 1096.4 439.123 1096.07 439.227C1095.75 439.322 1095.38 439.412 1094.97 439.497C1094.57 439.573 1094.16 439.644 1093.75 439.71C1093.34 439.767 1092.98 439.819 1092.64 439.866C1091.93 439.971 1091.31 440.136 1090.78 440.364C1090.25 440.591 1089.84 440.899 1089.55 441.287C1089.25 441.666 1089.11 442.139 1089.11 442.707C1089.11 443.531 1089.41 444.161 1090 444.597C1090.61 445.023 1091.37 445.236 1092.3 445.236ZM1124.3 433.403L1118.77 433.744C1118.67 433.271 1118.47 432.845 1118.15 432.466C1117.84 432.078 1117.43 431.77 1116.92 431.543C1116.42 431.306 1115.82 431.188 1115.11 431.188C1114.18 431.188 1113.39 431.386 1112.74 431.784C1112.1 432.172 1111.78 432.693 1111.78 433.347C1111.78 433.867 1111.98 434.308 1112.4 434.668C1112.82 435.027 1113.53 435.316 1114.55 435.534L1118.5 436.33C1120.62 436.765 1122.2 437.466 1123.24 438.432C1124.28 439.398 1124.8 440.667 1124.8 442.239C1124.8 443.669 1124.38 444.923 1123.54 446.003C1122.7 447.082 1121.56 447.925 1120.1 448.531C1118.65 449.128 1116.98 449.426 1115.09 449.426C1112.2 449.426 1109.9 448.825 1108.18 447.622C1106.48 446.41 1105.48 444.762 1105.19 442.679L1111.14 442.366C1111.32 443.247 1111.75 443.92 1112.44 444.384C1113.14 444.838 1114.02 445.065 1115.1 445.065C1116.16 445.065 1117.01 444.862 1117.66 444.455C1118.31 444.038 1118.64 443.503 1118.65 442.849C1118.64 442.3 1118.41 441.85 1117.96 441.5C1117.5 441.14 1116.8 440.866 1115.85 440.676L1112.07 439.923C1109.94 439.497 1108.36 438.759 1107.32 437.707C1106.28 436.656 1105.77 435.316 1105.77 433.688C1105.77 432.286 1106.15 431.079 1106.9 430.065C1107.67 429.052 1108.75 428.271 1110.13 427.722C1111.52 427.172 1113.15 426.898 1115.02 426.898C1117.77 426.898 1119.94 427.48 1121.52 428.645C1123.11 429.81 1124.04 431.396 1124.3 433.403ZM1138.82 427.182V431.727H1125.68V427.182H1138.82ZM1128.66 421.955H1134.71V442.295C1134.71 442.854 1134.8 443.29 1134.97 443.602C1135.14 443.905 1135.38 444.118 1135.68 444.241C1135.99 444.365 1136.35 444.426 1136.76 444.426C1137.04 444.426 1137.33 444.402 1137.61 444.355C1137.89 444.298 1138.11 444.256 1138.26 444.227L1139.22 448.73C1138.91 448.825 1138.49 448.934 1137.94 449.057C1137.39 449.189 1136.72 449.27 1135.93 449.298C1134.48 449.355 1133.2 449.161 1132.1 448.716C1131.01 448.271 1130.16 447.58 1129.56 446.642C1128.95 445.705 1128.65 444.521 1128.66 443.091V421.955ZM1165.11 428.276C1165 427.13 1164.51 426.24 1163.65 425.605C1162.79 424.971 1161.62 424.653 1160.14 424.653C1159.14 424.653 1158.29 424.795 1157.6 425.08C1156.91 425.354 1156.38 425.738 1156.01 426.23C1155.65 426.723 1155.47 427.281 1155.47 427.906C1155.45 428.427 1155.56 428.882 1155.79 429.27C1156.04 429.658 1156.38 429.994 1156.8 430.278C1157.23 430.553 1157.72 430.795 1158.28 431.003C1158.84 431.202 1159.43 431.372 1160.07 431.514L1162.68 432.139C1163.95 432.423 1165.12 432.802 1166.18 433.276C1167.24 433.749 1168.16 434.331 1168.93 435.023C1169.71 435.714 1170.31 436.528 1170.74 437.466C1171.17 438.403 1171.4 439.478 1171.4 440.69C1171.4 442.471 1170.94 444.014 1170.04 445.321C1169.15 446.618 1167.86 447.627 1166.18 448.347C1164.5 449.057 1162.48 449.412 1160.11 449.412C1157.76 449.412 1155.72 449.052 1153.98 448.332C1152.24 447.613 1150.89 446.547 1149.91 445.136C1148.95 443.716 1148.44 441.959 1148.39 439.866H1154.34C1154.41 440.842 1154.69 441.656 1155.18 442.31C1155.68 442.954 1156.35 443.441 1157.19 443.773C1158.03 444.095 1158.98 444.256 1160.04 444.256C1161.08 444.256 1161.99 444.104 1162.75 443.801C1163.53 443.498 1164.13 443.077 1164.56 442.537C1164.98 441.997 1165.2 441.377 1165.2 440.676C1165.2 440.023 1165 439.473 1164.61 439.028C1164.24 438.583 1163.68 438.205 1162.94 437.892C1162.21 437.58 1161.31 437.295 1160.25 437.04L1157.09 436.244C1154.63 435.648 1152.7 434.715 1151.28 433.446C1149.86 432.177 1149.15 430.468 1149.16 428.318C1149.15 426.557 1149.62 425.018 1150.57 423.702C1151.52 422.385 1152.83 421.358 1154.5 420.619C1156.17 419.881 1158.06 419.511 1160.18 419.511C1162.34 419.511 1164.23 419.881 1165.84 420.619C1167.46 421.358 1168.72 422.385 1169.61 423.702C1170.51 425.018 1170.98 426.543 1171.01 428.276H1165.11ZM1180.08 436.386V449H1174.03V419.909H1179.91V431.031H1180.16C1180.66 429.743 1181.45 428.735 1182.55 428.006C1183.65 427.267 1185.03 426.898 1186.68 426.898C1188.2 426.898 1189.52 427.229 1190.65 427.892C1191.78 428.545 1192.66 429.488 1193.29 430.719C1193.92 431.94 1194.24 433.403 1194.23 435.108V449H1188.18V436.188C1188.19 434.843 1187.84 433.796 1187.15 433.048C1186.47 432.3 1185.51 431.926 1184.28 431.926C1183.46 431.926 1182.73 432.101 1182.1 432.452C1181.47 432.802 1180.98 433.313 1180.62 433.986C1180.27 434.649 1180.09 435.449 1180.08 436.386ZM1197.59 449V427.182H1203.64V449H1197.59ZM1200.63 424.369C1199.73 424.369 1198.96 424.071 1198.31 423.474C1197.68 422.868 1197.36 422.144 1197.36 421.301C1197.36 420.468 1197.68 419.753 1198.31 419.156C1198.96 418.55 1199.73 418.247 1200.63 418.247C1201.53 418.247 1202.3 418.55 1202.93 419.156C1203.57 419.753 1203.9 420.468 1203.9 421.301C1203.9 422.144 1203.57 422.868 1202.93 423.474C1202.3 424.071 1201.53 424.369 1200.63 424.369ZM1207.09 457.182V427.182H1213.05V430.847H1213.32C1213.59 430.259 1213.97 429.663 1214.47 429.057C1214.99 428.441 1215.65 427.93 1216.46 427.523C1217.29 427.106 1218.31 426.898 1219.53 426.898C1221.12 426.898 1222.59 427.314 1223.93 428.148C1225.28 428.972 1226.35 430.217 1227.16 431.884C1227.96 433.541 1228.37 435.619 1228.37 438.119C1228.37 440.553 1227.97 442.608 1227.19 444.284C1226.41 445.951 1225.35 447.215 1224.01 448.077C1222.67 448.929 1221.17 449.355 1219.52 449.355C1218.34 449.355 1217.34 449.161 1216.52 448.773C1215.7 448.384 1215.04 447.897 1214.52 447.31C1214 446.713 1213.6 446.112 1213.32 445.506H1213.14V457.182H1207.09ZM1213.01 438.091C1213.01 439.388 1213.19 440.52 1213.55 441.486C1213.91 442.452 1214.43 443.205 1215.11 443.744C1215.79 444.275 1216.62 444.54 1217.6 444.54C1218.58 444.54 1219.42 444.27 1220.1 443.73C1220.78 443.181 1221.3 442.423 1221.65 441.457C1222.01 440.482 1222.19 439.36 1222.19 438.091C1222.19 436.831 1222.01 435.723 1221.66 434.767C1221.31 433.811 1220.79 433.062 1220.11 432.523C1219.43 431.983 1218.59 431.713 1217.6 431.713C1216.61 431.713 1215.78 431.973 1215.1 432.494C1214.43 433.015 1213.91 433.754 1213.55 434.71C1213.19 435.667 1213.01 436.794 1213.01 438.091ZM1231 457.182V427.182H1236.97V430.847H1237.24C1237.5 430.259 1237.88 429.663 1238.39 429.057C1238.9 428.441 1239.56 427.93 1240.37 427.523C1241.2 427.106 1242.22 426.898 1243.44 426.898C1245.03 426.898 1246.5 427.314 1247.85 428.148C1249.19 428.972 1250.27 430.217 1251.07 431.884C1251.88 433.541 1252.28 435.619 1252.28 438.119C1252.28 440.553 1251.89 442.608 1251.1 444.284C1250.32 445.951 1249.26 447.215 1247.92 448.077C1246.58 448.929 1245.09 449.355 1243.43 449.355C1242.25 449.355 1241.26 449.161 1240.43 448.773C1239.62 448.384 1238.95 447.897 1238.43 447.31C1237.91 446.713 1237.51 446.112 1237.24 445.506H1237.05V457.182H1231ZM1236.92 438.091C1236.92 439.388 1237.1 440.52 1237.46 441.486C1237.82 442.452 1238.34 443.205 1239.03 443.744C1239.71 444.275 1240.54 444.54 1241.51 444.54C1242.5 444.54 1243.33 444.27 1244.01 443.73C1244.69 443.181 1245.21 442.423 1245.56 441.457C1245.92 440.482 1246.1 439.36 1246.1 438.091C1246.1 436.831 1245.92 435.723 1245.57 434.767C1245.22 433.811 1244.71 433.062 1244.03 432.523C1243.34 431.983 1242.51 431.713 1241.51 431.713C1240.53 431.713 1239.69 431.973 1239.01 432.494C1238.34 433.015 1237.82 433.754 1237.46 434.71C1237.1 435.667 1236.92 436.794 1236.92 438.091ZM1254.91 449V427.182H1260.96V449H1254.91ZM1257.95 424.369C1257.05 424.369 1256.28 424.071 1255.64 423.474C1255 422.868 1254.69 422.144 1254.69 421.301C1254.69 420.468 1255 419.753 1255.64 419.156C1256.28 418.55 1257.05 418.247 1257.95 418.247C1258.85 418.247 1259.62 418.55 1260.25 419.156C1260.9 419.753 1261.22 420.468 1261.22 421.301C1261.22 422.144 1260.9 422.868 1260.25 423.474C1259.62 424.071 1258.85 424.369 1257.95 424.369ZM1270.46 436.386V449H1264.41V427.182H1270.18V431.031H1270.43C1270.92 429.762 1271.73 428.759 1272.86 428.02C1274 427.272 1275.38 426.898 1277 426.898C1278.51 426.898 1279.83 427.229 1280.96 427.892C1282.09 428.555 1282.96 429.502 1283.59 430.733C1284.21 431.955 1284.52 433.413 1284.52 435.108V449H1278.47V436.188C1278.48 434.852 1278.14 433.811 1277.45 433.062C1276.76 432.305 1275.81 431.926 1274.6 431.926C1273.78 431.926 1273.06 432.101 1272.44 432.452C1271.82 432.802 1271.34 433.313 1270.99 433.986C1270.65 434.649 1270.47 435.449 1270.46 436.386ZM1297.72 457.636C1295.76 457.636 1294.08 457.366 1292.68 456.827C1291.29 456.296 1290.18 455.572 1289.36 454.653C1288.53 453.735 1288 452.703 1287.75 451.557L1293.35 450.804C1293.52 451.24 1293.79 451.647 1294.16 452.026C1294.53 452.404 1295.01 452.707 1295.62 452.935C1296.24 453.171 1296.98 453.29 1297.87 453.29C1299.18 453.29 1300.27 452.968 1301.12 452.324C1301.98 451.689 1302.41 450.624 1302.41 449.128V445.136H1302.16C1301.89 445.742 1301.49 446.315 1300.96 446.855C1300.43 447.395 1299.75 447.835 1298.92 448.176C1298.08 448.517 1297.09 448.688 1295.93 448.688C1294.3 448.688 1292.8 448.309 1291.46 447.551C1290.12 446.784 1289.06 445.615 1288.26 444.043C1287.48 442.461 1287.08 440.463 1287.08 438.048C1287.08 435.577 1287.49 433.512 1288.29 431.855C1289.1 430.198 1290.17 428.957 1291.5 428.134C1292.85 427.31 1294.32 426.898 1295.92 426.898C1297.14 426.898 1298.16 427.106 1298.99 427.523C1299.81 427.93 1300.47 428.441 1300.98 429.057C1301.49 429.663 1301.88 430.259 1302.16 430.847H1302.38V427.182H1308.39V449.213C1308.39 451.069 1307.94 452.622 1307.03 453.872C1306.12 455.122 1304.86 456.06 1303.25 456.685C1301.65 457.319 1299.81 457.636 1297.72 457.636ZM1297.85 444.142C1298.83 444.142 1299.65 443.901 1300.32 443.418C1301 442.925 1301.53 442.224 1301.89 441.315C1302.25 440.397 1302.44 439.298 1302.44 438.02C1302.44 436.741 1302.26 435.634 1301.9 434.696C1301.54 433.749 1301.02 433.015 1300.34 432.494C1299.66 431.973 1298.83 431.713 1297.85 431.713C1296.86 431.713 1296.02 431.983 1295.34 432.523C1294.66 433.053 1294.14 433.792 1293.79 434.739C1293.44 435.686 1293.26 436.779 1293.26 438.02C1293.26 439.279 1293.44 440.368 1293.79 441.287C1294.15 442.196 1294.66 442.902 1295.34 443.403C1296.02 443.896 1296.86 444.142 1297.85 444.142Z" fill="#206A5D"/>
<path d="M516.961 449H510.37L520.412 419.909H528.338L538.367 449H531.776L524.489 426.557H524.262L516.961 449ZM516.549 437.565H532.117V442.366H516.549V437.565ZM551.697 427.182V431.727H538.231V427.182H551.697ZM541.313 449V425.605C541.313 424.024 541.621 422.712 542.237 421.67C542.862 420.629 543.714 419.848 544.794 419.327C545.873 418.806 547.099 418.545 548.473 418.545C549.401 418.545 550.248 418.616 551.015 418.759C551.792 418.901 552.369 419.028 552.748 419.142L551.669 423.688C551.432 423.612 551.138 423.541 550.788 423.474C550.447 423.408 550.097 423.375 549.737 423.375C548.847 423.375 548.226 423.583 547.876 424C547.526 424.407 547.35 424.98 547.35 425.719V449H541.313ZM565.727 427.182V431.727H552.261V427.182H565.727ZM555.343 449V425.605C555.343 424.024 555.651 422.712 556.266 421.67C556.891 420.629 557.744 419.848 558.823 419.327C559.903 418.806 561.129 418.545 562.502 418.545C563.43 418.545 564.278 418.616 565.045 418.759C565.821 418.901 566.399 419.028 566.778 419.142L565.698 423.688C565.461 423.612 565.168 423.541 564.818 423.474C564.477 423.408 564.126 423.375 563.766 423.375C562.876 423.375 562.256 423.583 561.906 424C561.555 424.407 561.38 424.98 561.38 425.719V449H555.343ZM577.1 449.426C574.894 449.426 572.985 448.957 571.376 448.02C569.775 447.073 568.539 445.757 567.668 444.071C566.797 442.376 566.361 440.411 566.361 438.176C566.361 435.922 566.797 433.953 567.668 432.267C568.539 430.572 569.775 429.256 571.376 428.318C572.985 427.371 574.894 426.898 577.1 426.898C579.307 426.898 581.21 427.371 582.81 428.318C584.42 429.256 585.661 430.572 586.532 432.267C587.403 433.953 587.839 435.922 587.839 438.176C587.839 440.411 587.403 442.376 586.532 444.071C585.661 445.757 584.42 447.073 582.81 448.02C581.21 448.957 579.307 449.426 577.1 449.426ZM577.128 444.739C578.132 444.739 578.97 444.455 579.643 443.886C580.315 443.309 580.822 442.523 581.163 441.528C581.513 440.534 581.688 439.402 581.688 438.134C581.688 436.865 581.513 435.733 581.163 434.739C580.822 433.744 580.315 432.958 579.643 432.381C578.97 431.803 578.132 431.514 577.128 431.514C576.115 431.514 575.263 431.803 574.572 432.381C573.89 432.958 573.374 433.744 573.023 434.739C572.682 435.733 572.512 436.865 572.512 438.134C572.512 439.402 572.682 440.534 573.023 441.528C573.374 442.523 573.89 443.309 574.572 443.886C575.263 444.455 576.115 444.739 577.128 444.739ZM590.373 449V427.182H596.24V430.989H596.467C596.865 429.634 597.532 428.612 598.47 427.92C599.407 427.22 600.487 426.869 601.709 426.869C602.012 426.869 602.338 426.888 602.689 426.926C603.039 426.964 603.347 427.016 603.612 427.082V432.452C603.328 432.366 602.935 432.291 602.433 432.224C601.931 432.158 601.472 432.125 601.055 432.125C600.165 432.125 599.37 432.319 598.669 432.707C597.978 433.086 597.428 433.616 597.021 434.298C596.623 434.98 596.425 435.766 596.425 436.656V449H590.373ZM612.365 449.355C610.708 449.355 609.207 448.929 607.862 448.077C606.527 447.215 605.466 445.951 604.68 444.284C603.904 442.608 603.515 440.553 603.515 438.119C603.515 435.619 603.918 433.541 604.723 431.884C605.528 430.217 606.598 428.972 607.933 428.148C609.278 427.314 610.75 426.898 612.35 426.898C613.572 426.898 614.59 427.106 615.404 427.523C616.228 427.93 616.891 428.441 617.393 429.057C617.904 429.663 618.293 430.259 618.558 430.847H618.743V419.909H624.779V449H618.814V445.506H618.558C618.274 446.112 617.871 446.713 617.35 447.31C616.839 447.897 616.172 448.384 615.348 448.773C614.533 449.161 613.539 449.355 612.365 449.355ZM614.282 444.54C615.258 444.54 616.082 444.275 616.754 443.744C617.436 443.205 617.957 442.452 618.316 441.486C618.686 440.52 618.87 439.388 618.87 438.091C618.87 436.794 618.69 435.667 618.331 434.71C617.971 433.754 617.45 433.015 616.768 432.494C616.086 431.973 615.258 431.713 614.282 431.713C613.288 431.713 612.45 431.983 611.768 432.523C611.086 433.062 610.57 433.811 610.22 434.767C609.869 435.723 609.694 436.831 609.694 438.091C609.694 439.36 609.869 440.482 610.22 441.457C610.58 442.423 611.096 443.181 611.768 443.73C612.45 444.27 613.288 444.54 614.282 444.54ZM634.576 449.412C633.184 449.412 631.944 449.17 630.855 448.688C629.766 448.195 628.904 447.471 628.269 446.514C627.644 445.548 627.332 444.346 627.332 442.906C627.332 441.694 627.554 440.676 628 439.852C628.445 439.028 629.051 438.366 629.818 437.864C630.585 437.362 631.456 436.983 632.431 436.727C633.416 436.472 634.448 436.292 635.528 436.188C636.797 436.055 637.82 435.932 638.596 435.818C639.373 435.695 639.936 435.515 640.286 435.278C640.637 435.042 640.812 434.691 640.812 434.227V434.142C640.812 433.242 640.528 432.546 639.96 432.054C639.401 431.562 638.606 431.315 637.573 431.315C636.484 431.315 635.618 431.557 634.974 432.04C634.33 432.513 633.904 433.11 633.696 433.83L628.099 433.375C628.383 432.049 628.942 430.903 629.775 429.938C630.608 428.962 631.683 428.214 633 427.693C634.325 427.163 635.859 426.898 637.602 426.898C638.814 426.898 639.974 427.04 641.082 427.324C642.199 427.608 643.189 428.048 644.051 428.645C644.922 429.241 645.608 430.009 646.11 430.946C646.612 431.874 646.863 432.987 646.863 434.284V449H641.125V445.974H640.954C640.604 446.656 640.135 447.258 639.548 447.778C638.961 448.29 638.255 448.692 637.431 448.986C636.607 449.27 635.656 449.412 634.576 449.412ZM636.309 445.236C637.199 445.236 637.985 445.061 638.667 444.71C639.349 444.35 639.884 443.867 640.272 443.261C640.66 442.655 640.855 441.969 640.855 441.202V438.886C640.665 439.009 640.405 439.123 640.073 439.227C639.751 439.322 639.387 439.412 638.98 439.497C638.572 439.573 638.165 439.644 637.758 439.71C637.351 439.767 636.982 439.819 636.65 439.866C635.94 439.971 635.32 440.136 634.789 440.364C634.259 440.591 633.847 440.899 633.553 441.287C633.26 441.666 633.113 442.139 633.113 442.707C633.113 443.531 633.411 444.161 634.008 444.597C634.614 445.023 635.381 445.236 636.309 445.236ZM650.271 449V419.909H656.323V430.847H656.507C656.772 430.259 657.156 429.663 657.658 429.057C658.169 428.441 658.832 427.93 659.646 427.523C660.47 427.106 661.493 426.898 662.715 426.898C664.305 426.898 665.773 427.314 667.118 428.148C668.463 428.972 669.537 430.217 670.342 431.884C671.147 433.541 671.55 435.619 671.55 438.119C671.55 440.553 671.157 442.608 670.371 444.284C669.594 445.951 668.534 447.215 667.189 448.077C665.854 448.929 664.358 449.355 662.7 449.355C661.526 449.355 660.527 449.161 659.703 448.773C658.889 448.384 658.221 447.897 657.7 447.31C657.18 446.713 656.782 446.112 656.507 445.506H656.237V449H650.271ZM656.195 438.091C656.195 439.388 656.375 440.52 656.734 441.486C657.094 442.452 657.615 443.205 658.297 443.744C658.979 444.275 659.807 444.54 660.783 444.54C661.768 444.54 662.601 444.27 663.283 443.73C663.965 443.181 664.481 442.423 664.831 441.457C665.191 440.482 665.371 439.36 665.371 438.091C665.371 436.831 665.196 435.723 664.845 434.767C664.495 433.811 663.979 433.062 663.297 432.523C662.615 431.983 661.777 431.713 660.783 431.713C659.798 431.713 658.965 431.973 658.283 432.494C657.61 433.015 657.094 433.754 656.734 434.71C656.375 435.667 656.195 436.794 656.195 438.091ZM680.239 419.909V449H674.187V419.909H680.239ZM693.629 449.426C691.385 449.426 689.453 448.972 687.834 448.062C686.224 447.144 684.983 445.847 684.112 444.17C683.241 442.485 682.805 440.491 682.805 438.19C682.805 435.946 683.241 433.976 684.112 432.281C684.983 430.586 686.21 429.265 687.791 428.318C689.382 427.371 691.247 426.898 693.388 426.898C694.827 426.898 696.167 427.13 697.407 427.594C698.657 428.048 699.746 428.735 700.674 429.653C701.612 430.572 702.341 431.727 702.862 433.119C703.383 434.502 703.643 436.121 703.643 437.977V439.639H685.22V435.889H697.947C697.947 435.018 697.758 434.246 697.379 433.574C697 432.902 696.475 432.376 695.802 431.997C695.139 431.609 694.368 431.415 693.487 431.415C692.568 431.415 691.754 431.628 691.044 432.054C690.343 432.471 689.794 433.034 689.396 433.744C688.998 434.445 688.795 435.226 688.785 436.088V439.653C688.785 440.733 688.984 441.666 689.382 442.452C689.789 443.238 690.362 443.844 691.101 444.27C691.839 444.696 692.715 444.909 693.728 444.909C694.401 444.909 695.016 444.814 695.575 444.625C696.134 444.436 696.612 444.152 697.01 443.773C697.407 443.394 697.71 442.93 697.919 442.381L703.515 442.75C703.231 444.095 702.649 445.269 701.768 446.273C700.897 447.267 699.77 448.044 698.388 448.602C697.014 449.152 695.428 449.426 693.629 449.426ZM714.164 449V419.909H725.641C727.847 419.909 729.727 420.33 731.28 421.173C732.833 422.007 734.017 423.167 734.831 424.653C735.655 426.131 736.067 427.835 736.067 429.767C736.067 431.699 735.65 433.403 734.817 434.881C733.984 436.358 732.776 437.509 731.195 438.332C729.623 439.156 727.719 439.568 725.485 439.568H718.169V434.639H724.49C725.674 434.639 726.649 434.436 727.416 434.028C728.193 433.612 728.771 433.039 729.149 432.31C729.538 431.571 729.732 430.723 729.732 429.767C729.732 428.801 729.538 427.958 729.149 427.239C728.771 426.509 728.193 425.946 727.416 425.548C726.64 425.141 725.655 424.938 724.462 424.938H720.314V449H714.164ZM738.548 449V427.182H744.415V430.989H744.642C745.04 429.634 745.707 428.612 746.645 427.92C747.582 427.22 748.662 426.869 749.884 426.869C750.187 426.869 750.513 426.888 750.864 426.926C751.214 426.964 751.522 427.016 751.787 427.082V432.452C751.503 432.366 751.11 432.291 750.608 432.224C750.106 432.158 749.647 432.125 749.23 432.125C748.34 432.125 747.545 432.319 746.844 432.707C746.153 433.086 745.603 433.616 745.196 434.298C744.798 434.98 744.6 435.766 744.6 436.656V449H738.548ZM753.516 449V427.182H759.567V449H753.516ZM756.555 424.369C755.656 424.369 754.884 424.071 754.24 423.474C753.606 422.868 753.288 422.144 753.288 421.301C753.288 420.468 753.606 419.753 754.24 419.156C754.884 418.55 755.656 418.247 756.555 418.247C757.455 418.247 758.222 418.55 758.856 419.156C759.5 419.753 759.822 420.468 759.822 421.301C759.822 422.144 759.5 422.868 758.856 423.474C758.222 424.071 757.455 424.369 756.555 424.369ZM772.872 449.426C770.637 449.426 768.715 448.953 767.105 448.006C765.505 447.049 764.273 445.723 763.412 444.028C762.559 442.333 762.133 440.383 762.133 438.176C762.133 435.941 762.564 433.981 763.426 432.295C764.297 430.6 765.533 429.279 767.133 428.332C768.734 427.376 770.637 426.898 772.844 426.898C774.747 426.898 776.414 427.243 777.844 427.935C779.273 428.626 780.405 429.597 781.238 430.847C782.072 432.097 782.531 433.564 782.616 435.25H776.906C776.745 434.161 776.319 433.285 775.628 432.622C774.946 431.95 774.051 431.614 772.943 431.614C772.005 431.614 771.186 431.869 770.486 432.381C769.794 432.883 769.255 433.616 768.866 434.582C768.478 435.548 768.284 436.718 768.284 438.091C768.284 439.483 768.473 440.667 768.852 441.642C769.24 442.617 769.785 443.361 770.486 443.872C771.186 444.384 772.005 444.639 772.943 444.639C773.634 444.639 774.255 444.497 774.804 444.213C775.362 443.929 775.822 443.517 776.182 442.977C776.551 442.428 776.792 441.77 776.906 441.003H782.616C782.522 442.67 782.067 444.137 781.253 445.406C780.448 446.666 779.335 447.651 777.915 448.361C776.494 449.071 774.813 449.426 772.872 449.426ZM795.034 449.426C792.789 449.426 790.858 448.972 789.238 448.062C787.628 447.144 786.388 445.847 785.517 444.17C784.645 442.485 784.21 440.491 784.21 438.19C784.21 435.946 784.645 433.976 785.517 432.281C786.388 430.586 787.614 429.265 789.196 428.318C790.787 427.371 792.652 426.898 794.792 426.898C796.232 426.898 797.572 427.13 798.812 427.594C800.062 428.048 801.151 428.735 802.079 429.653C803.017 430.572 803.746 431.727 804.267 433.119C804.788 434.502 805.048 436.121 805.048 437.977V439.639H786.625V435.889H799.352C799.352 435.018 799.163 434.246 798.784 433.574C798.405 432.902 797.879 432.376 797.207 431.997C796.544 431.609 795.772 431.415 794.892 431.415C793.973 431.415 793.159 431.628 792.449 432.054C791.748 432.471 791.199 433.034 790.801 433.744C790.403 434.445 790.199 435.226 790.19 436.088V439.653C790.19 440.733 790.389 441.666 790.787 442.452C791.194 443.238 791.767 443.844 792.505 444.27C793.244 444.696 794.12 444.909 795.133 444.909C795.806 444.909 796.421 444.814 796.98 444.625C797.538 444.436 798.017 444.152 798.414 443.773C798.812 443.394 799.115 442.93 799.324 442.381L804.92 442.75C804.636 444.095 804.054 445.269 803.173 446.273C802.302 447.267 801.175 448.044 799.792 448.602C798.419 449.152 796.833 449.426 795.034 449.426Z" fill="#206A5D"/>
</svg>
