<svg width="681" height="575" viewBox="0 0 681 575" fill="none" xmlns="http://www.w3.org/2000/svg">
<path d="M244.528 63V33.9091H250.679V46.7358H251.062L261.531 33.9091H268.903L258.108 46.9347L269.031 63H261.673L253.705 51.0398L250.679 54.733V63H244.528ZM278.935 63.4261C276.69 63.4261 274.758 62.9716 273.139 62.0625C271.529 61.1439 270.289 59.8466 269.417 58.1705C268.546 56.4848 268.111 54.4915 268.111 52.1903C268.111 49.946 268.546 47.9763 269.417 46.2812C270.289 44.5862 271.515 43.2652 273.096 42.3182C274.687 41.3712 276.553 40.8977 278.693 40.8977C280.132 40.8977 281.472 41.1297 282.713 41.5938C283.963 42.0483 285.052 42.7348 285.98 43.6534C286.917 44.572 287.647 45.7273 288.167 47.1193C288.688 48.5019 288.949 50.1212 288.949 51.9773V53.6392H270.525V49.8892H283.253C283.253 49.018 283.063 48.2462 282.685 47.5739C282.306 46.9015 281.78 46.3759 281.108 45.9972C280.445 45.6089 279.673 45.4148 278.792 45.4148C277.874 45.4148 277.06 45.6278 276.349 46.054C275.649 46.4706 275.099 47.0341 274.702 47.7443C274.304 48.4451 274.1 49.2263 274.091 50.0881V53.6534C274.091 54.733 274.29 55.6657 274.687 56.4517C275.095 57.2377 275.667 57.8438 276.406 58.2699C277.145 58.696 278.021 58.9091 279.034 58.9091C279.706 58.9091 280.322 58.8144 280.881 58.625C281.439 58.4356 281.917 58.1515 282.315 57.7727C282.713 57.3939 283.016 56.9299 283.224 56.3807L288.821 56.75C288.537 58.0947 287.954 59.2689 287.074 60.2727C286.203 61.267 285.076 62.0436 283.693 62.6023C282.32 63.1515 280.734 63.4261 278.935 63.4261ZM291.498 63V41.1818H297.364V44.9886H297.591C297.989 43.6345 298.657 42.6117 299.594 41.9205C300.532 41.2197 301.611 40.8693 302.833 40.8693C303.136 40.8693 303.463 40.8883 303.813 40.9261C304.163 40.964 304.471 41.0161 304.736 41.0824V46.4517C304.452 46.3665 304.059 46.2907 303.557 46.2244C303.055 46.1581 302.596 46.125 302.179 46.125C301.289 46.125 300.494 46.3191 299.793 46.7074C299.102 47.0862 298.553 47.6165 298.145 48.2983C297.748 48.9801 297.549 49.7661 297.549 50.6562V63H291.498ZM306.465 63V41.1818H312.516V63H306.465ZM309.505 38.3693C308.605 38.3693 307.833 38.071 307.189 37.4744C306.555 36.8684 306.237 36.1439 306.237 35.3011C306.237 34.4678 306.555 33.7528 307.189 33.1562C307.833 32.5502 308.605 32.2472 309.505 32.2472C310.404 32.2472 311.171 32.5502 311.806 33.1562C312.45 33.7528 312.772 34.4678 312.772 35.3011C312.772 36.1439 312.45 36.8684 311.806 37.4744C311.171 38.071 310.404 38.3693 309.505 38.3693ZM322.014 50.3864V63H315.963V41.1818H321.73V45.0312H321.986C322.469 43.7623 323.279 42.7585 324.415 42.0199C325.551 41.2718 326.929 40.8977 328.548 40.8977C330.064 40.8977 331.385 41.2292 332.512 41.892C333.638 42.5549 334.514 43.5019 335.139 44.733C335.764 45.9545 336.077 47.4129 336.077 49.108V63H330.026V50.1875C330.035 48.8523 329.694 47.8106 329.003 47.0625C328.312 46.3049 327.36 45.9261 326.148 45.9261C325.333 45.9261 324.614 46.1013 323.989 46.4517C323.373 46.8021 322.89 47.3134 322.54 47.9858C322.199 48.6487 322.024 49.4489 322.014 50.3864ZM349.304 63.4261C347.069 63.4261 345.147 62.9527 343.537 62.0057C341.937 61.0492 340.705 59.7235 339.844 58.0284C338.991 56.3333 338.565 54.3826 338.565 52.1761C338.565 49.9413 338.996 47.9811 339.858 46.2955C340.729 44.6004 341.965 43.2794 343.565 42.3324C345.166 41.3759 347.069 40.8977 349.276 40.8977C351.179 40.8977 352.846 41.2434 354.276 41.9347C355.705 42.6259 356.837 43.5966 357.67 44.8466C358.504 46.0966 358.963 47.5644 359.048 49.25H353.338C353.177 48.161 352.751 47.285 352.06 46.6222C351.378 45.9498 350.483 45.6136 349.375 45.6136C348.438 45.6136 347.618 45.8693 346.918 46.3807C346.226 46.8826 345.687 47.6165 345.298 48.5824C344.91 49.5483 344.716 50.7178 344.716 52.0909C344.716 53.483 344.905 54.6667 345.284 55.642C345.672 56.6174 346.217 57.3608 346.918 57.8722C347.618 58.3835 348.438 58.6392 349.375 58.6392C350.066 58.6392 350.687 58.4972 351.236 58.2131C351.795 57.929 352.254 57.517 352.614 56.9773C352.983 56.428 353.224 55.7699 353.338 55.0028H359.048C358.954 56.6695 358.499 58.1373 357.685 59.4062C356.88 60.6657 355.767 61.6506 354.347 62.3608C352.926 63.071 351.245 63.4261 349.304 63.4261ZM361.523 63V41.1818H367.574V63H361.523ZM364.562 38.3693C363.663 38.3693 362.891 38.071 362.247 37.4744C361.613 36.8684 361.295 36.1439 361.295 35.3011C361.295 34.4678 361.613 33.7528 362.247 33.1562C362.891 32.5502 363.663 32.2472 364.562 32.2472C365.462 32.2472 366.229 32.5502 366.863 33.1562C367.507 33.7528 367.829 34.4678 367.829 35.3011C367.829 36.1439 367.507 36.8684 366.863 37.4744C366.229 38.071 365.462 38.3693 364.562 38.3693Z" fill="#206A5D"/>
<g filter="url(#filter0_d_227_21)">
<rect x="5.5" y="1.5" width="670" height="564" stroke="#206A5D" stroke-width="3" shape-rendering="crispEdges"/>
</g>
<line x1="5" y1="94.5" x2="677" y2="94.5" stroke="black"/>
<path d="M34.9375 156H27.0824V130.545H35.2855C37.7547 130.545 39.8677 131.055 41.6243 132.074C43.3809 133.085 44.7274 134.539 45.6637 136.437C46.6 138.326 47.0682 140.588 47.0682 143.223C47.0682 145.875 46.5959 148.157 45.6513 150.071C44.7067 151.977 43.3312 153.444 41.5249 154.471C39.7185 155.49 37.5227 156 34.9375 156ZM30.1648 153.266H34.7386C36.8433 153.266 38.5875 152.86 39.9712 152.048C41.355 151.236 42.3866 150.08 43.0661 148.58C43.7455 147.08 44.0852 145.295 44.0852 143.223C44.0852 141.168 43.7496 139.399 43.0785 137.916C42.4073 136.424 41.4047 135.281 40.0707 134.485C38.7366 133.682 37.0753 133.28 35.0866 133.28H30.1648V153.266ZM56.0588 156.447C54.8491 156.447 53.7512 156.22 52.7651 155.764C51.7791 155.3 50.9961 154.633 50.4161 153.763C49.836 152.884 49.546 151.824 49.546 150.581C49.546 149.487 49.7615 148.601 50.1923 147.921C50.6232 147.233 51.1991 146.695 51.92 146.305C52.6408 145.916 53.4363 145.626 54.3063 145.435C55.1846 145.237 56.0671 145.079 56.9537 144.963C58.1137 144.814 59.0542 144.702 59.7751 144.627C60.5042 144.545 61.0345 144.408 61.366 144.217C61.7057 144.027 61.8756 143.695 61.8756 143.223V143.124C61.8756 141.897 61.54 140.944 60.8688 140.265C60.2059 139.585 59.1992 139.246 57.8486 139.246C56.4482 139.246 55.3504 139.552 54.5549 140.165C53.7594 140.779 53.2001 141.433 52.877 142.129L50.0929 141.135C50.5901 139.975 51.2529 139.072 52.0815 138.425C52.9184 137.771 53.8299 137.315 54.8159 137.058C55.8102 136.793 56.788 136.661 57.7491 136.661C58.3623 136.661 59.0666 136.735 59.8621 136.884C60.6658 137.025 61.4406 137.319 62.1863 137.767C62.9403 138.214 63.5659 138.889 64.0631 139.793C64.5602 140.696 64.8088 141.906 64.8088 143.422V156H61.8756V153.415H61.7264C61.5276 153.829 61.1961 154.272 60.7321 154.745C60.2681 155.217 59.6508 155.619 58.8802 155.95C58.1096 156.282 57.1691 156.447 56.0588 156.447ZM56.5063 153.812C57.6663 153.812 58.644 153.585 59.4395 153.129C60.2432 152.673 60.8481 152.085 61.2541 151.364C61.6684 150.643 61.8756 149.885 61.8756 149.089V146.405C61.7513 146.554 61.4778 146.691 61.0553 146.815C60.641 146.931 60.1604 147.035 59.6135 147.126C59.0749 147.209 58.5487 147.283 58.035 147.349C57.5296 147.407 57.1194 147.457 56.8045 147.499C56.0422 147.598 55.3296 147.76 54.6668 147.983C54.0122 148.199 53.4819 148.526 53.0759 148.965C52.6781 149.396 52.4793 149.984 52.4793 150.73C52.4793 151.749 52.8563 152.52 53.6103 153.042C54.3726 153.556 55.3379 153.812 56.5063 153.812ZM76.7669 156.398C74.9274 156.398 73.3406 155.992 72.0066 155.18C70.6808 154.359 69.6575 153.216 68.9366 151.749C68.224 150.274 67.8677 148.559 67.8677 146.604C67.8677 144.648 68.224 142.925 68.9366 141.433C69.6575 139.933 70.6601 138.765 71.9444 137.928C73.237 137.083 74.7451 136.661 76.4686 136.661C77.4629 136.661 78.4448 136.826 79.4142 137.158C80.3837 137.489 81.2661 138.028 82.0616 138.773C82.8571 139.511 83.4909 140.489 83.9632 141.707C84.4355 142.925 84.6717 144.424 84.6717 146.206V147.449H69.9558V144.913H81.6887C81.6887 143.836 81.4733 142.875 81.0424 142.03C80.6198 141.185 80.015 140.518 79.2278 140.029C78.4489 139.54 77.5292 139.295 76.4686 139.295C75.3002 139.295 74.2893 139.585 73.4359 140.165C72.5907 140.737 71.9403 141.483 71.4845 142.403C71.0288 143.322 70.8009 144.308 70.8009 145.361V147.051C70.8009 148.493 71.0495 149.715 71.5467 150.718C72.0521 151.712 72.7523 152.47 73.6472 152.992C74.5421 153.506 75.582 153.763 76.7669 153.763C77.5374 153.763 78.2335 153.655 78.8549 153.44C79.4847 153.216 80.0274 152.884 80.4831 152.445C80.9388 151.998 81.291 151.443 81.5396 150.78L84.3734 151.575C84.0751 152.536 83.5738 153.382 82.8695 154.111C82.1652 154.832 81.2951 155.395 80.2594 155.801C79.2236 156.199 78.0595 156.398 76.7669 156.398ZM87.7337 156V136.909H90.5675V139.793H90.7664C91.1144 138.848 91.7441 138.082 92.6556 137.493C93.567 136.905 94.5945 136.611 95.7379 136.611C95.9534 136.611 96.2227 136.615 96.5458 136.623C96.869 136.632 97.1134 136.644 97.2791 136.661V139.643C97.1797 139.619 96.9518 139.581 96.5955 139.532C96.2475 139.474 95.8788 139.445 95.4894 139.445C94.5613 139.445 93.7327 139.639 93.0036 140.029C92.2827 140.41 91.711 140.94 91.2884 141.62C90.8741 142.291 90.6669 143.057 90.6669 143.919V156H87.7337ZM104.974 156.447C103.764 156.447 102.666 156.22 101.68 155.764C100.694 155.3 99.9113 154.633 99.3313 153.763C98.7513 152.884 98.4613 151.824 98.4613 150.581C98.4613 149.487 98.6767 148.601 99.1076 147.921C99.5384 147.233 100.114 146.695 100.835 146.305C101.556 145.916 102.352 145.626 103.222 145.435C104.1 145.237 104.982 145.079 105.869 144.963C107.029 144.814 107.969 144.702 108.69 144.627C109.419 144.545 109.95 144.408 110.281 144.217C110.621 144.027 110.791 143.695 110.791 143.223V143.124C110.791 141.897 110.455 140.944 109.784 140.265C109.121 139.585 108.114 139.246 106.764 139.246C105.363 139.246 104.266 139.552 103.47 140.165C102.675 140.779 102.115 141.433 101.792 142.129L99.0081 141.135C99.5053 139.975 100.168 139.072 100.997 138.425C101.834 137.771 102.745 137.315 103.731 137.058C104.725 136.793 105.703 136.661 106.664 136.661C107.278 136.661 107.982 136.735 108.777 136.884C109.581 137.025 110.356 137.319 111.102 137.767C111.856 138.214 112.481 138.889 112.978 139.793C113.475 140.696 113.724 141.906 113.724 143.422V156H110.791V153.415H110.642C110.443 153.829 110.111 154.272 109.647 154.745C109.183 155.217 108.566 155.619 107.795 155.95C107.025 156.282 106.084 156.447 104.974 156.447ZM105.421 153.812C106.582 153.812 107.559 153.585 108.355 153.129C109.158 152.673 109.763 152.085 110.169 151.364C110.584 150.643 110.791 149.885 110.791 149.089V146.405C110.667 146.554 110.393 146.691 109.97 146.815C109.556 146.931 109.076 147.035 108.529 147.126C107.99 147.209 107.464 147.283 106.95 147.349C106.445 147.407 106.035 147.457 105.72 147.499C104.957 147.598 104.245 147.76 103.582 147.983C102.927 148.199 102.397 148.526 101.991 148.965C101.593 149.396 101.394 149.984 101.394 150.73C101.394 151.749 101.772 152.52 102.526 153.042C103.288 153.556 104.253 153.812 105.421 153.812ZM120.611 144.516V156H117.678V130.545H120.611V139.892H120.86C121.307 138.906 121.978 138.123 122.873 137.543C123.776 136.955 124.978 136.661 126.478 136.661C127.778 136.661 128.918 136.922 129.896 137.444C130.873 137.957 131.631 138.749 132.17 139.817C132.717 140.878 132.99 142.229 132.99 143.869V156H130.057V144.068C130.057 142.552 129.664 141.379 128.876 140.551C128.097 139.714 127.016 139.295 125.632 139.295C124.671 139.295 123.809 139.498 123.047 139.904C122.293 140.31 121.697 140.903 121.257 141.682C120.826 142.461 120.611 143.405 120.611 144.516ZM198.201 152.744C197.587 152.744 197.061 152.524 196.622 152.085C196.183 151.646 195.963 151.12 195.963 150.506C195.963 149.893 196.183 149.367 196.622 148.928C197.061 148.489 197.587 148.269 198.201 148.269C198.814 148.269 199.34 148.489 199.779 148.928C200.218 149.367 200.438 149.893 200.438 150.506C200.438 150.912 200.334 151.285 200.127 151.625C199.928 151.965 199.659 152.238 199.319 152.445C198.988 152.644 198.615 152.744 198.201 152.744ZM198.201 139.867C197.587 139.867 197.061 139.648 196.622 139.208C196.183 138.769 195.963 138.243 195.963 137.63C195.963 137.017 196.183 136.491 196.622 136.051C197.061 135.612 197.587 135.393 198.201 135.393C198.814 135.393 199.34 135.612 199.779 136.051C200.218 136.491 200.438 137.017 200.438 137.63C200.438 138.036 200.334 138.409 200.127 138.749C199.928 139.088 199.659 139.362 199.319 139.569C198.988 139.768 198.615 139.867 198.201 139.867ZM222.887 130.545H225.97V148.741C225.97 150.366 225.671 151.745 225.075 152.88C224.478 154.016 223.637 154.877 222.552 155.466C221.466 156.054 220.186 156.348 218.711 156.348C217.319 156.348 216.08 156.095 214.995 155.59C213.909 155.076 213.056 154.347 212.434 153.402C211.813 152.458 211.502 151.335 211.502 150.034H214.535C214.535 150.755 214.713 151.385 215.069 151.923C215.434 152.454 215.931 152.868 216.561 153.166C217.191 153.464 217.907 153.614 218.711 153.614C219.598 153.614 220.352 153.427 220.973 153.054C221.595 152.681 222.067 152.135 222.39 151.414C222.722 150.685 222.887 149.794 222.887 148.741V130.545ZM235.967 156.447C234.757 156.447 233.659 156.22 232.673 155.764C231.687 155.3 230.904 154.633 230.324 153.763C229.744 152.884 229.454 151.824 229.454 150.581C229.454 149.487 229.67 148.601 230.101 147.921C230.531 147.233 231.107 146.695 231.828 146.305C232.549 145.916 233.345 145.626 234.215 145.435C235.093 145.237 235.975 145.079 236.862 144.963C238.022 144.814 238.962 144.702 239.683 144.627C240.412 144.545 240.943 144.408 241.274 144.217C241.614 144.027 241.784 143.695 241.784 143.223V143.124C241.784 141.897 241.448 140.944 240.777 140.265C240.114 139.585 239.107 139.246 237.757 139.246C236.356 139.246 235.259 139.552 234.463 140.165C233.668 140.779 233.108 141.433 232.785 142.129L230.001 141.135C230.498 139.975 231.161 139.072 231.99 138.425C232.827 137.771 233.738 137.315 234.724 137.058C235.718 136.793 236.696 136.661 237.657 136.661C238.271 136.661 238.975 136.735 239.77 136.884C240.574 137.025 241.349 137.319 242.095 137.767C242.849 138.214 243.474 138.889 243.971 139.793C244.468 140.696 244.717 141.906 244.717 143.422V156H241.784V153.415H241.635C241.436 153.829 241.104 154.272 240.64 154.745C240.176 155.217 239.559 155.619 238.788 155.95C238.018 156.282 237.077 156.447 235.967 156.447ZM236.414 153.812C237.574 153.812 238.552 153.585 239.348 153.129C240.151 152.673 240.756 152.085 241.162 151.364C241.577 150.643 241.784 149.885 241.784 149.089V146.405C241.659 146.554 241.386 146.691 240.963 146.815C240.549 146.931 240.069 147.035 239.522 147.126C238.983 147.209 238.457 147.283 237.943 147.349C237.438 147.407 237.028 147.457 236.713 147.499C235.95 147.598 235.238 147.76 234.575 147.983C233.92 148.199 233.39 148.526 232.984 148.965C232.586 149.396 232.387 149.984 232.387 150.73C232.387 151.749 232.764 152.52 233.519 153.042C234.281 153.556 235.246 153.812 236.414 153.812ZM248.671 156V136.909H251.505V139.892H251.753C252.151 138.873 252.793 138.082 253.68 137.518C254.566 136.946 255.631 136.661 256.874 136.661C258.133 136.661 259.182 136.946 260.018 137.518C260.864 138.082 261.522 138.873 261.995 139.892H262.194C262.682 138.906 263.416 138.123 264.393 137.543C265.371 136.955 266.544 136.661 267.911 136.661C269.618 136.661 271.014 137.195 272.099 138.264C273.185 139.324 273.728 140.978 273.728 143.223V156H270.794V143.223C270.794 141.814 270.409 140.808 269.638 140.203C268.868 139.598 267.961 139.295 266.917 139.295C265.574 139.295 264.534 139.701 263.797 140.513C263.059 141.317 262.691 142.336 262.691 143.571V156H259.708V142.925C259.708 141.839 259.356 140.965 258.651 140.302C257.947 139.631 257.04 139.295 255.929 139.295C255.167 139.295 254.454 139.498 253.792 139.904C253.137 140.31 252.607 140.874 252.201 141.595C251.803 142.307 251.604 143.132 251.604 144.068V156H248.671ZM278.088 156V130.545H281.022V139.942H281.27C281.486 139.61 281.784 139.188 282.165 138.674C282.555 138.152 283.11 137.688 283.831 137.282C284.56 136.868 285.546 136.661 286.789 136.661C288.396 136.661 289.813 137.062 291.039 137.866C292.266 138.67 293.223 139.809 293.911 141.284C294.598 142.759 294.942 144.499 294.942 146.504C294.942 148.526 294.598 150.279 293.911 151.762C293.223 153.237 292.27 154.38 291.052 155.192C289.834 155.996 288.429 156.398 286.838 156.398C285.612 156.398 284.63 156.195 283.893 155.789C283.155 155.374 282.588 154.906 282.19 154.384C281.792 153.854 281.486 153.415 281.27 153.067H280.922V156H278.088ZM280.972 146.455C280.972 147.896 281.183 149.168 281.606 150.27C282.028 151.364 282.646 152.222 283.458 152.843C284.27 153.456 285.264 153.763 286.441 153.763C287.667 153.763 288.69 153.44 289.511 152.793C290.339 152.139 290.961 151.26 291.375 150.158C291.798 149.048 292.009 147.813 292.009 146.455C292.009 145.112 291.802 143.902 291.387 142.825C290.981 141.74 290.364 140.882 289.536 140.252C288.715 139.614 287.684 139.295 286.441 139.295C285.248 139.295 284.245 139.598 283.433 140.203C282.621 140.799 282.008 141.636 281.593 142.713C281.179 143.782 280.972 145.029 280.972 146.455ZM298.029 156V136.909H300.962V156H298.029ZM299.52 133.727C298.949 133.727 298.456 133.533 298.041 133.143C297.635 132.754 297.432 132.286 297.432 131.739C297.432 131.192 297.635 130.724 298.041 130.334C298.456 129.945 298.949 129.75 299.52 129.75C300.092 129.75 300.581 129.945 300.987 130.334C301.401 130.724 301.609 131.192 301.609 131.739C301.609 132.286 301.401 132.754 300.987 133.143C300.581 133.533 300.092 133.727 299.52 133.727ZM27.0824 219V193.545H30.1648V206.173H30.4631L41.8977 193.545H45.9247L35.2358 205.03L45.9247 219H42.196L33.3466 207.168L30.1648 210.747V219H27.0824ZM54.7196 219.398C52.8801 219.398 51.2933 218.992 49.9593 218.18C48.6335 217.359 47.6102 216.216 46.8893 214.749C46.1767 213.274 45.8204 211.559 45.8204 209.604C45.8204 207.648 46.1767 205.925 46.8893 204.433C47.6102 202.933 48.6128 201.765 49.8971 200.928C51.1898 200.083 52.6978 199.661 54.4213 199.661C55.4156 199.661 56.3975 199.826 57.367 200.158C58.3364 200.489 59.2189 201.028 60.0143 201.773C60.8098 202.511 61.4437 203.489 61.916 204.707C62.3883 205.925 62.6244 207.424 62.6244 209.206V210.449H47.9085V207.913H59.6415C59.6415 206.836 59.426 205.875 58.9952 205.03C58.5726 204.185 57.9677 203.518 57.1805 203.029C56.4016 202.54 55.4819 202.295 54.4213 202.295C53.253 202.295 52.2421 202.585 51.3886 203.165C50.5434 203.737 49.893 204.483 49.4373 205.403C48.9815 206.322 48.7537 207.308 48.7537 208.361V210.051C48.7537 211.493 49.0023 212.715 49.4994 213.718C50.0049 214.712 50.705 215.47 51.5999 215.992C52.4948 216.506 53.5347 216.763 54.7196 216.763C55.4902 216.763 56.1862 216.655 56.8077 216.44C57.4374 216.216 57.9801 215.884 58.4358 215.445C58.8916 214.998 59.2437 214.443 59.4923 213.78L62.3261 214.575C62.0278 215.536 61.5265 216.382 60.8222 217.111C60.1179 217.832 59.2479 218.395 58.2121 218.801C57.1764 219.199 56.0122 219.398 54.7196 219.398ZM73.989 199.909V202.395H64.0955V199.909H73.989ZM66.979 195.335H69.9123V213.531C69.9123 214.36 70.0324 214.981 70.2727 215.396C70.5213 215.802 70.8362 216.075 71.2173 216.216C71.6068 216.348 72.0169 216.415 72.4478 216.415C72.7709 216.415 73.0361 216.398 73.2432 216.365C73.4504 216.324 73.6161 216.29 73.7404 216.266L74.337 218.901C74.1381 218.975 73.8605 219.05 73.5042 219.124C73.1479 219.207 72.6964 219.249 72.1495 219.249C71.3209 219.249 70.5089 219.07 69.7134 218.714C68.9262 218.358 68.2716 217.815 67.7496 217.086C67.2359 216.357 66.979 215.437 66.979 214.327V195.335ZM77.0013 219V199.909H79.9345V219H77.0013ZM78.4927 196.727C77.921 196.727 77.428 196.533 77.0137 196.143C76.6077 195.754 76.4047 195.286 76.4047 194.739C76.4047 194.192 76.6077 193.724 77.0137 193.334C77.428 192.945 77.921 192.75 78.4927 192.75C79.0645 192.75 79.5533 192.945 79.9594 193.334C80.3737 193.724 80.5808 194.192 80.5808 194.739C80.5808 195.286 80.3737 195.754 79.9594 196.143C79.5533 196.533 79.0645 196.727 78.4927 196.727ZM86.8402 207.516V219H83.9069V199.909H86.7407V202.892H86.9893C87.4368 201.923 88.1162 201.144 89.0277 200.555C89.9391 199.959 91.1157 199.661 92.5575 199.661C93.8501 199.661 94.9811 199.926 95.9506 200.456C96.9201 200.978 97.6741 201.773 98.2127 202.842C98.7513 203.903 99.0206 205.245 99.0206 206.869V219H96.0873V207.068C96.0873 205.568 95.6979 204.4 94.919 203.563C94.1401 202.718 93.0712 202.295 91.7123 202.295C90.776 202.295 89.9391 202.498 89.2017 202.904C88.4725 203.31 87.8966 203.903 87.474 204.682C87.0515 205.461 86.8402 206.405 86.8402 207.516ZM110.687 226.557C109.27 226.557 108.052 226.375 107.032 226.01C106.013 225.654 105.164 225.181 104.484 224.593C103.813 224.013 103.279 223.392 102.881 222.729L105.218 221.088C105.483 221.436 105.819 221.834 106.225 222.281C106.631 222.737 107.186 223.131 107.89 223.462C108.603 223.802 109.535 223.972 110.687 223.972C112.228 223.972 113.5 223.599 114.502 222.853C115.505 222.107 116.006 220.939 116.006 219.348V215.47H115.758C115.542 215.818 115.236 216.249 114.838 216.763C114.448 217.268 113.885 217.72 113.147 218.118C112.418 218.507 111.432 218.702 110.189 218.702C108.648 218.702 107.264 218.337 106.038 217.608C104.82 216.879 103.855 215.818 103.142 214.426C102.438 213.034 102.086 211.344 102.086 209.355C102.086 207.4 102.43 205.697 103.117 204.247C103.805 202.788 104.762 201.662 105.988 200.866C107.215 200.062 108.632 199.661 110.239 199.661C111.482 199.661 112.468 199.868 113.197 200.282C113.935 200.688 114.498 201.152 114.888 201.674C115.285 202.188 115.592 202.61 115.807 202.942H116.106V199.909H118.939V219.547C118.939 221.188 118.566 222.522 117.821 223.549C117.083 224.585 116.089 225.343 114.838 225.824C113.595 226.312 112.211 226.557 110.687 226.557ZM110.587 216.067C111.764 216.067 112.758 215.797 113.57 215.259C114.382 214.72 114.999 213.946 115.422 212.935C115.845 211.924 116.056 210.714 116.056 209.305C116.056 207.93 115.849 206.716 115.434 205.664C115.02 204.611 114.407 203.787 113.595 203.19C112.783 202.594 111.78 202.295 110.587 202.295C109.344 202.295 108.308 202.61 107.48 203.24C106.66 203.87 106.042 204.715 105.628 205.776C105.222 206.836 105.019 208.013 105.019 209.305C105.019 210.631 105.226 211.804 105.64 212.823C106.063 213.834 106.684 214.629 107.505 215.209C108.333 215.781 109.361 216.067 110.587 216.067ZM130.615 226.557C129.198 226.557 127.98 226.375 126.961 226.01C125.941 225.654 125.092 225.181 124.413 224.593C123.741 224.013 123.207 223.392 122.809 222.729L125.146 221.088C125.411 221.436 125.747 221.834 126.153 222.281C126.559 222.737 127.114 223.131 127.818 223.462C128.531 223.802 129.463 223.972 130.615 223.972C132.156 223.972 133.428 223.599 134.43 222.853C135.433 222.107 135.934 220.939 135.934 219.348V215.47H135.686C135.47 215.818 135.164 216.249 134.766 216.763C134.376 217.268 133.813 217.72 133.076 218.118C132.346 218.507 131.36 218.702 130.117 218.702C128.576 218.702 127.193 218.337 125.966 217.608C124.748 216.879 123.783 215.818 123.07 214.426C122.366 213.034 122.014 211.344 122.014 209.355C122.014 207.4 122.358 205.697 123.045 204.247C123.733 202.788 124.69 201.662 125.916 200.866C127.143 200.062 128.56 199.661 130.167 199.661C131.41 199.661 132.396 199.868 133.125 200.282C133.863 200.688 134.426 201.152 134.816 201.674C135.213 202.188 135.52 202.61 135.735 202.942H136.034V199.909H138.867V219.547C138.867 221.188 138.495 222.522 137.749 223.549C137.011 224.585 136.017 225.343 134.766 225.824C133.523 226.312 132.139 226.557 130.615 226.557ZM130.515 216.067C131.692 216.067 132.686 215.797 133.498 215.259C134.31 214.72 134.928 213.946 135.35 212.935C135.773 211.924 135.984 210.714 135.984 209.305C135.984 207.93 135.777 206.716 135.363 205.664C134.948 204.611 134.335 203.787 133.523 203.19C132.711 202.594 131.708 202.295 130.515 202.295C129.272 202.295 128.237 202.61 127.408 203.24C126.588 203.87 125.97 204.715 125.556 205.776C125.15 206.836 124.947 208.013 124.947 209.305C124.947 210.631 125.154 211.804 125.568 212.823C125.991 213.834 126.613 214.629 127.433 215.209C128.261 215.781 129.289 216.067 130.515 216.067ZM142.837 219V199.909H145.77V219H142.837ZM144.328 196.727C143.757 196.727 143.264 196.533 142.849 196.143C142.443 195.754 142.24 195.286 142.24 194.739C142.24 194.192 142.443 193.724 142.849 193.334C143.264 192.945 143.757 192.75 144.328 192.75C144.9 192.75 145.389 192.945 145.795 193.334C146.209 193.724 146.416 194.192 146.416 194.739C146.416 195.286 146.209 195.754 145.795 196.143C145.389 196.533 144.9 196.727 144.328 196.727ZM155.36 219.447C154.151 219.447 153.053 219.22 152.067 218.764C151.081 218.3 150.298 217.633 149.718 216.763C149.138 215.884 148.848 214.824 148.848 213.581C148.848 212.487 149.063 211.601 149.494 210.921C149.925 210.233 150.501 209.695 151.222 209.305C151.942 208.916 152.738 208.626 153.608 208.435C154.486 208.237 155.369 208.079 156.255 207.963C157.415 207.814 158.356 207.702 159.077 207.627C159.806 207.545 160.336 207.408 160.668 207.217C161.007 207.027 161.177 206.695 161.177 206.223V206.124C161.177 204.897 160.842 203.944 160.17 203.265C159.508 202.585 158.501 202.246 157.15 202.246C155.75 202.246 154.652 202.552 153.856 203.165C153.061 203.779 152.502 204.433 152.179 205.129L149.394 204.135C149.892 202.975 150.555 202.072 151.383 201.425C152.22 200.771 153.131 200.315 154.117 200.058C155.112 199.793 156.09 199.661 157.051 199.661C157.664 199.661 158.368 199.735 159.164 199.884C159.967 200.025 160.742 200.319 161.488 200.767C162.242 201.214 162.867 201.889 163.365 202.793C163.862 203.696 164.11 204.906 164.11 206.422V219H161.177V216.415H161.028C160.829 216.829 160.498 217.272 160.034 217.745C159.57 218.217 158.952 218.619 158.182 218.95C157.411 219.282 156.471 219.447 155.36 219.447ZM155.808 216.812C156.968 216.812 157.946 216.585 158.741 216.129C159.545 215.673 160.15 215.085 160.556 214.364C160.97 213.643 161.177 212.885 161.177 212.089V209.405C161.053 209.554 160.779 209.691 160.357 209.815C159.943 209.931 159.462 210.035 158.915 210.126C158.376 210.209 157.85 210.283 157.337 210.349C156.831 210.407 156.421 210.457 156.106 210.499C155.344 210.598 154.631 210.76 153.968 210.983C153.314 211.199 152.783 211.526 152.377 211.965C151.98 212.396 151.781 212.984 151.781 213.73C151.781 214.749 152.158 215.52 152.912 216.042C153.674 216.556 154.639 216.812 155.808 216.812ZM170.997 207.516V219H168.064V199.909H170.898V202.892H171.147C171.594 201.923 172.273 201.144 173.185 200.555C174.096 199.959 175.273 199.661 176.715 199.661C178.007 199.661 179.138 199.926 180.108 200.456C181.077 200.978 181.831 201.773 182.37 202.842C182.908 203.903 183.178 205.245 183.178 206.869V219H180.245V207.068C180.245 205.568 179.855 204.4 179.076 203.563C178.297 202.718 177.228 202.295 175.87 202.295C174.933 202.295 174.096 202.498 173.359 202.904C172.63 203.31 172.054 203.903 171.631 204.682C171.209 205.461 170.997 206.405 170.997 207.516ZM197.719 215.744C197.106 215.744 196.58 215.524 196.141 215.085C195.702 214.646 195.482 214.12 195.482 213.506C195.482 212.893 195.702 212.367 196.141 211.928C196.58 211.489 197.106 211.269 197.719 211.269C198.332 211.269 198.859 211.489 199.298 211.928C199.737 212.367 199.957 212.893 199.957 213.506C199.957 213.912 199.853 214.285 199.646 214.625C199.447 214.965 199.178 215.238 198.838 215.445C198.506 215.644 198.134 215.744 197.719 215.744ZM197.719 202.867C197.106 202.867 196.58 202.648 196.141 202.208C195.702 201.769 195.482 201.243 195.482 200.63C195.482 200.017 195.702 199.491 196.141 199.051C196.58 198.612 197.106 198.393 197.719 198.393C198.332 198.393 198.859 198.612 199.298 199.051C199.737 199.491 199.957 200.017 199.957 200.63C199.957 201.036 199.853 201.409 199.646 201.749C199.447 202.088 199.178 202.362 198.838 202.569C198.506 202.768 198.134 202.867 197.719 202.867ZM221.163 193.545V219H218.081V196.777H217.932L211.717 200.903V197.771L218.081 193.545H221.163ZM235.685 219.348C234.044 219.348 232.582 219.066 231.297 218.503C230.021 217.939 229.006 217.156 228.252 216.154C227.506 215.143 227.1 213.97 227.034 212.636H230.166C230.232 213.457 230.514 214.165 231.011 214.762C231.508 215.35 232.159 215.806 232.963 216.129C233.766 216.452 234.657 216.614 235.635 216.614C236.729 216.614 237.698 216.423 238.543 216.042C239.388 215.661 240.051 215.13 240.532 214.451C241.013 213.772 241.253 212.984 241.253 212.089C241.253 211.153 241.021 210.329 240.557 209.616C240.093 208.895 239.413 208.332 238.518 207.926C237.624 207.52 236.53 207.317 235.237 207.317H233.199V204.582H235.237C236.248 204.582 237.135 204.4 237.897 204.036C238.668 203.671 239.268 203.157 239.699 202.494C240.138 201.831 240.358 201.053 240.358 200.158C240.358 199.296 240.167 198.546 239.786 197.908C239.405 197.27 238.866 196.773 238.17 196.417C237.483 196.06 236.671 195.882 235.734 195.882C234.856 195.882 234.027 196.044 233.249 196.367C232.478 196.682 231.848 197.142 231.359 197.746C230.87 198.343 230.605 199.064 230.564 199.909H227.581C227.631 198.575 228.033 197.407 228.787 196.404C229.541 195.393 230.527 194.606 231.745 194.043C232.971 193.479 234.317 193.197 235.784 193.197C237.358 193.197 238.709 193.516 239.836 194.154C240.963 194.784 241.829 195.617 242.434 196.653C243.038 197.688 243.341 198.807 243.341 200.009C243.341 201.442 242.964 202.664 242.21 203.675C241.464 204.686 240.449 205.386 239.165 205.776V205.974C240.772 206.24 242.028 206.923 242.931 208.025C243.834 209.119 244.285 210.474 244.285 212.089C244.285 213.473 243.908 214.716 243.154 215.818C242.409 216.912 241.39 217.774 240.097 218.403C238.804 219.033 237.334 219.348 235.685 219.348ZM256.271 219.348C254.399 219.348 252.804 218.838 251.486 217.819C250.169 216.792 249.162 215.304 248.466 213.357C247.77 211.402 247.422 209.04 247.422 206.273C247.422 203.522 247.77 201.173 248.466 199.225C249.17 197.27 250.181 195.779 251.499 194.751C252.825 193.715 254.415 193.197 256.271 193.197C258.128 193.197 259.714 193.715 261.032 194.751C262.358 195.779 263.368 197.27 264.064 199.225C264.769 201.173 265.121 203.522 265.121 206.273C265.121 209.04 264.773 211.402 264.077 213.357C263.381 215.304 262.374 216.792 261.057 217.819C259.739 218.838 258.144 219.348 256.271 219.348ZM256.271 216.614C258.128 216.614 259.569 215.719 260.597 213.929C261.624 212.139 262.138 209.587 262.138 206.273C262.138 204.069 261.902 202.192 261.43 200.642C260.965 199.093 260.294 197.912 259.416 197.1C258.546 196.288 257.498 195.882 256.271 195.882C254.432 195.882 252.994 196.789 251.959 198.604C250.923 200.41 250.405 202.967 250.405 206.273C250.405 208.477 250.637 210.349 251.101 211.891C251.565 213.432 252.232 214.604 253.102 215.408C253.98 216.212 255.037 216.614 256.271 216.614ZM276.746 219.348C274.874 219.348 273.279 218.838 271.961 217.819C270.644 216.792 269.637 215.304 268.941 213.357C268.245 211.402 267.897 209.04 267.897 206.273C267.897 203.522 268.245 201.173 268.941 199.225C269.645 197.27 270.656 195.779 271.974 194.751C273.3 193.715 274.89 193.197 276.746 193.197C278.603 193.197 280.189 193.715 281.507 194.751C282.833 195.779 283.843 197.27 284.539 199.225C285.244 201.173 285.596 203.522 285.596 206.273C285.596 209.04 285.248 211.402 284.552 213.357C283.856 215.304 282.849 216.792 281.532 217.819C280.214 218.838 278.619 219.348 276.746 219.348ZM276.746 216.614C278.603 216.614 280.044 215.719 281.072 213.929C282.099 212.139 282.613 209.587 282.613 206.273C282.613 204.069 282.377 202.192 281.905 200.642C281.441 199.093 280.769 197.912 279.891 197.1C279.021 196.288 277.973 195.882 276.746 195.882C274.907 195.882 273.469 196.789 272.434 198.604C271.398 200.41 270.88 202.967 270.88 206.273C270.88 208.477 271.112 210.349 271.576 211.891C272.04 213.432 272.707 214.604 273.577 215.408C274.455 216.212 275.512 216.614 276.746 216.614ZM27.0824 283V257.545H35.6832C37.6719 257.545 39.3042 257.885 40.5803 258.565C41.8563 259.236 42.8009 260.16 43.4141 261.336C44.0272 262.513 44.3338 263.851 44.3338 265.351C44.3338 266.851 44.0272 268.181 43.4141 269.341C42.8009 270.501 41.8604 271.412 40.5927 272.075C39.3249 272.73 37.705 273.057 35.733 273.057H28.7727V270.273H35.6335C36.9924 270.273 38.0862 270.074 38.9148 269.676C39.7517 269.278 40.3565 268.715 40.7294 267.986C41.1106 267.248 41.3011 266.37 41.3011 265.351C41.3011 264.332 41.1106 263.441 40.7294 262.679C40.3482 261.916 39.7392 261.328 38.9023 260.914C38.0655 260.491 36.9593 260.28 35.5838 260.28H30.1648V283H27.0824ZM39.0639 271.565L45.3281 283H41.7486L35.5838 271.565H39.0639ZM53.2903 283.447C52.0805 283.447 50.9826 283.22 49.9966 282.764C49.0105 282.3 48.2275 281.633 47.6475 280.763C47.0675 279.884 46.7775 278.824 46.7775 277.581C46.7775 276.487 46.9929 275.601 47.4238 274.921C47.8546 274.233 48.4305 273.695 49.1514 273.305C49.8723 272.916 50.6677 272.626 51.5378 272.435C52.4161 272.237 53.2985 272.079 54.1851 271.963C55.3452 271.814 56.2856 271.702 57.0065 271.627C57.7357 271.545 58.266 271.408 58.5974 271.217C58.9372 271.027 59.107 270.695 59.107 270.223V270.124C59.107 268.897 58.7714 267.944 58.1003 267.265C57.4374 266.585 56.4306 266.246 55.08 266.246C53.6797 266.246 52.5818 266.552 51.7863 267.165C50.9909 267.779 50.4316 268.433 50.1084 269.129L47.3243 268.135C47.8215 266.975 48.4844 266.072 49.313 265.425C50.1499 264.771 51.0613 264.315 52.0474 264.058C53.0417 263.793 54.0194 263.661 54.9806 263.661C55.5938 263.661 56.2981 263.735 57.0935 263.884C57.8973 264.025 58.672 264.319 59.4177 264.767C60.1718 265.214 60.7974 265.889 61.2945 266.793C61.7917 267.696 62.0403 268.906 62.0403 270.422V283H59.107V280.415H58.9579C58.759 280.829 58.4276 281.272 57.9635 281.745C57.4995 282.217 56.8822 282.619 56.1116 282.95C55.341 283.282 54.4006 283.447 53.2903 283.447ZM53.7377 280.812C54.8977 280.812 55.8755 280.585 56.6709 280.129C57.4747 279.673 58.0796 279.085 58.4856 278.364C58.8999 277.643 59.107 276.885 59.107 276.089V273.405C58.9827 273.554 58.7093 273.691 58.2867 273.815C57.8724 273.931 57.3918 274.035 56.8449 274.126C56.3064 274.209 55.7802 274.283 55.2665 274.349C54.761 274.407 54.3509 274.457 54.036 274.499C53.2737 274.598 52.5611 274.76 51.8982 274.983C51.2436 275.199 50.7133 275.526 50.3073 275.965C49.9096 276.396 49.7107 276.984 49.7107 277.73C49.7107 278.749 50.0877 279.52 50.8417 280.042C51.6041 280.556 52.5694 280.812 53.7377 280.812ZM79.5168 268.185L76.8818 268.93C76.7161 268.491 76.4717 268.065 76.1485 267.65C75.8336 267.228 75.4028 266.88 74.8559 266.606C74.309 266.333 73.6089 266.196 72.7554 266.196C71.5871 266.196 70.6135 266.465 69.8346 267.004C69.064 267.534 68.6787 268.21 68.6787 269.03C68.6787 269.759 68.9438 270.335 69.4741 270.757C70.0045 271.18 70.8331 271.532 71.9599 271.814L74.7938 272.51C76.5007 272.924 77.7726 273.558 78.6094 274.412C79.4463 275.257 79.8648 276.346 79.8648 277.68C79.8648 278.774 79.5499 279.752 78.9202 280.614C78.2987 281.475 77.4287 282.155 76.3101 282.652C75.1915 283.149 73.8906 283.398 72.4074 283.398C70.4602 283.398 68.8486 282.975 67.5725 282.13C66.2965 281.285 65.4886 280.05 65.1489 278.426L67.933 277.73C68.1981 278.758 68.6994 279.528 69.4369 280.042C70.1826 280.556 71.1562 280.812 72.3577 280.812C73.7249 280.812 74.8103 280.522 75.6141 279.942C76.4261 279.354 76.8321 278.65 76.8321 277.83C76.8321 277.167 76.6001 276.612 76.1361 276.164C75.6721 275.708 74.9595 275.369 73.9983 275.145L70.8165 274.399C69.0681 273.985 67.7838 273.343 66.9635 272.473C66.1515 271.594 65.7455 270.496 65.7455 269.179C65.7455 268.102 66.0479 267.149 66.6528 266.32C67.2659 265.492 68.0987 264.841 69.151 264.369C70.2116 263.897 71.4131 263.661 72.7554 263.661C74.6446 263.661 76.1278 264.075 77.205 264.903C78.2904 265.732 79.061 266.826 79.5168 268.185ZM88.4981 283.447C87.2883 283.447 86.1904 283.22 85.2044 282.764C84.2184 282.3 83.4353 281.633 82.8553 280.763C82.2753 279.884 81.9853 278.824 81.9853 277.581C81.9853 276.487 82.2007 275.601 82.6316 274.921C83.0625 274.233 83.6383 273.695 84.3592 273.305C85.0801 272.916 85.8755 272.626 86.7456 272.435C87.6239 272.237 88.5064 272.079 89.393 271.963C90.553 271.814 91.4934 271.702 92.2143 271.627C92.9435 271.545 93.4738 271.408 93.8052 271.217C94.145 271.027 94.3148 270.695 94.3148 270.223V270.124C94.3148 268.897 93.9792 267.944 93.3081 267.265C92.6452 266.585 91.6385 266.246 90.2878 266.246C88.8875 266.246 87.7896 266.552 86.9942 267.165C86.1987 267.779 85.6394 268.433 85.3162 269.129L82.5322 268.135C83.0293 266.975 83.6922 266.072 84.5208 265.425C85.3577 264.771 86.2691 264.315 87.2552 264.058C88.2495 263.793 89.2272 263.661 90.1884 263.661C90.8016 263.661 91.5059 263.735 92.3013 263.884C93.1051 264.025 93.8798 264.319 94.6255 264.767C95.3796 265.214 96.0052 265.889 96.5023 266.793C96.9995 267.696 97.2481 268.906 97.2481 270.422V283H94.3148V280.415H94.1657C93.9668 280.829 93.6354 281.272 93.1714 281.745C92.7073 282.217 92.09 282.619 91.3194 282.95C90.5488 283.282 89.6084 283.447 88.4981 283.447ZM88.9455 280.812C90.1055 280.812 91.0833 280.585 91.8787 280.129C92.6825 279.673 93.2874 279.085 93.6934 278.364C94.1077 277.643 94.3148 276.885 94.3148 276.089V273.405C94.1905 273.554 93.9171 273.691 93.4945 273.815C93.0802 273.931 92.5996 274.035 92.0528 274.126C91.5142 274.209 90.988 274.283 90.4743 274.349C89.9688 274.407 89.5587 274.457 89.2438 274.499C88.4815 274.598 87.7689 274.76 87.106 274.983C86.4514 275.199 85.9211 275.526 85.5151 275.965C85.1174 276.396 84.9185 276.984 84.9185 277.73C84.9185 278.749 85.2955 279.52 86.0496 280.042C86.8119 280.556 87.7772 280.812 88.9455 280.812ZM196.221 279.744C195.608 279.744 195.082 279.524 194.642 279.085C194.203 278.646 193.984 278.12 193.984 277.506C193.984 276.893 194.203 276.367 194.642 275.928C195.082 275.489 195.608 275.269 196.221 275.269C196.834 275.269 197.36 275.489 197.799 275.928C198.239 276.367 198.458 276.893 198.458 277.506C198.458 277.912 198.355 278.285 198.147 278.625C197.949 278.965 197.679 279.238 197.339 279.445C197.008 279.644 196.635 279.744 196.221 279.744ZM196.221 266.867C195.608 266.867 195.082 266.648 194.642 266.208C194.203 265.769 193.984 265.243 193.984 264.63C193.984 264.017 194.203 263.491 194.642 263.051C195.082 262.612 195.608 262.393 196.221 262.393C196.834 262.393 197.36 262.612 197.799 263.051C198.239 263.491 198.458 264.017 198.458 264.63C198.458 265.036 198.355 265.409 198.147 265.749C197.949 266.088 197.679 266.362 197.339 266.569C197.008 266.768 196.635 266.867 196.221 266.867ZM220.908 257.545H223.99V275.741C223.99 277.366 223.692 278.745 223.095 279.88C222.498 281.016 221.657 281.877 220.572 282.466C219.487 283.054 218.206 283.348 216.731 283.348C215.339 283.348 214.101 283.095 213.015 282.59C211.93 282.076 211.076 281.347 210.455 280.402C209.833 279.458 209.523 278.335 209.523 277.034H212.555C212.555 277.755 212.733 278.385 213.09 278.923C213.454 279.454 213.951 279.868 214.581 280.166C215.211 280.464 215.928 280.614 216.731 280.614C217.618 280.614 218.372 280.427 218.993 280.054C219.615 279.681 220.087 279.135 220.41 278.414C220.742 277.685 220.908 276.794 220.908 275.741V257.545ZM236.374 283.398C234.534 283.398 232.947 282.992 231.613 282.18C230.288 281.359 229.264 280.216 228.543 278.749C227.831 277.274 227.475 275.559 227.475 273.604C227.475 271.648 227.831 269.925 228.543 268.433C229.264 266.933 230.267 265.765 231.551 264.928C232.844 264.083 234.352 263.661 236.075 263.661C237.07 263.661 238.052 263.826 239.021 264.158C239.991 264.489 240.873 265.028 241.668 265.773C242.464 266.511 243.098 267.489 243.57 268.707C244.042 269.925 244.279 271.424 244.279 273.206V274.449H229.563V271.913H241.296C241.296 270.836 241.08 269.875 240.649 269.03C240.227 268.185 239.622 267.518 238.835 267.029C238.056 266.54 237.136 266.295 236.075 266.295C234.907 266.295 233.896 266.585 233.043 267.165C232.198 267.737 231.547 268.483 231.091 269.403C230.636 270.322 230.408 271.308 230.408 272.361V274.051C230.408 275.493 230.656 276.715 231.154 277.718C231.659 278.712 232.359 279.47 233.254 279.992C234.149 280.506 235.189 280.763 236.374 280.763C237.144 280.763 237.84 280.655 238.462 280.44C239.091 280.216 239.634 279.884 240.09 279.445C240.546 278.998 240.898 278.443 241.146 277.78L243.98 278.575C243.682 279.536 243.181 280.382 242.476 281.111C241.772 281.832 240.902 282.395 239.866 282.801C238.83 283.199 237.666 283.398 236.374 283.398ZM247.341 283V263.909H250.174V266.793H250.373C250.721 265.848 251.351 265.082 252.262 264.493C253.174 263.905 254.201 263.611 255.345 263.611C255.56 263.611 255.83 263.615 256.153 263.623C256.476 263.632 256.72 263.644 256.886 263.661V266.643C256.787 266.619 256.559 266.581 256.202 266.532C255.854 266.474 255.486 266.445 255.096 266.445C254.168 266.445 253.34 266.639 252.61 267.029C251.89 267.41 251.318 267.94 250.895 268.62C250.481 269.291 250.274 270.057 250.274 270.919V283H247.341ZM270.994 275.195V263.909H273.927V283H270.994V279.768H270.795C270.348 280.738 269.652 281.562 268.707 282.242C267.763 282.913 266.57 283.249 265.128 283.249C263.935 283.249 262.874 282.988 261.946 282.466C261.018 281.935 260.289 281.14 259.758 280.079C259.228 279.01 258.963 277.664 258.963 276.04V263.909H261.896V275.841C261.896 277.233 262.286 278.343 263.065 279.172C263.852 280 264.854 280.415 266.072 280.415C266.802 280.415 267.543 280.228 268.297 279.855C269.059 279.483 269.697 278.911 270.211 278.14C270.733 277.37 270.994 276.388 270.994 275.195ZM280.634 276.04L280.585 272.411H281.181L289.533 263.909H293.163L284.264 272.908H284.015L280.634 276.04ZM277.9 283V257.545H280.833V283H277.9ZM290.031 283L282.573 273.554L284.661 271.516L293.759 283H290.031ZM299.913 279.52L299.714 280.862C299.573 281.807 299.358 282.818 299.068 283.895C298.786 284.972 298.492 285.987 298.185 286.94C297.879 287.893 297.626 288.651 297.427 289.214H295.19C295.298 288.684 295.439 287.984 295.613 287.114C295.787 286.244 295.961 285.27 296.135 284.193C296.317 283.124 296.466 282.031 296.582 280.912L296.731 279.52H299.913ZM330.19 265.5C329.916 264.663 329.556 263.913 329.108 263.25C328.669 262.579 328.143 262.007 327.53 261.535C326.925 261.063 326.237 260.702 325.467 260.454C324.696 260.205 323.851 260.081 322.931 260.081C321.423 260.081 320.052 260.47 318.817 261.249C317.582 262.028 316.601 263.176 315.871 264.692C315.142 266.208 314.778 268.069 314.778 270.273C314.778 272.477 315.146 274.337 315.884 275.853C316.621 277.37 317.62 278.517 318.879 279.296C320.139 280.075 321.556 280.464 323.13 280.464C324.588 280.464 325.873 280.154 326.983 279.532C328.102 278.903 328.972 278.016 329.593 276.873C330.223 275.721 330.538 274.366 330.538 272.808L331.482 273.007H323.826V270.273H333.521V273.007C333.521 275.103 333.073 276.926 332.178 278.476C331.292 280.025 330.065 281.227 328.499 282.08C326.941 282.925 325.152 283.348 323.13 283.348C320.876 283.348 318.896 282.818 317.189 281.757C315.49 280.696 314.164 279.188 313.212 277.233C312.267 275.277 311.795 272.957 311.795 270.273C311.795 268.259 312.064 266.449 312.603 264.841C313.149 263.225 313.92 261.85 314.914 260.715C315.909 259.58 317.085 258.71 318.444 258.105C319.803 257.5 321.299 257.197 322.931 257.197C324.273 257.197 325.525 257.4 326.685 257.806C327.853 258.204 328.893 258.772 329.804 259.509C330.724 260.238 331.49 261.113 332.104 262.132C332.717 263.143 333.139 264.265 333.371 265.5H330.19ZM349.033 275.195V263.909H351.967V283H349.033V279.768H348.834C348.387 280.738 347.691 281.562 346.746 282.242C345.802 282.913 344.609 283.249 343.167 283.249C341.974 283.249 340.913 282.988 339.985 282.466C339.057 281.935 338.328 281.14 337.797 280.079C337.267 279.01 337.002 277.664 337.002 276.04V263.909H339.935V275.841C339.935 277.233 340.325 278.343 341.104 279.172C341.891 280 342.893 280.415 344.111 280.415C344.841 280.415 345.582 280.228 346.336 279.855C347.099 279.483 347.737 278.911 348.25 278.14C348.772 277.37 349.033 276.388 349.033 275.195ZM358.872 257.545V283H355.939V257.545H358.872ZM368.463 283.447C367.253 283.447 366.155 283.22 365.169 282.764C364.183 282.3 363.4 281.633 362.82 280.763C362.24 279.884 361.95 278.824 361.95 277.581C361.95 276.487 362.165 275.601 362.596 274.921C363.027 274.233 363.603 273.695 364.324 273.305C365.045 272.916 365.84 272.626 366.71 272.435C367.588 272.237 368.471 272.079 369.357 271.963C370.517 271.814 371.458 271.702 372.179 271.627C372.908 271.545 373.438 271.408 373.77 271.217C374.109 271.027 374.279 270.695 374.279 270.223V270.124C374.279 268.897 373.944 267.944 373.273 267.265C372.61 266.585 371.603 266.246 370.252 266.246C368.852 266.246 367.754 266.552 366.959 267.165C366.163 267.779 365.604 268.433 365.281 269.129L362.497 268.135C362.994 266.975 363.657 266.072 364.485 265.425C365.322 264.771 366.234 264.315 367.22 264.058C368.214 263.793 369.192 263.661 370.153 263.661C370.766 263.661 371.47 263.735 372.266 263.884C373.07 264.025 373.844 264.319 374.59 264.767C375.344 265.214 375.97 265.889 376.467 266.793C376.964 267.696 377.213 268.906 377.213 270.422V283H374.279V280.415H374.13C373.931 280.829 373.6 281.272 373.136 281.745C372.672 282.217 372.055 282.619 371.284 282.95C370.513 283.282 369.573 283.447 368.463 283.447ZM368.91 280.812C370.07 280.812 371.048 280.585 371.843 280.129C372.647 279.673 373.252 279.085 373.658 278.364C374.072 277.643 374.279 276.885 374.279 276.089V273.405C374.155 273.554 373.882 273.691 373.459 273.815C373.045 273.931 372.564 274.035 372.017 274.126C371.479 274.209 370.952 274.283 370.439 274.349C369.933 274.407 369.523 274.457 369.208 274.499C368.446 274.598 367.733 274.76 367.07 274.983C366.416 275.199 365.886 275.526 365.48 275.965C365.082 276.396 364.883 276.984 364.883 277.73C364.883 278.749 365.26 279.52 366.014 280.042C366.776 280.556 367.742 280.812 368.91 280.812ZM405.263 283.398C403.672 283.398 402.267 282.996 401.049 282.192C399.831 281.38 398.878 280.237 398.191 278.762C397.503 277.279 397.159 275.526 397.159 273.504C397.159 271.499 397.503 269.759 398.191 268.284C398.878 266.809 399.835 265.67 401.062 264.866C402.288 264.062 403.705 263.661 405.312 263.661C406.555 263.661 407.537 263.868 408.258 264.282C408.987 264.688 409.542 265.152 409.923 265.674C410.313 266.188 410.615 266.61 410.831 266.942H411.079V257.545H414.013V283H411.179V280.067H410.831C410.615 280.415 410.309 280.854 409.911 281.384C409.513 281.906 408.946 282.374 408.208 282.789C407.471 283.195 406.489 283.398 405.263 283.398ZM405.66 280.763C406.837 280.763 407.831 280.456 408.643 279.843C409.455 279.222 410.073 278.364 410.495 277.27C410.918 276.168 411.129 274.896 411.129 273.455C411.129 272.029 410.922 270.782 410.508 269.713C410.093 268.636 409.48 267.799 408.668 267.203C407.856 266.598 406.854 266.295 405.66 266.295C404.417 266.295 403.382 266.614 402.553 267.252C401.733 267.882 401.115 268.74 400.701 269.825C400.295 270.902 400.092 272.112 400.092 273.455C400.092 274.813 400.299 276.048 400.714 277.158C401.136 278.26 401.758 279.139 402.578 279.793C403.407 280.44 404.434 280.763 405.66 280.763ZM424.01 283.447C422.8 283.447 421.702 283.22 420.716 282.764C419.73 282.3 418.947 281.633 418.367 280.763C417.787 279.884 417.497 278.824 417.497 277.581C417.497 276.487 417.713 275.601 418.144 274.921C418.574 274.233 419.15 273.695 419.871 273.305C420.592 272.916 421.387 272.626 422.257 272.435C423.136 272.237 424.018 272.079 424.905 271.963C426.065 271.814 427.005 271.702 427.726 271.627C428.455 271.545 428.986 271.408 429.317 271.217C429.657 271.027 429.827 270.695 429.827 270.223V270.124C429.827 268.897 429.491 267.944 428.82 267.265C428.157 266.585 427.15 266.246 425.8 266.246C424.399 266.246 423.302 266.552 422.506 267.165C421.711 267.779 421.151 268.433 420.828 269.129L418.044 268.135C418.541 266.975 419.204 266.072 420.033 265.425C420.87 264.771 421.781 264.315 422.767 264.058C423.761 263.793 424.739 263.661 425.7 263.661C426.313 263.661 427.018 263.735 427.813 263.884C428.617 264.025 429.392 264.319 430.137 264.767C430.891 265.214 431.517 265.889 432.014 266.793C432.511 267.696 432.76 268.906 432.76 270.422V283H429.827V280.415H429.678C429.479 280.829 429.147 281.272 428.683 281.745C428.219 282.217 427.602 282.619 426.831 282.95C426.061 283.282 425.12 283.447 424.01 283.447ZM424.457 280.812C425.617 280.812 426.595 280.585 427.391 280.129C428.194 279.673 428.799 279.085 429.205 278.364C429.62 277.643 429.827 276.885 429.827 276.089V273.405C429.702 273.554 429.429 273.691 429.006 273.815C428.592 273.931 428.112 274.035 427.565 274.126C427.026 274.209 426.5 274.283 425.986 274.349C425.481 274.407 425.071 274.457 424.756 274.499C423.993 274.598 423.281 274.76 422.618 274.983C421.963 275.199 421.433 275.526 421.027 275.965C420.629 276.396 420.43 276.984 420.43 277.73C420.43 278.749 420.807 279.52 421.561 280.042C422.324 280.556 423.289 280.812 424.457 280.812ZM439.647 271.516V283H436.714V263.909H439.548V266.892H439.796C440.244 265.923 440.923 265.144 441.835 264.555C442.746 263.959 443.923 263.661 445.364 263.661C446.657 263.661 447.788 263.926 448.757 264.456C449.727 264.978 450.481 265.773 451.02 266.842C451.558 267.903 451.827 269.245 451.827 270.869V283H448.894V271.068C448.894 269.568 448.505 268.4 447.726 267.563C446.947 266.718 445.878 266.295 444.519 266.295C443.583 266.295 442.746 266.498 442.009 266.904C441.279 267.31 440.703 267.903 440.281 268.682C439.858 269.461 439.647 270.405 439.647 271.516ZM465.673 283H462.441L471.788 257.545H474.97L484.316 283H481.085L473.478 261.572H473.279L465.673 283ZM466.866 273.057H479.892V275.791H466.866V273.057ZM489.417 271.516V283H486.483V263.909H489.317V266.892H489.566C490.013 265.923 490.693 265.144 491.604 264.555C492.516 263.959 493.692 263.661 495.134 263.661C496.427 263.661 497.558 263.926 498.527 264.456C499.497 264.978 500.251 265.773 500.789 266.842C501.328 267.903 501.597 269.245 501.597 270.869V283H498.664V271.068C498.664 269.568 498.274 268.4 497.496 267.563C496.717 266.718 495.648 266.295 494.289 266.295C493.353 266.295 492.516 266.498 491.778 266.904C491.049 267.31 490.473 267.903 490.051 268.682C489.628 269.461 489.417 270.405 489.417 271.516ZM513.263 290.557C511.846 290.557 510.628 290.375 509.609 290.01C508.59 289.654 507.74 289.181 507.061 288.593C506.39 288.013 505.855 287.392 505.458 286.729L507.794 285.088C508.059 285.436 508.395 285.834 508.801 286.281C509.207 286.737 509.762 287.131 510.467 287.462C511.179 287.802 512.111 287.972 513.263 287.972C514.804 287.972 516.076 287.599 517.079 286.853C518.081 286.107 518.583 284.939 518.583 283.348V279.47H518.334C518.119 279.818 517.812 280.249 517.414 280.763C517.025 281.268 516.461 281.72 515.724 282.118C514.995 282.507 514.009 282.702 512.766 282.702C511.225 282.702 509.841 282.337 508.615 281.608C507.397 280.879 506.431 279.818 505.719 278.426C505.014 277.034 504.662 275.344 504.662 273.355C504.662 271.4 505.006 269.697 505.694 268.247C506.382 266.788 507.339 265.662 508.565 264.866C509.791 264.062 511.208 263.661 512.816 263.661C514.059 263.661 515.045 263.868 515.774 264.282C516.511 264.688 517.075 265.152 517.464 265.674C517.862 266.188 518.168 266.61 518.384 266.942H518.682V263.909H521.516V283.547C521.516 285.188 521.143 286.522 520.397 287.549C519.66 288.585 518.666 289.343 517.414 289.824C516.171 290.312 514.788 290.557 513.263 290.557ZM513.164 280.067C514.34 280.067 515.335 279.797 516.147 279.259C516.959 278.72 517.576 277.946 517.999 276.935C518.421 275.924 518.632 274.714 518.632 273.305C518.632 271.93 518.425 270.716 518.011 269.664C517.597 268.611 516.983 267.787 516.171 267.19C515.359 266.594 514.357 266.295 513.164 266.295C511.921 266.295 510.885 266.61 510.056 267.24C509.236 267.87 508.619 268.715 508.204 269.776C507.798 270.836 507.595 272.013 507.595 273.305C507.595 274.631 507.803 275.804 508.217 276.823C508.64 277.834 509.261 278.629 510.081 279.209C510.91 279.781 511.937 280.067 513.164 280.067ZM533.191 290.557C531.774 290.557 530.556 290.375 529.537 290.01C528.518 289.654 527.669 289.181 526.989 288.593C526.318 288.013 525.784 287.392 525.386 286.729L527.722 285.088C527.988 285.436 528.323 285.834 528.729 286.281C529.135 286.737 529.69 287.131 530.395 287.462C531.107 287.802 532.039 287.972 533.191 287.972C534.732 287.972 536.004 287.599 537.007 286.853C538.01 286.107 538.511 284.939 538.511 283.348V279.47H538.262C538.047 279.818 537.74 280.249 537.343 280.763C536.953 281.268 536.39 281.72 535.652 282.118C534.923 282.507 533.937 282.702 532.694 282.702C531.153 282.702 529.769 282.337 528.543 281.608C527.325 280.879 526.359 279.818 525.647 278.426C524.943 277.034 524.59 275.344 524.59 273.355C524.59 271.4 524.934 269.697 525.622 268.247C526.31 266.788 527.267 265.662 528.493 264.866C529.719 264.062 531.136 263.661 532.744 263.661C533.987 263.661 534.973 263.868 535.702 264.282C536.439 264.688 537.003 265.152 537.392 265.674C537.79 266.188 538.097 266.61 538.312 266.942H538.61V263.909H541.444V283.547C541.444 285.188 541.071 286.522 540.325 287.549C539.588 288.585 538.594 289.343 537.343 289.824C536.1 290.312 534.716 290.557 533.191 290.557ZM533.092 280.067C534.268 280.067 535.263 279.797 536.075 279.259C536.887 278.72 537.504 277.946 537.927 276.935C538.349 275.924 538.561 274.714 538.561 273.305C538.561 271.93 538.353 270.716 537.939 269.664C537.525 268.611 536.912 267.787 536.1 267.19C535.288 266.594 534.285 266.295 533.092 266.295C531.849 266.295 530.813 266.61 529.985 267.24C529.164 267.87 528.547 268.715 528.133 269.776C527.727 270.836 527.524 272.013 527.524 273.305C527.524 274.631 527.731 275.804 528.145 276.823C528.568 277.834 529.189 278.629 530.009 279.209C530.838 279.781 531.865 280.067 533.092 280.067ZM557.445 275.195V263.909H560.378V283H557.445V279.768H557.246C556.798 280.738 556.102 281.562 555.158 282.242C554.213 282.913 553.02 283.249 551.578 283.249C550.385 283.249 549.324 282.988 548.396 282.466C547.468 281.935 546.739 281.14 546.209 280.079C545.679 279.01 545.413 277.664 545.413 276.04V263.909H548.347V275.841C548.347 277.233 548.736 278.343 549.515 279.172C550.302 280 551.305 280.415 552.523 280.415C553.252 280.415 553.993 280.228 554.748 279.855C555.51 279.483 556.148 278.911 556.662 278.14C557.184 277.37 557.445 276.388 557.445 275.195ZM564.35 283V263.909H567.184V266.793H567.383C567.731 265.848 568.361 265.082 569.272 264.493C570.184 263.905 571.211 263.611 572.355 263.611C572.57 263.611 572.839 263.615 573.162 263.623C573.486 263.632 573.73 263.644 573.896 263.661V266.643C573.796 266.619 573.568 266.581 573.212 266.532C572.864 266.474 572.495 266.445 572.106 266.445C571.178 266.445 570.349 266.639 569.62 267.029C568.899 267.41 568.328 267.94 567.905 268.62C567.491 269.291 567.284 270.057 567.284 270.919V283H564.35ZM27.0824 347V321.545H35.6832C37.6802 321.545 39.3125 321.906 40.5803 322.627C41.8563 323.339 42.8009 324.305 43.4141 325.523C44.0272 326.741 44.3338 328.1 44.3338 329.599C44.3338 331.099 44.0272 332.462 43.4141 333.689C42.8092 334.915 41.8729 335.893 40.6051 336.622C39.3374 337.343 37.7133 337.703 35.733 337.703H29.5682V334.969H35.6335C37.0007 334.969 38.0986 334.733 38.9272 334.26C39.7558 333.788 40.3565 333.15 40.7294 332.346C41.1106 331.534 41.3011 330.619 41.3011 329.599C41.3011 328.58 41.1106 327.669 40.7294 326.865C40.3565 326.061 39.7517 325.432 38.9148 324.976C38.0779 324.512 36.9676 324.28 35.5838 324.28H30.1648V347H27.0824ZM47.5015 347V327.909H50.3353V330.793H50.5341C50.8821 329.848 51.5119 329.082 52.4233 328.493C53.3348 327.905 54.3623 327.611 55.5057 327.611C55.7212 327.611 55.9904 327.615 56.3136 327.623C56.6368 327.632 56.8812 327.644 57.0469 327.661V330.643C56.9475 330.619 56.7196 330.581 56.3633 330.532C56.0153 330.474 55.6466 330.445 55.2571 330.445C54.3291 330.445 53.5005 330.639 52.7713 331.029C52.0505 331.41 51.4787 331.94 51.0561 332.62C50.6418 333.291 50.4347 334.057 50.4347 334.919V347H47.5015ZM66.2985 347.398C64.5751 347.398 63.0629 346.988 61.762 346.167C60.4694 345.347 59.4585 344.199 58.7293 342.724C58.0084 341.25 57.648 339.526 57.648 337.554C57.648 335.565 58.0084 333.829 58.7293 332.346C59.4585 330.863 60.4694 329.711 61.762 328.891C63.0629 328.071 64.5751 327.661 66.2985 327.661C68.022 327.661 69.5301 328.071 70.8227 328.891C72.1236 329.711 73.1345 330.863 73.8554 332.346C74.5845 333.829 74.9491 335.565 74.9491 337.554C74.9491 339.526 74.5845 341.25 73.8554 342.724C73.1345 344.199 72.1236 345.347 70.8227 346.167C69.5301 346.988 68.022 347.398 66.2985 347.398ZM66.2985 344.763C67.6077 344.763 68.6849 344.427 69.5301 343.756C70.3752 343.085 71.0008 342.202 71.4069 341.109C71.8129 340.015 72.0159 338.83 72.0159 337.554C72.0159 336.278 71.8129 335.089 71.4069 333.987C71.0008 332.885 70.3752 331.994 69.5301 331.315C68.6849 330.635 67.6077 330.295 66.2985 330.295C64.9894 330.295 63.9122 330.635 63.067 331.315C62.2218 331.994 61.5962 332.885 61.1902 333.987C60.7842 335.089 60.5812 336.278 60.5812 337.554C60.5812 338.83 60.7842 340.015 61.1902 341.109C61.5962 342.202 62.2218 343.085 63.067 343.756C63.9122 344.427 64.9894 344.763 66.2985 344.763ZM91.5494 332.185L88.9144 332.93C88.7487 332.491 88.5043 332.065 88.1811 331.65C87.8663 331.228 87.4354 330.88 86.8885 330.606C86.3416 330.333 85.6415 330.196 84.788 330.196C83.6197 330.196 82.6461 330.465 81.8672 331.004C81.0966 331.534 80.7113 332.21 80.7113 333.03C80.7113 333.759 80.9765 334.335 81.5068 334.757C82.0371 335.18 82.8657 335.532 83.9926 335.814L86.8264 336.51C88.5333 336.924 89.8052 337.558 90.6421 338.412C91.4789 339.257 91.8974 340.346 91.8974 341.68C91.8974 342.774 91.5825 343.752 90.9528 344.614C90.3313 345.475 89.4613 346.155 88.3427 346.652C87.2241 347.149 85.9232 347.398 84.44 347.398C82.4928 347.398 80.8812 346.975 79.6051 346.13C78.3291 345.285 77.5212 344.05 77.1815 342.426L79.9656 341.73C80.2307 342.758 80.732 343.528 81.4695 344.042C82.2152 344.556 83.1888 344.812 84.3903 344.812C85.7575 344.812 86.8429 344.522 87.6467 343.942C88.4587 343.354 88.8647 342.65 88.8647 341.83C88.8647 341.167 88.6327 340.612 88.1687 340.164C87.7047 339.708 86.9921 339.369 86.0309 339.145L82.8491 338.399C81.1008 337.985 79.8164 337.343 78.9961 336.473C78.1841 335.594 77.7781 334.496 77.7781 333.179C77.7781 332.102 78.0805 331.149 78.6854 330.32C79.2985 329.492 80.1313 328.841 81.1836 328.369C82.2442 327.897 83.4457 327.661 84.788 327.661C86.6772 327.661 88.1604 328.075 89.2376 328.903C90.3231 329.732 91.0936 330.826 91.5494 332.185ZM102.917 347.398C101.078 347.398 99.4908 346.992 98.1567 346.18C96.831 345.359 95.8077 344.216 95.0868 342.749C94.3742 341.274 94.0179 339.559 94.0179 337.604C94.0179 335.648 94.3742 333.925 95.0868 332.433C95.8077 330.933 96.8103 329.765 98.0946 328.928C99.3872 328.083 100.895 327.661 102.619 327.661C103.613 327.661 104.595 327.826 105.564 328.158C106.534 328.489 107.416 329.028 108.212 329.773C109.007 330.511 109.641 331.489 110.113 332.707C110.586 333.925 110.822 335.424 110.822 337.206V338.449H96.106V335.913H107.839C107.839 334.836 107.623 333.875 107.193 333.03C106.77 332.185 106.165 331.518 105.378 331.029C104.599 330.54 103.679 330.295 102.619 330.295C101.45 330.295 100.44 330.585 99.5861 331.165C98.7409 331.737 98.0905 332.483 97.6347 333.403C97.179 334.322 96.9511 335.308 96.9511 336.361V338.051C96.9511 339.493 97.1997 340.715 97.6969 341.718C98.2023 342.712 98.9025 343.47 99.7974 343.992C100.692 344.506 101.732 344.763 102.917 344.763C103.688 344.763 104.384 344.655 105.005 344.44C105.635 344.216 106.178 343.884 106.633 343.445C107.089 342.998 107.441 342.443 107.69 341.78L110.524 342.575C110.225 343.536 109.724 344.382 109.02 345.111C108.315 345.832 107.445 346.395 106.41 346.801C105.374 347.199 104.21 347.398 102.917 347.398ZM127.407 332.185L124.772 332.93C124.606 332.491 124.362 332.065 124.038 331.65C123.723 331.228 123.293 330.88 122.746 330.606C122.199 330.333 121.499 330.196 120.645 330.196C119.477 330.196 118.503 330.465 117.724 331.004C116.954 331.534 116.569 332.21 116.569 333.03C116.569 333.759 116.834 334.335 117.364 334.757C117.894 335.18 118.723 335.532 119.85 335.814L122.684 336.51C124.391 336.924 125.662 337.558 126.499 338.412C127.336 339.257 127.755 340.346 127.755 341.68C127.755 342.774 127.44 343.752 126.81 344.614C126.189 345.475 125.319 346.155 124.2 346.652C123.081 347.149 121.78 347.398 120.297 347.398C118.35 347.398 116.738 346.975 115.462 346.13C114.186 345.285 113.378 344.05 113.039 342.426L115.823 341.73C116.088 342.758 116.589 343.528 117.327 344.042C118.072 344.556 119.046 344.812 120.248 344.812C121.615 344.812 122.7 344.522 123.504 343.942C124.316 343.354 124.722 342.65 124.722 341.83C124.722 341.167 124.49 340.612 124.026 340.164C123.562 339.708 122.849 339.369 121.888 339.145L118.706 338.399C116.958 337.985 115.674 337.343 114.853 336.473C114.041 335.594 113.635 334.496 113.635 333.179C113.635 332.102 113.938 331.149 114.543 330.32C115.156 329.492 115.989 328.841 117.041 328.369C118.101 327.897 119.303 327.661 120.645 327.661C122.534 327.661 124.018 328.075 125.095 328.903C126.18 329.732 126.951 330.826 127.407 332.185ZM192.014 343.744C191.401 343.744 190.875 343.524 190.436 343.085C189.996 342.646 189.777 342.12 189.777 341.506C189.777 340.893 189.996 340.367 190.436 339.928C190.875 339.489 191.401 339.269 192.014 339.269C192.627 339.269 193.153 339.489 193.593 339.928C194.032 340.367 194.251 340.893 194.251 341.506C194.251 341.912 194.148 342.285 193.941 342.625C193.742 342.965 193.472 343.238 193.133 343.445C192.801 343.644 192.428 343.744 192.014 343.744ZM192.014 330.867C191.401 330.867 190.875 330.648 190.436 330.208C189.996 329.769 189.777 329.243 189.777 328.63C189.777 328.017 189.996 327.491 190.436 327.051C190.875 326.612 191.401 326.393 192.014 326.393C192.627 326.393 193.153 326.612 193.593 327.051C194.032 327.491 194.251 328.017 194.251 328.63C194.251 329.036 194.148 329.409 193.941 329.749C193.742 330.088 193.472 330.362 193.133 330.569C192.801 330.768 192.428 330.867 192.014 330.867ZM206.956 347V321.545H210.039V332.881H223.611V321.545H226.694V347H223.611V335.615H210.039V347H206.956ZM238.823 347.398C237.099 347.398 235.587 346.988 234.286 346.167C232.993 345.347 231.982 344.199 231.253 342.724C230.532 341.25 230.172 339.526 230.172 337.554C230.172 335.565 230.532 333.829 231.253 332.346C231.982 330.863 232.993 329.711 234.286 328.891C235.587 328.071 237.099 327.661 238.823 327.661C240.546 327.661 242.054 328.071 243.347 328.891C244.648 329.711 245.659 330.863 246.379 332.346C247.109 333.829 247.473 335.565 247.473 337.554C247.473 339.526 247.109 341.25 246.379 342.724C245.659 344.199 244.648 345.347 243.347 346.167C242.054 346.988 240.546 347.398 238.823 347.398ZM238.823 344.763C240.132 344.763 241.209 344.427 242.054 343.756C242.899 343.085 243.525 342.202 243.931 341.109C244.337 340.015 244.54 338.83 244.54 337.554C244.54 336.278 244.337 335.089 243.931 333.987C243.525 332.885 242.899 331.994 242.054 331.315C241.209 330.635 240.132 330.295 238.823 330.295C237.513 330.295 236.436 330.635 235.591 331.315C234.746 331.994 234.12 332.885 233.714 333.987C233.308 335.089 233.105 336.278 233.105 337.554C233.105 338.83 233.308 340.015 233.714 341.109C234.12 342.202 234.746 343.085 235.591 343.756C236.436 344.427 237.513 344.763 238.823 344.763ZM253.484 335.516V347H250.551V327.909H253.384V330.892H253.633C254.081 329.923 254.76 329.144 255.671 328.555C256.583 327.959 257.759 327.661 259.201 327.661C260.494 327.661 261.625 327.926 262.594 328.456C263.564 328.978 264.318 329.773 264.856 330.842C265.395 331.903 265.664 333.245 265.664 334.869V347H262.731V335.068C262.731 333.568 262.342 332.4 261.563 331.563C260.784 330.718 259.715 330.295 258.356 330.295C257.42 330.295 256.583 330.498 255.845 330.904C255.116 331.31 254.54 331.903 254.118 332.682C253.695 333.461 253.484 334.405 253.484 335.516ZM277.629 347.398C275.789 347.398 274.202 346.992 272.868 346.18C271.543 345.359 270.519 344.216 269.798 342.749C269.086 341.274 268.729 339.559 268.729 337.604C268.729 335.648 269.086 333.925 269.798 332.433C270.519 330.933 271.522 329.765 272.806 328.928C274.099 328.083 275.607 327.661 277.33 327.661C278.325 327.661 279.306 327.826 280.276 328.158C281.245 328.489 282.128 329.028 282.923 329.773C283.719 330.511 284.353 331.489 284.825 332.707C285.297 333.925 285.533 335.424 285.533 337.206V338.449H270.817V335.913H282.55C282.55 334.836 282.335 333.875 281.904 333.03C281.482 332.185 280.877 331.518 280.09 331.029C279.311 330.54 278.391 330.295 277.33 330.295C276.162 330.295 275.151 330.585 274.298 331.165C273.452 331.737 272.802 332.483 272.346 333.403C271.891 334.322 271.663 335.308 271.663 336.361V338.051C271.663 339.493 271.911 340.715 272.408 341.718C272.914 342.712 273.614 343.47 274.509 343.992C275.404 344.506 276.444 344.763 277.629 344.763C278.399 344.763 279.095 344.655 279.717 344.44C280.346 344.216 280.889 343.884 281.345 343.445C281.801 342.998 282.153 342.443 282.401 341.78L285.235 342.575C284.937 343.536 284.436 344.382 283.731 345.111C283.027 345.832 282.157 346.395 281.121 346.801C280.085 347.199 278.921 347.398 277.629 347.398ZM289.904 354.159C289.406 354.159 288.963 354.118 288.574 354.035C288.184 353.96 287.915 353.886 287.766 353.811L288.511 351.226C289.224 351.408 289.854 351.474 290.401 351.425C290.948 351.375 291.432 351.131 291.855 350.691C292.286 350.261 292.679 349.56 293.036 348.591L293.583 347.099L286.523 327.909H289.705L294.975 343.122H295.173L300.443 327.909H303.625L295.521 349.784C295.157 350.77 294.705 351.586 294.167 352.233C293.628 352.887 293.003 353.372 292.29 353.687C291.586 354.002 290.79 354.159 289.904 354.159ZM27.0824 411V385.545H30.1648V396.881H43.7372V385.545H46.8196V411H43.7372V399.615H30.1648V411H27.0824ZM56.8108 411.447C55.601 411.447 54.5031 411.22 53.5171 410.764C52.531 410.3 51.748 409.633 51.168 408.763C50.588 407.884 50.298 406.824 50.298 405.581C50.298 404.487 50.5134 403.601 50.9443 402.921C51.3752 402.233 51.951 401.695 52.6719 401.305C53.3928 400.916 54.1882 400.626 55.0583 400.435C55.9366 400.237 56.819 400.079 57.7056 399.963C58.8657 399.814 59.8061 399.702 60.527 399.627C61.2562 399.545 61.7865 399.408 62.1179 399.217C62.4577 399.027 62.6275 398.695 62.6275 398.223V398.124C62.6275 396.897 62.2919 395.944 61.6208 395.265C60.9579 394.585 59.9511 394.246 58.6005 394.246C57.2002 394.246 56.1023 394.552 55.3069 395.165C54.5114 395.779 53.9521 396.433 53.6289 397.129L50.8449 396.135C51.342 394.975 52.0049 394.072 52.8335 393.425C53.6704 392.771 54.5818 392.315 55.5679 392.058C56.5622 391.793 57.5399 391.661 58.5011 391.661C59.1143 391.661 59.8186 391.735 60.614 391.884C61.4178 392.025 62.1925 392.319 62.9382 392.767C63.6923 393.214 64.3179 393.889 64.815 394.793C65.3122 395.696 65.5608 396.906 65.5608 398.422V411H62.6275V408.415H62.4784C62.2795 408.829 61.9481 409.272 61.4841 409.745C61.02 410.217 60.4027 410.619 59.6321 410.95C58.8615 411.282 57.9211 411.447 56.8108 411.447ZM57.2582 408.812C58.4182 408.812 59.396 408.585 60.1914 408.129C60.9952 407.673 61.6001 407.085 62.0061 406.364C62.4204 405.643 62.6275 404.885 62.6275 404.089V401.405C62.5032 401.554 62.2298 401.691 61.8072 401.815C61.3929 401.931 60.9123 402.035 60.3654 402.126C59.8269 402.209 59.3007 402.283 58.787 402.349C58.2815 402.407 57.8714 402.457 57.5565 402.499C56.7942 402.598 56.0816 402.76 55.4187 402.983C54.7641 403.199 54.2338 403.526 53.8278 403.965C53.4301 404.396 53.2312 404.984 53.2312 405.73C53.2312 406.749 53.6082 407.52 54.3623 408.042C55.1246 408.556 56.0899 408.812 57.2582 408.812ZM69.5145 411V391.909H72.3483V394.793H72.5472C72.8952 393.848 73.525 393.082 74.4364 392.493C75.3479 391.905 76.3753 391.611 77.5188 391.611C77.7342 391.611 78.0035 391.615 78.3267 391.623C78.6498 391.632 78.8943 391.644 79.06 391.661V394.643C78.9606 394.619 78.7327 394.581 78.3764 394.532C78.0284 394.474 77.6597 394.445 77.2702 394.445C76.3422 394.445 75.5136 394.639 74.7844 395.029C74.0635 395.41 73.4918 395.94 73.0692 396.62C72.6549 397.291 72.4478 398.057 72.4478 398.919V411H69.5145ZM88.2619 418.557C86.845 418.557 85.627 418.375 84.6078 418.01C83.5886 417.654 82.7393 417.181 82.0599 416.593C81.3887 416.013 80.8542 415.392 80.4565 414.729L82.7932 413.088C83.0583 413.436 83.3939 413.834 83.7999 414.281C84.2059 414.737 84.7611 415.131 85.4654 415.462C86.178 415.802 87.1102 415.972 88.2619 415.972C89.8031 415.972 91.075 415.599 92.0776 414.853C93.0802 414.107 93.5815 412.939 93.5815 411.348V407.47H93.3329C93.1175 407.818 92.8109 408.249 92.4132 408.763C92.0238 409.268 91.4603 409.72 90.7229 410.118C89.9937 410.507 89.0077 410.702 87.7648 410.702C86.2236 410.702 84.8398 410.337 83.6135 409.608C82.3954 408.879 81.4301 407.818 80.7175 406.426C80.0132 405.034 79.6611 403.344 79.6611 401.355C79.6611 399.4 80.0049 397.697 80.6927 396.247C81.3804 394.788 82.3374 393.662 83.5638 392.866C84.7901 392.062 86.207 391.661 87.8145 391.661C89.0574 391.661 90.0434 391.868 90.7726 392.282C91.51 392.688 92.0735 393.152 92.4629 393.674C92.8606 394.188 93.1672 394.61 93.3827 394.942H93.6809V391.909H96.5148V411.547C96.5148 413.188 96.1419 414.522 95.3961 415.549C94.6587 416.585 93.6644 417.343 92.4132 417.824C91.1703 418.312 89.7865 418.557 88.2619 418.557ZM88.1625 408.067C89.3391 408.067 90.3334 407.797 91.1454 407.259C91.9575 406.72 92.5748 405.946 92.9974 404.935C93.4199 403.924 93.6312 402.714 93.6312 401.305C93.6312 399.93 93.4241 398.716 93.0098 397.664C92.5955 396.611 91.9823 395.787 91.1703 395.19C90.3583 394.594 89.3557 394.295 88.1625 394.295C86.9196 394.295 85.8838 394.61 85.0552 395.24C84.2349 395.87 83.6176 396.715 83.2033 397.776C82.7973 398.836 82.5943 400.013 82.5943 401.305C82.5943 402.631 82.8014 403.804 83.2157 404.823C83.6383 405.834 84.2598 406.629 85.0801 407.209C85.9087 407.781 86.9362 408.067 88.1625 408.067ZM106.102 411.447C104.892 411.447 103.794 411.22 102.808 410.764C101.822 410.3 101.039 409.633 100.459 408.763C99.8792 407.884 99.5892 406.824 99.5892 405.581C99.5892 404.487 99.8046 403.601 100.235 402.921C100.666 402.233 101.242 401.695 101.963 401.305C102.684 400.916 103.479 400.626 104.349 400.435C105.228 400.237 106.11 400.079 106.997 399.963C108.157 399.814 109.097 399.702 109.818 399.627C110.547 399.545 111.078 399.408 111.409 399.217C111.749 399.027 111.919 398.695 111.919 398.223V398.124C111.919 396.897 111.583 395.944 110.912 395.265C110.249 394.585 109.242 394.246 107.892 394.246C106.491 394.246 105.394 394.552 104.598 395.165C103.803 395.779 103.243 396.433 102.92 397.129L100.136 396.135C100.633 394.975 101.296 394.072 102.125 393.425C102.962 392.771 103.873 392.315 104.859 392.058C105.853 391.793 106.831 391.661 107.792 391.661C108.405 391.661 109.11 391.735 109.905 391.884C110.709 392.025 111.484 392.319 112.229 392.767C112.983 393.214 113.609 393.889 114.106 394.793C114.603 395.696 114.852 396.906 114.852 398.422V411H111.919V408.415H111.77C111.571 408.829 111.239 409.272 110.775 409.745C110.311 410.217 109.694 410.619 108.923 410.95C108.153 411.282 107.212 411.447 106.102 411.447ZM106.549 408.812C107.709 408.812 108.687 408.585 109.483 408.129C110.286 407.673 110.891 407.085 111.297 406.364C111.712 405.643 111.919 404.885 111.919 404.089V401.405C111.794 401.554 111.521 401.691 111.098 401.815C110.684 401.931 110.204 402.035 109.657 402.126C109.118 402.209 108.592 402.283 108.078 402.349C107.573 402.407 107.163 402.457 106.848 402.499C106.085 402.598 105.373 402.76 104.71 402.983C104.055 403.199 103.525 403.526 103.119 403.965C102.721 404.396 102.522 404.984 102.522 405.73C102.522 406.749 102.899 407.52 103.653 408.042C104.416 408.556 105.381 408.812 106.549 408.812ZM188.494 407.744C187.88 407.744 187.354 407.524 186.915 407.085C186.476 406.646 186.256 406.12 186.256 405.506C186.256 404.893 186.476 404.367 186.915 403.928C187.354 403.489 187.88 403.269 188.494 403.269C189.107 403.269 189.633 403.489 190.072 403.928C190.511 404.367 190.731 404.893 190.731 405.506C190.731 405.912 190.627 406.285 190.42 406.625C190.221 406.965 189.952 407.238 189.612 407.445C189.281 407.644 188.908 407.744 188.494 407.744ZM188.494 394.867C187.88 394.867 187.354 394.648 186.915 394.208C186.476 393.769 186.256 393.243 186.256 392.63C186.256 392.017 186.476 391.491 186.915 391.051C187.354 390.612 187.88 390.393 188.494 390.393C189.107 390.393 189.633 390.612 190.072 391.051C190.511 391.491 190.731 392.017 190.731 392.63C190.731 393.036 190.627 393.409 190.42 393.749C190.221 394.088 189.952 394.362 189.612 394.569C189.281 394.768 188.908 394.867 188.494 394.867ZM203.436 411V385.545H212.037C214.025 385.545 215.658 385.885 216.934 386.565C218.21 387.236 219.154 388.16 219.768 389.336C220.381 390.513 220.687 391.851 220.687 393.351C220.687 394.851 220.381 396.181 219.768 397.341C219.154 398.501 218.214 399.412 216.946 400.075C215.678 400.73 214.059 401.057 212.086 401.057H205.126V398.273H211.987C213.346 398.273 214.44 398.074 215.268 397.676C216.105 397.278 216.71 396.715 217.083 395.986C217.464 395.248 217.655 394.37 217.655 393.351C217.655 392.332 217.464 391.441 217.083 390.679C216.702 389.916 216.093 389.328 215.256 388.914C214.419 388.491 213.313 388.28 211.937 388.28H206.518V411H203.436ZM215.417 399.565L221.682 411H218.102L211.937 399.565H215.417ZM224.026 418.159V391.909H226.86V394.942H227.208C227.423 394.61 227.721 394.188 228.103 393.674C228.492 393.152 229.047 392.688 229.768 392.282C230.497 391.868 231.483 391.661 232.726 391.661C234.334 391.661 235.751 392.062 236.977 392.866C238.203 393.67 239.16 394.809 239.848 396.284C240.536 397.759 240.88 399.499 240.88 401.504C240.88 403.526 240.536 405.279 239.848 406.762C239.16 408.237 238.207 409.38 236.989 410.192C235.771 410.996 234.367 411.398 232.776 411.398C231.55 411.398 230.568 411.195 229.83 410.789C229.093 410.374 228.525 409.906 228.127 409.384C227.73 408.854 227.423 408.415 227.208 408.067H226.959V418.159H224.026ZM226.909 401.455C226.909 402.896 227.121 404.168 227.543 405.27C227.966 406.364 228.583 407.222 229.395 407.843C230.207 408.456 231.202 408.763 232.378 408.763C233.604 408.763 234.628 408.44 235.448 407.793C236.277 407.139 236.898 406.26 237.312 405.158C237.735 404.048 237.946 402.813 237.946 401.455C237.946 400.112 237.739 398.902 237.325 397.825C236.919 396.74 236.302 395.882 235.473 395.252C234.653 394.614 233.621 394.295 232.378 394.295C231.185 394.295 230.182 394.598 229.37 395.203C228.558 395.799 227.945 396.636 227.531 397.713C227.117 398.782 226.909 400.029 226.909 401.455ZM260.949 411.348C259.308 411.348 257.846 411.066 256.561 410.503C255.285 409.939 254.27 409.156 253.516 408.154C252.771 407.143 252.365 405.97 252.298 404.636H255.43C255.497 405.457 255.778 406.165 256.276 406.762C256.773 407.35 257.423 407.806 258.227 408.129C259.031 408.452 259.921 408.614 260.899 408.614C261.993 408.614 262.962 408.423 263.808 408.042C264.653 407.661 265.316 407.13 265.796 406.451C266.277 405.772 266.517 404.984 266.517 404.089C266.517 403.153 266.285 402.329 265.821 401.616C265.357 400.895 264.678 400.332 263.783 399.926C262.888 399.52 261.794 399.317 260.501 399.317H258.463V396.582H260.501C261.512 396.582 262.399 396.4 263.161 396.036C263.932 395.671 264.533 395.157 264.963 394.494C265.403 393.831 265.622 393.053 265.622 392.158C265.622 391.296 265.432 390.546 265.05 389.908C264.669 389.27 264.131 388.773 263.435 388.417C262.747 388.06 261.935 387.882 260.999 387.882C260.12 387.882 259.292 388.044 258.513 388.367C257.742 388.682 257.112 389.142 256.624 389.746C256.135 390.343 255.87 391.064 255.828 391.909H252.845C252.895 390.575 253.297 389.407 254.051 388.404C254.805 387.393 255.791 386.606 257.009 386.043C258.235 385.479 259.582 385.197 261.048 385.197C262.623 385.197 263.973 385.516 265.1 386.154C266.227 386.784 267.093 387.617 267.698 388.653C268.303 389.688 268.605 390.807 268.605 392.009C268.605 393.442 268.228 394.664 267.474 395.675C266.728 396.686 265.713 397.386 264.429 397.776V397.974C266.036 398.24 267.292 398.923 268.195 400.025C269.098 401.119 269.55 402.474 269.55 404.089C269.55 405.473 269.173 406.716 268.419 407.818C267.673 408.912 266.654 409.774 265.361 410.403C264.069 411.033 262.598 411.348 260.949 411.348ZM281.188 411.348C279.729 411.348 278.416 411.058 277.248 410.478C276.079 409.898 275.143 409.103 274.439 408.092C273.734 407.081 273.349 405.929 273.283 404.636H276.266C276.382 405.788 276.904 406.741 277.832 407.495C278.768 408.241 279.887 408.614 281.188 408.614C282.232 408.614 283.16 408.369 283.972 407.88C284.792 407.391 285.434 406.72 285.898 405.867C286.371 405.005 286.607 404.031 286.607 402.946C286.607 401.836 286.362 400.846 285.873 399.975C285.393 399.097 284.73 398.405 283.885 397.9C283.04 397.394 282.074 397.138 280.989 397.129C280.21 397.121 279.41 397.241 278.59 397.49C277.77 397.73 277.094 398.041 276.564 398.422L273.681 398.074L275.222 385.545H288.446V388.28H277.807L276.912 395.787H277.061C277.583 395.373 278.238 395.029 279.025 394.755C279.812 394.482 280.633 394.345 281.486 394.345C283.044 394.345 284.432 394.718 285.65 395.464C286.876 396.201 287.837 397.212 288.533 398.496C289.238 399.781 289.59 401.247 289.59 402.896C289.59 404.52 289.225 405.97 288.496 407.246C287.775 408.514 286.781 409.517 285.513 410.254C284.245 410.983 282.803 411.348 281.188 411.348ZM294.358 411.199C293.744 411.199 293.218 410.979 292.779 410.54C292.34 410.101 292.12 409.575 292.12 408.962C292.12 408.348 292.34 407.822 292.779 407.383C293.218 406.944 293.744 406.724 294.358 406.724C294.971 406.724 295.497 406.944 295.936 407.383C296.375 407.822 296.595 408.348 296.595 408.962C296.595 409.368 296.491 409.741 296.284 410.08C296.085 410.42 295.816 410.693 295.476 410.901C295.145 411.099 294.772 411.199 294.358 411.199ZM307.823 411.348C305.95 411.348 304.355 410.838 303.038 409.819C301.72 408.792 300.713 407.304 300.017 405.357C299.321 403.402 298.973 401.04 298.973 398.273C298.973 395.522 299.321 393.173 300.017 391.225C300.722 389.27 301.732 387.779 303.05 386.751C304.376 385.715 305.967 385.197 307.823 385.197C309.679 385.197 311.265 385.715 312.583 386.751C313.909 387.779 314.92 389.27 315.616 391.225C316.32 393.173 316.672 395.522 316.672 398.273C316.672 401.04 316.324 403.402 315.628 405.357C314.932 407.304 313.925 408.792 312.608 409.819C311.29 410.838 309.695 411.348 307.823 411.348ZM307.823 408.614C309.679 408.614 311.12 407.719 312.148 405.929C313.175 404.139 313.689 401.587 313.689 398.273C313.689 396.069 313.453 394.192 312.981 392.642C312.517 391.093 311.846 389.912 310.967 389.1C310.097 388.288 309.049 387.882 307.823 387.882C305.983 387.882 304.546 388.789 303.51 390.604C302.474 392.41 301.956 394.967 301.956 398.273C301.956 400.477 302.188 402.349 302.652 403.891C303.116 405.432 303.783 406.604 304.653 407.408C305.532 408.212 306.588 408.614 307.823 408.614ZM328.298 411.348C326.425 411.348 324.83 410.838 323.513 409.819C322.195 408.792 321.188 407.304 320.492 405.357C319.796 403.402 319.448 401.04 319.448 398.273C319.448 395.522 319.796 393.173 320.492 391.225C321.197 389.27 322.207 387.779 323.525 386.751C324.851 385.715 326.442 385.197 328.298 385.197C330.154 385.197 331.74 385.715 333.058 386.751C334.384 387.779 335.395 389.27 336.091 391.225C336.795 393.173 337.147 395.522 337.147 398.273C337.147 401.04 336.799 403.402 336.103 405.357C335.407 407.304 334.4 408.792 333.083 409.819C331.765 410.838 330.17 411.348 328.298 411.348ZM328.298 408.614C330.154 408.614 331.595 407.719 332.623 405.929C333.65 404.139 334.164 401.587 334.164 398.273C334.164 396.069 333.928 394.192 333.456 392.642C332.992 391.093 332.321 389.912 331.442 389.1C330.572 388.288 329.524 387.882 328.298 387.882C326.458 387.882 325.021 388.789 323.985 390.604C322.949 392.41 322.431 394.967 322.431 398.273C322.431 400.477 322.663 402.349 323.127 403.891C323.591 405.432 324.258 406.604 325.128 407.408C326.007 408.212 327.063 408.614 328.298 408.614ZM348.773 411.348C346.9 411.348 345.305 410.838 343.987 409.819C342.67 408.792 341.663 407.304 340.967 405.357C340.271 403.402 339.923 401.04 339.923 398.273C339.923 395.522 340.271 393.173 340.967 391.225C341.672 389.27 342.682 387.779 344 386.751C345.326 385.715 346.917 385.197 348.773 385.197C350.629 385.197 352.215 385.715 353.533 386.751C354.859 387.779 355.87 389.27 356.566 391.225C357.27 393.173 357.622 395.522 357.622 398.273C357.622 401.04 357.274 403.402 356.578 405.357C355.882 407.304 354.875 408.792 353.558 409.819C352.24 410.838 350.645 411.348 348.773 411.348ZM348.773 408.614C350.629 408.614 352.07 407.719 353.098 405.929C354.125 404.139 354.639 401.587 354.639 398.273C354.639 396.069 354.403 394.192 353.931 392.642C353.467 391.093 352.795 389.912 351.917 389.1C351.047 388.288 349.999 387.882 348.773 387.882C346.933 387.882 345.496 388.789 344.46 390.604C343.424 392.41 342.906 394.967 342.906 398.273C342.906 400.477 343.138 402.349 343.602 403.891C344.066 405.432 344.733 406.604 345.603 407.408C346.482 408.212 347.538 408.614 348.773 408.614ZM378.437 384.352L370.234 414.828H367.549L375.752 384.352H378.437ZM388.908 411V408.763L397.31 399.565C398.296 398.488 399.108 397.552 399.746 396.756C400.384 395.953 400.857 395.199 401.163 394.494C401.478 393.782 401.635 393.036 401.635 392.257C401.635 391.362 401.42 390.587 400.989 389.933C400.567 389.278 399.987 388.773 399.249 388.417C398.512 388.06 397.683 387.882 396.763 387.882C395.786 387.882 394.932 388.085 394.203 388.491C393.482 388.889 392.923 389.448 392.525 390.169C392.136 390.89 391.941 391.735 391.941 392.705H389.008C389.008 391.213 389.351 389.904 390.039 388.777C390.727 387.65 391.663 386.772 392.848 386.142C394.041 385.512 395.38 385.197 396.863 385.197C398.354 385.197 399.676 385.512 400.828 386.142C401.979 386.772 402.883 387.621 403.537 388.69C404.192 389.759 404.519 390.948 404.519 392.257C404.519 393.193 404.349 394.109 404.009 395.004C403.678 395.891 403.098 396.881 402.269 397.974C401.449 399.06 400.31 400.386 398.851 401.952L393.134 408.067V408.266H404.966V411H388.908ZM416.654 411.348C415.196 411.348 413.882 411.058 412.714 410.478C411.546 409.898 410.609 409.103 409.905 408.092C409.201 407.081 408.816 405.929 408.749 404.636H411.732C411.848 405.788 412.37 406.741 413.298 407.495C414.235 408.241 415.353 408.614 416.654 408.614C417.698 408.614 418.626 408.369 419.438 407.88C420.259 407.391 420.901 406.72 421.365 405.867C421.837 405.005 422.073 404.031 422.073 402.946C422.073 401.836 421.829 400.846 421.34 399.975C420.859 399.097 420.196 398.405 419.351 397.9C418.506 397.394 417.541 397.138 416.455 397.129C415.676 397.121 414.877 397.241 414.056 397.49C413.236 397.73 412.561 398.041 412.031 398.422L409.147 398.074L410.688 385.545H423.913V388.28H413.273L412.379 395.787H412.528C413.05 395.373 413.704 395.029 414.491 394.755C415.279 394.482 416.099 394.345 416.952 394.345C418.51 394.345 419.898 394.718 421.116 395.464C422.342 396.201 423.304 397.212 424 398.496C424.704 399.781 425.056 401.247 425.056 402.896C425.056 404.52 424.692 405.97 423.962 407.246C423.241 408.514 422.247 409.517 420.979 410.254C419.712 410.983 418.27 411.348 416.654 411.348ZM436.896 411.348C435.023 411.348 433.428 410.838 432.111 409.819C430.793 408.792 429.787 407.304 429.091 405.357C428.395 403.402 428.047 401.04 428.047 398.273C428.047 395.522 428.395 393.173 429.091 391.225C429.795 389.27 430.806 387.779 432.123 386.751C433.449 385.715 435.04 385.197 436.896 385.197C438.752 385.197 440.339 385.715 441.656 386.751C442.982 387.779 443.993 389.27 444.689 391.225C445.393 393.173 445.746 395.522 445.746 398.273C445.746 401.04 445.398 403.402 444.701 405.357C444.005 407.304 442.999 408.792 441.681 409.819C440.364 410.838 438.769 411.348 436.896 411.348ZM436.896 408.614C438.752 408.614 440.194 407.719 441.221 405.929C442.249 404.139 442.763 401.587 442.763 398.273C442.763 396.069 442.526 394.192 442.054 392.642C441.59 391.093 440.919 389.912 440.041 389.1C439.171 388.288 438.122 387.882 436.896 387.882C435.057 387.882 433.619 388.789 432.583 390.604C431.547 392.41 431.03 394.967 431.03 398.273C431.03 400.477 431.262 402.349 431.726 403.891C432.19 405.432 432.857 406.604 433.727 407.408C434.605 408.212 435.661 408.614 436.896 408.614ZM456.824 418.557C455.407 418.557 454.189 418.375 453.17 418.01C452.151 417.654 451.302 417.181 450.622 416.593C449.951 416.013 449.417 415.392 449.019 414.729L451.355 413.088C451.621 413.436 451.956 413.834 452.362 414.281C452.768 414.737 453.323 415.131 454.028 415.462C454.74 415.802 455.672 415.972 456.824 415.972C458.365 415.972 459.637 415.599 460.64 414.853C461.643 414.107 462.144 412.939 462.144 411.348V407.47H461.895C461.68 407.818 461.373 408.249 460.975 408.763C460.586 409.268 460.023 409.72 459.285 410.118C458.556 410.507 457.57 410.702 456.327 410.702C454.786 410.702 453.402 410.337 452.176 409.608C450.958 408.879 449.992 407.818 449.28 406.426C448.576 405.034 448.223 403.344 448.223 401.355C448.223 399.4 448.567 397.697 449.255 396.247C449.943 394.788 450.9 393.662 452.126 392.866C453.352 392.062 454.769 391.661 456.377 391.661C457.62 391.661 458.606 391.868 459.335 392.282C460.072 392.688 460.636 393.152 461.025 393.674C461.423 394.188 461.73 394.61 461.945 394.942H462.243V391.909H465.077V411.547C465.077 413.188 464.704 414.522 463.958 415.549C463.221 416.585 462.227 417.343 460.975 417.824C459.733 418.312 458.349 418.557 456.824 418.557ZM456.725 408.067C457.901 408.067 458.896 407.797 459.708 407.259C460.52 406.72 461.137 405.946 461.56 404.935C461.982 403.924 462.194 402.714 462.194 401.305C462.194 399.93 461.986 398.716 461.572 397.664C461.158 396.611 460.545 395.787 459.733 395.19C458.921 394.594 457.918 394.295 456.725 394.295C455.482 394.295 454.446 394.61 453.618 395.24C452.797 395.87 452.18 396.715 451.766 397.776C451.36 398.836 451.157 400.013 451.157 401.305C451.157 402.631 451.364 403.804 451.778 404.823C452.201 405.834 452.822 406.629 453.642 407.209C454.471 407.781 455.498 408.067 456.725 408.067ZM469.046 411V391.909H471.88V394.793H472.079C472.427 393.848 473.057 393.082 473.968 392.493C474.88 391.905 475.907 391.611 477.051 391.611C477.266 391.611 477.535 391.615 477.859 391.623C478.182 391.632 478.426 391.644 478.592 391.661V394.643C478.492 394.619 478.265 394.581 477.908 394.532C477.56 394.474 477.192 394.445 476.802 394.445C475.874 394.445 475.045 394.639 474.316 395.029C473.595 395.41 473.024 395.94 472.601 396.62C472.187 397.291 471.98 398.057 471.98 398.919V411H469.046Z" fill="black"/>
<defs>
<filter id="filter0_d_227_21" x="0" y="0" width="681" height="575" filterUnits="userSpaceOnUse" color-interpolation-filters="sRGB">
<feFlood flood-opacity="0" result="BackgroundImageFix"/>
<feColorMatrix in="SourceAlpha" type="matrix" values="0 0 0 0 0 0 0 0 0 0 0 0 0 0 0 0 0 0 127 0" result="hardAlpha"/>
<feOffset dy="4"/>
<feGaussianBlur stdDeviation="2"/>
<feComposite in2="hardAlpha" operator="out"/>
<feColorMatrix type="matrix" values="0 0 0 0 0 0 0 0 0 0 0 0 0 0 0 0 0 0 0.25 0"/>
<feBlend mode="normal" in2="BackgroundImageFix" result="effect1_dropShadow_227_21"/>
<feBlend mode="normal" in="SourceGraphic" in2="effect1_dropShadow_227_21" result="shape"/>
</filter>
</defs>
</svg>
