<svg width="241" height="46" viewBox="0 0 241 46" fill="none" xmlns="http://www.w3.org/2000/svg">
<path d="M0.814098 45V1.36364H10.04V20.6037H10.6152L26.3184 1.36364H37.3766L21.1834 20.902L37.5684 45H26.5314L14.5783 27.0597L10.04 32.5994V45H0.814098ZM78.4198 23.1818C78.4198 27.9403 77.5178 31.9886 75.7138 35.3267C73.924 38.6648 71.4809 41.2145 68.3843 42.9759C65.3019 44.723 61.836 45.5966 57.9865 45.5966C54.1087 45.5966 50.6286 44.7159 47.5462 42.9545C44.4638 41.1932 42.0277 38.6435 40.238 35.3054C38.4482 31.9673 37.5533 27.9261 37.5533 23.1818C37.5533 18.4233 38.4482 14.375 40.238 11.0369C42.0277 7.69886 44.4638 5.15625 47.5462 3.40909C50.6286 1.64773 54.1087 0.767044 57.9865 0.767044C61.836 0.767044 65.3019 1.64773 68.3843 3.40909C71.4809 5.15625 73.924 7.69886 75.7138 11.0369C77.5178 14.375 78.4198 18.4233 78.4198 23.1818ZM69.0661 23.1818C69.0661 20.0994 68.6044 17.5 67.6811 15.3835C66.7721 13.267 65.4865 11.6619 63.8246 10.5682C62.1627 9.47443 60.2167 8.92756 57.9865 8.92756C55.7564 8.92756 53.8104 9.47443 52.1485 10.5682C50.4865 11.6619 49.1939 13.267 48.2706 15.3835C47.3615 17.5 46.907 20.0994 46.907 23.1818C46.907 26.2642 47.3615 28.8636 48.2706 30.9801C49.1939 33.0966 50.4865 34.7017 52.1485 35.7955C53.8104 36.8892 55.7564 37.4361 57.9865 37.4361C60.2167 37.4361 62.1627 36.8892 63.8246 35.7955C65.4865 34.7017 66.7721 33.0966 67.6811 30.9801C68.6044 28.8636 69.0661 26.2642 69.0661 23.1818ZM120.353 1.36364V45H112.384L93.3994 17.5355H93.0798V45H83.854V1.36364H91.9505L110.786 28.8068H111.169V1.36364H120.353ZM124.913 8.97017V1.36364H160.751V8.97017H147.392V45H138.272V8.97017H124.913ZM167.442 45H157.556L172.62 1.36364H184.509L199.552 45H189.665L178.735 11.3352H178.394L167.442 45ZM166.825 27.848H190.177V35.0497H166.825V27.848ZM203.404 45V1.36364H212.63V20.6037H213.205L228.908 1.36364H239.966L223.773 20.902L240.158 45H229.121L217.168 27.0597L212.63 32.5994V45H203.404Z" fill="#206A5D"/>
</svg>
