<svg width="242" height="49" viewBox="0 0 242 49" fill="none" xmlns="http://www.w3.org/2000/svg">
<path d="M20.769 19.581V26.7827H0.868472V19.581H20.769ZM47.494 19.581V26.7827H27.5935V19.581H47.494ZM66.4856 45V1.36364H95.3777V8.97017H75.7115V19.3679H93.46V26.9744H75.7115V45H66.4856ZM102.255 45H92.369L107.433 1.36364H119.322L134.365 45H124.478L113.548 11.3352H113.207L102.255 45ZM101.637 27.848H124.99V35.0497H101.637V27.848ZM152.636 29.8295H160.477L164.419 34.9006L168.297 39.4176L175.605 48.5795H166.997L161.969 42.4006L159.39 38.7358L152.636 29.8295ZM176.265 23.1818C176.265 27.9403 175.364 31.9886 173.56 35.3267C171.77 38.6648 169.327 41.2145 166.23 42.9759C163.148 44.723 159.682 45.5966 155.832 45.5966C151.954 45.5966 148.474 44.7159 145.392 42.9545C142.31 41.1932 139.873 38.6435 138.084 35.3054C136.294 31.9673 135.399 27.9261 135.399 23.1818C135.399 18.4233 136.294 14.375 138.084 11.0369C139.873 7.69886 142.31 5.15625 145.392 3.40909C148.474 1.64773 151.954 0.767044 155.832 0.767044C159.682 0.767044 163.148 1.64773 166.23 3.40909C169.327 5.15625 171.77 7.69886 173.56 11.0369C175.364 14.375 176.265 18.4233 176.265 23.1818ZM166.912 23.1818C166.912 20.0994 166.45 17.5 165.527 15.3835C164.618 13.267 163.332 11.6619 161.67 10.5682C160.008 9.47443 158.062 8.92756 155.832 8.92756C153.602 8.92756 151.656 9.47443 149.994 10.5682C148.332 11.6619 147.04 13.267 146.116 15.3835C145.207 17.5 144.753 20.0994 144.753 23.1818C144.753 26.2642 145.207 28.8636 146.116 30.9801C147.04 33.0966 148.332 34.7017 149.994 35.7955C151.656 36.8892 153.602 37.4361 155.832 37.4361C158.062 37.4361 160.008 36.8892 161.67 35.7955C163.332 34.7017 164.618 33.0966 165.527 30.9801C166.45 28.8636 166.912 26.2642 166.912 23.1818ZM214.407 19.581V26.7827H194.506V19.581H214.407ZM241.132 19.581V26.7827H221.231V19.581H241.132Z" fill="#206A5D"/>
</svg>
