<svg width="199" height="45" viewBox="0 0 199 45" fill="none" xmlns="http://www.w3.org/2000/svg">
<path d="M0.761364 44V0.363635H17.9773C21.2869 0.363635 24.1065 0.995738 26.4361 2.25994C28.7656 3.50994 30.5412 5.25 31.7628 7.48011C32.9986 9.69602 33.6165 12.2528 33.6165 15.1506C33.6165 18.0483 32.9915 20.6051 31.7415 22.821C30.4915 25.0369 28.6804 26.7628 26.3082 27.9986C23.9503 29.2344 21.0952 29.8523 17.7429 29.8523H6.76989V22.4588H16.2514C18.027 22.4588 19.4901 22.1534 20.6406 21.5426C21.8054 20.9176 22.6719 20.0582 23.2401 18.9645C23.8224 17.8565 24.1136 16.5852 24.1136 15.1506C24.1136 13.7017 23.8224 12.4375 23.2401 11.358C22.6719 10.2642 21.8054 9.41903 20.6406 8.82244C19.4759 8.21165 17.9986 7.90625 16.2088 7.90625H9.98722V44H0.761364ZM38.0386 44V11.2727H46.8383V16.983H47.1792C47.7758 14.9517 48.7772 13.4176 50.1835 12.3807C51.5897 11.3295 53.209 10.804 55.0414 10.804C55.496 10.804 55.986 10.8324 56.5116 10.8892C57.0372 10.946 57.4988 11.0241 57.8965 11.1236V19.1776C57.4704 19.0497 56.8809 18.9361 56.1281 18.8366C55.3752 18.7372 54.6863 18.6875 54.0613 18.6875C52.7261 18.6875 51.5329 18.9787 50.4818 19.5611C49.4448 20.1293 48.621 20.9247 48.0102 21.9474C47.4136 22.9702 47.1153 24.1491 47.1153 25.4844V44H38.0386ZM74.4529 44.6392C71.1432 44.6392 68.281 43.9361 65.8662 42.5298C63.4656 41.1094 61.6119 39.1349 60.3051 36.6065C58.9983 34.0639 58.3449 31.1165 58.3449 27.7642C58.3449 24.3835 58.9983 21.429 60.3051 18.9006C61.6119 16.358 63.4656 14.3835 65.8662 12.9773C68.281 11.5568 71.1432 10.8466 74.4529 10.8466C77.7625 10.8466 80.6176 11.5568 83.0182 12.9773C85.433 14.3835 87.2938 16.358 88.6006 18.9006C89.9074 21.429 90.5608 24.3835 90.5608 27.7642C90.5608 31.1165 89.9074 34.0639 88.6006 36.6065C87.2938 39.1349 85.433 41.1094 83.0182 42.5298C80.6176 43.9361 77.7625 44.6392 74.4529 44.6392ZM74.4955 37.608C76.0011 37.608 77.2583 37.1818 78.2668 36.3295C79.2753 35.4631 80.0352 34.2841 80.5466 32.7926C81.0722 31.3011 81.335 29.6037 81.335 27.7003C81.335 25.7969 81.0722 24.0994 80.5466 22.608C80.0352 21.1165 79.2753 19.9375 78.2668 19.071C77.2583 18.2045 76.0011 17.7713 74.4955 17.7713C72.9756 17.7713 71.6972 18.2045 70.6602 19.071C69.6375 19.9375 68.8634 21.1165 68.3378 22.608C67.8264 24.0994 67.5708 25.7969 67.5708 27.7003C67.5708 29.6037 67.8264 31.3011 68.3378 32.7926C68.8634 34.2841 69.6375 35.4631 70.6602 36.3295C71.6972 37.1818 72.9756 37.608 74.4955 37.608ZM107.122 44.5327C104.637 44.5327 102.385 43.8935 100.368 42.6151C98.3653 41.3224 96.7744 39.4261 95.5954 36.9261C94.4307 34.4119 93.8483 31.3295 93.8483 27.679C93.8483 23.929 94.452 20.8111 95.6594 18.3253C96.8667 15.8253 98.4719 13.9574 100.475 12.7216C102.492 11.4716 104.701 10.8466 107.101 10.8466C108.934 10.8466 110.46 11.1591 111.682 11.7841C112.918 12.3949 113.912 13.1619 114.665 14.0852C115.432 14.9943 116.014 15.8892 116.412 16.7699H116.689V0.363635H125.745V44H116.796V38.7585H116.412C115.986 39.6676 115.382 40.5696 114.601 41.4645C113.834 42.3452 112.833 43.0767 111.597 43.6591C110.375 44.2415 108.884 44.5327 107.122 44.5327ZM109.999 37.3097C111.462 37.3097 112.698 36.9119 113.706 36.1165C114.729 35.3068 115.51 34.1776 116.05 32.7287C116.604 31.2798 116.881 29.5824 116.881 27.6364C116.881 25.6903 116.611 24 116.071 22.5653C115.532 21.1307 114.75 20.0227 113.728 19.2415C112.705 18.4602 111.462 18.0696 109.999 18.0696C108.507 18.0696 107.25 18.4744 106.228 19.2841C105.205 20.0937 104.431 21.2159 103.905 22.6506C103.38 24.0852 103.117 25.7472 103.117 27.6364C103.117 29.5398 103.38 31.223 103.905 32.6861C104.445 34.1349 105.219 35.2713 106.228 36.0952C107.25 36.9048 108.507 37.3097 109.999 37.3097ZM152.795 30.0653V11.2727H161.871V44H153.157V38.0554H152.816C152.077 39.973 150.849 41.5142 149.13 42.679C147.425 43.8437 145.344 44.4261 142.887 44.4261C140.699 44.4261 138.775 43.929 137.113 42.9347C135.451 41.9403 134.151 40.527 133.214 38.6946C132.29 36.8622 131.822 34.6676 131.807 32.1108V11.2727H140.884V30.4915C140.898 32.4233 141.417 33.9503 142.439 35.0724C143.462 36.1946 144.833 36.7557 146.552 36.7557C147.645 36.7557 148.668 36.5071 149.62 36.0099C150.572 35.4986 151.339 34.7457 151.921 33.7514C152.518 32.7571 152.809 31.5284 152.795 30.0653ZM175.956 34.5824L175.977 23.6946H177.298L187.781 11.2727H198.2L184.116 27.7216H181.964L175.956 34.5824ZM167.732 44V0.363635H176.808V44H167.732ZM188.186 44L178.555 29.7457L184.607 23.3324L198.818 44H188.186Z" fill="#206A5D"/>
</svg>
