<svg width="267" height="44" viewBox="0 0 267 44" fill="none" xmlns="http://www.w3.org/2000/svg">
<path d="M0.83201 43V0.818181H17.4741C20.6597 0.818181 23.3784 1.38802 25.6303 2.5277C27.8959 3.65364 29.6192 5.25331 30.8 7.3267C31.9947 9.38636 32.592 11.8099 32.592 14.5973C32.592 17.3984 31.9878 19.8082 30.7795 21.8267C29.5711 23.8314 27.8204 25.3693 25.5273 26.4403C23.248 27.5114 20.488 28.0469 17.2475 28.0469H6.10474V20.8793H15.8057C17.5084 20.8793 18.9227 20.6458 20.0486 20.179C21.1746 19.7121 22.0122 19.0118 22.5614 18.0781C23.1244 17.1444 23.4059 15.9841 23.4059 14.5973C23.4059 13.1967 23.1244 12.0159 22.5614 11.0547C22.0122 10.0935 21.1677 9.36577 20.028 8.87145C18.9021 8.3634 17.4809 8.10938 15.7645 8.10938H9.75033V43H0.83201ZM23.6118 23.804L34.0955 43H24.2503L13.9932 23.804H23.6118ZM76.2573 21.9091C76.2573 26.509 75.3854 30.4223 73.6415 33.6491C71.9114 36.8759 69.5497 39.3407 66.5563 41.0433C63.5767 42.7322 60.2263 43.5767 56.5052 43.5767C52.7566 43.5767 49.3925 42.7254 46.4128 41.0227C43.4332 39.3201 41.0783 36.8554 39.3482 33.6286C37.6181 30.4018 36.753 26.4953 36.753 21.9091C36.753 17.3092 37.6181 13.3958 39.3482 10.169C41.0783 6.94223 43.4332 4.48437 46.4128 2.79545C49.3925 1.0928 52.7566 0.241476 56.5052 0.241476C60.2263 0.241476 63.5767 1.0928 66.5563 2.79545C69.5497 4.48437 71.9114 6.94223 73.6415 10.169C75.3854 13.3958 76.2573 17.3092 76.2573 21.9091ZM67.2154 21.9091C67.2154 18.9295 66.7691 16.4167 65.8766 14.3707C64.9978 12.3248 63.7552 10.7732 62.1486 9.71591C60.5421 8.65862 58.6609 8.12997 56.5052 8.12997C54.3494 8.12997 52.4682 8.65862 50.8617 9.71591C49.2552 10.7732 48.0056 12.3248 47.1131 14.3707C46.2343 16.4167 45.7949 18.9295 45.7949 21.9091C45.7949 24.8887 46.2343 27.4015 47.1131 29.4474C48.0056 31.4934 49.2552 33.045 50.8617 34.1023C52.4682 35.1596 54.3494 35.6882 56.5052 35.6882C58.6609 35.6882 60.5421 35.1596 62.1486 34.1023C63.7552 33.045 64.9978 31.4934 65.8766 29.4474C66.7691 27.4015 67.2154 24.8887 67.2154 21.9091ZM81.4636 43V0.818181H98.3529C101.456 0.818181 104.044 1.27817 106.118 2.19815C108.191 3.11813 109.75 4.39512 110.793 6.02912C111.837 7.64938 112.359 9.51681 112.359 11.6314C112.359 13.2791 112.029 14.7277 111.37 15.9773C110.711 17.2131 109.805 18.2292 108.651 19.0256C107.511 19.8082 106.207 20.3643 104.738 20.6939V21.1058C106.344 21.1745 107.848 21.6276 109.248 22.4652C110.663 23.3028 111.809 24.4768 112.688 25.9872C113.567 27.4839 114.006 29.2689 114.006 31.3423C114.006 33.5805 113.45 35.5784 112.338 37.3359C111.239 39.0798 109.612 40.4598 107.457 41.4759C105.301 42.492 102.644 43 99.4857 43H81.4636ZM90.382 35.7088H97.6526C100.138 35.7088 101.95 35.2351 103.09 34.2876C104.23 33.3265 104.8 32.0495 104.8 30.4567C104.8 29.2895 104.518 28.2597 103.955 27.3672C103.392 26.4747 102.589 25.7744 101.545 25.2663C100.515 24.7583 99.2866 24.5043 97.8585 24.5043H90.382V35.7088ZM90.382 18.4695H96.9935C98.2155 18.4695 99.3003 18.2566 100.248 17.831C101.209 17.3916 101.964 16.7737 102.513 15.9773C103.076 15.1809 103.358 14.2266 103.358 13.1143C103.358 11.5902 102.815 10.3613 101.731 9.42756C100.66 8.49384 99.1355 8.02699 97.1583 8.02699H90.382V18.4695ZM144.464 0.818181H153.382V28.2116C153.382 31.2874 152.648 33.9787 151.179 36.2855C149.723 38.5923 147.684 40.3911 145.061 41.6818C142.439 42.9588 139.384 43.5973 135.896 43.5973C132.394 43.5973 129.332 42.9588 126.71 41.6818C124.087 40.3911 122.048 38.5923 120.593 36.2855C119.137 33.9787 118.409 31.2874 118.409 28.2116V0.818181H127.328V27.4496C127.328 29.0561 127.678 30.4841 128.378 31.7337C129.092 32.9832 130.094 33.965 131.385 34.679C132.676 35.393 134.179 35.75 135.896 35.75C137.626 35.75 139.13 35.393 140.407 34.679C141.697 33.965 142.693 32.9832 143.393 31.7337C144.107 30.4841 144.464 29.0561 144.464 27.4496V0.818181ZM182.203 12.9496C182.038 11.2881 181.331 9.99739 180.081 9.07741C178.832 8.15743 177.136 7.69744 174.994 7.69744C173.538 7.69744 172.309 7.90341 171.307 8.31534C170.305 8.71354 169.536 9.26965 169 9.98366C168.479 10.6977 168.218 11.5078 168.218 12.4141C168.19 13.1693 168.348 13.8284 168.691 14.3913C169.048 14.9543 169.536 15.4418 170.154 15.8537C170.772 16.2519 171.486 16.602 172.296 16.9041C173.106 17.1925 173.971 17.4396 174.891 17.6456L178.681 18.5518C180.521 18.9638 182.21 19.513 183.747 20.1996C185.285 20.8861 186.617 21.7306 187.743 22.733C188.869 23.7353 189.741 24.9162 190.359 26.2756C190.991 27.6349 191.313 29.1934 191.327 30.951C191.313 33.5324 190.654 35.7706 189.35 37.6655C188.059 39.5466 186.192 41.009 183.747 42.0526C181.317 43.0824 178.385 43.5973 174.953 43.5973C171.547 43.5973 168.581 43.0755 166.055 42.032C163.542 40.9884 161.579 39.4437 160.164 37.3977C158.764 35.3381 158.029 32.791 157.961 29.7564H166.59C166.687 31.1707 167.092 32.3516 167.806 33.299C168.533 34.2327 169.501 34.9399 170.71 35.4205C171.932 35.8873 173.312 36.1207 174.85 36.1207C176.36 36.1207 177.671 35.901 178.784 35.4616C179.91 35.0223 180.782 34.4112 181.399 33.6286C182.017 32.8459 182.326 31.9465 182.326 30.9304C182.326 29.983 182.045 29.1866 181.482 28.5412C180.933 27.8958 180.122 27.3466 179.051 26.8935C177.994 26.4403 176.697 26.0284 175.159 25.6577L170.566 24.5043C167.009 23.6392 164.201 22.2867 162.142 20.4467C160.082 18.6068 159.059 16.1283 159.073 13.0114C159.059 10.4574 159.739 8.22609 161.112 6.31747C162.499 4.40885 164.4 2.91903 166.817 1.84801C169.234 0.776987 171.98 0.241476 175.056 0.241476C178.186 0.241476 180.919 0.776987 183.253 1.84801C185.601 2.91903 187.427 4.40885 188.732 6.31747C190.036 8.22609 190.709 10.4368 190.75 12.9496H182.203ZM194.319 8.17116V0.818181H228.963V8.17116H216.049V43H207.233V8.17116H194.319ZM235.384 43H225.827L240.389 0.818181H251.882L266.423 43H256.866L246.3 10.4574H245.971L235.384 43ZM234.787 26.4197H257.361V33.3814H234.787V26.4197Z" fill="#206A5D"/>
</svg>
