<svg width="622" height="119" viewBox="0 0 622 119" fill="none" xmlns="http://www.w3.org/2000/svg">
<path d="M17.5686 100.447C16.3588 100.447 15.2609 100.22 14.2749 99.7638C13.2889 99.2998 12.5058 98.6328 11.9258 97.7628C11.3458 96.8845 11.0558 95.8239 11.0558 94.581C11.0558 93.4872 11.2712 92.6006 11.7021 91.9212C12.133 91.2334 12.7088 90.6948 13.4297 90.3054C14.1506 89.916 14.9461 89.6259 15.8161 89.4354C16.6944 89.2365 17.5769 89.0791 18.4635 88.9631C19.6235 88.8139 20.564 88.7021 21.2848 88.6275C22.014 88.5446 22.5443 88.4079 22.8758 88.2173C23.2155 88.0268 23.3853 87.6953 23.3853 87.223V87.1236C23.3853 85.8973 23.0498 84.9444 22.3786 84.2649C21.7157 83.5855 20.709 83.2457 19.3584 83.2457C17.958 83.2457 16.8601 83.5523 16.0647 84.1655C15.2692 84.7786 14.7099 85.4332 14.3868 86.1293L11.6027 85.1349C12.0998 83.9749 12.7627 83.0717 13.5913 82.4254C14.4282 81.7708 15.3396 81.3151 16.3257 81.0582C17.32 80.7931 18.2977 80.6605 19.2589 80.6605C19.8721 80.6605 20.5764 80.7351 21.3718 80.8842C22.1756 81.0251 22.9503 81.3192 23.6961 81.7667C24.4501 82.2141 25.0757 82.8894 25.5728 83.7926C26.07 84.6958 26.3186 85.9055 26.3186 87.4219V100H23.3853V97.4148H23.2362C23.0373 97.8291 22.7059 98.2724 22.2419 98.7447C21.7779 99.217 21.1606 99.6188 20.39 99.9503C19.6194 100.282 18.6789 100.447 17.5686 100.447ZM18.016 97.8125C19.1761 97.8125 20.1538 97.5846 20.9493 97.1289C21.753 96.6732 22.3579 96.0849 22.7639 95.364C23.1782 94.6431 23.3853 93.8849 23.3853 93.0895V90.4048C23.2611 90.554 22.9876 90.6907 22.565 90.815C22.1507 90.931 21.6701 91.0346 21.1233 91.1257C20.5847 91.2086 20.0585 91.2831 19.5448 91.3494C19.0393 91.4074 18.6292 91.4571 18.3143 91.4986C17.552 91.598 16.8394 91.7596 16.1765 91.9833C15.5219 92.1987 14.9916 92.526 14.5856 92.9652C14.1879 93.3961 13.989 93.9844 13.989 94.7301C13.989 95.7493 14.366 96.5199 15.1201 97.0419C15.8824 97.5556 16.8477 97.8125 18.016 97.8125ZM30.2724 100V80.9091H33.2056V100H30.2724ZM31.7638 77.7273C31.1921 77.7273 30.6991 77.5326 30.2848 77.1431C29.8788 76.7537 29.6758 76.2855 29.6758 75.7386C29.6758 75.1918 29.8788 74.7236 30.2848 74.3342C30.6991 73.9447 31.1921 73.75 31.7638 73.75C32.3356 73.75 32.8244 73.9447 33.2305 74.3342C33.6448 74.7236 33.8519 75.1918 33.8519 75.7386C33.8519 76.2855 33.6448 76.7537 33.2305 77.1431C32.8244 77.5326 32.3356 77.7273 31.7638 77.7273ZM40.1113 74.5455V100H37.178V74.5455H40.1113ZM52.0879 100.398C50.2485 100.398 48.6617 99.9917 47.3277 99.1797C46.0019 98.3594 44.9786 97.2159 44.2577 95.7493C43.5451 94.2744 43.1888 92.5592 43.1888 90.6037C43.1888 88.6482 43.5451 86.9247 44.2577 85.4332C44.9786 83.9335 45.9812 82.7652 47.2655 81.9283C48.5581 81.0831 50.0662 80.6605 51.7897 80.6605C52.784 80.6605 53.7659 80.8262 54.7353 81.1577C55.7048 81.4891 56.5872 82.0277 57.3827 82.7734C58.1781 83.5109 58.812 84.4886 59.2843 85.7067C59.7566 86.9247 59.9928 88.4245 59.9928 90.206V91.4489H45.2769V88.9134H57.0098C57.0098 87.8362 56.7944 86.875 56.3635 86.0298C55.9409 85.1847 55.3361 84.5176 54.5489 84.0288C53.77 83.5399 52.8503 83.2955 51.7897 83.2955C50.6213 83.2955 49.6104 83.5855 48.757 84.1655C47.9118 84.7372 47.2614 85.483 46.8056 86.4027C46.3499 87.3224 46.122 88.3085 46.122 89.3608V91.0511C46.122 92.4929 46.3706 93.7151 46.8678 94.7177C47.3732 95.712 48.0734 96.4702 48.9683 96.9922C49.8632 97.5059 50.9031 97.7628 52.0879 97.7628C52.8585 97.7628 53.5546 97.6551 54.176 97.4396C54.8058 97.2159 55.3485 96.8845 55.8042 96.4453C56.2599 95.9979 56.6121 95.4427 56.8607 94.7798L59.6945 95.5753C59.3962 96.5365 58.8949 97.3816 58.1906 98.1108C57.4863 98.8317 56.6162 99.3951 55.5805 99.8011C54.5447 100.199 53.3806 100.398 52.0879 100.398ZM65.988 88.5156V100H63.0548V80.9091H65.8886V83.892H66.1372C66.5846 82.9226 67.2641 82.1437 68.1755 81.5554C69.087 80.9588 70.2636 80.6605 71.7054 80.6605C72.998 80.6605 74.129 80.9257 75.0985 81.456C76.0679 81.978 76.8219 82.7734 77.3605 83.8423C77.8991 84.9029 78.1684 86.2453 78.1684 87.8693V100H75.2352V88.0682C75.2352 86.5684 74.8457 85.4001 74.0669 84.5632C73.288 83.718 72.2191 83.2955 70.8602 83.2955C69.9239 83.2955 69.087 83.4985 68.3495 83.9045C67.6204 84.3105 67.0445 84.9029 66.6219 85.6818C66.1993 86.4607 65.988 87.4053 65.988 88.5156ZM89.8841 100.398C88.0943 100.398 86.5531 99.9751 85.2605 99.13C83.9679 98.2848 82.9736 97.1206 82.2776 95.6374C81.5815 94.1542 81.2335 92.4598 81.2335 90.554C81.2335 88.6151 81.5898 86.904 82.3024 85.4208C83.0233 83.9293 84.0259 82.7652 85.3102 81.9283C86.6028 81.0831 88.1109 80.6605 89.8344 80.6605C91.1767 80.6605 92.3865 80.9091 93.4636 81.4062C94.5408 81.9034 95.4233 82.5994 96.111 83.4943C96.7988 84.3892 97.2255 85.4332 97.3912 86.6264H94.458C94.2342 85.7564 93.7371 84.9858 92.9665 84.3146C92.2042 83.6352 91.1767 83.2955 89.8841 83.2955C88.7406 83.2955 87.738 83.5937 86.8763 84.1903C86.0228 84.7786 85.3558 85.6114 84.8752 86.6886C84.4029 87.7575 84.1668 89.0128 84.1668 90.4545C84.1668 91.9295 84.3988 93.2138 84.8628 94.3075C85.3351 95.4013 85.998 96.2506 86.8514 96.8555C87.7132 97.4603 88.7241 97.7628 89.8841 97.7628C90.6464 97.7628 91.3383 97.6302 91.9597 97.3651C92.5812 97.0999 93.1073 96.7188 93.5382 96.2216C93.9691 95.7244 94.2757 95.1278 94.458 94.4318H97.3912C97.2255 95.5587 96.8153 96.5737 96.1607 97.4769C95.5144 98.3718 94.6568 99.0844 93.5879 99.6147C92.5273 100.137 91.2927 100.398 89.8841 100.398ZM108.035 100.398C106.311 100.398 104.799 99.9876 103.498 99.1673C102.206 98.3469 101.195 97.1993 100.466 95.7244C99.7447 94.2495 99.3843 92.526 99.3843 90.554C99.3843 88.5653 99.7447 86.8294 100.466 85.3462C101.195 83.863 102.206 82.7113 103.498 81.891C104.799 81.0707 106.311 80.6605 108.035 80.6605C109.758 80.6605 111.266 81.0707 112.559 81.891C113.86 82.7113 114.871 83.863 115.592 85.3462C116.321 86.8294 116.685 88.5653 116.685 90.554C116.685 92.526 116.321 94.2495 115.592 95.7244C114.871 97.1993 113.86 98.3469 112.559 99.1673C111.266 99.9876 109.758 100.398 108.035 100.398ZM108.035 97.7628C109.344 97.7628 110.421 97.4272 111.266 96.756C112.112 96.0849 112.737 95.2024 113.143 94.1087C113.549 93.0149 113.752 91.83 113.752 90.554C113.752 89.2779 113.549 88.0889 113.143 86.9869C112.737 85.8848 112.112 84.9941 111.266 84.3146C110.421 83.6352 109.344 83.2955 108.035 83.2955C106.726 83.2955 105.649 83.6352 104.803 84.3146C103.958 84.9941 103.333 85.8848 102.927 86.9869C102.521 88.0889 102.318 89.2779 102.318 90.554C102.318 91.83 102.521 93.0149 102.927 94.1087C103.333 95.2024 103.958 96.0849 104.803 96.756C105.649 97.4272 106.726 97.7628 108.035 97.7628ZM128.264 80.9091V83.3949H117.973V80.9091H128.264ZM121.056 100V78.2741C121.056 77.1804 121.312 76.2689 121.826 75.5398C122.34 74.8106 123.007 74.2637 123.827 73.8991C124.648 73.5346 125.513 73.3523 126.425 73.3523C127.146 73.3523 127.734 73.4103 128.19 73.5263C128.646 73.6423 128.985 73.75 129.209 73.8494L128.364 76.3849C128.215 76.3352 128.008 76.2731 127.742 76.1985C127.486 76.1239 127.146 76.0866 126.723 76.0866C125.754 76.0866 125.054 76.3311 124.623 76.82C124.2 77.3088 123.989 78.0256 123.989 78.9702V100H121.056ZM139.477 80.9091V83.3949H129.186V80.9091H139.477ZM132.268 100V78.2741C132.268 77.1804 132.525 76.2689 133.039 75.5398C133.552 74.8106 134.219 74.2637 135.04 73.8991C135.86 73.5346 136.726 73.3523 137.637 73.3523C138.358 73.3523 138.946 73.4103 139.402 73.5263C139.858 73.6423 140.198 73.75 140.421 73.8494L139.576 76.3849C139.427 76.3352 139.22 76.2731 138.955 76.1985C138.698 76.1239 138.358 76.0866 137.936 76.0866C136.966 76.0866 136.266 76.3311 135.835 76.82C135.412 77.3088 135.201 78.0256 135.201 78.9702V100H132.268ZM149.406 100.398C147.566 100.398 145.979 99.9917 144.645 99.1797C143.32 98.3594 142.296 97.2159 141.575 95.7493C140.863 94.2744 140.507 92.5592 140.507 90.6037C140.507 88.6482 140.863 86.9247 141.575 85.4332C142.296 83.9335 143.299 82.7652 144.583 81.9283C145.876 81.0831 147.384 80.6605 149.107 80.6605C150.102 80.6605 151.084 80.8262 152.053 81.1577C153.023 81.4891 153.905 82.0277 154.7 82.7734C155.496 83.5109 156.13 84.4886 156.602 85.7067C157.074 86.9247 157.311 88.4245 157.311 90.206V91.4489H142.595V88.9134H154.328C154.328 87.8362 154.112 86.875 153.681 86.0298C153.259 85.1847 152.654 84.5176 151.867 84.0288C151.088 83.5399 150.168 83.2955 149.107 83.2955C147.939 83.2955 146.928 83.5855 146.075 84.1655C145.23 84.7372 144.579 85.483 144.123 86.4027C143.668 87.3224 143.44 88.3085 143.44 89.3608V91.0511C143.44 92.4929 143.688 93.7151 144.186 94.7177C144.691 95.712 145.391 96.4702 146.286 96.9922C147.181 97.5059 148.221 97.7628 149.406 97.7628C150.176 97.7628 150.872 97.6551 151.494 97.4396C152.124 97.2159 152.666 96.8845 153.122 96.4453C153.578 95.9979 153.93 95.4427 154.178 94.7798L157.012 95.5753C156.714 96.5365 156.213 97.3816 155.508 98.1108C154.804 98.8317 153.934 99.3951 152.898 99.8011C151.863 100.199 150.698 100.398 149.406 100.398ZM168.377 100.398C166.537 100.398 164.951 99.9917 163.617 99.1797C162.291 98.3594 161.267 97.2159 160.547 95.7493C159.834 94.2744 159.478 92.5592 159.478 90.6037C159.478 88.6482 159.834 86.9247 160.547 85.4332C161.267 83.9335 162.27 82.7652 163.554 81.9283C164.847 81.0831 166.355 80.6605 168.079 80.6605C169.073 80.6605 170.055 80.8262 171.024 81.1577C171.994 81.4891 172.876 82.0277 173.672 82.7734C174.467 83.5109 175.101 84.4886 175.573 85.7067C176.045 86.9247 176.282 88.4245 176.282 90.206V91.4489H161.566V88.9134H173.299C173.299 87.8362 173.083 86.875 172.652 86.0298C172.23 85.1847 171.625 84.5176 170.838 84.0288C170.059 83.5399 169.139 83.2955 168.079 83.2955C166.91 83.2955 165.899 83.5855 165.046 84.1655C164.201 84.7372 163.55 85.483 163.095 86.4027C162.639 87.3224 162.411 88.3085 162.411 89.3608V91.0511C162.411 92.4929 162.659 93.7151 163.157 94.7177C163.662 95.712 164.362 96.4702 165.257 96.9922C166.152 97.5059 167.192 97.7628 168.377 97.7628C169.147 97.7628 169.843 97.6551 170.465 97.4396C171.095 97.2159 171.637 96.8845 172.093 96.4453C172.549 95.9979 172.901 95.4427 173.15 94.7798L175.983 95.5753C175.685 96.5365 175.184 97.3816 174.479 98.1108C173.775 98.8317 172.905 99.3951 171.869 99.8011C170.834 100.199 169.669 100.398 168.377 100.398ZM181.481 100.199C180.868 100.199 180.342 99.9793 179.903 99.5401C179.464 99.101 179.244 98.5748 179.244 97.9616C179.244 97.3485 179.464 96.8223 179.903 96.3832C180.342 95.944 180.868 95.7244 181.481 95.7244C182.095 95.7244 182.621 95.944 183.06 96.3832C183.499 96.8223 183.719 97.3485 183.719 97.9616C183.719 98.3677 183.615 98.7405 183.408 99.0803C183.209 99.42 182.94 99.6934 182.6 99.9006C182.269 100.099 181.896 100.199 181.481 100.199ZM187.582 100V80.9091H190.416V83.7926H190.615C190.963 82.848 191.593 82.0816 192.504 81.4933C193.416 80.9049 194.443 80.6108 195.587 80.6108C195.802 80.6108 196.071 80.6149 196.394 80.6232C196.718 80.6315 196.962 80.6439 197.128 80.6605V83.6435C197.028 83.6186 196.8 83.5813 196.444 83.5316C196.096 83.4736 195.727 83.4446 195.338 83.4446C194.41 83.4446 193.581 83.6393 192.852 84.0288C192.131 84.4099 191.56 84.9402 191.137 85.6197C190.723 86.2908 190.516 87.0573 190.516 87.919V100H187.582ZM206.379 100.398C204.656 100.398 203.144 99.9876 201.843 99.1673C200.55 98.3469 199.539 97.1993 198.81 95.7244C198.089 94.2495 197.729 92.526 197.729 90.554C197.729 88.5653 198.089 86.8294 198.81 85.3462C199.539 83.863 200.55 82.7113 201.843 81.891C203.144 81.0707 204.656 80.6605 206.379 80.6605C208.103 80.6605 209.611 81.0707 210.904 81.891C212.204 82.7113 213.215 83.863 213.936 85.3462C214.665 86.8294 215.03 88.5653 215.03 90.554C215.03 92.526 214.665 94.2495 213.936 95.7244C213.215 97.1993 212.204 98.3469 210.904 99.1673C209.611 99.9876 208.103 100.398 206.379 100.398ZM206.379 97.7628C207.689 97.7628 208.766 97.4272 209.611 96.756C210.456 96.0849 211.082 95.2024 211.488 94.1087C211.894 93.0149 212.097 91.83 212.097 90.554C212.097 89.2779 211.894 88.0889 211.488 86.9869C211.082 85.8848 210.456 84.9941 209.611 84.3146C208.766 83.6352 207.689 83.2955 206.379 83.2955C205.07 83.2955 203.993 83.6352 203.148 84.3146C202.303 84.9941 201.677 85.8848 201.271 86.9869C200.865 88.0889 200.662 89.2779 200.662 90.554C200.662 91.83 200.865 93.0149 201.271 94.1087C201.677 95.2024 202.303 96.0849 203.148 96.756C203.993 97.4272 205.07 97.7628 206.379 97.7628ZM223.725 100.447C222.516 100.447 221.418 100.22 220.432 99.7638C219.446 99.2998 218.663 98.6328 218.083 97.7628C217.503 96.8845 217.213 95.8239 217.213 94.581C217.213 93.4872 217.428 92.6006 217.859 91.9212C218.29 91.2334 218.866 90.6948 219.587 90.3054C220.307 89.916 221.103 89.6259 221.973 89.4354C222.851 89.2365 223.734 89.0791 224.62 88.9631C225.78 88.8139 226.721 88.7021 227.442 88.6275C228.171 88.5446 228.701 88.4079 229.033 88.2173C229.372 88.0268 229.542 87.6953 229.542 87.223V87.1236C229.542 85.8973 229.207 84.9444 228.535 84.2649C227.873 83.5855 226.866 83.2457 225.515 83.2457C224.115 83.2457 223.017 83.5523 222.222 84.1655C221.426 84.7786 220.867 85.4332 220.544 86.1293L217.759 85.1349C218.257 83.9749 218.92 83.0717 219.748 82.4254C220.585 81.7708 221.496 81.3151 222.483 81.0582C223.477 80.7931 224.455 80.6605 225.416 80.6605C226.029 80.6605 226.733 80.7351 227.529 80.8842C228.332 81.0251 229.107 81.3192 229.853 81.7667C230.607 82.2141 231.233 82.8894 231.73 83.7926C232.227 84.6958 232.475 85.9055 232.475 87.4219V100H229.542V97.4148H229.393C229.194 97.8291 228.863 98.2724 228.399 98.7447C227.935 99.217 227.317 99.6188 226.547 99.9503C225.776 100.282 224.836 100.447 223.725 100.447ZM224.173 97.8125C225.333 97.8125 226.311 97.5846 227.106 97.1289C227.91 96.6732 228.515 96.0849 228.921 95.364C229.335 94.6431 229.542 93.8849 229.542 93.0895V90.4048C229.418 90.554 229.144 90.6907 228.722 90.815C228.308 90.931 227.827 91.0346 227.28 91.1257C226.742 91.2086 226.215 91.2831 225.702 91.3494C225.196 91.4074 224.786 91.4571 224.471 91.4986C223.709 91.598 222.996 91.7596 222.333 91.9833C221.679 92.1987 221.148 92.526 220.742 92.9652C220.345 93.3961 220.146 93.9844 220.146 94.7301C220.146 95.7493 220.523 96.5199 221.277 97.0419C222.039 97.5556 223.005 97.8125 224.173 97.8125ZM249.952 85.1847L247.317 85.9304C247.151 85.4912 246.907 85.0645 246.584 84.6502C246.269 84.2276 245.838 83.8796 245.291 83.6062C244.744 83.3327 244.044 83.196 243.191 83.196C242.022 83.196 241.049 83.4653 240.27 84.0039C239.499 84.5342 239.114 85.2095 239.114 86.0298C239.114 86.759 239.379 87.3349 239.909 87.7575C240.44 88.18 241.268 88.5322 242.395 88.8139L245.229 89.5099C246.936 89.9242 248.208 90.5581 249.045 91.4116C249.881 92.2567 250.3 93.3464 250.3 94.6804C250.3 95.7741 249.985 96.7519 249.355 97.6136C248.734 98.4754 247.864 99.1548 246.745 99.652C245.627 100.149 244.326 100.398 242.843 100.398C240.895 100.398 239.284 99.9751 238.008 99.13C236.732 98.2848 235.924 97.0502 235.584 95.4261L238.368 94.7301C238.633 95.7576 239.135 96.5282 239.872 97.0419C240.618 97.5556 241.591 97.8125 242.793 97.8125C244.16 97.8125 245.245 97.5225 246.049 96.9425C246.861 96.3542 247.267 95.6499 247.267 94.8295C247.267 94.1667 247.035 93.6115 246.571 93.1641C246.107 92.7083 245.395 92.3686 244.433 92.1449L241.252 91.3991C239.503 90.9848 238.219 90.3427 237.399 89.4727C236.587 88.5943 236.181 87.4964 236.181 86.179C236.181 85.1018 236.483 84.1489 237.088 83.3203C237.701 82.4917 238.534 81.8413 239.586 81.369C240.647 80.8967 241.848 80.6605 243.191 80.6605C245.08 80.6605 246.563 81.0748 247.64 81.9034C248.726 82.732 249.496 83.8258 249.952 85.1847ZM261.618 80.9091V83.3949H251.724V80.9091H261.618ZM254.608 76.3352H257.541V94.5312C257.541 95.3598 257.661 95.9813 257.902 96.3956C258.15 96.8016 258.465 97.075 258.846 97.2159C259.236 97.3485 259.646 97.4148 260.077 97.4148C260.4 97.4148 260.665 97.3982 260.872 97.3651C261.079 97.3236 261.245 97.2905 261.369 97.2656L261.966 99.9006C261.767 99.9751 261.489 100.05 261.133 100.124C260.777 100.207 260.325 100.249 259.778 100.249C258.95 100.249 258.138 100.07 257.342 99.7141C256.555 99.3578 255.901 98.8151 255.379 98.0859C254.865 97.3568 254.608 96.437 254.608 95.3267V76.3352ZM272.429 100.398C270.59 100.398 269.003 99.9917 267.669 99.1797C266.343 98.3594 265.32 97.2159 264.599 95.7493C263.886 94.2744 263.53 92.5592 263.53 90.6037C263.53 88.6482 263.886 86.9247 264.599 85.4332C265.32 83.9335 266.323 82.7652 267.607 81.9283C268.9 81.0831 270.408 80.6605 272.131 80.6605C273.125 80.6605 274.107 80.8262 275.077 81.1577C276.046 81.4891 276.929 82.0277 277.724 82.7734C278.52 83.5109 279.153 84.4886 279.626 85.7067C280.098 86.9247 280.334 88.4245 280.334 90.206V91.4489H265.618V88.9134H277.351C277.351 87.8362 277.136 86.875 276.705 86.0298C276.282 85.1847 275.677 84.5176 274.89 84.0288C274.111 83.5399 273.192 83.2955 272.131 83.2955C270.963 83.2955 269.952 83.5855 269.098 84.1655C268.253 84.7372 267.603 85.483 267.147 86.4027C266.691 87.3224 266.463 88.3085 266.463 89.3608V91.0511C266.463 92.4929 266.712 93.7151 267.209 94.7177C267.715 95.712 268.415 96.4702 269.31 96.9922C270.205 97.5059 271.244 97.7628 272.429 97.7628C273.2 97.7628 273.896 97.6551 274.517 97.4396C275.147 97.2159 275.69 96.8845 276.146 96.4453C276.601 95.9979 276.953 95.4427 277.202 94.7798L280.036 95.5753C279.738 96.5365 279.236 97.3816 278.532 98.1108C277.828 98.8317 276.958 99.3951 275.922 99.8011C274.886 100.199 273.722 100.398 272.429 100.398ZM283.396 100V80.9091H286.23V83.7926H286.429C286.777 82.848 287.407 82.0816 288.318 81.4933C289.23 80.9049 290.257 80.6108 291.4 80.6108C291.616 80.6108 291.885 80.6149 292.208 80.6232C292.531 80.6315 292.776 80.6439 292.942 80.6605V83.6435C292.842 83.6186 292.614 83.5813 292.258 83.5316C291.91 83.4736 291.541 83.4446 291.152 83.4446C290.224 83.4446 289.395 83.6393 288.666 84.0288C287.945 84.4099 287.373 84.9402 286.951 85.6197C286.537 86.2908 286.329 87.0573 286.329 87.919V100H283.396Z" fill="black"/>
<path d="M362.416 100.348C360.544 100.348 358.949 99.8384 357.631 98.8192C356.314 97.7918 355.307 96.3045 354.611 94.3572C353.915 92.4018 353.567 90.0402 353.567 87.2727C353.567 84.5218 353.915 82.1727 354.611 80.2255C355.315 78.27 356.326 76.7785 357.644 75.7511C358.969 74.7153 360.56 74.1974 362.416 74.1974C364.272 74.1974 365.859 74.7153 367.177 75.7511C368.502 76.7785 369.513 78.27 370.209 80.2255C370.914 82.1727 371.266 84.5218 371.266 87.2727C371.266 90.0402 370.918 92.4018 370.222 94.3572C369.526 96.3045 368.519 97.7918 367.201 98.8192C365.884 99.8384 364.289 100.348 362.416 100.348ZM362.416 97.6136C364.272 97.6136 365.714 96.7187 366.742 94.929C367.769 93.1392 368.283 90.5871 368.283 87.2727C368.283 85.0687 368.047 83.1919 367.574 81.6424C367.11 80.0929 366.439 78.9122 365.561 78.1001C364.691 77.2881 363.643 76.8821 362.416 76.8821C360.577 76.8821 359.139 77.7894 358.103 79.604C357.068 81.4104 356.55 83.9666 356.55 87.2727C356.55 89.4768 356.782 91.3494 357.246 92.8906C357.71 94.4318 358.377 95.6043 359.247 96.408C360.125 97.2118 361.182 97.6136 362.416 97.6136ZM382.742 100.348C381.035 100.348 379.527 100.046 378.218 99.4407C376.917 98.8275 375.902 97.9865 375.173 96.9176C374.444 95.8404 374.083 94.6141 374.092 93.2386C374.083 92.1615 374.295 91.1671 374.725 90.2557C375.156 89.3359 375.745 88.5695 376.49 87.9563C377.244 87.3349 378.085 86.9413 379.013 86.7756V86.6264C377.795 86.3116 376.826 85.628 376.105 84.5756C375.384 83.515 375.028 82.3094 375.036 80.9588C375.028 79.6662 375.355 78.5103 376.018 77.4911C376.681 76.4719 377.592 75.6682 378.752 75.0799C379.921 74.4916 381.251 74.1974 382.742 74.1974C384.217 74.1974 385.535 74.4916 386.695 75.0799C387.855 75.6682 388.766 76.4719 389.429 77.4911C390.1 78.5103 390.44 79.6662 390.448 80.9588C390.44 82.3094 390.071 83.515 389.342 84.5756C388.621 85.628 387.664 86.3116 386.471 86.6264V86.7756C387.391 86.9413 388.219 87.3349 388.957 87.9563C389.694 88.5695 390.282 89.3359 390.722 90.2557C391.161 91.1671 391.384 92.1615 391.393 93.2386C391.384 94.6141 391.012 95.8404 390.274 96.9176C389.545 97.9865 388.53 98.8275 387.229 99.4407C385.936 100.046 384.441 100.348 382.742 100.348ZM382.742 97.6136C383.894 97.6136 384.888 97.4272 385.725 97.0543C386.562 96.6815 387.208 96.1553 387.664 95.4759C388.12 94.7964 388.352 94.0009 388.36 93.0895C388.352 92.1283 388.103 91.279 387.614 90.5415C387.125 89.8041 386.458 89.2241 385.613 88.8015C384.776 88.3789 383.819 88.1676 382.742 88.1676C381.657 88.1676 380.687 88.3789 379.834 88.8015C378.989 89.2241 378.322 89.8041 377.833 90.5415C377.352 91.279 377.116 92.1283 377.124 93.0895C377.116 94.0009 377.336 94.7964 377.783 95.4759C378.239 96.1553 378.889 96.6815 379.734 97.0543C380.58 97.4272 381.582 97.6136 382.742 97.6136ZM382.742 85.5327C383.654 85.5327 384.461 85.3504 385.166 84.9858C385.878 84.6212 386.438 84.1116 386.844 83.457C387.25 82.8024 387.457 82.036 387.465 81.1577C387.457 80.2959 387.254 79.546 386.856 78.908C386.458 78.2617 385.907 77.7646 385.203 77.4165C384.499 77.0603 383.678 76.8821 382.742 76.8821C381.789 76.8821 380.957 77.0603 380.244 77.4165C379.531 77.7646 378.98 78.2617 378.591 78.908C378.201 79.546 378.011 80.2959 378.019 81.1577C378.011 82.036 378.206 82.8024 378.603 83.457C379.009 84.1116 379.569 84.6212 380.281 84.9858C380.994 85.3504 381.814 85.5327 382.742 85.5327ZM403.705 74.5455V100H400.623V77.777H400.473L394.259 81.9034V78.7713L400.623 74.5455H403.705ZM409.626 100V97.7628L418.028 88.5653C419.014 87.4882 419.826 86.5518 420.464 85.7564C421.102 84.9527 421.574 84.1986 421.881 83.4943C422.196 82.7817 422.353 82.036 422.353 81.2571C422.353 80.3622 422.138 79.5875 421.707 78.9329C421.284 78.2783 420.704 77.7728 419.967 77.4165C419.229 77.0603 418.401 76.8821 417.481 76.8821C416.503 76.8821 415.65 77.0851 414.92 77.4911C414.2 77.8888 413.64 78.4482 413.242 79.169C412.853 79.8899 412.658 80.7351 412.658 81.7045H409.725C409.725 80.2131 410.069 78.9039 410.757 77.777C411.444 76.6501 412.381 75.7718 413.566 75.142C414.759 74.5123 416.097 74.1974 417.58 74.1974C419.072 74.1974 420.393 74.5123 421.545 75.142C422.697 75.7718 423.6 76.6211 424.255 77.69C424.909 78.7589 425.236 79.9479 425.236 81.2571C425.236 82.1934 425.067 83.109 424.727 84.0039C424.395 84.8905 423.815 85.8807 422.987 86.9744C422.167 88.0599 421.027 89.3857 419.569 90.9517L413.852 97.0668V97.2656H425.684V100H409.626ZM430.213 100L441.597 77.4787V77.2798H428.472V74.5455H444.779V77.429L433.444 100H430.213ZM455.768 100.348C453.895 100.348 452.3 99.8384 450.983 98.8192C449.665 97.7918 448.658 96.3045 447.962 94.3572C447.266 92.4018 446.918 90.0402 446.918 87.2727C446.918 84.5218 447.266 82.1727 447.962 80.2255C448.667 78.27 449.678 76.7785 450.995 75.7511C452.321 74.7153 453.912 74.1974 455.768 74.1974C457.624 74.1974 459.211 74.7153 460.528 75.7511C461.854 76.7785 462.865 78.27 463.561 80.2255C464.265 82.1727 464.617 84.5218 464.617 87.2727C464.617 90.0402 464.269 92.4018 463.573 94.3572C462.877 96.3045 461.87 97.7918 460.553 98.8192C459.236 99.8384 457.641 100.348 455.768 100.348ZM455.768 97.6136C457.624 97.6136 459.066 96.7187 460.093 94.929C461.121 93.1392 461.634 90.5871 461.634 87.2727C461.634 85.0687 461.398 83.1919 460.926 81.6424C460.462 80.0929 459.791 78.9122 458.912 78.1001C458.042 77.2881 456.994 76.8821 455.768 76.8821C453.928 76.8821 452.491 77.7894 451.455 79.604C450.419 81.4104 449.901 83.9666 449.901 87.2727C449.901 89.4768 450.133 91.3494 450.597 92.8906C451.061 94.4318 451.728 95.6043 452.598 96.408C453.477 97.2118 454.533 97.6136 455.768 97.6136ZM467.94 100V97.7628L476.342 88.5653C477.328 87.4882 478.14 86.5518 478.778 85.7564C479.416 84.9527 479.889 84.1986 480.195 83.4943C480.51 82.7817 480.668 82.036 480.668 81.2571C480.668 80.3622 480.452 79.5875 480.021 78.9329C479.599 78.2783 479.019 77.7728 478.281 77.4165C477.544 77.0603 476.715 76.8821 475.795 76.8821C474.818 76.8821 473.964 77.0851 473.235 77.4911C472.514 77.8888 471.955 78.4482 471.557 79.169C471.168 79.8899 470.973 80.7351 470.973 81.7045H468.04C468.04 80.2131 468.384 78.9039 469.071 77.777C469.759 76.6501 470.695 75.7718 471.88 75.142C473.073 74.5123 474.412 74.1974 475.895 74.1974C477.386 74.1974 478.708 74.5123 479.86 75.142C481.011 75.7718 481.915 76.6211 482.569 77.69C483.224 78.7589 483.551 79.9479 483.551 81.2571C483.551 82.1934 483.381 83.109 483.042 84.0039C482.71 84.8905 482.13 85.8807 481.301 86.9744C480.481 88.0599 479.342 89.3857 477.883 90.9517L472.166 97.0668V97.2656H483.999V100H467.94ZM496.034 100.348C494.162 100.348 492.567 99.8384 491.249 98.8192C489.932 97.7918 488.925 96.3045 488.229 94.3572C487.533 92.4018 487.185 90.0402 487.185 87.2727C487.185 84.5218 487.533 82.1727 488.229 80.2255C488.933 78.27 489.944 76.7785 491.262 75.7511C492.587 74.7153 494.178 74.1974 496.034 74.1974C497.89 74.1974 499.477 74.7153 500.795 75.7511C502.12 76.7785 503.131 78.27 503.827 80.2255C504.532 82.1727 504.884 84.5218 504.884 87.2727C504.884 90.0402 504.536 92.4018 503.84 94.3572C503.144 96.3045 502.137 97.7918 500.819 98.8192C499.502 99.8384 497.907 100.348 496.034 100.348ZM496.034 97.6136C497.89 97.6136 499.332 96.7187 500.36 94.929C501.387 93.1392 501.901 90.5871 501.901 87.2727C501.901 85.0687 501.665 83.1919 501.192 81.6424C500.728 80.0929 500.057 78.9122 499.179 78.1001C498.309 77.2881 497.261 76.8821 496.034 76.8821C494.195 76.8821 492.757 77.7894 491.721 79.604C490.686 81.4104 490.168 83.9666 490.168 87.2727C490.168 89.4768 490.4 91.3494 490.864 92.8906C491.328 94.4318 491.995 95.6043 492.865 96.408C493.743 97.2118 494.8 97.6136 496.034 97.6136ZM516.808 100.348C515.167 100.348 513.704 100.066 512.42 99.5028C511.144 98.9394 510.129 98.1564 509.375 97.1538C508.629 96.1429 508.223 94.9704 508.157 93.6364H511.289C511.355 94.4567 511.637 95.1651 512.134 95.7617C512.631 96.35 513.282 96.8058 514.086 97.1289C514.889 97.4521 515.78 97.6136 516.758 97.6136C517.852 97.6136 518.821 97.4231 519.666 97.0419C520.511 96.6607 521.174 96.1304 521.655 95.451C522.135 94.7715 522.376 93.9844 522.376 93.0895C522.376 92.1532 522.144 91.3287 521.68 90.6161C521.216 89.8952 520.536 89.3318 519.641 88.9258C518.746 88.5198 517.653 88.3168 516.36 88.3168H514.322V85.5824H516.36C517.371 85.5824 518.258 85.4001 519.02 85.0355C519.791 84.6709 520.391 84.1572 520.822 83.4943C521.261 82.8314 521.481 82.0526 521.481 81.1577C521.481 80.2959 521.29 79.546 520.909 78.908C520.528 78.27 519.989 77.7728 519.293 77.4165C518.606 77.0603 517.794 76.8821 516.857 76.8821C515.979 76.8821 515.15 77.0437 514.371 77.3668C513.601 77.6817 512.971 78.1416 512.482 78.7464C511.993 79.343 511.728 80.0639 511.687 80.9091H508.704C508.754 79.575 509.155 78.4067 509.909 77.4041C510.664 76.3932 511.65 75.6061 512.868 75.0426C514.094 74.4792 515.44 74.1974 516.907 74.1974C518.481 74.1974 519.832 74.5165 520.959 75.1545C522.086 75.7842 522.952 76.6169 523.557 77.6527C524.161 78.6884 524.464 79.8071 524.464 81.0085C524.464 82.442 524.087 83.6642 523.333 84.6751C522.587 85.686 521.572 86.3861 520.288 86.7756V86.9744C521.895 87.2396 523.15 87.9232 524.054 89.0252C524.957 90.119 525.408 91.4737 525.408 93.0895C525.408 94.4732 525.031 95.7161 524.277 96.8182C523.532 97.9119 522.512 98.7737 521.22 99.4034C519.927 100.033 518.456 100.348 516.808 100.348ZM537.693 100.348C536.052 100.348 534.59 100.066 533.305 99.5028C532.029 98.9394 531.014 98.1564 530.26 97.1538C529.514 96.1429 529.108 94.9704 529.042 93.6364H532.174C532.241 94.4567 532.522 95.1651 533.019 95.7617C533.517 96.35 534.167 96.8058 534.971 97.1289C535.775 97.4521 536.665 97.6136 537.643 97.6136C538.737 97.6136 539.706 97.4231 540.551 97.0419C541.397 96.6607 542.059 96.1304 542.54 95.451C543.021 94.7715 543.261 93.9844 543.261 93.0895C543.261 92.1532 543.029 91.3287 542.565 90.6161C542.101 89.8952 541.421 89.3318 540.527 88.9258C539.632 88.5198 538.538 88.3168 537.245 88.3168H535.207V85.5824H537.245C538.256 85.5824 539.143 85.4001 539.905 85.0355C540.676 84.6709 541.276 84.1572 541.707 83.4943C542.146 82.8314 542.366 82.0526 542.366 81.1577C542.366 80.2959 542.175 79.546 541.794 78.908C541.413 78.27 540.875 77.7728 540.179 77.4165C539.491 77.0603 538.679 76.8821 537.742 76.8821C536.864 76.8821 536.036 77.0437 535.257 77.3668C534.486 77.6817 533.856 78.1416 533.367 78.7464C532.879 79.343 532.613 80.0639 532.572 80.9091H529.589C529.639 79.575 530.041 78.4067 530.795 77.4041C531.549 76.3932 532.535 75.6061 533.753 75.0426C534.979 74.4792 536.326 74.1974 537.792 74.1974C539.366 74.1974 540.717 74.5165 541.844 75.1545C542.971 75.7842 543.837 76.6169 544.442 77.6527C545.047 78.6884 545.349 79.8071 545.349 81.0085C545.349 82.442 544.972 83.6642 544.218 84.6751C543.472 85.686 542.457 86.3861 541.173 86.7756V86.9744C542.78 87.2396 544.036 87.9232 544.939 89.0252C545.842 90.119 546.294 91.4737 546.294 93.0895C546.294 94.4732 545.917 95.7161 545.163 96.8182C544.417 97.9119 543.398 98.7737 542.105 99.4034C540.812 100.033 539.342 100.348 537.693 100.348ZM557.932 100.348C556.473 100.348 555.16 100.058 553.992 99.478C552.823 98.898 551.887 98.1025 551.183 97.0916C550.478 96.0807 550.093 94.929 550.027 93.6364H553.01C553.126 94.7881 553.648 95.741 554.576 96.495C555.512 97.2408 556.631 97.6136 557.932 97.6136C558.976 97.6136 559.904 97.3692 560.716 96.8803C561.536 96.3915 562.178 95.7203 562.642 94.8668C563.114 94.0051 563.351 93.0315 563.351 91.946C563.351 90.8357 563.106 89.8455 562.617 88.9755C562.137 88.0972 561.474 87.4053 560.629 86.8999C559.783 86.3944 558.818 86.1375 557.733 86.1293C556.954 86.121 556.154 86.2411 555.334 86.4897C554.514 86.73 553.838 87.0407 553.308 87.4219L550.424 87.0739L551.966 74.5455H565.19V77.2798H554.551L553.656 84.7869H553.805C554.327 84.3726 554.982 84.0288 555.769 83.7553C556.556 83.4819 557.376 83.3452 558.23 83.3452C559.788 83.3452 561.176 83.718 562.394 84.4638C563.62 85.2012 564.581 86.2121 565.277 87.4964C565.981 88.7808 566.334 90.2474 566.334 91.8963C566.334 93.5204 565.969 94.9704 565.24 96.2464C564.519 97.5142 563.525 98.5168 562.257 99.2543C560.989 99.9834 559.547 100.348 557.932 100.348ZM578.472 100.348C576.831 100.348 575.369 100.066 574.084 99.5028C572.808 98.9394 571.793 98.1564 571.039 97.1538C570.294 96.1429 569.888 94.9704 569.821 93.6364H572.953C573.02 94.4567 573.301 95.1651 573.799 95.7617C574.296 96.35 574.946 96.8058 575.75 97.1289C576.554 97.4521 577.444 97.6136 578.422 97.6136C579.516 97.6136 580.485 97.4231 581.33 97.0419C582.176 96.6607 582.839 96.1304 583.319 95.451C583.8 94.7715 584.04 93.9844 584.04 93.0895C584.04 92.1532 583.808 91.3287 583.344 90.6161C582.88 89.8952 582.201 89.3318 581.306 88.9258C580.411 88.5198 579.317 88.3168 578.024 88.3168H575.986V85.5824H578.024C579.035 85.5824 579.922 85.4001 580.684 85.0355C581.455 84.6709 582.056 84.1572 582.486 83.4943C582.926 82.8314 583.145 82.0526 583.145 81.1577C583.145 80.2959 582.955 79.546 582.573 78.908C582.192 78.27 581.654 77.7728 580.958 77.4165C580.27 77.0603 579.458 76.8821 578.522 76.8821C577.643 76.8821 576.815 77.0437 576.036 77.3668C575.265 77.6817 574.635 78.1416 574.147 78.7464C573.658 79.343 573.393 80.0639 573.351 80.9091H570.368C570.418 79.575 570.82 78.4067 571.574 77.4041C572.328 76.3932 573.314 75.6061 574.532 75.0426C575.758 74.4792 577.105 74.1974 578.571 74.1974C580.146 74.1974 581.496 74.5165 582.623 75.1545C583.75 75.7842 584.616 76.6169 585.221 77.6527C585.826 78.6884 586.128 79.8071 586.128 81.0085C586.128 82.442 585.751 83.6642 584.997 84.6751C584.251 85.686 583.236 86.3861 581.952 86.7756V86.9744C583.559 87.2396 584.815 87.9232 585.718 89.0252C586.621 90.119 587.073 91.4737 587.073 93.0895C587.073 94.4732 586.696 95.7161 585.942 96.8182C585.196 97.9119 584.177 98.7737 582.884 99.4034C581.592 100.033 580.121 100.348 578.472 100.348Z" fill="black"/>
<path d="M127 25C127 38.8071 138.193 50 152 50C165.807 50 177 38.8071 177 25C177 11.1929 165.807 0 152 0C138.193 0 127 11.1929 127 25Z" fill="#F00073"/>
<path d="M152 14.375C155.437 14.375 155.906 14.375 157.312 14.375C158.562 14.375 159.187 14.6875 159.656 14.8438C160.281 15.1563 160.75 15.3125 161.219 15.7813C161.687 16.25 162 16.7188 162.156 17.3438C162.312 17.8125 162.469 18.4375 162.625 19.6875C162.625 21.0938 162.625 21.4062 162.625 25C162.625 28.5938 162.625 28.9062 162.625 30.3125C162.625 31.5625 162.312 32.1875 162.156 32.6562C161.844 33.2812 161.687 33.75 161.219 34.2187C160.75 34.6875 160.281 35 159.656 35.1562C159.187 35.3125 158.562 35.4687 157.312 35.625C155.906 35.625 155.594 35.625 152 35.625C148.406 35.625 148.094 35.625 146.688 35.625C145.438 35.625 144.813 35.3125 144.344 35.1562C143.719 34.8437 143.25 34.6875 142.781 34.2187C142.313 33.75 142 33.2812 141.844 32.6562C141.688 32.1875 141.531 31.5625 141.375 30.3125C141.375 28.9062 141.375 28.5938 141.375 25C141.375 21.4062 141.375 21.0938 141.375 19.6875C141.375 18.4375 141.688 17.8125 141.844 17.3438C142.156 16.7188 142.313 16.25 142.781 15.7813C143.25 15.3125 143.719 15 144.344 14.8438C144.813 14.6875 145.438 14.5312 146.688 14.375C148.094 14.375 148.562 14.375 152 14.375ZM152 12.0312C148.406 12.0312 148.094 12.0312 146.688 12.0312C145.281 12.0312 144.344 12.3438 143.563 12.6563C142.781 12.9688 142 13.4375 141.219 14.2188C140.438 15 140.125 15.625 139.656 16.5625C139.344 17.3438 139.187 18.2813 139.031 19.6875C139.031 21.0938 139.031 21.5625 139.031 25C139.031 28.5938 139.031 28.9062 139.031 30.3125C139.031 31.7187 139.344 32.6562 139.656 33.4375C139.969 34.2187 140.438 35 141.219 35.7812C142 36.5625 142.625 36.875 143.563 37.3438C144.344 37.6562 145.281 37.8125 146.688 37.9687C148.094 37.9687 148.562 37.9687 152 37.9687C155.437 37.9687 155.906 37.9687 157.312 37.9687C158.719 37.9687 159.656 37.6562 160.437 37.3438C161.219 37.0312 162 36.5625 162.781 35.7812C163.562 35 163.875 34.375 164.344 33.4375C164.656 32.6562 164.812 31.7187 164.969 30.3125C164.969 28.9062 164.969 28.4375 164.969 25C164.969 21.5625 164.969 21.0938 164.969 19.6875C164.969 18.2813 164.656 17.3438 164.344 16.5625C164.031 15.7813 163.562 15 162.781 14.2188C162 13.4375 161.375 13.125 160.437 12.6563C159.656 12.3438 158.719 12.1875 157.312 12.0312C155.906 12.0313 155.594 12.0312 152 12.0312Z" fill="white"/>
<path d="M152 18.2812C148.25 18.2812 145.281 21.25 145.281 25C145.281 28.75 148.25 31.7187 152 31.7187C155.75 31.7187 158.719 28.75 158.719 25C158.719 21.25 155.75 18.2812 152 18.2812ZM152 29.375C149.656 29.375 147.625 27.5 147.625 25C147.625 22.6562 149.5 20.625 152 20.625C154.344 20.625 156.375 22.5 156.375 25C156.375 27.3437 154.344 29.375 152 29.375Z" fill="white"/>
<path d="M158.875 19.6875C159.738 19.6875 160.437 18.9879 160.437 18.125C160.437 17.2621 159.738 16.5625 158.875 16.5625C158.012 16.5625 157.312 17.2621 157.312 18.125C157.312 18.9879 158.012 19.6875 158.875 19.6875Z" fill="white"/>
<path d="M446 25C446 38.8071 457.193 50 471 50C484.807 50 496 38.8071 496 25C496 11.1929 484.807 0 471 0C457.193 0 446 11.1929 446 25Z" fill="#25D366"/>
<path fill-rule="evenodd" clip-rule="evenodd" d="M479.75 16.0938C477.406 13.75 474.281 12.5 471 12.5C464.125 12.5 458.5 18.125 458.5 25C458.5 27.1875 459.125 29.375 460.219 31.25L458.5 37.5L465.063 35.7812C466.938 36.7188 468.969 37.3438 471 37.3438C477.875 37.3438 483.5 31.7188 483.5 24.8437C483.5 21.5625 482.094 18.4375 479.75 16.0938ZM471 35.3125C469.125 35.3125 467.25 34.8438 465.688 33.9063L465.375 33.75L461.469 34.8437L462.563 31.0938L462.25 30.625C461.156 28.9062 460.687 27.0313 460.687 25.1563C460.687 19.5313 465.375 14.8438 471 14.8438C473.812 14.8438 476.313 15.9375 478.344 17.8125C480.375 19.8437 481.313 22.3438 481.313 25.1563C481.313 30.625 476.781 35.3125 471 35.3125ZM476.625 27.5C476.313 27.3438 474.75 26.5625 474.438 26.5625C474.125 26.4062 473.969 26.4063 473.812 26.7188C473.656 27.0313 473.031 27.6562 472.875 27.9687C472.719 28.125 472.562 28.125 472.25 28.125C471.937 27.9688 471 27.6562 469.75 26.5625C468.813 25.7812 468.188 24.6875 468.031 24.375C467.875 24.0625 468.031 23.9062 468.188 23.75C468.344 23.5938 468.5 23.4375 468.656 23.2812C468.812 23.125 468.813 22.9688 468.969 22.8125C469.125 22.6563 468.969 22.5 468.969 22.3438C468.969 22.1875 468.344 20.625 468.031 20C467.875 19.5313 467.563 19.5312 467.406 19.5312C467.25 19.5312 467.094 19.5312 466.781 19.5312C466.625 19.5312 466.312 19.5312 466 19.8437C465.687 20.1562 464.906 20.9375 464.906 22.5C464.906 24.0625 466 25.4688 466.156 25.7812C466.312 25.9375 468.344 29.2188 471.469 30.4688C474.125 31.5625 474.594 31.25 475.219 31.25C475.844 31.25 477.094 30.4688 477.25 29.8438C477.562 29.0625 477.563 28.4375 477.406 28.4375C477.25 27.6563 476.938 27.6563 476.625 27.5Z" fill="white"/>
</svg>
