<svg width="303" height="119" viewBox="0 0 303 119" fill="none" xmlns="http://www.w3.org/2000/svg">
<path d="M43.4163 100.348C41.5437 100.348 39.9486 99.8384 38.6311 98.8192C37.3137 97.7918 36.3069 96.3045 35.6109 94.3572C34.9149 92.4018 34.5669 90.0402 34.5669 87.2727C34.5669 84.5218 34.9149 82.1727 35.6109 80.2255C36.3152 78.27 37.3261 76.7785 38.6436 75.7511C39.9693 74.7153 41.5602 74.1974 43.4163 74.1974C45.2724 74.1974 46.8591 74.7153 48.1766 75.7511C49.5024 76.7785 50.5133 78.27 51.2093 80.2255C51.9136 82.1727 52.2657 84.5218 52.2657 87.2727C52.2657 90.0402 51.9177 92.4018 51.2217 94.3572C50.5257 96.3045 49.5189 97.7918 48.2015 98.8192C46.884 99.8384 45.2889 100.348 43.4163 100.348ZM43.4163 97.6136C45.2724 97.6136 46.7141 96.7187 47.7416 94.929C48.7691 93.1392 49.2828 90.5871 49.2828 87.2727C49.2828 85.0687 49.0466 83.1919 48.5743 81.6424C48.1103 80.0929 47.4392 78.9122 46.5608 78.1001C45.6908 77.2881 44.6426 76.8821 43.4163 76.8821C41.5768 76.8821 40.1392 77.7894 39.1035 79.604C38.0677 81.4104 37.5498 83.9666 37.5498 87.2727C37.5498 89.4768 37.7818 91.3494 38.2459 92.8906C38.7099 94.4318 39.3769 95.6043 40.2469 96.408C41.1252 97.2118 42.1817 97.6136 43.4163 97.6136ZM63.7422 100.348C62.0352 100.348 60.5272 100.046 59.218 99.4407C57.9171 98.8275 56.9021 97.9865 56.1729 96.9176C55.4437 95.8404 55.0833 94.6141 55.0916 93.2386C55.0833 92.1615 55.2946 91.1671 55.7255 90.2557C56.1563 89.3359 56.7446 88.5695 57.4904 87.9563C58.2444 87.3349 59.0854 86.9413 60.0135 86.7756V86.6264C58.7954 86.3116 57.826 85.628 57.1051 84.5756C56.3842 83.515 56.0279 82.3094 56.0362 80.9588C56.0279 79.6662 56.3552 78.5103 57.0181 77.4911C57.681 76.4719 58.5924 75.6682 59.7525 75.0799C60.9208 74.4916 62.2507 74.1974 63.7422 74.1974C65.2171 74.1974 66.5345 74.4916 67.6946 75.0799C68.8546 75.6682 69.7661 76.4719 70.4289 77.4911C71.1001 78.5103 71.4398 79.6662 71.4481 80.9588C71.4398 82.3094 71.0711 83.515 70.3419 84.5756C69.6211 85.628 68.664 86.3116 67.4709 86.6264V86.7756C68.3906 86.9413 69.2192 87.3349 69.9566 87.9563C70.6941 88.5695 71.2824 89.3359 71.7216 90.2557C72.1607 91.1671 72.3844 92.1615 72.3927 93.2386C72.3844 94.6141 72.0116 95.8404 71.2741 96.9176C70.5449 97.9865 69.5299 98.8275 68.229 99.4407C66.9364 100.046 65.4408 100.348 63.7422 100.348ZM63.7422 97.6136C64.8939 97.6136 65.8882 97.4272 66.7251 97.0543C67.562 96.6815 68.2083 96.1553 68.664 95.4759C69.1198 94.7964 69.3518 94.0009 69.3601 93.0895C69.3518 92.1283 69.1032 91.279 68.6143 90.5415C68.1254 89.8041 67.4584 89.2241 66.6133 88.8015C65.7764 88.3789 64.8193 88.1676 63.7422 88.1676C62.6567 88.1676 61.6872 88.3789 60.8338 88.8015C59.9886 89.2241 59.3216 89.8041 58.8327 90.5415C58.3521 91.279 58.116 92.1283 58.1243 93.0895C58.116 94.0009 58.3356 94.7964 58.783 95.4759C59.2387 96.1553 59.8892 96.6815 60.7343 97.0543C61.5795 97.4272 62.5821 97.6136 63.7422 97.6136ZM63.7422 85.5327C64.6536 85.5327 65.4615 85.3504 66.1658 84.9858C66.8784 84.6212 67.4377 84.1116 67.8437 83.457C68.2497 82.8024 68.4569 82.036 68.4652 81.1577C68.4569 80.2959 68.2539 79.546 67.8561 78.908C67.4584 78.2617 66.9074 77.7646 66.2031 77.4165C65.4988 77.0603 64.6785 76.8821 63.7422 76.8821C62.7893 76.8821 61.9565 77.0603 61.2439 77.4165C60.5313 77.7646 59.9803 78.2617 59.5909 78.908C59.2014 79.546 59.0109 80.2959 59.0191 81.1577C59.0109 82.036 59.2056 82.8024 59.6033 83.457C60.0093 84.1116 60.5686 84.6212 61.2812 84.9858C61.9938 85.3504 62.8141 85.5327 63.7422 85.5327ZM84.705 74.5455V100H81.6226V77.777H81.4735L75.259 81.9034V78.7713L81.6226 74.5455H84.705ZM90.6257 100V97.7628L99.0277 88.5653C100.014 87.4882 100.826 86.5518 101.464 85.7564C102.102 84.9527 102.574 84.1986 102.881 83.4943C103.196 82.7817 103.353 82.036 103.353 81.2571C103.353 80.3622 103.138 79.5875 102.707 78.9329C102.284 78.2783 101.704 77.7728 100.967 77.4165C100.229 77.0603 99.4005 76.8821 98.4808 76.8821C97.503 76.8821 96.6496 77.0851 95.9204 77.4911C95.1995 77.8888 94.6402 78.4482 94.2425 79.169C93.8531 79.8899 93.6583 80.7351 93.6583 81.7045H90.7251C90.7251 80.2131 91.069 78.9039 91.7567 77.777C92.4444 76.6501 93.3808 75.7718 94.5657 75.142C95.7588 74.5123 97.097 74.1974 98.5802 74.1974C100.072 74.1974 101.393 74.5123 102.545 75.142C103.697 75.7718 104.6 76.6211 105.255 77.69C105.909 78.7589 106.236 79.9479 106.236 81.2571C106.236 82.1934 106.067 83.109 105.727 84.0039C105.395 84.8905 104.815 85.8807 103.987 86.9744C103.167 88.0599 102.027 89.3857 100.569 90.9517L94.8515 97.0668V97.2656H106.684V100H90.6257ZM111.213 100L122.597 77.4787V77.2798H109.472V74.5455H125.779V77.429L114.444 100H111.213ZM136.768 100.348C134.895 100.348 133.3 99.8384 131.983 98.8192C130.665 97.7918 129.658 96.3045 128.962 94.3572C128.266 92.4018 127.918 90.0402 127.918 87.2727C127.918 84.5218 128.266 82.1727 128.962 80.2255C129.667 78.27 130.678 76.7785 131.995 75.7511C133.321 74.7153 134.912 74.1974 136.768 74.1974C138.624 74.1974 140.211 74.7153 141.528 75.7511C142.854 76.7785 143.865 78.27 144.561 80.2255C145.265 82.1727 145.617 84.5218 145.617 87.2727C145.617 90.0402 145.269 92.4018 144.573 94.3572C143.877 96.3045 142.87 97.7918 141.553 98.8192C140.236 99.8384 138.641 100.348 136.768 100.348ZM136.768 97.6136C138.624 97.6136 140.066 96.7187 141.093 94.929C142.121 93.1392 142.634 90.5871 142.634 87.2727C142.634 85.0687 142.398 83.1919 141.926 81.6424C141.462 80.0929 140.791 78.9122 139.912 78.1001C139.042 77.2881 137.994 76.8821 136.768 76.8821C134.928 76.8821 133.491 77.7894 132.455 79.604C131.419 81.4104 130.901 83.9666 130.901 87.2727C130.901 89.4768 131.133 91.3494 131.597 92.8906C132.061 94.4318 132.728 95.6043 133.598 96.408C134.477 97.2118 135.533 97.6136 136.768 97.6136ZM148.94 100V97.7628L157.342 88.5653C158.328 87.4882 159.14 86.5518 159.778 85.7564C160.416 84.9527 160.889 84.1986 161.195 83.4943C161.51 82.7817 161.668 82.036 161.668 81.2571C161.668 80.3622 161.452 79.5875 161.021 78.9329C160.599 78.2783 160.019 77.7728 159.281 77.4165C158.544 77.0603 157.715 76.8821 156.795 76.8821C155.818 76.8821 154.964 77.0851 154.235 77.4911C153.514 77.8888 152.955 78.4482 152.557 79.169C152.168 79.8899 151.973 80.7351 151.973 81.7045H149.04C149.04 80.2131 149.384 78.9039 150.071 77.777C150.759 76.6501 151.695 75.7718 152.88 75.142C154.073 74.5123 155.412 74.1974 156.895 74.1974C158.386 74.1974 159.708 74.5123 160.86 75.142C162.011 75.7718 162.915 76.6211 163.569 77.69C164.224 78.7589 164.551 79.9479 164.551 81.2571C164.551 82.1934 164.381 83.109 164.042 84.0039C163.71 84.8905 163.13 85.8807 162.301 86.9744C161.481 88.0599 160.342 89.3857 158.883 90.9517L153.166 97.0668V97.2656H164.999V100H148.94ZM177.034 100.348C175.162 100.348 173.567 99.8384 172.249 98.8192C170.932 97.7918 169.925 96.3045 169.229 94.3572C168.533 92.4018 168.185 90.0402 168.185 87.2727C168.185 84.5218 168.533 82.1727 169.229 80.2255C169.933 78.27 170.944 76.7785 172.262 75.7511C173.587 74.7153 175.178 74.1974 177.034 74.1974C178.89 74.1974 180.477 74.7153 181.795 75.7511C183.12 76.7785 184.131 78.27 184.827 80.2255C185.532 82.1727 185.884 84.5218 185.884 87.2727C185.884 90.0402 185.536 92.4018 184.84 94.3572C184.144 96.3045 183.137 97.7918 181.819 98.8192C180.502 99.8384 178.907 100.348 177.034 100.348ZM177.034 97.6136C178.89 97.6136 180.332 96.7187 181.36 94.929C182.387 93.1392 182.901 90.5871 182.901 87.2727C182.901 85.0687 182.665 83.1919 182.192 81.6424C181.728 80.0929 181.057 78.9122 180.179 78.1001C179.309 77.2881 178.261 76.8821 177.034 76.8821C175.195 76.8821 173.757 77.7894 172.721 79.604C171.686 81.4104 171.168 83.9666 171.168 87.2727C171.168 89.4768 171.4 91.3494 171.864 92.8906C172.328 94.4318 172.995 95.6043 173.865 96.408C174.743 97.2118 175.8 97.6136 177.034 97.6136ZM197.808 100.348C196.167 100.348 194.704 100.066 193.42 99.5028C192.144 98.9394 191.129 98.1564 190.375 97.1538C189.629 96.1429 189.223 94.9704 189.157 93.6364H192.289C192.355 94.4567 192.637 95.1651 193.134 95.7617C193.631 96.35 194.282 96.8058 195.086 97.1289C195.889 97.4521 196.78 97.6136 197.758 97.6136C198.852 97.6136 199.821 97.4231 200.666 97.0419C201.511 96.6607 202.174 96.1304 202.655 95.451C203.135 94.7715 203.376 93.9844 203.376 93.0895C203.376 92.1532 203.144 91.3287 202.68 90.6161C202.216 89.8952 201.536 89.3318 200.641 88.9258C199.746 88.5198 198.653 88.3168 197.36 88.3168H195.322V85.5824H197.36C198.371 85.5824 199.258 85.4001 200.02 85.0355C200.791 84.6709 201.391 84.1572 201.822 83.4943C202.261 82.8314 202.481 82.0526 202.481 81.1577C202.481 80.2959 202.29 79.546 201.909 78.908C201.528 78.27 200.989 77.7728 200.293 77.4165C199.606 77.0603 198.794 76.8821 197.857 76.8821C196.979 76.8821 196.15 77.0437 195.371 77.3668C194.601 77.6817 193.971 78.1416 193.482 78.7464C192.993 79.343 192.728 80.0639 192.687 80.9091H189.704C189.754 79.575 190.155 78.4067 190.909 77.4041C191.664 76.3932 192.65 75.6061 193.868 75.0426C195.094 74.4792 196.44 74.1974 197.907 74.1974C199.481 74.1974 200.832 74.5165 201.959 75.1545C203.086 75.7842 203.952 76.6169 204.557 77.6527C205.161 78.6884 205.464 79.8071 205.464 81.0085C205.464 82.442 205.087 83.6642 204.333 84.6751C203.587 85.686 202.572 86.3861 201.288 86.7756V86.9744C202.895 87.2396 204.15 87.9232 205.054 89.0252C205.957 90.119 206.408 91.4737 206.408 93.0895C206.408 94.4732 206.031 95.7161 205.277 96.8182C204.532 97.9119 203.512 98.7737 202.22 99.4034C200.927 100.033 199.456 100.348 197.808 100.348ZM218.693 100.348C217.052 100.348 215.59 100.066 214.305 99.5028C213.029 98.9394 212.014 98.1564 211.26 97.1538C210.514 96.1429 210.108 94.9704 210.042 93.6364H213.174C213.241 94.4567 213.522 95.1651 214.019 95.7617C214.517 96.35 215.167 96.8058 215.971 97.1289C216.775 97.4521 217.665 97.6136 218.643 97.6136C219.737 97.6136 220.706 97.4231 221.551 97.0419C222.397 96.6607 223.059 96.1304 223.54 95.451C224.021 94.7715 224.261 93.9844 224.261 93.0895C224.261 92.1532 224.029 91.3287 223.565 90.6161C223.101 89.8952 222.421 89.3318 221.527 88.9258C220.632 88.5198 219.538 88.3168 218.245 88.3168H216.207V85.5824H218.245C219.256 85.5824 220.143 85.4001 220.905 85.0355C221.676 84.6709 222.276 84.1572 222.707 83.4943C223.146 82.8314 223.366 82.0526 223.366 81.1577C223.366 80.2959 223.175 79.546 222.794 78.908C222.413 78.27 221.875 77.7728 221.179 77.4165C220.491 77.0603 219.679 76.8821 218.742 76.8821C217.864 76.8821 217.036 77.0437 216.257 77.3668C215.486 77.6817 214.856 78.1416 214.367 78.7464C213.879 79.343 213.613 80.0639 213.572 80.9091H210.589C210.639 79.575 211.041 78.4067 211.795 77.4041C212.549 76.3932 213.535 75.6061 214.753 75.0426C215.979 74.4792 217.326 74.1974 218.792 74.1974C220.366 74.1974 221.717 74.5165 222.844 75.1545C223.971 75.7842 224.837 76.6169 225.442 77.6527C226.047 78.6884 226.349 79.8071 226.349 81.0085C226.349 82.442 225.972 83.6642 225.218 84.6751C224.472 85.686 223.457 86.3861 222.173 86.7756V86.9744C223.78 87.2396 225.036 87.9232 225.939 89.0252C226.842 90.119 227.294 91.4737 227.294 93.0895C227.294 94.4732 226.917 95.7161 226.163 96.8182C225.417 97.9119 224.398 98.7737 223.105 99.4034C221.812 100.033 220.342 100.348 218.693 100.348ZM238.932 100.348C237.473 100.348 236.16 100.058 234.992 99.478C233.823 98.898 232.887 98.1025 232.183 97.0916C231.478 96.0807 231.093 94.929 231.027 93.6364H234.01C234.126 94.7881 234.648 95.741 235.576 96.495C236.512 97.2408 237.631 97.6136 238.932 97.6136C239.976 97.6136 240.904 97.3692 241.716 96.8803C242.536 96.3915 243.178 95.7203 243.642 94.8668C244.114 94.0051 244.351 93.0315 244.351 91.946C244.351 90.8357 244.106 89.8455 243.617 88.9755C243.137 88.0972 242.474 87.4053 241.629 86.8999C240.783 86.3944 239.818 86.1375 238.733 86.1293C237.954 86.121 237.154 86.2411 236.334 86.4897C235.514 86.73 234.838 87.0407 234.308 87.4219L231.424 87.0739L232.966 74.5455H246.19V77.2798H235.551L234.656 84.7869H234.805C235.327 84.3726 235.982 84.0288 236.769 83.7553C237.556 83.4819 238.376 83.3452 239.23 83.3452C240.788 83.3452 242.176 83.718 243.394 84.4638C244.62 85.2012 245.581 86.2121 246.277 87.4964C246.981 88.7808 247.334 90.2474 247.334 91.8963C247.334 93.5204 246.969 94.9704 246.24 96.2464C245.519 97.5142 244.525 98.5168 243.257 99.2543C241.989 99.9834 240.547 100.348 238.932 100.348ZM259.472 100.348C257.831 100.348 256.369 100.066 255.084 99.5028C253.808 98.9394 252.793 98.1564 252.039 97.1538C251.294 96.1429 250.888 94.9704 250.821 93.6364H253.953C254.02 94.4567 254.301 95.1651 254.799 95.7617C255.296 96.35 255.946 96.8058 256.75 97.1289C257.554 97.4521 258.444 97.6136 259.422 97.6136C260.516 97.6136 261.485 97.4231 262.33 97.0419C263.176 96.6607 263.839 96.1304 264.319 95.451C264.8 94.7715 265.04 93.9844 265.04 93.0895C265.04 92.1532 264.808 91.3287 264.344 90.6161C263.88 89.8952 263.201 89.3318 262.306 88.9258C261.411 88.5198 260.317 88.3168 259.024 88.3168H256.986V85.5824H259.024C260.035 85.5824 260.922 85.4001 261.684 85.0355C262.455 84.6709 263.056 84.1572 263.486 83.4943C263.926 82.8314 264.145 82.0526 264.145 81.1577C264.145 80.2959 263.955 79.546 263.573 78.908C263.192 78.27 262.654 77.7728 261.958 77.4165C261.27 77.0603 260.458 76.8821 259.522 76.8821C258.643 76.8821 257.815 77.0437 257.036 77.3668C256.265 77.6817 255.635 78.1416 255.147 78.7464C254.658 79.343 254.393 80.0639 254.351 80.9091H251.368C251.418 79.575 251.82 78.4067 252.574 77.4041C253.328 76.3932 254.314 75.6061 255.532 75.0426C256.758 74.4792 258.105 74.1974 259.571 74.1974C261.146 74.1974 262.496 74.5165 263.623 75.1545C264.75 75.7842 265.616 76.6169 266.221 77.6527C266.826 78.6884 267.128 79.8071 267.128 81.0085C267.128 82.442 266.751 83.6642 265.997 84.6751C265.251 85.686 264.236 86.3861 262.952 86.7756V86.9744C264.559 87.2396 265.815 87.9232 266.718 89.0252C267.621 90.119 268.073 91.4737 268.073 93.0895C268.073 94.4732 267.696 95.7161 266.942 96.8182C266.196 97.9119 265.177 98.7737 263.884 99.4034C262.592 100.033 261.121 100.348 259.472 100.348Z" fill="black"/>
<path d="M127 25C127 38.8071 138.193 50 152 50C165.807 50 177 38.8071 177 25C177 11.1929 165.807 0 152 0C138.193 0 127 11.1929 127 25Z" fill="#25D366"/>
<path fill-rule="evenodd" clip-rule="evenodd" d="M160.75 16.0938C158.406 13.75 155.281 12.5 152 12.5C145.125 12.5 139.5 18.125 139.5 25C139.5 27.1875 140.125 29.375 141.219 31.25L139.5 37.5L146.063 35.7812C147.938 36.7188 149.969 37.3438 152 37.3438C158.875 37.3438 164.5 31.7188 164.5 24.8437C164.5 21.5625 163.094 18.4375 160.75 16.0938ZM152 35.3125C150.125 35.3125 148.25 34.8438 146.688 33.9063L146.375 33.75L142.469 34.8437L143.563 31.0938L143.25 30.625C142.156 28.9062 141.687 27.0313 141.687 25.1563C141.687 19.5313 146.375 14.8438 152 14.8438C154.812 14.8438 157.313 15.9375 159.344 17.8125C161.375 19.8437 162.313 22.3438 162.313 25.1563C162.313 30.625 157.781 35.3125 152 35.3125ZM157.625 27.5C157.313 27.3438 155.75 26.5625 155.438 26.5625C155.125 26.4062 154.969 26.4063 154.812 26.7188C154.656 27.0313 154.031 27.6562 153.875 27.9687C153.719 28.125 153.562 28.125 153.25 28.125C152.937 27.9688 152 27.6562 150.75 26.5625C149.813 25.7812 149.188 24.6875 149.031 24.375C148.875 24.0625 149.031 23.9062 149.188 23.75C149.344 23.5938 149.5 23.4375 149.656 23.2812C149.812 23.125 149.813 22.9688 149.969 22.8125C150.125 22.6563 149.969 22.5 149.969 22.3438C149.969 22.1875 149.344 20.625 149.031 20C148.875 19.5313 148.563 19.5312 148.406 19.5312C148.25 19.5312 148.094 19.5312 147.781 19.5312C147.625 19.5312 147.312 19.5312 147 19.8437C146.687 20.1562 145.906 20.9375 145.906 22.5C145.906 24.0625 147 25.4688 147.156 25.7812C147.312 25.9375 149.344 29.2188 152.469 30.4688C155.125 31.5625 155.594 31.25 156.219 31.25C156.844 31.25 158.094 30.4688 158.25 29.8438C158.562 29.0625 158.563 28.4375 158.406 28.4375C158.25 27.6563 157.938 27.6563 157.625 27.5Z" fill="white"/>
</svg>
